<?xml version="1.0" encoding="UTF-8"?>
<svg id="Layer_1" data-name="Layer 1" xmlns="http://www.w3.org/2000/svg" xmlns:xlink="http://www.w3.org/1999/xlink" viewBox="0 0 806 403">
  <defs>
    <style>
      .cls-1 {
        fill: #fff;
      }

      .cls-1, .cls-2 {
        stroke: #2d5137;
        stroke-miterlimit: 10;
      }

      .cls-2 {
        fill: url(#linear-gradient);
        filter: url(#drop-shadow-1);
        stroke-width: 4px;
      }

      .cls-3 {
        fill: none;
        opacity: 0;
      }
    </style>
    <linearGradient id="linear-gradient" x1="400.266" y1="-87.407" x2="404.562" y2="366.562" gradientUnits="userSpaceOnUse">
      <stop offset=".436" stop-color="#2fbb7d"/>
      <stop offset=".664" stop-color="#02b36c"/>
      <stop offset=".838" stop-color="#1b6d47"/>
    </linearGradient>
    <filter id="drop-shadow-1" filterUnits="userSpaceOnUse">
      <feOffset dx="0" dy="9"/>
      <feGaussianBlur result="blur" stdDeviation="5"/>
      <feFlood flood-color="#51735a" flood-opacity="1"/>
      <feComposite in2="blur" operator="in"/>
      <feComposite in="SourceGraphic"/>
    </filter>
  </defs>
  <g id="Button">
    <rect class="cls-3" width="806" height="403"/>
    <rect id="Button-2" data-name="Button" class="cls-2" x="164.5" y="109.5" width="477" height="184" rx="57.25" ry="57.25"/>
    <g id="Text">
      <path class="cls-1" d="m268.177,226.71c0,4.329-2.164,6.493-6.493,6.493h-22.342c-4.208,0-6.312-2.164-6.312-6.493v-58.034c0-4.359,2.149-6.539,6.448-6.539h22.206c4.329,0,6.493,2.18,6.493,6.539v15.167h-10.671v-12.579h-13.851v52.812h13.851v-19.89h-7.901v-9.037h18.572v31.561Z"/>
      <path class="cls-1" d="m286.704,180.755h-10.398v-10.717h10.398v10.717Zm-.091,52.448h-10.217v-45.864h10.217v45.864Z"/>
      <path class="cls-1" d="m325.394,187.339l-11.716,45.955h-9.944l-11.716-45.955h10.671l6.04,30.152,6.039-30.152h10.626Z"/>
      <path class="cls-1" d="m360.178,227.527c0,3.784-1.952,5.676-5.857,5.676h-17.938c-3.905,0-5.857-1.892-5.857-5.676v-34.512c0-3.784,1.952-5.677,5.857-5.677h17.938c3.905,0,5.857,1.893,5.857,5.677v16.847l-2.86,2.861h-16.848v12.851h9.764v-7.629h9.944v9.582Zm-9.944-21.57v-10.989h-9.764v10.989h9.764Z"/>
      <path class="cls-1" d="m423.253,226.71c0,4.329-2.15,6.493-6.449,6.493h-23.067c-4.208,0-6.312-2.164-6.312-6.493v-58.034c0-4.359,2.104-6.539,6.312-6.539h23.067c4.299,0,6.449,2.18,6.449,6.539v58.034Zm-10.627-2.634v-52.812h-14.576v52.812h14.576Z"/>
      <path class="cls-1" d="m461.851,233.203h-10.444v-37.19l-9.763.182v37.009h-10.399v-45.864h10.399v1.681c2.421-.394,4.828-.772,7.22-1.136,2.967-.483,5.403-.727,7.312-.727,3.783,0,5.676,1.862,5.676,5.586v40.46Z"/>
      <path class="cls-1" d="m479.788,233.203h-10.217v-71.066h10.217v71.066Z"/>
      <path class="cls-1" d="m498.089,180.755h-10.399v-10.717h10.399v10.717Zm-.092,52.448h-10.217v-45.864h10.217v45.864Z"/>
      <path class="cls-1" d="m536.323,233.203h-10.444v-37.19l-9.763.182v37.009h-10.399v-45.864h10.399v1.681c2.421-.394,4.828-.772,7.22-1.136,2.967-.483,5.403-.727,7.312-.727,3.783,0,5.676,1.862,5.676,5.586v40.46Z"/>
      <path class="cls-1" d="m573.425,227.527c0,3.784-1.953,5.676-5.858,5.676h-17.937c-3.906,0-5.858-1.892-5.858-5.676v-34.512c0-3.784,1.952-5.677,5.858-5.677h17.937c3.905,0,5.858,1.893,5.858,5.677v16.847l-2.861,2.861h-16.848v12.851h9.764v-7.629h9.945v9.582Zm-9.945-21.57v-10.989h-9.764v10.989h9.764Z"/>
    </g>
  </g>
</svg>