<?xml version="1.0" encoding="UTF-8"?>
<svg id="Bird" xmlns="http://www.w3.org/2000/svg" version="1.1" viewBox="0 0 796 796">
  <defs>
    <style>
      .cls-1 {
        fill: #265039;
      }

      .cls-1, .cls-2 {
        stroke: #000;
        stroke-miterlimit: 10;
      }

      .cls-1, .cls-3 {
        display: none;
      }

      .cls-4 {
        fill: #231f20;
      }

      .cls-4, .cls-5 {
        stroke-width: 0px;
      }

      .cls-5, .cls-2 {
        fill: #fff;
      }

      .cls-2 {
        stroke-width: 20px;
      }
    </style>
  </defs>
  <g id="Background" class="cls-3">
    <rect class="cls-1" x="98" y="98" width="600" height="600"/>
  </g>
  <circle class="cls-2" cx="398" cy="398" r="388"/>
  <g id="Bird-White" class="cls-3">
    <path id="Bird_eye_lg" data-name="Bird eye lg" class="cls-5" d="M537.7,576.8c-2.9-6.2-11.5-9.1-14.9-9.1-10.1-1-9.1,4.8,0,15.8,13.9,17.4,19.2,2,14.9-6.7Z"/>
    <path id="Bird2" class="cls-5" d="M231.4,355.5c25.9,20.6,63.9,49.9,135.9,49.9s1-2.4-1-3.8c-178.6-122.5-145.5-230-145.5-246.8s-25,32.2-24.5,60c-1.9,86.4,79.7,151.7,78.7,151.7-30.2-7.7-69.6-53.8-83.1-74.9-.5-1-3.4-2.9-1.4,2.9,2.4,9.6,12.5,36,40.9,61Z"/>
    <path id="Bird1" class="cls-5" d="M568.4,278.2c-26.9-13.9-61-21.1-52.8-15.8.5.5,95.5,66.3,122.4,113.3,41.3,72.5-7.2,152.2-23,157-1,.5-.5-4.3-.5-10.6,2.9-65.3-58.6-127.2-65.3-133-16.8-13.4-32.2-25-46.6-35.1,14.4-8.2,23.5-35.1,15.8-53.3-11.5-28.3-31.2-39.9-41.8-45.1-2.4-1.4-8.6-3.4-5.3,1.9,18.7,24.5,4.8,66.7-23,59.5-2.4-1.4-4.3-3.4-6.7-4.8-20.2-19.2-49.9-67.2-11.5-156.5,1-1,.5-4.3-3.4.5-6.7,8.2-22.6,30.7-27.8,69.1-1.4,14.4-1.9,25.4-1,34.1-8.6-24.5-16.8-74.9,24.5-140.2-11-6.7-149.8,128.7,17.3,234.8,81.1,51.4,111.4,85,121.5,104.2,21.6,41.3,24,97,7.7,130.6-12.5,25.9-33.1,57.1-35.5,52.3-5.8-11.5-2.4-49-66.3-72-87.9-31.6-239.6,17.3-300.1-113.3-29.8-57.6-6.2-134.9-1.4-158.5.5-3.8-46.1,14.9-56.2,72.5-9.1,42.3-15.8,146.1,107.1,197,67.7,27.8,145.5,24.5,199.7,24.5,106.1,0,100.8,68.2,110.4,85,.5.5.5,1.4,1.9,0,11.5-12,55.2-66.7,84-93.6,178.7-168.6,2.9-280.5-44.1-304.5Z"/>
  </g>
  <g id="Bird-Gray">
    <path id="Bird_eye_lg-2" data-name="Bird eye lg" class="cls-4" d="M537.7,576.8c-2.9-6.2-11.5-9.1-14.9-9.1-10.1-1-9.1,4.8,0,15.8,13.9,17.4,19.2,2,14.9-6.7Z"/>
    <path id="Bird2-2" data-name="Bird2" class="cls-4" d="M231.4,355.5c25.9,20.6,63.9,49.9,135.9,49.9s1-2.4-1-3.8c-178.6-122.5-145.5-230-145.5-246.8s-25,32.2-24.5,60c-1.9,86.4,79.7,151.7,78.7,151.7-30.2-7.7-69.6-53.8-83.1-74.9-.5-1-3.4-2.9-1.4,2.9,2.4,9.6,12.5,36,40.9,61Z"/>
    <path id="Bird1-2" data-name="Bird1" class="cls-4" d="M568.4,278.2c-26.9-13.9-61-21.1-52.8-15.8.5.5,95.5,66.3,122.4,113.3,41.3,72.5-7.2,152.2-23,157-1,.5-.5-4.3-.5-10.6,2.9-65.3-58.6-127.2-65.3-133-16.8-13.4-32.2-25-46.6-35.1,14.4-8.2,23.5-35.1,15.8-53.3-11.5-28.3-31.2-39.9-41.8-45.1-2.4-1.4-8.6-3.4-5.3,1.9,18.7,24.5,4.8,66.7-23,59.5-2.4-1.4-4.3-3.4-6.7-4.8-20.2-19.2-49.9-67.2-11.5-156.5,1-1,.5-4.3-3.4.5-6.7,8.2-22.6,30.7-27.8,69.1-1.4,14.4-1.9,25.4-1,34.1-8.6-24.5-16.8-74.9,24.5-140.2-11-6.7-149.8,128.7,17.3,234.8,81.1,51.4,111.4,85,121.5,104.2,21.6,41.3,24,97,7.7,130.6-12.5,25.9-33.1,57.1-35.5,52.3-5.8-11.5-2.4-49-66.3-72-87.9-31.6-239.6,17.3-300.1-113.3-29.8-57.6-6.2-134.9-1.4-158.5.5-3.8-46.1,14.9-56.2,72.5-9.1,42.3-15.8,146.1,107.1,197,67.7,27.8,145.5,24.5,199.7,24.5,106.1,0,100.8,68.2,110.4,85,.5.5.5,1.4,1.9,0,11.5-12,55.2-66.7,84-93.6,178.7-168.6,2.9-280.5-44.1-304.5Z"/>
  </g>
</svg>