<?xml version="1.0" encoding="UTF-8"?>
<svg id="Layer_1" data-name="Layer 1" xmlns="http://www.w3.org/2000/svg" version="1.1" viewBox="0 0 572.1 130.1">
  <defs>
    <style>
      .cls-1 {
        fill: #9f459a;
      }

      .cls-1, .cls-2, .cls-3, .cls-4, .cls-5, .cls-6, .cls-7, .cls-8 {
        stroke-width: 0px;
      }

      .cls-1, .cls-9, .cls-3, .cls-4, .cls-10 {
        display: none;
      }

      .cls-2 {
        fill: #231f20;
      }

      .cls-11 {
        fill: #69ac80;
        stroke: #fff;
      }

      .cls-11, .cls-12, .cls-13 {
        stroke-width: 2px;
      }

      .cls-11, .cls-14, .cls-15 {
        stroke-miterlimit: 10;
      }

      .cls-9 {
        opacity: .8;
      }

      .cls-3, .cls-8 {
        fill: #fff;
      }

      .cls-4 {
        fill: #000;
      }

      .cls-5, .cls-12, .cls-14 {
        fill: none;
      }

      .cls-6, .cls-15, .cls-13 {
        fill: #010101;
      }

      .cls-7 {
        fill: #040305;
      }

      .cls-12, .cls-15, .cls-13 {
        stroke: #010101;
      }

      .cls-12, .cls-13 {
        stroke-linecap: round;
        stroke-linejoin: round;
      }

      .cls-14 {
        stroke: #231f20;
        stroke-width: 1.8px;
      }
    </style>
  </defs>
  <rect id="Buttton" class="cls-11" x="1" y="1" width="570.1" height="128.1" rx="24.4" ry="24.4"/>
  <g id="Desktop_Links" data-name="Desktop Links">
    <g>
      <path class="cls-2" d="M44.8,39h9.2l14.5,44.5h-8.3l-6.8-23.7c-1.4-4.7-2.7-9.8-4-14.7h-.3c-1.2,4.9-2.5,10-3.9,14.7l-6.8,23.7h-8.1l14.5-44.5ZM38.8,65.2h20.9v6.2h-20.9v-6.2Z"/>
      <path class="cls-2" d="M73.6,39h14c9.9,0,17.2,3.4,17.2,13.7s-7.3,14.4-16.9,14.4h-6.4v16.3h-7.9v-44.5ZM87.2,60.8c6.6,0,9.8-2.6,9.8-8.1s-3.5-7.4-10.1-7.4h-5.5v15.5h5.7Z"/>
      <path class="cls-2" d="M126.8,39h8.1l13.8,25,4.6,9.5h.3c-.4-4.6-1-10.2-1-15.2v-19.3h7.5v44.5h-8.1l-13.8-25-4.6-9.5h-.3c.4,4.7,1,10.1,1,15v19.5h-7.5v-44.5Z"/>
      <path class="cls-2" d="M168.9,74.5c0-7.2,5.9-10.9,19.6-12.3-.1-3.6-1.6-6.6-6.1-6.6s-6.4,1.5-9.4,3.3l-2.9-5.2c3.7-2.3,8.4-4.4,13.7-4.4,8.3,0,12.5,5.1,12.5,14.4v19.8h-6.4l-.6-3.7h-.2c-3,2.6-6.4,4.5-10.4,4.5-5.8,0-9.9-4-9.9-9.8ZM188.6,74.5v-7.5c-9.1,1.1-12.1,3.5-12.1,6.9s2,4.2,4.8,4.2,4.8-1.3,7.3-3.6Z"/>
      <path class="cls-2" d="M203.2,79.3l15.7-23h-14v-6.2h23.8v4.2l-15.7,23h16.3v6.2h-26.1v-4.2Z"/>
      <path class="cls-2" d="M250.2,39h15c9.2,0,16.4,3.3,16.4,13.2s-7.1,13.9-16.4,13.9h-7.1v17.4h-7.9v-44.5ZM264.4,59.8c6.1,0,9.4-2.5,9.4-7.6s-3.3-6.9-9.4-6.9h-6.3v14.5h6.3ZM263.7,64l5.7-4.7,13.9,24.2h-8.9l-10.7-19.5Z"/>
      <path class="cls-2" d="M286.9,66.8c0-10.9,7.5-17.5,15.4-17.5s13.8,6.5,13.8,15.9-.2,3-.3,3.8h-21.2c.7,5.9,4.5,9.3,9.8,9.3s5.3-.9,7.8-2.4l2.7,4.9c-3.2,2.1-7.2,3.6-11.5,3.6-9.2,0-16.5-6.5-16.5-17.5ZM309.3,63.6c0-5.1-2.3-8.3-6.9-8.3s-7.3,2.9-8,8.3h14.8Z"/>
      <path class="cls-2" d="M320.3,79.6l3.6-5c3,2.3,5.8,3.7,9.2,3.7s5.4-1.7,5.4-4-3.6-4.1-7.2-5.4c-4.4-1.6-9.4-4.2-9.4-9.7s4.7-10,12.2-10,8.4,1.9,11.1,4l-3.6,4.8c-2.3-1.7-4.7-2.9-7.3-2.9s-5,1.6-5,3.7,3.4,3.6,7,5c4.5,1.7,9.6,3.9,9.6,10.1s-4.5,10.4-13,10.4-9.4-2-12.6-4.7Z"/>
      <path class="cls-2" d="M350.7,66.8c0-11.1,7.6-17.5,15.9-17.5s15.9,6.4,15.9,17.5-7.6,17.5-15.9,17.5-15.9-6.4-15.9-17.5ZM374.4,66.8c0-6.7-2.9-11.2-7.8-11.2s-7.8,4.5-7.8,11.2,2.9,11.1,7.8,11.1,7.8-4.4,7.8-11.1Z"/>
      <path class="cls-2" d="M389.8,71v-20.9h7.8v19.9c0,5.5,1.6,7.6,5.2,7.6s4.9-1.4,7.4-4.6v-22.9h7.8v33.4h-6.4l-.6-4.9h-.2c-2.9,3.5-6.2,5.7-10.7,5.7-7.2,0-10.3-4.8-10.3-13.3Z"/>
      <path class="cls-2" d="M428,50.1h6.4l.6,6h.2c2.4-4.4,5.9-6.8,9.5-6.8s2.8.2,3.8.7l-1.4,6.8c-1.2-.3-2-.5-3.4-.5-2.7,0-5.9,1.8-7.9,6.9v20.4h-7.8v-33.4Z"/>
      <path class="cls-2" d="M450.5,66.8c0-11.1,7.9-17.5,16.8-17.5s7.3,1.6,9.8,3.8l-3.8,5.1c-1.8-1.5-3.5-2.4-5.5-2.4-5.4,0-9.1,4.5-9.1,11.2s3.7,11.1,8.9,11.1,5-1.3,6.9-2.9l3.2,5.2c-3.1,2.8-7.1,4.1-10.9,4.1-9.1,0-16.1-6.4-16.1-17.5Z"/>
      <path class="cls-2" d="M480.3,66.8c0-10.9,7.5-17.5,15.4-17.5s13.8,6.5,13.8,15.9-.2,3-.3,3.8h-21.2c.7,5.9,4.5,9.3,9.8,9.3s5.3-.9,7.8-2.4l2.7,4.9c-3.2,2.1-7.2,3.6-11.5,3.6-9.2,0-16.5-6.5-16.5-17.5ZM502.7,63.6c0-5.1-2.3-8.3-6.9-8.3s-7.3,2.9-8,8.3h14.8Z"/>
      <path class="cls-2" d="M514.1,79.3l15.7-23h-14v-6.2h23.8v4.2l-15.7,23h16.3v6.2h-26.1v-4.2Z"/>
    </g>
    <g id="Links" class="cls-10">
      <path id="Outline" class="cls-7" d="M213.7,41.5c-2.2-2.2-5.1-3.4-8.2-3.4s-6,1.2-8.2,3.4l-8.2,8.2c-1.1,1.1-1.3,2.7-.7,4.1-2.5.3-4.9,1.5-6.7,3.3l-16.4,16.4c-2.2,2.2-3.4,5.1-3.4,8.2s1.2,6,3.4,8.2c2.2,2.2,5.1,3.4,8.2,3.4s6-1.2,8.2-3.4l8.2-8.2c.7-.7,1.1-1.6,1.1-2.6s-.1-1.1-.3-1.5c2.5-.3,4.8-1.5,6.7-3.3l16.4-16.4c2.2-2.2,3.4-5.1,3.4-8.2s-1.2-6-3.4-8.2ZM208.6,52.7l-16.4,16.4c-.8.8-1.9,1.3-3.1,1.3s-2.2-.4-3.1-1.3c-.7-.7-1.6-1.1-2.6-1.1s-1.9.4-2.6,1.1c-.7.7-1.1,1.6-1.1,2.6s.4,1.9,1.1,2.6c1.1,1.1,2.3,1.9,3.7,2.5l-8,8c-.8.8-1.9,1.3-3.1,1.3s-2.2-.4-3.1-1.3-1.3-1.9-1.3-3.1.4-2.2,1.3-3.1l16.4-16.4c.8-.8,1.9-1.3,3.1-1.3s2.2.4,3.1,1.3c.7.7,1.6,1.1,2.5,1.1s1.9-.4,2.6-1.1c.7-.7,1.1-1.6,1.1-2.6s-.4-1.9-1.1-2.6c-1.1-1.1-2.3-1.9-3.7-2.5l8-8c.8-.8,1.9-1.3,3.1-1.3s2.2.4,3.1,1.3c.8.8,1.3,1.9,1.3,3.1s-.5,2.2-1.3,3.1Z"/>
      <path id="Lower" class="cls-8" d="M186.5,78.2l-8.2,8.2c-1.3,1.3-3,2-4.8,2s-3.5-.7-4.8-2-2-3-2-4.8.7-3.5,2-4.8l16.4-16.4c1.3-1.3,3-2,4.8-2s3.5.7,4.8,2,1.2.5,1.7,0c.5-.5.5-1.2,0-1.7-1.7-1.7-4-2.7-6.5-2.7s-4.8,1-6.5,2.7l-16.4,16.4c-1.7,1.7-2.7,4-2.7,6.5s1,4.8,2.7,6.5c1.7,1.7,4,2.7,6.5,2.7s4.8-1,6.5-2.7l8.2-8.2c.5-.5.5-1.2,0-1.7s-1.2-.5-1.7,0Z"/>
      <path id="Upper" class="cls-8" d="M212,43.2c-3.6-3.6-9.4-3.6-13,0l-8.2,8.2c-.5.5-.5,1.2,0,1.7s1.2.5,1.7,0l8.2-8.2c2.6-2.6,6.9-2.6,9.5,0,1.3,1.3,2,3,2,4.8s-.7,3.5-2,4.8l-16.4,16.4c-2.6,2.6-6.9,2.6-9.5,0s-1.2-.5-1.7,0-.5,1.2,0,1.7c1.8,1.8,4.1,2.7,6.5,2.7s4.7-.9,6.5-2.7l16.4-16.4c1.7-1.7,2.7-4,2.7-6.5s-1-4.8-2.7-6.5Z"/>
    </g>
    <g id="Cross" class="cls-10">
      <path id="Cross-White" class="cls-3" d="M97.8,95h-11.4v-40.2h-15v-10.2h15v-13.2h11.4v13.2h15.3v10s-15.2,0-15.2,0c0,0,0,40.5,0,40.5ZM89.3,92.3h5.2v-40.5h15.7v-4.3h-15.7v-13.7h-5v13.6h-15.5v4.3h15.3v40.5Z"/>
      <path id="Cross-Black" class="cls-6" d="M97.5,94.8h-11.4v-40.2h-15v-10.2h15v-13.2h11.4v13.2h15.3v10h-15.3v40.5ZM89.1,92h5.2v-40.5h15.7v-4.3h-15.7v-13.6h-5v13.6h-15.5v4.3h15.3v40.5h0Z"/>
    </g>
    <path id="WWW" class="cls-4" d="M87.7,94.9c-15.5.3-29.9-12.3-29.8-29.8,0-17.3,14.1-29.8,29.8-29.8,16.5,0,29.7,13.3,29.7,30,0,16.6-13.8,29.8-29.7,29.6ZM109.7,66.2s0,0,0,0c-1.4,0-2.8,0-4.1,0-.8,0-1.3.4-1.4,1.2-.3,3.1-.5,6.1-1.2,9.1-.2.8.2,1.4.9,1.6,1.8.6,3.5,1.4,5.2,2.3.8.4,1.5.3,1.9-.5.5-.9,1.1-1.7,1.5-2.6,1.4-3,2.5-6,2.7-9.3.1-1.5-.2-1.8-1.7-1.8-1.3,0-2.5,0-3.8,0ZM65.6,66.2h0c-1.3,0-2.6,0-4,0-1.3,0-1.6.4-1.5,1.7.5,4.3,1.8,8.3,4.2,12,.7,1.1,1.1,1.2,2.2.5,1.5-.8,3.1-1.5,4.6-2.1,1.2-.5,1.4-.8,1.2-2-.4-2.8-1-5.6-1.1-8.4,0-1.4-.4-1.7-1.9-1.7-1.3,0-2.5,0-3.8,0ZM109.6,64h0c1.3,0,2.6,0,4,0,1.4,0,1.6-.3,1.6-1.7,0-1.5-.5-2.9-.8-4.2-.7-2.7-1.8-5.2-3.3-7.6-.5-.7-1-1.3-2-.8-1.6.9-3.4,1.7-5.1,2.3-.8.3-1.2.8-1,1.7.7,2.9.8,5.8,1.2,8.8.2,1.2.4,1.4,1.7,1.5,1.3,0,2.5,0,3.8,0ZM65.6,64s0,0,0,0c1.3,0,2.5,0,3.8,0,1.6,0,1.9-.2,2-1.8,0-2.8.6-5.5,1.1-8.2.2-1.1-.2-1.7-1.1-2-1.7-.6-3.4-1.3-5-2.2-.7-.4-1.3-.3-1.8.4-2.4,3.7-3.9,7.8-4.3,12.3,0,1.1.2,1.5,1.4,1.5,1.3,0,2.6,0,3.9,0ZM95.4,66.2c-1.6,0-3.1,0-4.7,0-1.6,0-1.9.3-2,1.8,0,1.9,0,3.9,0,5.9,0,1.3.3,1.6,1.5,1.7,2.9.4,5.9.6,8.8,1.2,1.2.3,1.5,0,1.8-1.3.7-2.4.8-5,1-7.5.1-1.4-.3-1.8-1.7-1.8-1.6,0-3.1,0-4.7,0ZM86.5,71s0,0,0,0c0-1.1,0-2.3,0-3.4,0-.9-.5-1.4-1.4-1.4-3.4,0-6.8,0-10.2,0-1.2,0-1.4.3-1.4,1.5,0,2.7.4,5.3,1,7.8.3,1.2.6,1.5,1.9,1.2,2.9-.6,5.8-.9,8.8-1.2,1,0,1.4-.6,1.4-1.6,0-1,0-2,0-3ZM95.2,64c1.7,0,3.4,0,5.1,0,1.3,0,1.6-.4,1.6-1.6-.2-2.7-.3-5.4-1.1-8-.3-.9-.8-1.2-1.7-1-2.9.7-5.9,1-8.9,1.2-1,0-1.5.6-1.5,1.6,0,2.1,0,4.1,0,6.2,0,1.3.4,1.5,1.6,1.6,1.6,0,3.3,0,4.9,0ZM80,64s0,0,0,0c1.6,0,3.3,0,4.9,0,1.3,0,1.5-.2,1.6-1.6,0-2,0-4,0-6,0-1.5-.2-1.7-1.8-1.8-2.8-.3-5.6-.5-8.4-1.2-1.2-.3-1.6,0-1.9,1.2-.5,2.5-1,5.1-1,7.6,0,1.4.2,1.6,1.7,1.7,1.6,0,3.3,0,4.9,0ZM88.7,85.1h0c0,1.6,0,3.1,0,4.7,0,.8-.4,1.9.6,2.4,1,.5,1.8-.3,2.6-.8,4-2.6,6.1-6.5,7.6-10.9.4-1.1,0-1.4-1.1-1.7-2.5-.7-5.1-.9-7.6-1-1.6,0-1.9.2-2,1.8,0,1.8,0,3.6,0,5.5ZM88.7,45h0c0,1.9,0,3.8,0,5.7,0,1.4.4,1.8,1.8,1.7,2.5-.2,5-.4,7.5-1,1.7-.4,1.8-.7,1.3-2.2-1.1-3-2.6-5.9-4.8-8.3-1-1.1-2.1-2-3.4-2.6-1.7-.8-2.3-.4-2.3,1.4,0,1.8,0,3.5,0,5.3ZM86.5,45.2s0,0,0,0c0-1.9,0-3.9,0-5.8,0-1.5-.5-1.8-1.9-1.2-1,.4-1.9,1-2.7,1.7-3,2.6-4.7,6-6,9.6-.4,1-.1,1.4,1,1.8,2.5.7,5.1.8,7.6,1.1,1.7.2,2-.2,2-1.9,0-1.8,0-3.5,0-5.3ZM86.5,85.4h0c0-2,0-3.9,0-5.9,0-1.4-.3-1.7-1.7-1.6-2.6.1-5.3.4-7.8,1-1.2.3-1.5.7-1,1.9,1.1,3.2,2.7,6.1,5,8.6,1.1,1.2,2.3,2.1,3.8,2.8,1.4.6,1.8.3,1.8-1.1,0-1.9,0-3.8,0-5.7ZM96.9,39.1c-.3.8,0,1.2.3,1.6.9,1.1,1.7,2.4,2.3,3.6.8,1.4,1.4,2.9,2,4.5.4,1.2.8,1.4,2,1,1.4-.4,2.7-1,3.9-1.8,1-.6,1.1-1,.3-1.9-1.2-1.3-2.5-2.4-4-3.5-2.1-1.5-4.3-2.7-6.9-3.6ZM78.7,90.7c-.3-1.1-1.2-1.8-1.7-2.7-1.2-2-2.3-4.2-3.1-6.4-.6-1.5-.9-1.6-2.4-1.1-1.1.4-2.1.9-3.1,1.4-1.6.8-1.7,1.3-.5,2.5,2.7,2.8,5.9,4.9,9.5,6.4.3.1.7.3,1.3,0ZM78.6,39.4c-.1,0-.2-.2-.3-.1-4.2,1.4-7.7,3.8-10.7,7.1-.7.7-.5,1.2.4,1.8,1.1.7,2.2,1.1,3.4,1.6,1.8.6,1.9.6,2.6-1.2,1.1-2.9,2.5-5.6,4.4-8,.2-.3.4-.6.2-1ZM96.8,90.8c.3.3.6.2.9.1,3.9-1.5,7.2-3.8,10-6.8.8-.8.7-1.3-.4-1.9-1.2-.6-2.4-1.2-3.6-1.6-1.5-.6-1.9-.3-2.4,1.1-1,2.8-2.3,5.4-4.1,7.8-.3.4-.7.8-.5,1.3Z"/>
    <g id="Schedule" class="cls-9">
      <path id="Outline-2" data-name="Outline" class="cls-6" d="M102.2,71v-23.4c0-2.2-1.9-4-4.1-4h-8.3v-4h-4.1v4h-16.6v-4h-4.1v4h-8.3c-2.3,0-4.1,1.8-4.1,4v40.1c0,2.2,1.9,4,4.1,4h20.1c2.9,2.4,6.8,4,11,4,9.1,0,16.6-7.2,16.6-16s-.4-5-2.1-8.6ZM56.6,87.6v-40h8.3v4h4.1v-4h16.6v4h4.1v-4h8.3v19.4c-2.7-2-6.6-3.4-10.3-3.4-9.1,0-16.6,7.2-16.6,16s.8,5.6,2.3,8h-16.8ZM87.7,91.6c-6.8,0-12.4-5.4-12.4-12s5.6-12,12.4-12,12.4,5.4,12.4,12-5.6,12-12.4,12Z"/>
      <polygon id="Clock_Hands" data-name="Clock Hands" class="cls-6" points="89.7 72.2 85.6 72.2 85.6 81 90.8 86.2 93.6 83.4 89.7 79.4 89.7 72.2"/>
    </g>
    <g id="Prayer" class="cls-10">
      <path class="cls-14" d="M69.8,40.7c0-.1-.1-.1-.2-.2-.7-.6-1.4-1.2-2.2-1.7-1.3-.9-2.8-1.6-4.3-2.1-1.1-.3-2.1-.5-3.3-.6-.6,0-1.3,0-1.9,0-.9,0-1.7.2-2.6.4-2.2.6-4,1.6-5.6,3.1-1.1,1.1-2,2.4-2.7,3.8-.3.7-.6,1.5-.8,2.2-.1.5-.2,1-.2,1.4,0,.6-.1,1.1,0,1.7,0,.7,0,1.4.2,2.1.1.8.3,1.6.6,2.4.8,2.4,2,4.5,3.6,6.5,1.3,1.6,2.7,3.1,4.2,4.4,1.1.9,2.2,1.9,3.4,2.7.2.1.4.3.6.4"/>
      <path class="cls-14" d="M87.2,91c0,0,0-.2,0-.2-1-1.9-2-3.9-3.1-5.7-.4-.7-.8-1.3-1-2.1-.1-.4-.2-.8-.2-1.1-.1-.7-.3-1.4-.7-2.1-.4-.6-.6-1.3-.8-2-.2-.9-.2-1.8-.2-2.7,0-.6,0-1.3,0-1.9,0-.9,0-1.8,0-2.7,0-.9,0-1.8,0-2.7,0-.1,0-.3,0-.4,1.2-.8,2.3-1.6,3.3-2.5.9-.8,1.8-1.6,2.6-2.4,1.2-1.2,2.3-2.5,3.2-3.9,1.2-1.7,2.1-3.5,2.7-5.4.2-.7.4-1.3.5-2,0-.5.1-1,.2-1.5.1-1.1,0-2.2-.2-3.3-.3-1.5-.8-2.9-1.6-4.1-.9-1.4-2-2.6-3.4-3.6-1.4-1-3.1-1.8-4.8-2.1-1.2-.3-2.4-.3-3.7-.3-1.1,0-2.1.2-3.2.5-1.9.5-3.6,1.4-5.1,2.5-.6.4-1.1,1-1.8,1.4"/>
      <path class="cls-14" d="M63.6,55.2c-.1.2-.2.4-.3.6-.2.4-.5.7-.7,1.1-.4.7-.7,1.4-1,2.2-.3,1-.6,2.1-1.1,3.1-.5,1.2-1.1,2.3-1.7,3.5,0,.2-.2.4-.1.6-.3.3-.2.7-.4,1.1,0,.2,0,.3,0,.5,0,.8,0,1.6,0,2.4,0,1.5,0,3,0,4.6,0,.7-.1,1.4-.2,2.1-.2,1-.4,2-.6,3-.2.7-.4,1.3-.8,2-.5.8-.7,1.7-1,2.5-.4,1.2-.8,2.5-1.4,3.6-.6,1.1-1.2,2.1-2,3.1,0,0-.2.1-.2.3"/>
      <path class="cls-14" d="M84.4,40.7c.3.2.5.4.7.6,1,1.1,1.7,2.4,2.1,3.8.2.7.4,1.4.5,2.1,0,.5,0,.9.1,1.4,0,.6,0,1.3,0,1.9,0,.6-.1,1.3-.3,1.9-.2.6-.3,1.3-.6,1.9-.6,1.5-1.4,2.8-2.4,4.1,0,0,0,.2-.2.2"/>
      <path class="cls-14" d="M69.8,77.6c-.2.2-.2.5-.2.7-.2,1.2-.7,2.2-1.6,3.1-.8.7-1.2,1.6-1.5,2.5-.2.5-.4,1.1-.6,1.6-.8,2.1-1.4,4.2-2.2,6.3,0,.1-.1.3,0,.4"/>
      <path class="cls-14" d="M69.5,64.2c-.2.2,0,.4,0,.7,0,.7,0,1.5-.2,2.2,0,.5,0,1-.1,1.6,0,.5,0,.9-.1,1.4,0,.5,0,.9,0,1.4,0,0,0,.2,0,.2"/>
      <path class="cls-14" d="M69.3,72.1c.1.1.3.2.5.3,0,.3,0,.6-.1.9"/>
      <path class="cls-14" d="M69.7,74.1c0,.9.1,1.8.2,2.7,0,.1,0,.3,0,.4"/>
      <path class="cls-14" d="M70,77.7c.3.5.5,1,.8,1.5.3.4.7.8,1,1.2.5.7.8,1.5,1.2,2.2.7,1.6,1.4,3.2,2.1,4.9.4,1,.9,1.9,1.2,2.9,0,0,0,.2,0,.3"/>
      <path class="cls-14" d="M107.1,50.3s0,0,0,0c-3.8,0-7.6,0-11.4,0,0,0-.1,0-.2,0"/>
      <path class="cls-14" d="M69.8,26.4c0,0,0,.2,0,.3,0,3.5,0,6.9,0,10.4"/>
      <path class="cls-14" d="M43.5,50.3c-1.9-.2-3.8-.4-5.8-.6-1.8-.2-3.6-.4-5.4-.6"/>
      <path class="cls-14" d="M76.2,55.2c.2,0,.4-.1.6,0,.2.3.4.7.6,1,.4.6.7,1.3.8,2,.2.6.3,1.3.5,1.9.2.8.6,1.6.9,2.4.3.7.6,1.3,1,2,.4.7.5,1.3.5,2.1,0,.3,0,.5,0,.8"/>
      <path class="cls-14" d="M69.5,61c0,.3,0,.7,0,1,0,.4,0,.9,0,1.3"/>
      <path class="cls-14" d="M69.7,64.2c.2.5.2,1.1.3,1.6.1.8.3,1.6.4,2.4,0,.3,0,.7.1,1,0,.5-.1,1-.2,1.5-.1.4-.2.9-.3,1.3,0,.1,0,.2-.1.3"/>
      <path class="cls-14" d="M90.8,62c2.9,1.9,5.9,3.8,8.8,5.7"/>
      <path class="cls-14" d="M73.3,61.2c.2.2.3.4.3.7.2.7.4,1.5.5,2.2.3,1.2.6,2.4,1,3.6.2.5.2,1.1.6,1.5-.1.3,0,.5.2.7.4.9.9,1.7,1.3,2.6.4.8.6,1.7.8,2.6,0,0,0,.1,0,.2"/>
      <path class="cls-14" d="M68.3,46.8c.6,0,1.1.2,1.4.7.4.5.5,1.1.6,1.7,0,.6,0,1.2-.2,1.9-.1.7-.3,1.4-.4,2.2,0,.1,0,.3,0,.4"/>
      <path class="cls-14" d="M69.8,53.9c.2.6.4,1.2.6,1.8.1.3.3.7.4,1,.1.6.3,1.1.5,1.7,0,0,0,.1,0,.2"/>
      <path class="cls-14" d="M51.2,52.9c.1.6.4,1.1.7,1.6.6,1.2,1.2,2.3,2,3.4.7.9,1.4,1.8,2.2,2.6,0,0,.1,0,.2,0"/>
      <path class="cls-14" d="M103.8,53.8c-1,0-1.9-.1-2.9-.2-1,0-2-.2-3-.2-.6,0-1.3-.1-1.9-.1-.2,0-.3,0-.5,0"/>
      <path class="cls-14" d="M47.5,60.3c-.5.2-1,.3-1.5.4-1.2.3-2.3.6-3.5.9-.9.2-1.8.5-2.8.7,0,0-.2,0-.3,0"/>
      <path class="cls-14" d="M87.2,26.8c-.3.8-.6,1.6-.9,2.3-.6,1.6-1.2,3.2-1.8,4.7,0,0,0,0,0,.1"/>
      <path class="cls-14" d="M65.6,62.6c-.2.3-.2.6-.3.9-.3,1.1-.6,2.2-.9,3.3-.2.7-.4,1.3-.6,2-.1.4-.3.7-.5,1,.1.3,0,.5-.1.7-.3.7-.6,1.3-1,2-.6,1.2-1,2.4-1.3,3.7,0,0,0,.1,0,.2"/>
      <path class="cls-14" d="M55.1,68.7c-.2,0-.3.2-.5.4-2.2,2.1-4.5,4.1-6.7,6.2-.1.1-.3.3-.4.4"/>
      <path class="cls-14" d="M41.5,31.1c2.1,2.1,4.2,4.2,6.3,6.3,0,0,0,0,.1,0"/>
      <path class="cls-14" d="M73.8,49.5c.1,0,.3,0,.4-.1.2,0,.2.2.3.3.4.9.8,1.9,1.1,2.8.2.6.5,1.2.8,1.8.1.2.2.4.3.6,0,0,0,.2,0,.3"/>
      <path class="cls-14" d="M72.2,30.2c0,.3,0,.6,0,.9,0,.7-.1,1.4-.2,2.1,0,.7-.1,1.3-.2,2,0,.2,0,.5,0,.7"/>
      <path class="cls-14" d="M99.6,36.5c-.5.2-1,.5-1.5.8-1.4.8-2.9,1.6-4.3,2.3,0,0,0,0-.1.1"/>
      <path class="cls-14" d="M70.1,47.7c.2-.2.2-.5.4-.7-.1-.2-.1-.4-.1-.7,0-.5,0-1,0-1.5,0-.3-.2-.5-.4-.7-.4-.1-.7-.3-1.1-.2,0,0-.1,0-.2,0-.1-.1-.2-.2-.4-.2-.2.2-.2.5-.3.8-.2.6-.4,1.2-.7,1.8,0,.1,0,.2,0,.3"/>
      <path class="cls-14" d="M67.3,46.4c0,0,0,.2,0,.2-.4.5-.5,1.1-.7,1.7-.1.4-.1.9-.3,1.3,0,0,0,.2,0,.2-.4.5-.6,1.1-.8,1.6-.2.4-.4.9-.6,1.3,0,.2-.2.4-.4.6-.4.5-.6,1-.8,1.5,0,0,0,.2,0,.3.2.1.4,0,.6.1"/>
      <path class="cls-14" d="M73.7,52.7c.3.3.3.6.5.9.4,1,.7,1.9,1.1,2.9.3.9.8,1.6,1.3,2.3.7,1.1,1.4,2.2,2.2,3.3"/>
      <path class="cls-14" d="M60.9,29.2c0,.5.2,1,.3,1.5.2,1.1.4,2.3.6,3.4,0,.1,0,.2.2.2"/>
      <path class="cls-14" d="M92,72.5c-1.5-1-2.9-2.1-4.4-3.1-.4-.3-.9-.6-1.3-.9"/>
      <path class="cls-14" d="M70,59.9c.2.4.3.8.4,1.2,0,.3.2.6.2.9,0,.3.3.5.6.4.4,0,.8,0,1.1-.1.5,0,.8-.3.9-.8,0,0,0,0,0,0"/>
      <path class="cls-14" d="M73.1,60.1c0-.4-.2-.7-.3-1.1,0-.2-.3-.4-.5-.4-.7-.1-1.3,0-1.8.4-.3.2-.4.4-.5.8"/>
      <path class="cls-14" d="M66.2,53c0,0-.1.1-.1.2-.5,1.3-.9,2.5-1.4,3.7,0,0,0,.2,0,.3-.3.5-.6,1-.8,1.5-.6,1.1-1.3,2.3-1.9,3.4,0,0,0,0,0,.1"/>
      <path class="cls-14" d="M69.1,60.7c-.2,0-.2.2-.2.4-.1.5-.2,1.1-.4,1.6-.2.5-.5.7-1,.7-.4,0-.9-.1-1.3-.3-.2,0-.3-.3-.5-.4"/>
      <path class="cls-14" d="M69.9,59.8c-.1,0-.2.2-.3.3,0,.1,0,.2-.2.4"/>
      <path class="cls-14" d="M68.9,60.1c-.2-.4-.6-.5-.9-.6-.4,0-.9,0-1.2.1-.2.1-.4.3-.4.5-.1.6-.3,1.2-.5,1.8"/>
      <path class="cls-14" d="M99.7,46c-1.3.1-2.5.3-3.8.4-.1,0-.3,0-.4,0"/>
      <path class="cls-14" d="M54.7,67.3c-1.2.9-2.4,1.7-3.5,2.6-.2.2-.4.3-.6.5,0,0,0,0,0,0,0,0,0,0,0,0"/>
      <path class="cls-14" d="M39.4,45.8c1.4.2,2.8.4,4.2.6"/>
      <path class="cls-14" d="M39.4,52.9h4.2"/>
      <path class="cls-14" d="M67.6,46.4c.2.2.5.2.7.4-.3.9-.5,1.7-.9,2.5,0,0,0,.2-.2.2-.4.1-.4.4-.4.7-.2.9-.3,1.8-.5,2.7.1.1.3.1.5.2"/>
      <path class="cls-14" d="M72.9,49.1c.1-.2,0-.4,0-.5-.2-.7-.5-1.5-.7-2.2,0,0,0-.2-.2-.2-.1,0-.3.1-.3.2.1.8.4,1.5.7,2.2,0,.2.2.3.3.5"/>
      <path class="cls-14" d="M73.1,49.4c.2.5.3.9.3,1.4,0,.6.2,1.2.3,1.8,0,0,0,0,0,.1-.2,0-.4,0-.5.1"/>
      <path class="cls-14" d="M91.9,60.5c.8.3,1.6.8,2.4,1.1.4.2.9.4,1.3.7"/>
      <path class="cls-14" d="M89.1,31.1c-.4.7-.8,1.4-1.2,2.1-.2.4-.5.8-.6,1.2"/>
      <path class="cls-14" d="M69.9,44c.4-.4,1-.6,1.6-.5.3.6.6,1.3.9,1.9,0,.2.2.3.2.5,0,.1.1.2.3.3"/>
      <path class="cls-14" d="M73.1,46.2c.2.2.3.4.4.6.4.8.6,1.7.8,2.5,0,0,0,0,0,0"/>
      <path class="cls-14" d="M76.4,79.7c-.5.5-1.1.8-1.8,1.1-.5.2-1.1.3-1.6.4"/>
      <path class="cls-14" d="M67.8,46.5c-.3.7-.5,1.4-.7,2.1,0,.2,0,.4-.2.7,0,.1,0,.2,0,.4"/>
      <path class="cls-14" d="M71.6,43.5c0-.2.3-.2.4-.3.2,0,.2,0,.3.2.3.8.6,1.6.9,2.5,0,.1,0,.3,0,.4"/>
      <path class="cls-14" d="M69.7,53.9c-.3.2-.2.5-.2.7,0,.6,0,1.1-.1,1.7,0,.1-.1.3,0,.4"/>
      <path class="cls-14" d="M69.3,57.1c-.2.8-.4,1.5-.4,2.3,0,.1,0,.2-.1.3"/>
      <path class="cls-14" d="M63.6,81.9c.7.3,1.4.4,2.1.5.3,0,.6,0,.9,0"/>
      <path class="cls-14" d="M68.8,43.9c-.4.8-.8,1.7-1.2,2.5,0,0-.1,0-.2,0"/>
      <path class="cls-14" d="M48.7,34.4c.2.6.6,1.1.9,1.7,0,0,.1.2.2.3"/>
      <path class="cls-14" d="M73.6,65.9c-.6.2-1.3.3-1.9.5"/>
      <path class="cls-14" d="M65.4,66.9c.6.1,1.3.3,1.9.5"/>
      <path class="cls-14" d="M73,66.6c-.5,0-1,.2-1.6.3"/>
      <path class="cls-14" d="M67.5,67.8c-.5,0-.9-.2-1.4-.2,0,0,0,0-.1,0"/>
      <path class="cls-14" d="M69.2,72c0,0,0,.2,0,.3,0,.3.2.5.2.8,0,0,0,.2.2.3"/>
      <path class="cls-14" d="M63.2,69.7c-.3,0-.5.3-.8.5-.2.1-.4.3-.6.4"/>
      <path class="cls-14" d="M75.9,69.2c.2,0,.4.2.6.3.2.2.5.3.7.5"/>
      <path class="cls-14" d="M70.4,55.8c-.3,0-.3.3-.5.5-.2.2-.2.4-.5.5"/>
      <path class="cls-14" d="M71.7,46.5c-.3,0-.5.2-.8.3-.1,0-.2.2-.4.2"/>
      <path class="cls-14" d="M79.7,65c.4,0,.7.2,1.1.2"/>
      <path class="cls-14" d="M59.8,66c-.3,0-.6.2-.9.3"/>
      <path class="cls-14" d="M74.5,56.9h.8"/>
      <path class="cls-14" d="M65.4,57.2c-.3,0-.5,0-.8,0"/>
    </g>
    <g id="Members" class="cls-10">
      <path id="People" class="cls-6" d="M33.3,69.5l.2-1.5c.2-.6.6-2.7.8-4.6l.6-3.4-.4-.4c-.6-.8-.6-1.3,0-2.3.8-1.5,1.1-2.3.6-5.2-.4-2.5,0-4.2,1.3-5,.6-.2,1.3-.6,1.7-.8.8-.4,1.1-1.3,1.1-2.1s0-.6-.6-1.3c-.4-.4-.8-.6-.8-.6,0,0-.4-.2-.6-.4-.4-.2-.4-.6-.4-.8v-1c-.2-.9.2-2.1.8-2.7,1.5-1.3,2.3-1.7,3.6-1.7s1.3.2,2.1,1c.4.6,1.1,2.5,1.1,3.6s-.6,1.9-1.5,2.5c-.8.6-.8.8-.4,1.7.4.6,1.5,1,2.7,1.5,1.1.2,1.7.6,2.1,1.5.2.4.4.8.4.8,0,0,2.3-1.3,2.9-1.7.4-.2.2-.2-.2-.8-1.1-1-1.5-4-.8-5.2s2.1-2.3,3.6-2.3,1.1,0,1.5.6c.8.6,1.3,1.7,1.5,2.7,0,.4,0,.8.2,1s.2,1-.4,1.9c-.4.8-.6,1.5-.2,1.5,0,0,.2.2.6.4.2.2,1.1.8,1.9,1.3.8.6,1.7,1.3,1.9,1.5,1.7,1.7,2.7,4.6,2.9,8.4q0,2.3-1.3,3.8l-.8.8-.2,1.9c-.2,2.9-.4,5.5-.6,6.1-.2.4-.4.6-.8.8-.6.2-.8.4-1.1,1.5-.6,1.7-.6,2.3-.2,3.1.2.4.8,1.7,1.3,2.7,1.5,3.1,1.9,4,2.5,6.1.4,1,1.1,2.7,1.3,3.4.4,1.3.4,1.5.2,1.7-.2.2-.2.4,0,1.3.2.6.2,1,.2,1.3-.2.2-3.6,1.3-4.8,1.5-1.3,0-1.7-.2-.8-.6,1.1-.8,1.3-1.3,1.3-1.5s0-.4.2-.8.2-.4,0-.6c-.4-.4-.8-1-1.3-2.3-.2-.6-.4-1-.4-1.3,0,0-.2-.2-.2-.4s-.6-1.5-1.5-3.1l-1.5-2.9-.2.4c-.6,1-1.7,4.4-2.1,5.9-1.3,5-1.5,5.5-1.9,5.9-.4.2-.4.4-.4,1s-.2,1-1.1,1.3c-.4,0-1.1.2-1.7.4-1.3,0-2.7.2-3.6,0-.6-.2-.2-.6,1.1-1.5,1.3-.6,1.9-1.5,1.5-1.5s-.4,0-.6-.2-.2-.2,0-1.3c.4-1,.8-2.7,1.1-4.2,0-.4.4-1.7.4-2.5.2-.8.4-2.1.6-2.5.4-1.7.6-3.1,1.5-5.5.4-1.3.8-2.7.8-3.1l.2-.6h-.6q-.8,0-1.1-2.1c0-1.3-.6-5.9-.6-5.9,0,0-.2-.2-.6-.2-1.3-.2-1.5-.6-1.7-2.3,0-.8-.2-1.5-.2-1.7h-.2c-.2,0-.2.2-.2.6.2.4.6,4.2.8,7.1,0,1,.2,2.1.2,2.3.2.6.4,7.4.4,7.4,0,0-1.9.4-2.9.6l-.6.4-.2,1c-.2,1.3-.6,3.8-.8,5.7-.4,2.1-.2,3.1.6,4,.8.8,1.3,1.7,1.1,2.1,0,.4-.2.4-1.3.2h-1.1l-.2.6c-.2,1-1.1,1.9-1.9,1.9s-.6,0-.6-.4c-.2-.6,0-1.3.4-2.3s.2-2.5-.2-4.8c-.4-2.1-.8-4.6-1.1-6.3,0-.4-.2-1-.2-1,0,0-.6-.2-1.5-.2-.8-.2-1.7-.4-2.1-.4l-.6-.6v-1.5c0-.8,0-2.5.2-3.6l.2-1.9v-.8ZM45.5,54.5v-1.3l-.4,1c-.2.6-.4,1.3-.4,1.5-.2.2,0,.2.2.2.6-.2.6-.4.6-1.5h0ZM100.5,94c-.2-.4-.2-.8.2-2.3q.4-2.1-.6-6.5c-.2-1.3-.6-2.7-.6-3.6-.2-2.1-.4-2.1-1.3-2.1s-2.1-.2-2.7-.4c-.2,0-.2.2-.4,2.1-.2,1.3-.2,3.6-.4,5.2-.2,3.6-.2,4-.6,4s-.4.2-.4.6,0,.8-.2.8c-.2.2-1.7.6-1.9.6s-2.7.2-3.2.2-.4.4-.4.6c-.2.6-.8,1-1.5.8-.4-.2-.8-1.3-.6-2.7q0-1-.4-1.3c-.6-.2-.6-.6-.2-.8q.4-.2,0-1.3c-.2-.6-.8-2.1-1.5-3.4-.6-1.3-1.3-3.1-1.7-4.2-.8-2.1-.8-1.9-3.2-2.1-2.7-.2-2.3-.4-2.9,1.5-.2.8-.8,2.7-1.3,4.4-1.1,3.4-1.3,4.2-.8,5.5.2.8.2,1,0,1.7-.4,1-.8,1-.8.4s0-.4-.2-.4-.4.2-1.1.6c-.4.4-1.3.8-1.5.8-.8.2-2.1.2-2.1,0s.4-.6,1.1-1.3c1.3-1.3,1.9-2.1,2.3-4.2.4-1.7,1.3-9.6,1.1-9.9,0,0-.6-.2-1.5-.6q-1.9-.6-1.5-2.3c1.1-4,1.3-5,1.3-5.5s-.2-.4-.8-.4-.8-.2-1.1-.4c0-.2.4-2.5.8-3.8,0-.2.2-.8.4-1.3.2-.6.4-.8.6-1s.6-.6.8-1.3c.2-.6.4-1,.4-1.3s-.6-.2-1.3.2c-.6.4-1.5.2-2.1-.2-.2-.2-.6-.4-.6-.6,0,0,.2-.2.6-.4.6-.2.6-.4.4-.4-.4-.2-.4-.4,0-.4s.4-.2.6-.4c.6-.4,1.1-.4,2.3,0l1.1.4.2-.6c0-.4.2-1.3.4-2.1.4-2.5,1.1-4.8,1.7-5.7.4-.6.4-1,.4-1.7s0-.8.6-1.5c.8-.8.8-1.3.2-1.3s-.6-.2-.8-.2-.6-.2-.8-.2c-.4,0-.6-.2-1.1-.4q-.4-.4-.4-1.9c0-1.9.4-3.1,1.3-3.8.8-.8,1.3-1.3,2.3-1.3,1.3-.2,2.1.2,2.9,1.5,1.3,1.9,1.3,4,.4,5.2-.6.8-.6,1.3-.2,1.3.6,0,1.1.2,1.1.8s.2.4.8.6c1.3.4,1.9.6,1.9.8.4.4,1.3,2.3,1.7,4,.2.8.6,1.7.6,1.7,0,0,1.5-2.7,1.9-3.8.2-.4.6-1.7.8-2.5.2-.8.6-1.9.8-1.9.6-.4.4-.8-.4-1-.6,0-.8-.2-1.5-1-.8-1-1.1-1.7-1.3-3.6,0-1.3,0-1.5.2-2.1.6-1,1.5-1.7,2.7-1.7s2.3.6,2.7,2.1c1.1-.4,1.3.2,1.5.2q.4.2,0,2.5c-.2,1,.2,1.9.8,2.1.2,0,.6.2.6.4s.6.8,1.1,1.3c1.1,1,1.1,1.5,1.3,3.4l.2,1.5,1.3-.8c1.9-1.3,2.1-1.5,2.1-2.5s0-.8-.4-1c-.6-.4-1.9-1.5-1.9-1.9v-1.7c-.2-1.5.6-2.7,2.3-3.8,1.3-.6,2.5-.6,3.6,0,.4.2.8.8,1.1,1.3.4.8.8,2.3.8,3.1s-.6,1.7-1.3,1.9c-.8.4-1.3.8-1.1,1.5.2.8.6,1.3,1.9,1.5q2.1.4,2.7,1.3l.4.6.6-1.3c.8-1.7,1.1-1.9,1.9-2.3.4-.2.8-.4,1.1-.6l-.4-.4c-.6-.4-.8-1.5-.8-3.4s.4-2.7,1.3-3.4c.6-.4,2.1-.8,2.9-.6,1.3.2,2.3,1.5,2.3,2.9s0,.6.2.8c.4.2,0,1.7-.4,2.3-.8,1-.6,1.3,1.5,2.1,2.1,1,3.6,2.1,4,2.9,1.3,2.1,2.5,9,1.9,10.5-.2.2-.6.8-1.3,1.3l-1.1.8-.2,3.8c-.2,2.1-.2,4-.4,4.2,0,.4-.4.6-.8.8q-.8.4-1.3,1.7l-.4,1.3.6,1c.2.6,1.3,2.5,1.9,4.2.8,1.7,1.7,3.6,1.9,4.4.6,1.9,1.7,5.9,1.7,6.5v1.3q.2.6-.6.8c-.4.2-1.3.4-2.1.6-1.5.4-3.6.6-3.8.4-.2-.2,0-.4,1.3-1q.8-.6.8-1.3c0-.4,0-.6.2-.6l.2-.2s0-.2-.2-.2-.4-.2-.6-.4c-.2-.2-.4-.6-.6-1.5,0-.6-.4-1.7-1.3-3.4-1.9-3.8-2.5-4.8-2.7-4.8s-2.1,4.4-2.1,5,0,.6-.2.8c0,.2-.4,1.5-.6,2.9-.4,2.9-.6,3.4-1.1,3.4s-.4.4-.4,1.3-.2.6-.8.6-1.5.4-2.1.6c-1.7.4-3.4.6-3.4.2s.6-.8,1.5-1.3c1.5-1,1.9-1.5,1.1-1.5s-.4-.2-.2-.4c.4-1.5,1.7-8,1.9-10.7,0-.4.4-1.5.8-2.7,1.1-2.9,1.7-5.9,1.5-5.9h-1.1c-.2-.2-.6-3.1-1.1-5.5s-.4-2.5-1.1-2.7c-.8-.2-1.1-.6-1.1-1v-.6s-.6.2-1.1.4c-.8.4-1.1.4-1.1.8s.2,1,.4,1.7c.2.8.4,1.9.6,2.3.2,1,.8,7.6.8,10.7v1.7l-.6.4c-.4.2-1.3.4-1.9.6l-1.3.4-.4,2.1c-.8,4-1.1,6.1-.8,6.9,0,.4.4,1,.8,1.5.8.8,1.1,1.5.8,1.7,0,0-.6.2-1.1.2q-.8,0-1.1.8c-.2,1-.6,1.7-1.1,1.9-.4,0-.8,0-1-.6h0ZM88.9,90.9l.4-.4h-.6q-.6,0-.6.4c0,.4.2.4.9,0h0ZM87.9,88.1c.2-.2.2-.4.2-.6s.4-.6.6-1l.6-.6-.6-.4c-.6-.6-.6-.4-.8-4.4,0-1.3-.2-3.1-.4-3.8-.2-.8-.4-2.5-.4-4s-.2-3.1-.2-4.2l-.2-1.7-.8-.4c-1.1-.4-1.3-.8-1.3-2.1s0-1-.2-1c0,0-.4.2-.8.6q-.6.6-.6,1.7c0,.6.2,2.1.2,3.1.2,2.3.4,4.4,1.1,6.5.2.8.4,1.9.4,2.5s.2,1.5.2,1.7c.4,1.7,1.9,8,1.9,8.6.6.2.8,0,1.2-.4h0ZM94.8,74.7c0-.6.2-1.5.2-1.9.4-2.1.8-5,.8-5.2h-1.1l-1.1.2v.8c0,.4,0,1.3.2,1.7,0,.4.2,1.9.4,3.1.2,1.3.2,2.3.4,2.3-.2,0,0-.6,0-1h0ZM96.7,64c.4-1.7.4-2.5,0-2.7-.4-.4-.4-1,0-2.5.4-1,.6-1.5.6-2.7,0-2.1-.2-2.3-.6-.8-.2.8-.6,1.9-.8,2.7-.6,1.7-.6,3.4-.4,5.7.4,2.1.4,2.5.6,2.1.4,0,.6-.8.6-1.7h0ZM72.9,60.2c-.2-.2-.4.4-.6,1.5-.2.6-.2.8,0,1,.2,0,.9-2.3.6-2.5h0ZM83.7,60.4c.4-.6.8-1.5,1.1-1.9q.4-.8,0-1.9t-.6-.8c0,.2-.4,1-.8,1.9-.4,1-.6,1.7-.6,2.5s0,1,.2,1c.2,0,.4-.4.8-.8h0ZM107.5,57.5c.2-.2.2-.4,0-1.3,0-.6-.2-.8-.2-.8,0,0-.2.6-.4,1.3l-.4,1.3.4-.2c.2,0,.4-.2.6-.2h0Z"/>
    </g>
    <g id="Fundraising" class="cls-10">
      <rect class="cls-1" x="60.9" y="25.7" width="64" height="64.6"/>
      <path class="cls-12" d="M97.8,54.3h-3.9c.7,2.8-.7,6.2-3.1,7.8-3.2,2.2-7.5,1.3-9.7-1.9-2.1-3.2-.9-8.9,2.2-10h0c.3-.9,1.7-2,2.5-2.3.6-.2,1.6-.5,2.3-.5s.6.1,2.3,0h2.5c-5.1-3.3-11.9-2.2-15.2,2.9s-1.9,11.9,3.1,15.2c5.1,3.3,11.9,1.9,15.2-3.1,1.2-1.8,1.8-3.9,1.8-6.1,0-.5.1-1.5,0-2Z"/>
      <path id="Box" class="cls-13" d="M109.9,71.3h-33l-10,16h53l-10-16ZM102.4,80.3h-18c-.8,0-1.5-.7-1.5-1.5s.7-1.5,1.5-1.5h18c.8,0,1.5.7,1.5,1.5s-.7,1.5-1.5,1.5Z"/>
      <g id="Floaters">
        <circle id="Floater" class="cls-15" cx="119.9" cy="68.3" r="1"/>
        <circle id="Floater-2" data-name="Floater" class="cls-15" cx="105.9" cy="64.3" r="1"/>
        <circle id="Floater-3" data-name="Floater" class="cls-15" cx="72.9" cy="66.3" r="1"/>
        <line id="Floater-4" data-name="Floater" class="cls-12" x1="115.9" y1="56.3" x2="115.9" y2="60.3"/>
        <line id="Floater-5" data-name="Floater" class="cls-12" x1="113.9" y1="58.3" x2="117.9" y2="58.3"/>
        <line id="Floater-6" data-name="Floater" class="cls-12" x1="70.9" y1="35.3" x2="70.9" y2="39.3"/>
        <line id="Floater-7" data-name="Floater" class="cls-12" x1="68.9" y1="37.3" x2="72.9" y2="37.3"/>
      </g>
      <g id="Hand">
        <path id="Coin" class="cls-12" d="M81.1,60.2c2.2,3.2,6.5,4.1,9.7,1.9,2.4-1.6,3.8-5,3.1-7.8h-7.7c-2.3.1-3.4-2.3-2.9-4.1-3.1,1.1-4.3,6.8-2.2,10Z"/>
        <path id="Hand_Part" data-name="Hand Part" class="cls-12" d="M78.6,48.8s-3,3.7-2.7,8.2c-2.5,1.2-3.2.9-5.5.4.3,0,8.2-8.6,8.2-8.6Z"/>
        <path id="Hand_Part-2" data-name="Hand Part" class="cls-12" d="M94.3,42.2c1.1,0,2.6.6,2.6,2.6s-2.6,2.6-2.6,2.6h-1.4s-6.8-5-14.4,1.5c6.8-6.5,5.3-6.7,15.8-6.7Z"/>
        <path id="Hand_Part-3" data-name="Hand Part" class="cls-12" d="M112.9,30.3s-4.6,4.4-5.7,4.8c-1.5.7-3.2,1.1-4.8,1.1h-16.7c-2.8,0-5.5,1.3-7.4,3.4l-11.8,13.5c-1,1.2-.9,3,.3,4.1h0c1.3,1,3.1.9,4.1-.3l11-11.7c1.5-1.3,3.8-3,6.9-2.8l5.3-.2c1.4,0,2.6,1.2,2.6,2.6s-1.2,2.6-2.6,2.6h-5.8c-.9,0-1.8.2-2.6.5-1.4.6-2.1,1.5-2.4,2.4-.1.5-.2,2.1.8,3.2.1.1.3.3.5.4.1.1.2.1.4.2h0c.3.1.7.2,1.2.2h19.2c3.4,0,6.6-1.3,9-3.7l3.7-5.7,4.7-2.7s-8.2-4.6-10-11.9Z"/>
      </g>
    </g>
  </g>
  <g id="Background">
    <rect id="Rectangle" class="cls-5" x="18.5" y="33.8" width="108.8" height="108.8"/>
  </g>
</svg>