<?xml version="1.0" encoding="utf-8"?>
<!-- Generator: Adobe Illustrator 26.0.1, SVG Export Plug-In . SVG Version: 6.00 Build 0)  -->
<svg version="1.1" id="Bird_00000111881729584302343320000011102978793987975301_"
	 xmlns="http://www.w3.org/2000/svg" xmlns:xlink="http://www.w3.org/1999/xlink" x="0px" y="0px" width="601px" height="601px"
	 viewBox="0 0 601 601" style="enable-background:new 0 0 601 601;" xml:space="preserve">
<style type="text/css">
	.st0{display:none;fill:#265039;stroke:#000000;stroke-miterlimit:10;}
	.st1{fill:#FFFFFF;}
	.st2{display:none;}
	.st3{display:inline;fill:#424143;}
</style>
<g id="Background">
	<rect x="0.5" y="0.5" class="st0" width="600" height="600"/>
</g>
<g id="Bird-White">
	<path id="Bird_eye_lg_00000093153663740680004260000012829700541056924342_" class="st1" d="M440.2,479.3
		c-2.9-6.2-11.5-9.1-14.9-9.1c-10.1-1-9.1,4.8,0,15.8C439.2,503.4,444.5,488,440.2,479.3z"/>
	<path id="Bird2_00000122680924740017709740000011670148935974499456_" class="st1" d="M133.9,258c25.9,20.6,63.9,49.9,135.9,49.9
		c1.4,0,1-2.4-1-3.8C90.2,181.6,123.3,74.1,123.3,57.3c0-15.8-25,32.2-24.5,60C96.9,203.7,178.5,269,177.5,269
		c-30.2-7.7-69.6-53.8-83.1-74.9c-0.5-1-3.4-2.9-1.4,2.9C95.4,206.6,105.5,233,133.9,258z"/>
	<path id="Bird1_00000160154197706315064100000008316407788755345796_" class="st1" d="M470.9,180.7c-26.9-13.9-61-21.1-52.8-15.8
		c0.5,0.5,95.5,66.3,122.4,113.3c41.3,72.5-7.2,152.2-23,157c-1,0.5-0.5-4.3-0.5-10.6c2.9-65.3-58.6-127.2-65.3-133
		c-16.8-13.4-32.2-25-46.6-35.1c14.4-8.2,23.5-35.1,15.8-53.3c-11.5-28.3-31.2-39.9-41.8-45.1c-2.4-1.4-8.6-3.4-5.3,1.9
		c18.7,24.5,4.8,66.7-23,59.5c-2.4-1.4-4.3-3.4-6.7-4.8c-20.2-19.2-49.9-67.2-11.5-156.5c1-1,0.5-4.3-3.4,0.5
		c-6.7,8.2-22.6,30.7-27.8,69.1c-1.4,14.4-1.9,25.4-1,34.1c-8.6-24.5-16.8-74.9,24.5-140.2c-11-6.7-149.8,128.7,17.3,234.8
		c81.1,51.4,111.4,85,121.5,104.2c21.6,41.3,24,97,7.7,130.6c-12.5,25.9-33.1,57.1-35.5,52.3c-5.8-11.5-2.4-49-66.3-72
		C281.7,440,130,488.9,69.5,358.3c-29.8-57.6-6.2-134.9-1.4-158.5c0.5-3.8-46.1,14.9-56.2,72.5C2.8,314.6-3.9,418.4,119,469.3
		c67.7,27.8,145.5,24.5,199.7,24.5c106.1,0,100.8,68.2,110.4,85c0.5,0.5,0.5,1.4,1.9,0c11.5-12,55.2-66.7,84-93.6
		C693.7,316.6,517.9,204.7,470.9,180.7z"/>
</g>
<g id="Bird-Gray_00000012430450950208706960000017190376588913579708_" class="st2">
	<path id="Bird_eye_lg_00000068669106751010054610000017814404481475290798_" class="st3" d="M440.2,479.3
		c-2.9-6.2-11.5-9.1-14.9-9.1c-10.1-1-9.1,4.8,0,15.8C439.2,503.4,444.5,488,440.2,479.3z"/>
	<path id="Bird2_00000129907984816530445880000004290110772329198996_" class="st3" d="M133.9,258c25.9,20.6,63.9,49.9,135.9,49.9
		c1.4,0,1-2.4-1-3.8C90.2,181.6,123.3,74.1,123.3,57.3c0-15.8-25,32.2-24.5,60C96.9,203.7,178.5,269,177.5,269
		c-30.2-7.7-69.6-53.8-83.1-74.9c-0.5-1-3.4-2.9-1.4,2.9C95.4,206.6,105.5,233,133.9,258z"/>
	<path id="Bird1_00000075130606950101188550000003087433938070704537_" class="st3" d="M470.9,180.7c-26.9-13.9-61-21.1-52.8-15.8
		c0.5,0.5,95.5,66.3,122.4,113.3c41.3,72.5-7.2,152.2-23,157c-1,0.5-0.5-4.3-0.5-10.6c2.9-65.3-58.6-127.2-65.3-133
		c-16.8-13.4-32.2-25-46.6-35.1c14.4-8.2,23.5-35.1,15.8-53.3c-11.5-28.3-31.2-39.9-41.8-45.1c-2.4-1.4-8.6-3.4-5.3,1.9
		c18.7,24.5,4.8,66.7-23,59.5c-2.4-1.4-4.3-3.4-6.7-4.8c-20.2-19.2-49.9-67.2-11.5-156.5c1-1,0.5-4.3-3.4,0.5
		c-6.7,8.2-22.6,30.7-27.8,69.1c-1.4,14.4-1.9,25.4-1,34.1c-8.6-24.5-16.8-74.9,24.5-140.2c-11-6.7-149.8,128.7,17.3,234.8
		c81.1,51.4,111.4,85,121.5,104.2c21.6,41.3,24,97,7.7,130.6c-12.5,25.9-33.1,57.1-35.5,52.3c-5.8-11.5-2.4-49-66.3-72
		C281.7,440,130,488.9,69.5,358.3c-29.8-57.6-6.2-134.9-1.4-158.5c0.5-3.8-46.1,14.9-56.2,72.5C2.8,314.6-3.9,418.4,119,469.3
		c67.7,27.8,145.5,24.5,199.7,24.5c106.1,0,100.8,68.2,110.4,85c0.5,0.5,0.5,1.4,1.9,0c11.5-12,55.2-66.7,84-93.6
		C693.7,316.6,517.9,204.7,470.9,180.7z"/>
</g>
</svg>
