<?xml version="1.0" encoding="UTF-8"?>
<svg id="Layer_1" data-name="Layer 1" xmlns="http://www.w3.org/2000/svg" version="1.1" viewBox="0 0 114.6 13">
  <defs>
    <style>
      .cls-1 {
        fill: #fff;
        stroke: #231f20;
        stroke-miterlimit: 10;
        stroke-width: .2px;
      }
    </style>
  </defs>
  <path class="cls-1" d="M.1,11.9c.8,0,1.1-.5,1.5-1.5L4.7,1.6l-.4-1.4c.5,0,1,.1,1.4.1s1.2,0,1.8-.1c0,.8,2.5,7.6,3.5,10.4.3.9.5,1.2,1.4,1.3v.8c-.5,0-1.5-.1-2.8-.1s-2.7,0-3.2.1v-.8c1,0,1.5-.2,1.5-.6s-.3-1.1-.8-2.4h-3.9c-.5,1.4-.8,2.2-.8,2.4,0,.5.3.6,1.1.6v.8c-.3,0-.9-.1-1.7-.1s-1.4,0-1.7.1v-.8ZM6.8,7.9l-1.6-4.9h0c-.1.4-.2.8-.4,1.4l-1.2,3.4h3.2Z"/>
  <path class="cls-1" d="M18,10.7c0,1,.2,1.2,1.7,1.2v.8c-1.1,0-2.3-.1-3.5-.1s-2.2.1-3.1.1h0v-.8c1.5,0,1.7-.2,1.7-1.2V2.2c0-1-.2-1.2-1.7-1.2V.1h0c.8,0,1.5.1,3.1.1h3.5c2.9,0,5,.9,5,3.3s-1.9,3.4-5.4,3.4-1,0-1.3,0v3.7ZM18,6.1h.5c1.9,0,2.6-.7,2.6-2.5s-1.3-2.4-3.1-2.4v4.9Z"/>
  <path class="cls-1" d="M35.1,12.7c-.8,0-1.5-.1-2.3-.1s-1.5,0-2.2.1v-.8c1.6,0,1.7-.2,1.7-1.2V2.1l-1.4-2c.7,0,1.4.1,2.1.1s1.2,0,1.8-.1l7,9.3h0V2.2c0-1-.2-1.2-1.7-1.2V.1c.8,0,1.5.1,2.3.1s1.5,0,2.2-.1v.8c-1.6,0-1.7.2-1.7,1.2v8.5l1.4,2c-.7,0-1.4-.1-2.1-.1s-1.2,0-1.8.1l-7-9.3h0v7.2c0,1,.2,1.2,1.7,1.2v.8Z"/>
  <path class="cls-1" d="M55.2,11.9c-.6.3-1.6,1-2.3,1s-1.4-.8-1.7-1.4l-1.5,1.2c-.1,0-1,.3-1.6.3-1.4,0-2.7-.5-2.7-2.1s3.9-3.2,5.7-3.5v-.5c0-1.5-.6-2-1.5-2s-1.5.9-1.6,2.2c-.3,0-.7,0-1,0s-.7,0-1,0v-1.9c1.2-.8,2.5-1.1,3.8-1.1,2.4,0,3.9,1.1,3.9,3.3s0,2.6,0,3.5.2.7.4.7.6-.2.8-.3l.2.7ZM51.2,8c-1.3.3-2.9.8-2.9,2.3s.5,1.1,1.3,1.1,1.1-.4,1.5-.6v-2.8Z"/>
  <path class="cls-1" d="M59.1,11.8h1.3c1.8,0,2.3-.3,2.5-1.5.2,0,.4,0,.6,0s.4,0,.6,0v2.3c-1.1,0-2.6,0-4.2,0-3,0-3.9.1-4.1.1h-.1v-.6l5-7.2h-1.5c-1.4,0-1.8.3-2,1.4-.2,0-.4,0-.6,0s-.4,0-.6,0v-2.3c.9,0,2,.1,3,.1,1.6,0,3.3,0,4.9-.1v.6l-4.8,7.1Z"/>
  <path class="cls-1" d="M74.9,11.9c-.6.3-1.6,1-2.3,1s-1.4-.8-1.7-1.4l-1.5,1.2c-.1,0-1,.3-1.6.3-1.4,0-2.7-.5-2.7-2.1s3.9-3.2,5.7-3.5v-.5c0-1.5-.6-2-1.5-2s-1.5.9-1.6,2.2c-.3,0-.7,0-1,0s-.7,0-1,0v-1.9c1.2-.8,2.5-1.1,3.8-1.1,2.4,0,3.9,1.1,3.9,3.3s0,2.6,0,3.5.2.7.4.7.6-.2.8-.3l.2.7ZM70.8,8c-1.3.3-2.9.8-2.9,2.3s.5,1.1,1.3,1.1,1.1-.4,1.5-.6v-2.8Z"/>
  <path class="cls-1" d="M83.3,6.5c-.2,0-.6,0-.9,0s-.6,0-.9,0c0-.4-.3-1-.8-1s-1.3.8-1.6,1.1v4c0,1.2.1,1.4,1.5,1.4v.7c-1,0-1.9-.1-3.5-.1s-1.5,0-2.1.1v-.7c1.2,0,1.3-.3,1.3-1.4v-4c0-1.2-.1-1.4-1.3-1.4v-.7c1.4,0,2.5-.3,3.7-.4,0,.6.1,1.2.3,1.6.8-.8,1.8-1.6,3-1.6s.8.1,1.1.3v2.2Z"/>
  <path class="cls-1" d="M86.6,8.1c.2,2,1.4,3.3,3,3.3s2-.7,2.6-1.3l.5.4c-1.2,1.4-2.7,2.4-4.6,2.4s-4.4-1.5-4.4-4.2,2.1-4.7,4.8-4.7,4,1.5,4,4h-6ZM89.7,7.2c-.1-1.9-.6-2.5-1.5-2.5s-1.5.9-1.7,2.4h3.2Z"/>
  <path class="cls-1" d="M103.5,10.6c0,1.2.1,1.4,1.2,1.4v.7c-.8,0-1.6-.1-3.2-.1s-1.5,0-1.9.1v-.7c1,0,1.1-.3,1.1-1.4v-3.8c0-.7-.5-1.2-1.1-1.2s-1,.1-1.9.6v4.4c0,1.2.1,1.4,1.2,1.4v.7c-.7,0-1.6-.1-3.1-.1s-1.5,0-2.2.1v-.7c1.3,0,1.4-.3,1.4-1.4v-4c0-1.2-.1-1.4-1.4-1.4v-.7c1.4,0,2.8-.3,3.8-.4l.3,1.4,1.5-1c.5-.2.8-.4,1.8-.4,1.5,0,2.5.9,2.5,2.9v3.7Z"/>
  <path class="cls-1" d="M108.3,8.1c.2,2,1.4,3.3,3,3.3s2-.7,2.6-1.3l.5.4c-1.2,1.4-2.7,2.4-4.6,2.4s-4.4-1.5-4.4-4.2,2.1-4.7,4.8-4.7,4,1.5,4,4h-6ZM111.4,7.2c-.1-1.9-.6-2.5-1.5-2.5s-1.5.9-1.7,2.4h3.2Z"/>
</svg>