<?xml version="1.0" encoding="UTF-8"?>
<svg id="Layer_1" data-name="Layer 1" xmlns="http://www.w3.org/2000/svg" version="1.1" viewBox="0 0 120.4 86.6">
  <defs>
    <style>
      .cls-1 {
        fill: #de2a26;
        stroke-width: 0px;
      }

      .cls-2 {
        fill: none;
        stroke: #000;
        stroke-linecap: round;
        stroke-linejoin: round;
        stroke-width: 3px;
      }
    </style>
  </defs>
  <path class="cls-2" d="M58.1,52.3c-1.4-10.8-2.8-21.6-.1-32.6,3.2-12.9,12.7-20.4,23.8-17.7,11.3,2.7,20.5,15.7,17.5,26.6-1.5,5.5-3.7,10.6-2.9,16.3,15.2,3.5,23.4,11.2,22.4,20.7-1,9.1-11.9,18.8-23.7,19.1-23.2.5-46.3.6-69.5,0-12.1-.3-20.9-7.8-23.2-19.2-2.1-10.4-1.2-21.2,12.8-25.4,6.5-2,9.7-7.6,11.1-15.8,2-11.3,9.2-21.2,23-22.3M41.9,46.4c9.4,11.6,18.7,8.3,28.1,0"/>
  <g>
    <path class="cls-1" d="M44.1,59.5h4.2c3,0,4.5,1.5,4.5,4.8v1.1c0,3.1-1.1,5.2-4.7,5.2h-1.1v7.8h-2.9v-18.9ZM47,68.2h.8c1.8,0,2.1-1.1,2.1-2.9v-.9c0-1.4-.2-2.5-1.9-2.5h-1.1v6.3Z"/>
    <path class="cls-1" d="M54.6,59.5h4c4,0,5,2.1,5,5.6v7.2c0,2.9-.5,6.1-5,6.1h-4v-18.9ZM57.5,75.9h.9c1.9,0,2.2-1.2,2.2-3.2v-7.9c0-1.7-.3-2.8-2.2-2.8h-.9v13.9Z"/>
    <path class="cls-1" d="M65.7,59.5h7.3v2.7h-4.4v5h4.2v2.7h-4.2v8.5h-2.9v-18.9Z"/>
  </g>
</svg>