<?xml version="1.0" encoding="UTF-8"?>
<svg id="Layer_1" data-name="Layer 1" xmlns="http://www.w3.org/2000/svg" version="1.1" viewBox="0 0 1024 1024">
  <defs>
    <style>
      .cls-1 {
        fill: #ebecf0;
      }

      .cls-1, .cls-2, .cls-3, .cls-4, .cls-5 {
        stroke-width: 0px;
      }

      .cls-2 {
        fill: #de350b;
      }

      .cls-3 {
        fill: #ff5630;
      }

      .cls-4 {
        fill: #fff;
      }

      .cls-5 {
        fill: #c1c7d0;
      }
    </style>
  </defs>
  <path class="cls-1" d="M901.9,926.5c0,26.9-21.8,48.8-48.8,48.8H170.4c-26.9,0-48.8-21.8-48.8-48.8V48.8C121.7,21.8,143.5,0,170.4,0h418.9c13,0,25.4,5,34.6,14.1l263.8,263.8c9.1,9.2,14.2,21.7,14.1,34.6v613.9h0Z"/>
  <path class="cls-5" d="M901.9,926.5v48.8c0,26.9-21.8,48.8-48.8,48.8H170.4c-26.9,0-48.8-21.8-48.8-48.8v-48.8c0,26.9,21.8,48.8,48.8,48.8h682.7c26.9,0,48.8-21.8,48.8-48.8Z"/>
  <path class="cls-3" d="M24.1,536.4h975.2v243.8c0,26.9-21.8,48.8-48.8,48.8H72.9c-26.9,0-48.8-21.8-48.8-48.8v-243.8h0Z"/>
  <path class="cls-2" d="M121.7,536.4v-97.5l-97.5,97.5h97.5ZM901.9,536.4l1-97.5,97,97.5h-98Z"/>
  <path class="cls-4" d="M267.9,585.1h84.8c15.5-.7,30.7,4.9,41.9,15.6,10.8,10.8,16.6,25.7,16.1,41,.5,15.3-5.3,30.1-16.1,41-11.7,11.1-27.3,16.9-43.4,16.1h-48.8v76.6h-34.6v-190.2ZM300.6,667.1h43.9c9.1.7,18.1-1.5,25.8-6.3,5.6-5.1,8.5-12.5,7.8-20,0-16.6-10.9-24.9-32.7-24.9h-44.9v51.2ZM434.7,588.1h77c22.4-.9,43.9,8.4,58.5,25.4,15.4,19.3,23.2,43.6,21.9,68.3,1.1,24.9-6.3,49.5-21,69.7-14,18.7-36.2,29.4-59.5,28.8h-77v-192.1ZM467.4,747h44.4c14.1.5,27.5-5.9,36.1-17.1,9.4-13.9,13.9-30.6,12.7-47.3,1.6-17.4-3.2-34.8-13.7-48.8-9.5-10.8-23.2-16.8-37.5-16.6h-41.9v129.7ZM755.6,618.8h-100.9v45.3h100.9v31.2h-100.9v81.9h-32.7v-190.2h133.6v31.7Z"/>
  <path class="cls-5" d="M901.9,312.6v6.8h-263.8c-26.9,0-48.8-21.8-48.8-48.8V0c13,0,25.4,5,34.6,14.1l264.3,263.8c8.9,9.3,13.9,21.7,13.7,34.6Z"/>
</svg>