<?xml version="1.0" encoding="utf-8"?>
<!-- Generator: Adobe Illustrator 26.0.1, SVG Export Plug-In . SVG Version: 6.00 Build 0)  -->
<svg version="1.1" id="Bird-Bible_00000070109019771397201940000002826794226925312942_"
	 xmlns="http://www.w3.org/2000/svg" xmlns:xlink="http://www.w3.org/1999/xlink" x="0px" y="0px" width="600px" height="600px"
	 viewBox="0 0 600 600" style="enable-background:new 0 0 600 600;" xml:space="preserve">
<style type="text/css">
	.st0{opacity:0;}
	.st1{fill:none;}
	.st2{fill:#424143;}
	.st3{fill-rule:evenodd;clip-rule:evenodd;fill:#424143;}
</style>
<g id="Backgound" class="st0">
	<rect id="Rectangle" class="st1" width="600" height="600"/>
</g>
<g id="Bird-Bible_00000031191889683128490410000000053309964303769783_">
	<g id="Bible">
		<path id="Registered" class="st2" d="M11.3,483v-2.2h1.8c0.7,0,1.1,0.4,1.1,1.1s-0.4,1.1-1.1,1.1H11.3L11.3,483z M10.2,486.8
			c0,0.4,0,0.4,0.4,0.4H11c0.4,0,0.4-0.4,0.4-0.4v-2.6h1.5l1.1,2.6l0.4,0.4h0.7c0.4,0,0.4-0.4,0.4-0.7c-0.4-0.7-0.7-1.5-1.1-2.6
			c0.7,0,1.8-0.7,1.8-2.2s-1.1-2.2-2.6-2.2h-3c-0.4,0-0.4,0-0.4,0.4L10.2,486.8L10.2,486.8z M6.5,483.4c0-3.3,3-6.3,6.3-6.3
			c3.4,0,6.3,2.6,6.3,6.3c0,3.3-2.6,6.3-6.3,6.3C9.1,489.7,6.5,486.8,6.5,483.4 M5,483.4c0,4.1,3.4,7.4,7.4,7.4s7.4-3.3,7.4-7.4
			s-3.4-7.4-7.4-7.4S5,479.4,5,483.4"/>
		<g id="Cover">
			<path id="Cover__x28_Part_5_x29_" class="st3" d="M127.3,476.3c25.6,0,72.8,0,116.3-0.4c52.4-0.4,98.1,0.4,101,0.4
				c0.4,0,1.5,0.7,1.8,1.5c0.7,2.6,0.7,8.5-0.4,11c-0.4,0.7-0.7,1.1-1.5,1.5c-2.6,0-219.6,0-221.8,0c-1.1,0,1.5-12.2,2.2-13
				C125.7,476.7,126.5,476.3,127.3,476.3z"/>
			<path id="Cover__x28_Part_4_x29_" class="st3" d="M28.4,476.3c8.5,0,29.4,0,30.8,0c0.4,0,4.5,0,5.2,0c5.2,0,1.1,12.2,0.7,13
				c-1.1,1.1-5.6,1.1-5.9,1.1c-1.8,0-22.7,0-30.8,0c-1.1,0-2.2-0.7-2.2-1.1c0-0.7,0-10.3,0-11C26.2,476.7,27.3,476.3,28.4,476.3z"/>
			<path id="Cover__x28_Part_3_x29_" class="st3" d="M366.1,476.3c58,0,196.5,0,209.6,0c3.4,0,14.1-0.4,16.4,0.4
				c2.2,0.4,1.8,13-0.7,13.7c-2.6,0.4-169.1,0-225.5,0c-1.1,0-1.8-1.1-1.8-1.5c-0.4-0.7-0.4-10.7,0-11.5
				C364.3,476.3,365,476.3,366.1,476.3z"/>
			<path id="Cover__x28_Part_2_x29_" class="st3" d="M35.8,452.3c10.1-1.8,40.1-5.2,64.3-9.9c64.7-13.3,149.7-37.3,187.3-28.5
				c36,8.5,53.1,38.4,57.6,47.3c1.1,2.6-1.5,2.6-1.5,2.6H33.6c0,0-4.5,0-4.5-2.6C28.8,459.4,27.3,453.8,35.8,452.3z"/>
			<path id="Cover__x28_Part_1_x29_" class="st3" d="M594.6,458.3c-0.4-1.1-2.2-3.3-4.1-3.6c-7-1.1-28.6-4.1-45.4-8.1
				c-45.7-10.7-102.9-30.7-129.3-22.5c-22.7,7-39.1,30.3-43.8,37.3c-1.1,1.8,1.1,2.2,1.1,2.2h219.2c0,0,1.1,0,1.5-0.4
				s1.1-0.7,1.1-1.5C594.6,461.2,595,459,594.6,458.3z"/>
			<path id="Ribbon" class="st2" d="M74.5,476.3c-1.5,18.4-9,29.6-17.5,38.1c-2.6,2.6-8.3,6.4-9.3,7c3.4,2.7,27.5,1.5,29.7,1.5
				c0.7,3.6-0.4,10.3-4.5,24c15.6-1.5,33.8-15.9,37.9-34.1c1.1-4.8,2.9-11,4.1-17c1.5-9.9,3.4-19.3,3.4-19.6
				C103.9,476.3,88.9,476.3,74.5,476.3z M102.8,493.4L102,496c-0.4,0.7-0.7,1.1-1.1,1.1h-7.8l-5.2,16.6c0,0.4-0.7,0.7-1.5,0.7h-2.9
				c-0.7,0-1.1-0.4-1.1-0.7l5.2-16.6h-7.8c-0.4,0-0.4-0.7-0.4-1.1l0.7-2.6c0.4-0.7,0.7-1.1,1.1-1.1H89l2.2-7.8
				c0-0.4,0.7-0.7,1.5-0.7h2.9c0.7,0,1.1,0.4,1.1,0.7l-2.2,7.8h7.8C103.1,492.3,103.1,492.7,102.8,493.4z"/>
		</g>
	</g>
	<g id="Bird">
		<path id="Bird_Eye" class="st2" d="M364.9,389.8c-2.2-4.5-8.5-6.5-11-6.8c-7.3-0.6-6.6,3.6-0.2,11.6
			C364.2,407.6,368,396.1,364.9,389.8z"/>
		<path id="Bird__x28_Part_2_x29_" class="st2" d="M140.1,227c19,15.1,46.7,36.7,99.6,36.5c1.2,0,0.6-1.8-0.8-2.8
			C108.1,170.7,132,91.4,132,79.3c0-11.7-18.4,23.6-17.8,44c-1.4,63.7,58.4,111.6,57.7,111.5c-22.2-5.7-50.9-39.6-61.1-55.1
			c-0.4-0.6-2.6-1.9-1.3,2.1C112,189.5,119.4,208.6,140.1,227z"/>
		<path id="Bird__x28_Part_1_x29_" class="st2" d="M387.3,170.1c-19.8-10.1-44.8-15.4-38.6-11.7c0.4,0.2,70,48.7,89.6,83.3
			c30.3,53.4-5.4,111.8-16.7,115.4c-0.8,0.2-0.3-3.1-0.2-7.6c1.9-48.1-42.8-93.7-47.9-97.9c-12.2-10-23.6-18.5-34.2-26
			c10.6-5.9,17.2-25.8,11.7-39.1c-8.5-20.8-23-29.5-30.5-33.2c-1.9-1-6.5-2.5-4,1.3c13.6,18.1,3.5,49.2-17,43.8
			c-1.6-1.1-3.2-2.4-4.7-3.5c-14.7-14.2-36.4-49.5-8.4-115c0.6-0.8,0.2-3.2-2.4,0.2c-5,6.1-16.6,22.5-20.6,50.8
			c-1.1,10.4-1.4,18.6-0.8,25.2c-6.3-17.9-12.5-55.2,17.9-103c-8-5-109.7,94.6,12.5,172.6c59.4,37.9,81.6,62.6,88.9,76.7
			c15.9,30.4,17.6,71.4,5.6,96.2c-9.3,19.2-24.2,42.2-26,38.7c-4.3-8.5-1.6-36.1-48.5-53.1c-64.6-23.4-175.7,12.8-220-83.3
			c-21.9-42.4-4.5-99.4-1.2-116.7c0.5-2.7-33.8,10.8-41.3,53.2c-6.8,31-11.7,107.3,78.6,144.7c49.6,20.5,106.5,18.1,146.4,18.1
			c77.7,0.1,73.9,50.2,80.7,62.4c0.2,0.3,0.5,0.9,1.4,0c8.5-8.9,40.8-48.9,61.9-68.9C550.8,270.1,421.9,187.7,387.3,170.1z"/>
	</g>
</g>
</svg>
