<?xml version="1.0" standalone="no"?>
<!DOCTYPE svg PUBLIC "-//W3C//DTD SVG 1.1//EN" "http://www.w3.org/Graphics/SVG/1.1/DTD/svg11.dtd" >
<svg xmlns="http://www.w3.org/2000/svg" xmlns:xlink="http://www.w3.org/1999/xlink" version="1.1">
<metadata></metadata>
<defs>
<font id="cordial_promedium" horiz-adv-x="549" >
<font-face units-per-em="1000" ascent="750" descent="-250" />
<missing-glyph horiz-adv-x="178" />
<glyph horiz-adv-x="0" />
<glyph horiz-adv-x="333" />
<glyph unicode=" "  horiz-adv-x="178" />
<glyph unicode="&#x09;" horiz-adv-x="178" />
<glyph unicode="&#xa0;" horiz-adv-x="178" />
<glyph unicode="!" horiz-adv-x="289" d="M223 718l-19 -495l-88 -32l-19 527h126zM91 59q0 65 68 65q69 0 69 -65q0 -64 -69 -64q-68 0 -68 64z" />
<glyph unicode="&#x22;" horiz-adv-x="355" d="M160 718l-39 -254h-65v254h104zM299 718l-40 -254h-65l1 254h104z" />
<glyph unicode="#" horiz-adv-x="750" d="M106 448l8 48h156l38 219l50 -8l-36 -211h145l38 219l50 -8l-36 -211h157l-8 -48h-158l-29 -174h157l-8 -48h-157l-38 -223l-50 8l36 215h-145l-38 -223l-50 8l36 215h-156l8 48h156l30 174h-156zM314 448l-30 -174h145l30 174h-145z" />
<glyph unicode="$" horiz-adv-x="409" d="M341 204q0 -124 -115 -177l15 -96l-54 -9l-14 86q-44 -11 -93 -14l-35 99q73 5 115 34t42 77q0 30 -19 64.5t-42.5 61t-42.5 65t-19 76.5q0 92 82 161l-15 96l55 9l11 -72q46 23 97 29l35 -98q-55 -10 -90.5 -44.5t-35.5 -78.5q0 -27 19 -60t42.5 -60t42.5 -67.5 t19 -81.5z" />
<glyph unicode="%" horiz-adv-x="732" d="M64 571q0 63 44 107.5t108 44.5t108.5 -44.5t44.5 -107.5t-44.5 -107t-108.5 -44t-108 44t-44 107zM114 571q0 -43 29.5 -73t72.5 -30t73 30t30 73t-30 73.5t-73 30.5t-72.5 -30t-29.5 -74zM363 146q0 63 44 107.5t108 44.5t108.5 -44.5t44.5 -107.5t-44.5 -107 t-108.5 -44t-108 44t-44 107zM413 146q0 -43 29.5 -73t72.5 -30t73 30t30 73t-30 73.5t-73 30.5t-72.5 -30t-29.5 -74zM87 26l511 696l40 -30l-511 -696z" />
<glyph unicode="&#x26;" horiz-adv-x="704" d="M511 574q0 -40 -25.5 -74t-70.5 -54l-77 34q51 28 51 77q0 35 -25 58t-62 23q-36 0 -61 -25.5t-25 -59.5t27 -61l284 -287q41 50 59 108l104 -39q-25 -80 -85 -146l109 -109l-105 -66l-90 93q-86 -65 -210 -65q-131 0 -205.5 60.5t-74.5 149.5q0 123 146 208 q-83 76 -83 155q0 72 59 127.5t151 55.5t150.5 -47.5t58.5 -115.5zM314 80q78 0 132 41l-204 212q-75 -62 -75 -133q0 -48 39.5 -84t107.5 -36z" />
<glyph unicode="'" horiz-adv-x="217" d="M161 718l-40 -254h-65l1 254h104z" />
<glyph unicode="(" horiz-adv-x="317" d="M191 768l47 -29q-106 -176 -106 -389q0 -225 120 -410l-47 -29q-130 201 -130 439q0 226 116 418z" />
<glyph unicode=")" horiz-adv-x="317" d="M79 739l47 29q116 -192 116 -418q0 -238 -130 -439l-47 29q120 185 120 410q0 213 -106 389z" />
<glyph unicode="*" horiz-adv-x="372" d="M328 615l-103 -53l103 -53l-29 -50l-98 62l6 -115h-57l5 115l-97 -62l-29 50l102 53l-102 53l29 50l97 -63l-5 116h57l-6 -116l98 63z" />
<glyph unicode="+" horiz-adv-x="653" d="M60 332v48h241v242h50v-242h242v-48h-242v-251h-50v251h-241z" />
<glyph unicode="," horiz-adv-x="234" d="M20 -130l67 291l124 -41l-121 -274z" />
<glyph unicode="-" horiz-adv-x="372" d="M51 247l35 98h239l-35 -98h-239z" />
<glyph unicode="." horiz-adv-x="256" d="M59 63q0 32 19 49.5t53 17.5q33 0 52 -17.5t19 -49.5q0 -33 -19 -50.5t-52 -17.5q-34 0 -53 17.5t-19 50.5z" />
<glyph unicode="/" horiz-adv-x="479" d="M54 0l345 739l46 -21l-345 -739z" />
<glyph unicode="0" horiz-adv-x="627" d="M313 -19q-136 0 -208 101t-72 277q0 172 75.5 275t204.5 103q130 0 205.5 -103t75.5 -275q0 -177 -72.5 -277.5t-208.5 -100.5zM313 76q146 0 146 283q0 133 -37.5 208t-108.5 75t-108 -75.5t-37 -207.5q0 -283 145 -283z" />
<glyph unicode="1" horiz-adv-x="271" d="M7 583v23l202 132v-738h-123v583h-79z" />
<glyph unicode="2" horiz-adv-x="564" d="M14 0l93 113q181 220 229.5 293.5t48.5 127.5q0 53 -33 80.5t-87 27.5q-83 0 -180 -60l27 114q77 41 168 41q104 0 172 -55.5t68 -144.5q0 -100 -107 -217l-207 -225h315l-33 -95h-474z" />
<glyph unicode="3" horiz-adv-x="567" d="M80 590l27 109q75 38 168 38q80 0 145.5 -49t65.5 -126q0 -49 -32 -90t-92 -62q83 -27 128.5 -79t45.5 -125q0 -100 -77 -162.5t-181 -62.5q-124 0 -242 64l25 86q104 -55 191 -55q74 0 111.5 36.5t37.5 94.5q0 69 -41 106t-111 41q-42 2 -119 7l14 78q40 -2 71 -2 q70 0 108 31.5t38 81.5q0 42 -28.5 67.5t-80.5 25.5q-88 0 -172 -53z" />
<glyph unicode="4" horiz-adv-x="642" d="M524 194l91 1l-32 -96h-59v-99h-123v99h-373l384 619h112v-524zM187 190l214 4l4 349z" />
<glyph unicode="5" horiz-adv-x="564" d="M527 203q0 -102 -80 -162t-184 -60q-129 0 -236 67l31 83q89 -55 182 -55q72 0 111.5 34.5t39.5 92.5q0 83 -60 119.5t-205 49.5l-50 5l32 341h402l-34 -96h-267l-17 -173q141 -3 238 -66t97 -180z" />
<glyph unicode="6" horiz-adv-x="602" d="M246 718h154q-61 -45 -124.5 -127.5t-91.5 -161.5q56 78 161 78q98 0 165.5 -73t67.5 -193q0 -115 -79 -187.5t-197 -72.5q-113 0 -189.5 69.5t-76.5 203.5q0 74 22 148.5t47.5 123.5t63 99.5t50 64t27.5 28.5zM171 252q0 -83 38 -129.5t97 -46.5q55 0 95.5 45t40.5 124 q0 80 -38 124t-95 44q-58 0 -98 -45t-40 -116z" />
<glyph unicode="7" horiz-adv-x="531" d="M51 625v93h494l-339 -736l-118 21l294 624z" />
<glyph unicode="8" horiz-adv-x="618" d="M301 737q93 0 153.5 -48t60.5 -122q0 -42 -27.5 -80t-73.5 -61q171 -72 171 -218q0 -93 -75.5 -160t-200.5 -67q-127 0 -201.5 63.5t-74.5 158.5q0 59 41.5 113t104.5 83q-93 61 -93 154q0 74 61 129t154 55zM205 553q0 -79 113 -98q37 16 57.5 43t20.5 55 q0 36 -27.5 62.5t-67.5 26.5t-68 -26.5t-28 -62.5zM166 204q0 -48 38 -88t104 -40q68 0 106 37t38 88q0 35 -13 63t-32 44.5t-45.5 28t-47 16t-42.5 6.5q-106 -66 -106 -155z" />
<glyph unicode="9" horiz-adv-x="601" d="M350 0h-170q67 51 138 137.5t102 166.5q-24 -36 -68.5 -56t-90.5 -20q-100 0 -167 68.5t-67 189.5q0 108 78 179.5t194 71.5q109 0 187.5 -69t78.5 -198q0 -74 -23 -150t-49.5 -126.5t-65.5 -102t-51.5 -65t-25.5 -26.5zM430 481q0 74 -40 117.5t-95 43.5 q-54 0 -93.5 -42t-39.5 -116q0 -80 38 -121.5t92 -41.5q56 0 97 41t41 119z" />
<glyph unicode=":" horiz-adv-x="265" d="M63 59q0 65 68 65q69 0 69 -65q0 -64 -69 -64q-68 0 -68 64zM63 413q0 64 68 64q69 0 69 -64q0 -65 -69 -65q-68 0 -68 65z" />
<glyph unicode=";" horiz-adv-x="282" d="M44 -130l67 291l124 -41l-121 -274zM85 413q0 64 69 64t69 -64q0 -65 -69 -65t-69 65z" />
<glyph unicode="&#x3c;" horiz-adv-x="493" d="M118 309l291 -273l-34 -36l-329 309l329 309l34 -36z" />
<glyph unicode="=" horiz-adv-x="601" d="M74 222v48h453v-48h-453zM74 422v48h453v-48h-453z" />
<glyph unicode="&#x3e;" horiz-adv-x="493" d="M375 309l-291 273l34 36l329 -309l-329 -309l-34 36z" />
<glyph unicode="?" horiz-adv-x="421" d="M322 260l-26 -77q-159 42 -159 150q0 35 17 62t37 42t37 38.5t17 50.5q0 46 -41.5 68.5t-125.5 39.5l34 100q120 -17 193 -68t73 -131q0 -39 -15 -68t-36 -45.5t-42.5 -29.5t-36.5 -28t-15 -34q0 -45 89 -70zM152 59q0 65 68 65q69 0 69 -65q0 -64 -69 -64q-68 0 -68 64z " />
<glyph unicode="@" horiz-adv-x="795" d="M489 189l-242 9q26 164 136 333h82l47 -265q63 1 94 44t31 117q0 90 -60.5 151t-166.5 61q-108 0 -179 -80t-71 -198q0 -135 80 -213.5t213 -78.5q107 0 179 29v-106q-77 -22 -178 -22q-182 0 -299.5 107.5t-117.5 283.5q0 160 110 268t263 108q149 0 248 -91t99 -218 q0 -104 -65 -171.5t-189 -67.5h-14zM347 257l75 -2l-11 183q-49 -83 -64 -181z" />
<glyph unicode="A" d="M107 0h-109q53 395 256 718h147l139 -718h-122l-26 139h-261q-15 -70 -24 -139zM150 229h226l-70 380q-101 -183 -156 -380z" />
<glyph unicode="B" horiz-adv-x="563" d="M181 353v-259q121 0 173 26t52 101q0 74 -58 103t-167 29zM181 624v-187q185 0 185 94q0 49 -45.5 71t-139.5 22zM54 718h116q159 0 242.5 -49.5t83.5 -132.5q0 -95 -122 -135q76 -19 123 -67t47 -120q0 -214 -341 -214h-149v718z" />
<glyph unicode="C" horiz-adv-x="503" d="M474 711v-102q-67 29 -121 29q-89 0 -138 -86.5t-49 -224.5q0 -132 47.5 -187.5t143.5 -55.5q52 0 126 26v-106q-65 -23 -136 -23q-319 0 -319 343q0 106 34 197.5t108.5 153.5t176.5 62q65 0 127 -26z" />
<glyph unicode="D" horiz-adv-x="600" d="M54 718h53q201 0 338.5 -120t137.5 -308q0 -139 -100 -214.5t-281 -75.5h-148v718zM445 302q0 120 -73 211t-191 106v-525q134 0 199 47.5t65 160.5z" />
<glyph unicode="E" horiz-adv-x="490" d="M54 0v718h409l-35 -99h-247v-157h272l-35 -99h-237v-264h289l-35 -99h-381z" />
<glyph unicode="F" horiz-adv-x="475" d="M54 0v718h409l-35 -99h-247v-171h264l-35 -99h-229v-349h-127z" />
<glyph unicode="G" horiz-adv-x="583" d="M499 711v-102q-81 29 -129 29q-105 0 -154.5 -83.5t-49.5 -227.5q0 -135 46.5 -191t145.5 -56q26 0 51 3v327h128v-408q-91 -21 -189 -21q-155 0 -237.5 85.5t-82.5 257.5q0 107 34.5 198.5t111.5 153t184 61.5q68 0 141 -26z" />
<glyph unicode="H" horiz-adv-x="628" d="M447 462v256h127v-718h-127v363h-266v-363h-127v718h127v-256h266z" />
<glyph unicode="I" horiz-adv-x="245" d="M59 0v718h127v-718h-127z" />
<glyph unicode="J" horiz-adv-x="355" d="M45 -21l-35 98q86 1 125.5 29t39.5 99v513h126v-514q0 -116 -70 -170.5t-186 -54.5z" />
<glyph unicode="K" horiz-adv-x="572" d="M440 0l-248 420l227 298h131l-232 -290l259 -428h-137zM54 0v718h127v-718h-127z" />
<glyph unicode="L" horiz-adv-x="470" d="M54 0v718h127v-619h289l-35 -99h-381z" />
<glyph unicode="M" horiz-adv-x="722" d="M54 718h111l197 -263l198 263h108v-718h-128v527l-187 -250l-184 246v-523h-115v718z" />
<glyph unicode="N" horiz-adv-x="618" d="M564 0h-115v321l-280 231v-552h-115v718h100l295 -242v242h115v-718z" />
<glyph unicode="O" horiz-adv-x="645" d="M322 638q-72 0 -114 -84t-42 -226q0 -125 42 -186.5t114 -61.5t114 61.5t42 186.5q0 142 -42 226t-114 84zM322 737q93 0 161 -58.5t100.5 -149.5t32.5 -201q0 -165 -79 -256t-215 -91t-215 91t-79 256q0 110 32.5 201t100.5 149.5t161 58.5z" />
<glyph unicode="P" horiz-adv-x="522" d="M54 718h145q149 0 227.5 -75t78.5 -204q0 -133 -81.5 -205t-242.5 -72v-162h-127v718zM181 624v-368q186 0 186 185q0 101 -48 142t-138 41z" />
<glyph unicode="Q" horiz-adv-x="668" d="M322 -19q-136 0 -215 91t-79 256q0 113 31 203.5t99 148t164 57.5q93 0 161.5 -58.5t100.5 -149.5t32 -201q0 -137 -67 -230l127 -109l-89 -94l-125 124q-62 -38 -140 -38zM322 638q-76 0 -116 -82t-40 -228q0 -125 42 -186.5t114 -61.5t114 62.5t42 185.5q0 142 -42 226 t-114 84z" />
<glyph unicode="R" horiz-adv-x="533" d="M311 238l218 -159l-82 -100l-266 216v-195h-127v718h139q307 0 307 -219q0 -138 -189 -261zM181 624v-358q41 28 60.5 42t47.5 38.5t40.5 44t22.5 46.5t10 58q0 76 -47 102.5t-134 26.5z" />
<glyph unicode="S" horiz-adv-x="360" d="M322 214q0 -102 -72.5 -165t-187.5 -68l-36 99q72 4 115 39.5t43 85.5q0 31 -21 69t-45.5 69t-45.5 73t-21 80q0 85 67.5 158t162.5 83l35 -98q-54 -10 -90.5 -48.5t-36.5 -83.5q0 -28 21 -64.5t45.5 -68t45.5 -75.5t21 -85z" />
<glyph unicode="T" horiz-adv-x="503" d="M512 718l-35 -99h-162v-619h-127v619h-177v99h501z" />
<glyph unicode="U" horiz-adv-x="609" d="M444 244v474h115v-474q0 -129 -70 -196t-184 -67t-184.5 67t-70.5 196v474h128v-474q0 -80 34.5 -122t97.5 -42q64 0 99 42.5t35 121.5z" />
<glyph unicode="V" horiz-adv-x="551" d="M7 718h124l155 -584l153 584h109l-193 -709l-148 -28z" />
<glyph unicode="W" horiz-adv-x="836" d="M3 718h123l132 -537l112 368l-41 169h123l130 -535l130 535h108l-178 -710l-129 -27l-94 390l-108 -360l-121 -30z" />
<glyph unicode="X" horiz-adv-x="562" d="M414 718h120l-188 -333l217 -385h-137l-151 283l-151 -283h-120l204 372l-193 346h136l129 -245z" />
<glyph unicode="Y" horiz-adv-x="556" d="M215 0v259l-215 459h132l152 -339l154 339h115l-212 -451v-267h-126z" />
<glyph unicode="Z" horiz-adv-x="534" d="M45 718h460l-303 -619h323l-36 -99h-467l303 619h-280v99z" />
<glyph unicode="[" horiz-adv-x="325" d="M279 796v-48h-125v-800h125v-48h-175v896h175z" />
<glyph unicode="\" horiz-adv-x="475" d="M113 739l296 -742l-47 -18l-297 741z" />
<glyph unicode="]" horiz-adv-x="325" d="M46 748v48h175v-896h-175v48h125v800h-125z" />
<glyph unicode="^" horiz-adv-x="876" d="M422 612h32l361 -596l-43 -26l-334 552l-334 -552l-43 26z" />
<glyph unicode="_" horiz-adv-x="436" d="M10 -77v77h416v-77h-416z" />
<glyph unicode="`" horiz-adv-x="368" d="M250 744l-159 61l43 84l143 -92z" />
<glyph unicode="a" d="M107 0h-109q53 395 256 718h147l139 -718h-122l-26 139h-261q-15 -70 -24 -139zM150 229h226l-70 380q-101 -183 -156 -380z" />
<glyph unicode="b" horiz-adv-x="563" d="M181 353v-259q121 0 173 26t52 101q0 74 -58 103t-167 29zM181 624v-187q185 0 185 94q0 49 -45.5 71t-139.5 22zM54 718h116q159 0 242.5 -49.5t83.5 -132.5q0 -95 -122 -135q76 -19 123 -67t47 -120q0 -214 -341 -214h-149v718z" />
<glyph unicode="c" horiz-adv-x="503" d="M474 711v-102q-67 29 -121 29q-89 0 -138 -86.5t-49 -224.5q0 -132 47.5 -187.5t143.5 -55.5q52 0 126 26v-106q-65 -23 -136 -23q-319 0 -319 343q0 106 34 197.5t108.5 153.5t176.5 62q65 0 127 -26z" />
<glyph unicode="d" horiz-adv-x="600" d="M54 718h53q201 0 338.5 -120t137.5 -308q0 -139 -100 -214.5t-281 -75.5h-148v718zM445 302q0 120 -73 211t-191 106v-525q134 0 199 47.5t65 160.5z" />
<glyph unicode="e" horiz-adv-x="490" d="M54 0v718h409l-35 -99h-247v-157h272l-35 -99h-237v-264h289l-35 -99h-381z" />
<glyph unicode="f" horiz-adv-x="475" d="M54 0v718h409l-35 -99h-247v-171h264l-35 -99h-229v-349h-127z" />
<glyph unicode="g" horiz-adv-x="583" d="M499 711v-102q-81 29 -129 29q-105 0 -154.5 -83.5t-49.5 -227.5q0 -135 46.5 -191t145.5 -56q26 0 51 3v327h128v-408q-91 -21 -189 -21q-155 0 -237.5 85.5t-82.5 257.5q0 107 34.5 198.5t111.5 153t184 61.5q68 0 141 -26z" />
<glyph unicode="h" horiz-adv-x="628" d="M447 462v256h127v-718h-127v363h-266v-363h-127v718h127v-256h266z" />
<glyph unicode="i" horiz-adv-x="245" d="M59 0v718h127v-718h-127z" />
<glyph unicode="j" horiz-adv-x="355" d="M45 -21l-35 98q86 1 125.5 29t39.5 99v513h126v-514q0 -116 -70 -170.5t-186 -54.5z" />
<glyph unicode="k" horiz-adv-x="572" d="M440 0l-248 420l227 298h131l-232 -290l259 -428h-137zM54 0v718h127v-718h-127z" />
<glyph unicode="l" horiz-adv-x="470" d="M54 0v718h127v-619h289l-35 -99h-381z" />
<glyph unicode="m" horiz-adv-x="722" d="M54 718h111l197 -263l198 263h108v-718h-128v527l-187 -250l-184 246v-523h-115v718z" />
<glyph unicode="n" horiz-adv-x="618" d="M564 0h-115v321l-280 231v-552h-115v718h100l295 -242v242h115v-718z" />
<glyph unicode="o" horiz-adv-x="646" d="M323 638q-72 0 -114 -84t-42 -226q0 -125 42 -186.5t114 -61.5t114 61.5t42 186.5q0 142 -42 226t-114 84zM323 737q93 0 161 -58.5t100.5 -149.5t32.5 -201q0 -165 -79 -256t-215 -91t-215 91t-79 256q0 110 32.5 201t100.5 149.5t161 58.5z" />
<glyph unicode="p" horiz-adv-x="522" d="M54 718h145q149 0 227.5 -75t78.5 -204q0 -133 -81.5 -205t-242.5 -72v-162h-127v718zM181 624v-368q186 0 186 185q0 101 -48 142t-138 41z" />
<glyph unicode="q" horiz-adv-x="668" d="M322 -19q-136 0 -215 91t-79 256q0 113 31 203.5t99 148t164 57.5q93 0 161.5 -58.5t100.5 -149.5t32 -201q0 -137 -67 -230l127 -109l-89 -94l-125 124q-62 -38 -140 -38zM322 638q-76 0 -116 -82t-40 -228q0 -125 42 -186.5t114 -61.5t114 62.5t42 185.5q0 142 -42 226 t-114 84z" />
<glyph unicode="r" horiz-adv-x="533" d="M311 238l218 -159l-82 -100l-266 216v-195h-127v718h139q307 0 307 -219q0 -138 -189 -261zM181 624v-358q41 28 60.5 42t47.5 38.5t40.5 44t22.5 46.5t10 58q0 76 -47 102.5t-134 26.5z" />
<glyph unicode="s" horiz-adv-x="360" d="M322 214q0 -102 -72.5 -165t-187.5 -68l-36 99q72 4 115 39.5t43 85.5q0 31 -21 69t-45.5 69t-45.5 73t-21 80q0 85 67.5 158t162.5 83l35 -98q-54 -10 -90.5 -48.5t-36.5 -83.5q0 -28 21 -64.5t45.5 -68t45.5 -75.5t21 -85z" />
<glyph unicode="t" horiz-adv-x="503" d="M512 718l-35 -99h-162v-619h-127v619h-177v99h501z" />
<glyph unicode="u" horiz-adv-x="609" d="M444 244v474h115v-474q0 -129 -70 -196t-184 -67t-184.5 67t-70.5 196v474h128v-474q0 -80 34.5 -122t97.5 -42q64 0 99 42.5t35 121.5z" />
<glyph unicode="v" horiz-adv-x="551" d="M7 718h124l155 -584l153 584h109l-193 -709l-148 -28z" />
<glyph unicode="w" horiz-adv-x="836" d="M3 718h123l132 -537l112 368l-41 169h123l130 -535l130 535h108l-178 -710l-129 -27l-94 390l-108 -360l-121 -30z" />
<glyph unicode="x" horiz-adv-x="562" d="M414 718h120l-188 -333l217 -385h-137l-151 283l-151 -283h-120l204 372l-193 346h136l129 -245z" />
<glyph unicode="y" horiz-adv-x="556" d="M215 0v259l-215 459h132l152 -339l154 339h115l-212 -451v-267h-126z" />
<glyph unicode="z" horiz-adv-x="534" d="M45 718h460l-303 -619h323l-36 -99h-467l303 619h-280v99z" />
<glyph unicode="{" horiz-adv-x="377" d="M77 314v44h15q34 0 50.5 39.5t16.5 100.5v178q0 61 24.5 90.5t66.5 29.5h63v-48h-63q-41 0 -41 -70v-180q0 -121 -59 -162q59 -42 59 -162v-156q0 -70 41 -70h63v-48h-63q-42 0 -66.5 29.5t-24.5 90.5v154q0 61 -16.5 100.5t-50.5 39.5h-15z" />
<glyph unicode="|" horiz-adv-x="368" d="M159 -20v758h50v-758h-50z" />
<glyph unicode="}" horiz-adv-x="377" d="M300 358v-44h-15q-34 0 -50.5 -39.5t-16.5 -100.5v-154q0 -61 -24.5 -90.5t-66.5 -29.5h-63v48h63q41 0 41 70v156q0 120 59 162q-59 41 -59 162v180q0 70 -41 70h-63v48h63q42 0 66.5 -29.5t24.5 -90.5v-178q0 -61 16.5 -100.5t50.5 -39.5h15z" />
<glyph unicode="~" horiz-adv-x="627" d="M421 308q-58 0 -117.5 32.5t-97.5 32.5q-45 0 -88 -34l-28 31q56 51 116 51q46 0 82.5 -16.5t67.5 -32.5t65 -16q45 0 88 34l28 -31q-56 -51 -116 -51z" />
<glyph unicode="&#xa1;" horiz-adv-x="289" d="M66 0l19 495l88 32l19 -527h-126zM198 659q0 -65 -68 -65q-69 0 -69 65q0 64 69 64q68 0 68 -64z" />
<glyph unicode="&#xa2;" horiz-adv-x="479" d="M247 -109v93q-208 22 -208 253q0 110 54 196t154 104v92h56v-88q47 -4 100 -24v-102q-64 27 -109 27q-57 0 -88 -56.5t-31 -146.5q0 -86 31 -122.5t93 -36.5q51 0 111 24v-102q-53 -19 -107 -20v-91h-56z" />
<glyph unicode="&#xa3;" horiz-adv-x="593" d="M46 0v67q73 31 105 60.5t32 69.5q0 39 -19 72h-127l26 72h68q-49 76 -49 145q0 83 62.5 137.5t155.5 54.5q90 0 148.5 -50t72.5 -127l-125 -26q-7 46 -30 77t-66 31q-41 0 -62.5 -30t-21.5 -72q0 -57 46 -140h187l-26 -72h-124q17 -29 17 -62q0 -34 -23.5 -63t-62.5 -46 h304v-98h-488z" />
<glyph unicode="&#xa5;" horiz-adv-x="588" d="M215 0v141h-166l18 51h149v70h-167l18 51h121l-188 345h135l149 -287l151 287h118l-189 -345h140l-18 -51h-146v-70h164l-18 -51h-145v-141h-126z" />
<glyph unicode="&#xa7;" horiz-adv-x="421" d="M298 738l24 -44q-105 -57 -156 -140q75 -50 123 -120.5t48 -154.5q0 -91 -65 -170t-165 -129l-22 44q100 49 155 125q-161 111 -161 278q0 99 62.5 179.5t156.5 131.5zM129 427q0 -140 138 -235q20 43 20 87q0 130 -143 229q-15 -38 -15 -81z" />
<glyph unicode="&#xa8;" horiz-adv-x="544" d="M263 807q0 -22 -14 -35t-38 -13q-23 0 -37 13t-14 35q0 23 13.5 35.5t37.5 12.5q52 0 52 -48zM428 807q0 -23 -13.5 -35.5t-37.5 -12.5t-38 13t-14 35q0 48 52 48q51 0 51 -48z" />
<glyph unicode="&#xa9;" horiz-adv-x="533" d="M267 738q101 0 158.5 -69.5t57.5 -171.5t-58 -158t-158 -56q-101 0 -159 56t-58 158t57.5 171.5t159.5 69.5zM336 634v-38q-20 12 -51 12q-37 0 -58 -30.5t-21 -77.5q0 -86 82 -86q30 0 52 10v-39q-35 -10 -57 -10q-128 0 -128 123q0 60 33 104t94 44q32 0 54 -12z M267 702q-81 0 -126.5 -59t-45.5 -146q0 -85 46 -131t126 -46q79 0 125.5 46.5t46.5 130.5q0 87 -46 146t-126 59z" />
<glyph unicode="&#xab;" horiz-adv-x="602" d="M283 90l-233 219l233 219l34 -36l-195 -183l195 -183zM503 90l-233 219l233 219l34 -36l-195 -183l195 -183z" />
<glyph unicode="&#xad;" horiz-adv-x="372" d="M51 247l35 98h239l-35 -98h-239z" />
<glyph unicode="&#xae;" horiz-adv-x="533" d="M267 738q101 0 158.5 -69.5t57.5 -171.5t-58 -158t-158 -56q-101 0 -159 56t-58 158t57.5 171.5t159.5 69.5zM302 462l72 -46l-31 -38l-113 87v-81h-46v255h47q63 0 98.5 -20.5t35.5 -58.5q0 -48 -66 -86q-8 -4 -13 -5q7 0 16 -7zM230 603v-128q26 13 40.5 21.5 t29.5 25.5t15 36q0 45 -85 45zM267 702q-81 0 -126.5 -59t-45.5 -146q0 -85 46 -131t126 -46q79 0 125.5 46.5t46.5 130.5q0 87 -46 146t-126 59z" />
<glyph unicode="&#xb0;" horiz-adv-x="357" d="M54 584q0 57 40.5 98t98.5 41t99 -41t41 -98t-41 -97.5t-99 -40.5t-98.5 40.5t-40.5 97.5zM102 584q0 -38 27 -65.5t64 -27.5q38 0 65 27.5t27 65.5t-27 66t-65 28q-37 0 -64 -28t-27 -66z" />
<glyph unicode="&#xb2;" horiz-adv-x="470" d="M67 384l58 56q34 34 70 68t52 48.5t30.5 30t18.5 26t4 23.5q0 52 -75 52q-54 0 -117 -29l14 59q51 20 104 20q63 0 97.5 -26t34.5 -71q0 -25 -9.5 -43.5t-37.5 -45.5l-125 -120h178l-16 -48h-281z" />
<glyph unicode="&#xb3;" horiz-adv-x="461" d="M97 662l16 59q42 17 104 17q42 0 78.5 -24t36.5 -61q0 -23 -16 -43t-48 -29q92 -26 92 -98q0 -49 -44 -78.5t-106 -29.5q-76 0 -136 28l13 48q58 -26 123 -26q92 0 92 59q0 63 -103 68l-73 3l9 42q23 -1 47 -1q40 0 66 14.5t26 36.5q0 18 -18 29.5t-44 11.5 q-66 0 -115 -26z" />
<glyph unicode="&#xb4;" horiz-adv-x="374" d="M277 805l-159 -61l-27 53l143 92z" />
<glyph unicode="&#xb6;" horiz-adv-x="726" d="M449 0v718h42v-718h-42zM552 0v718h114v-32h-72v-686h-42zM388 718v-718h-42v212q-138 0 -212 66t-74 186q0 118 73.5 186t212.5 68h42z" />
<glyph unicode="&#xb8;" horiz-adv-x="530" d="M250 -192l-23 38q16 1 27 16t11 30q0 36 -17 64h74q14 -26 14 -53q0 -39 -23.5 -64.5t-62.5 -30.5z" />
<glyph unicode="&#xb9;" horiz-adv-x="349" d="M160 384v254h-53l106 100v-354h-53z" />
<glyph unicode="&#xbb;" horiz-adv-x="602" d="M319 90l-34 36l195 183l-195 183l34 36l233 -219zM99 90l-34 36l195 183l-195 183l34 36l233 -219z" />
<glyph unicode="&#xbc;" horiz-adv-x="783" d="M344 58l-2 4l237 283h48v-239h60l-16 -48h-44v-58h-53v58h-230zM439 104l135 2l2 162zM125 28l465 690l42 -28l-465 -690zM160 384v254h-53l106 100v-354h-53z" />
<glyph unicode="&#xbd;" horiz-adv-x="811" d="M102 28l465 690l42 -28l-465 -690zM157 384v254h-53l106 100v-354h-53zM408 0l58 56q25 24 53 51t43 41t31 29.5t23 24t14 18.5t9 17t2 15q0 52 -75 52q-54 0 -117 -29l14 59q51 20 104 20q63 0 97.5 -26t34.5 -71q0 -25 -9.5 -43.5t-37.5 -45.5l-125 -120h178l-16 -48 h-281z" />
<glyph unicode="&#xbe;" horiz-adv-x="834" d="M395 58l-2 4l237 283h48v-239h60l-16 -48h-44v-58h-53v58h-230zM490 104l135 2l2 162zM95 662l16 59q42 17 104 17q42 0 78.5 -24t36.5 -61q0 -23 -16 -43t-48 -29q92 -26 92 -98q0 -49 -44 -78.5t-106 -29.5q-76 0 -136 28l13 48q58 -26 123 -26q92 0 92 59 q0 63 -103 68l-73 3l9 42q23 -1 47 -1q40 0 66 14.5t26 36.5q0 18 -18 29.5t-44 11.5q-66 0 -115 -26zM176 28l465 690l42 -28l-465 -690z" />
<glyph unicode="&#xbf;" horiz-adv-x="421" d="M99 458l26 78q158 -42 158 -150q0 -29 -11 -52t-26.5 -38t-31.5 -29.5t-27 -33t-11 -41.5q0 -45 41 -68t126 -40l-34 -100q-120 17 -193 68.5t-73 131.5q0 39 15 68t36 45t42 29t36 28t15 34q0 47 -88 70zM269 659q0 -64 -69 -64q-68 0 -68 64q0 65 68 65q69 0 69 -65z " />
<glyph unicode="&#xc0;" d="M107 0h-109q53 395 256 718h147l139 -718h-122l-26 139h-261q-15 -70 -24 -139zM150 229h226l-70 380q-101 -183 -156 -380zM332 744l-159 61l43 84l143 -92z" />
<glyph unicode="&#xc1;" d="M107 0h-109q53 395 256 718h147l139 -718h-122l-26 139h-261q-15 -70 -24 -139zM150 229h226l-70 380q-101 -183 -156 -380zM450 805l-159 -61l-27 53l143 92z" />
<glyph unicode="&#xc2;" d="M107 0h-109q53 395 256 718h147l139 -718h-122l-26 139h-261q-15 -70 -24 -139zM150 229h226l-70 380q-101 -183 -156 -380zM320 813l-108 -64l-34 42l131 105h21l131 -105l-34 -42z" />
<glyph unicode="&#xc3;" d="M107 0h-109q53 395 256 718h147l139 -718h-122l-26 139h-261q-15 -70 -24 -139zM150 229h226l-70 380q-101 -183 -156 -380zM273 877q24 0 53.5 -19t52.5 -19q38 0 65 34l32 -41q-40 -69 -110 -69q-24 0 -54.5 19t-53.5 19q-40 0 -66 -34l-32 41q39 69 113 69z" />
<glyph unicode="&#xc4;" d="M107 0h-109q53 395 256 718h147l139 -718h-122l-26 139h-261q-15 -70 -24 -139zM150 229h226l-70 380q-101 -183 -156 -380zM289 807q0 -22 -14 -35t-38 -13q-23 0 -37 13t-14 35q0 23 13.5 35.5t37.5 12.5q52 0 52 -48zM454 807q0 -23 -13.5 -35.5t-37.5 -12.5t-38 13 t-14 35q0 48 52 48q51 0 51 -48z" />
<glyph unicode="&#xc5;" d="M216 782q0 47 27.5 72.5t76.5 25.5t77 -25.5t28 -72.5q0 -44 -25 -64l140 -718h-123l-26 139h-261q-15 -70 -24 -139h-108q51 387 251 711q-33 22 -33 71zM149 229h226l-70 380q-101 -183 -156 -380zM275 782q0 -19 12 -31t33 -12t33.5 12t12.5 31q0 20 -12.5 32.5 t-33.5 12.5t-33 -12.5t-12 -32.5z" />
<glyph unicode="&#xc6;" horiz-adv-x="827" d="M97 0h-111q111 398 365 718h449l-35 -98h-253v-158h277l-35 -99h-242v-265h295l-35 -98h-388v139h-244q-22 -64 -43 -139zM175 229h209v373q-125 -169 -209 -373z" />
<glyph unicode="&#xc7;" horiz-adv-x="503" d="M474 711v-102q-67 29 -121 29q-89 0 -138 -86.5t-49 -224.5q0 -132 47.5 -187.5t143.5 -55.5q52 0 126 26v-106q-65 -23 -136 -23q-319 0 -319 343q0 106 34 197.5t108.5 153.5t176.5 62q65 0 127 -26zM248 -192l-23 38q16 1 27 16t11 30q0 36 -17 64h74q14 -26 14 -53 q0 -39 -23.5 -64.5t-62.5 -30.5z" />
<glyph unicode="&#xc8;" horiz-adv-x="490" d="M54 0v718h409l-35 -99h-247v-157h272l-35 -99h-237v-264h289l-35 -99h-381zM274 744l-159 61l43 84l143 -92z" />
<glyph unicode="&#xc9;" horiz-adv-x="490" d="M396 805l-159 -61l-27 53l143 92zM54 0v718h409l-35 -99h-247v-157h272l-35 -99h-237v-264h289l-35 -99h-381z" />
<glyph unicode="&#xca;" horiz-adv-x="490" d="M256 813l-108 -64l-34 42l131 105h21l131 -105l-34 -42zM54 0v718h409l-35 -99h-247v-157h272l-35 -99h-237v-264h289l-35 -99h-381z" />
<glyph unicode="&#xcb;" horiz-adv-x="490" d="M227 807q0 -22 -14 -35t-38 -13q-23 0 -37 13t-14 35q0 23 13.5 35.5t37.5 12.5q52 0 52 -48zM392 807q0 -23 -13.5 -35.5t-37.5 -12.5t-38 13t-14 35q0 48 52 48q51 0 51 -48zM54 0v718h409l-35 -99h-247v-157h272l-35 -99h-237v-264h289l-35 -99h-381z" />
<glyph unicode="&#xcc;" horiz-adv-x="245" d="M59 0v718h127v-718h-127zM156 744l-159 61l43 84l143 -92z" />
<glyph unicode="&#xcd;" horiz-adv-x="245" d="M59 0v718h127v-718h-127zM250 805l-159 -61l-27 53l143 92z" />
<glyph unicode="&#xce;" horiz-adv-x="245" d="M59 0v718h127v-718h-127zM123 813l-108 -64l-34 42l131 105h21l131 -105l-34 -42z" />
<glyph unicode="&#xcf;" horiz-adv-x="245" d="M59 0v718h127v-718h-127zM92 807q0 -22 -14 -35t-38 -13q-23 0 -37 13t-14 35q0 23 13.5 35.5t37.5 12.5q52 0 52 -48zM257 807q0 -23 -13.5 -35.5t-37.5 -12.5t-38 13t-14 35q0 48 52 48q51 0 51 -48z" />
<glyph unicode="&#xd0;" horiz-adv-x="625" d="M70 718h60q202 0 340 -119.5t138 -308.5q0 -139 -100.5 -214.5t-283.5 -75.5h-154v280h-80l34 94h46v344zM470 302q0 120 -76.5 210.5t-196.5 106.5v-245h141l-33 -94h-108v-186q137 0 205 48t68 160z" />
<glyph unicode="&#xd1;" horiz-adv-x="618" d="M564 0h-115v321l-280 231v-552h-115v718h100l295 -242v242h115v-718zM269 877q24 0 53.5 -19t52.5 -19q38 0 65 34l32 -41q-40 -69 -110 -69q-24 0 -54.5 19t-53.5 19q-41 0 -66 -34l-32 41q39 69 113 69z" />
<glyph unicode="&#xd2;" horiz-adv-x="646" d="M323 638q-72 0 -114 -84t-42 -226q0 -125 42 -186.5t114 -61.5t114 61.5t42 186.5q0 142 -42 226t-114 84zM323 737q93 0 161 -58.5t100.5 -149.5t32.5 -201q0 -165 -79 -256t-215 -91t-215 91t-79 256q0 110 32.5 201t100.5 149.5t161 58.5zM335 744l-159 61l43 84 l143 -92z" />
<glyph unicode="&#xd3;" horiz-adv-x="646" d="M469 805l-159 -61l-27 53l143 92zM323 638q-72 0 -114 -84t-42 -226q0 -125 42 -186.5t114 -61.5t114 61.5t42 186.5q0 142 -42 226t-114 84zM323 737q93 0 161 -58.5t100.5 -149.5t32.5 -201q0 -165 -79 -256t-215 -91t-215 91t-79 256q0 110 32.5 201t100.5 149.5 t161 58.5z" />
<glyph unicode="&#xd4;" horiz-adv-x="646" d="M324 813l-108 -64l-34 42l131 105h21l131 -105l-34 -42zM323 638q-72 0 -114 -84t-42 -226q0 -125 42 -186.5t114 -61.5t114 61.5t42 186.5q0 142 -42 226t-114 84zM323 737q93 0 161 -58.5t100.5 -149.5t32.5 -201q0 -165 -79 -256t-215 -91t-215 91t-79 256 q0 110 32.5 201t100.5 149.5t161 58.5z" />
<glyph unicode="&#xd5;" horiz-adv-x="646" d="M323 638q-72 0 -114 -84t-42 -226q0 -125 42 -186.5t114 -61.5t114 61.5t42 186.5q0 142 -42 226t-114 84zM323 737q93 0 161 -58.5t100.5 -149.5t32.5 -201q0 -165 -79 -256t-215 -91t-215 91t-79 256q0 110 32.5 201t100.5 149.5t161 58.5zM282 877q24 0 53.5 -19 t52.5 -19q38 0 65 34l32 -41q-40 -69 -110 -69q-24 0 -54.5 19t-53.5 19q-41 0 -66 -34l-32 41q39 69 113 69z" />
<glyph unicode="&#xd6;" horiz-adv-x="646" d="M293 807q0 -22 -14 -35t-38 -13q-23 0 -37 13t-14 35q0 23 13.5 35.5t37.5 12.5q52 0 52 -48zM458 807q0 -23 -13.5 -35.5t-37.5 -12.5t-38 13t-14 35q0 48 52 48q51 0 51 -48zM323 638q-72 0 -114 -84t-42 -226q0 -125 42 -186.5t114 -61.5t114 61.5t42 186.5 q0 142 -42 226t-114 84zM323 737q93 0 161 -58.5t100.5 -149.5t32.5 -201q0 -165 -79 -256t-215 -91t-215 91t-79 256q0 110 32.5 201t100.5 149.5t161 58.5z" />
<glyph unicode="&#xd7;" horiz-adv-x="660" d="M511 567l35 -35l-181 -181l181 -180l-35 -35l-181 180l-181 -181l-35 35l181 181l-181 182l35 35l181 -182z" />
<glyph unicode="&#xd8;" horiz-adv-x="663" d="M332 737q88 0 156 -55l49 86l50 -30l-55 -97q103 -117 103 -313q0 -165 -81 -256t-222 -91q-91 0 -158 42l-53 -92l-50 30l56 96q-97 91 -97 271q0 109 34 200.5t104 150t164 58.5zM496 328q0 118 -32 197l-235 -407q39 -38 103 -38q77 0 120.5 61.5t43.5 186.5zM332 638 q-74 0 -118.5 -84t-44.5 -226q0 -96 26 -153l237 411q-41 52 -100 52z" />
<glyph unicode="&#xd9;" horiz-adv-x="609" d="M444 244v474h115v-474q0 -129 -70 -196t-184 -67t-184.5 67t-70.5 196v474h128v-474q0 -80 34.5 -122t97.5 -42q64 0 99 42.5t35 121.5zM340 744l-159 61l43 84l143 -92z" />
<glyph unicode="&#xda;" horiz-adv-x="609" d="M436 805l-159 -61l-27 53l143 92zM444 244v474h115v-474q0 -129 -70 -196t-184 -67t-184.5 67t-70.5 196v474h128v-474q0 -80 34.5 -122t97.5 -42q64 0 99 42.5t35 121.5z" />
<glyph unicode="&#xdb;" horiz-adv-x="609" d="M314 813l-108 -64l-34 42l131 105h21l131 -105l-34 -42zM444 244v474h115v-474q0 -129 -70 -196t-184 -67t-184.5 67t-70.5 196v474h128v-474q0 -80 34.5 -122t97.5 -42q64 0 99 42.5t35 121.5z" />
<glyph unicode="&#xdc;" horiz-adv-x="609" d="M280 807q0 -22 -14 -35t-38 -13q-23 0 -37 13t-14 35q0 23 13.5 35.5t37.5 12.5q52 0 52 -48zM445 807q0 -23 -13.5 -35.5t-37.5 -12.5t-38 13t-14 35q0 48 52 48q51 0 51 -48zM444 244v474h115v-474q0 -129 -70 -196t-184 -67t-184.5 67t-70.5 196v474h128v-474 q0 -80 34.5 -122t97.5 -42q64 0 99 42.5t35 121.5z" />
<glyph unicode="&#xdd;" horiz-adv-x="556" d="M215 0v259l-215 459h132l152 -339l154 339h115l-212 -451v-267h-126zM427 805l-159 -61l-27 53l143 92z" />
<glyph unicode="&#xdf;" horiz-adv-x="702" d="M322 214q0 -102 -72.5 -165t-187.5 -68l-36 99q72 4 115 39.5t43 85.5q0 31 -21 69t-45.5 69t-45.5 73t-21 80q0 85 67.5 158t162.5 83l35 -98q-54 -10 -90.5 -48.5t-36.5 -83.5q0 -28 21 -64.5t45.5 -68t45.5 -75.5t21 -85zM664 214q0 -102 -72.5 -165t-187.5 -68 l-36 99q72 4 115 39.5t43 85.5q0 31 -21 69t-45.5 69t-45.5 73t-21 80q0 85 67.5 158t162.5 83l35 -98q-54 -10 -90.5 -48.5t-36.5 -83.5q0 -28 21 -64.5t45.5 -68t45.5 -75.5t21 -85z" />
<glyph unicode="&#xe0;" d="M107 0h-109q53 395 256 718h147l139 -718h-122l-26 139h-261q-15 -70 -24 -139zM150 229h226l-70 380q-101 -183 -156 -380zM332 744l-159 61l43 84l143 -92z" />
<glyph unicode="&#xe1;" d="M107 0h-109q53 395 256 718h147l139 -718h-122l-26 139h-261q-15 -70 -24 -139zM150 229h226l-70 380q-101 -183 -156 -380zM450 805l-159 -61l-27 53l143 92z" />
<glyph unicode="&#xe2;" d="M107 0h-109q53 395 256 718h147l139 -718h-122l-26 139h-261q-15 -70 -24 -139zM150 229h226l-70 380q-101 -183 -156 -380zM320 813l-108 -64l-34 42l131 105h21l131 -105l-34 -42z" />
<glyph unicode="&#xe3;" d="M107 0h-109q53 395 256 718h147l139 -718h-122l-26 139h-261q-15 -70 -24 -139zM150 229h226l-70 380q-101 -183 -156 -380zM273 877q24 0 53.5 -19t52.5 -19q38 0 65 34l32 -41q-40 -69 -110 -69q-24 0 -54.5 19t-53.5 19q-40 0 -66 -34l-32 41q39 69 113 69z" />
<glyph unicode="&#xe4;" d="M107 0h-109q53 395 256 718h147l139 -718h-122l-26 139h-261q-15 -70 -24 -139zM150 229h226l-70 380q-101 -183 -156 -380zM289 807q0 -22 -14 -35t-38 -13q-23 0 -37 13t-14 35q0 23 13.5 35.5t37.5 12.5q52 0 52 -48zM454 807q0 -23 -13.5 -35.5t-37.5 -12.5t-38 13 t-14 35q0 48 52 48q51 0 51 -48z" />
<glyph unicode="&#xe5;" d="M216 782q0 47 27.5 72.5t76.5 25.5t77 -25.5t28 -72.5q0 -44 -25 -64l140 -718h-123l-26 139h-261q-15 -70 -24 -139h-108q51 387 251 711q-33 22 -33 71zM149 229h226l-70 380q-101 -183 -156 -380zM275 782q0 -19 12 -31t33 -12t33.5 12t12.5 31q0 20 -12.5 32.5 t-33.5 12.5t-33 -12.5t-12 -32.5z" />
<glyph unicode="&#xe6;" horiz-adv-x="827" d="M97 0h-111q111 398 365 718h449l-35 -98h-253v-158h277l-35 -99h-242v-265h295l-35 -98h-388v139h-244q-22 -64 -43 -139zM175 229h209v373q-125 -169 -209 -373z" />
<glyph unicode="&#xe7;" horiz-adv-x="503" d="M474 711v-102q-67 29 -121 29q-89 0 -138 -86.5t-49 -224.5q0 -132 47.5 -187.5t143.5 -55.5q52 0 126 26v-106q-65 -23 -136 -23q-319 0 -319 343q0 106 34 197.5t108.5 153.5t176.5 62q65 0 127 -26zM248 -192l-23 38q16 1 27 16t11 30q0 36 -17 64h74q14 -26 14 -53 q0 -39 -23.5 -64.5t-62.5 -30.5z" />
<glyph unicode="&#xe8;" horiz-adv-x="490" d="M54 0v718h409l-35 -99h-247v-157h272l-35 -99h-237v-264h289l-35 -99h-381zM274 744l-159 61l43 84l143 -92z" />
<glyph unicode="&#xe9;" horiz-adv-x="490" d="M396 805l-159 -61l-27 53l143 92zM54 0v718h409l-35 -99h-247v-157h272l-35 -99h-237v-264h289l-35 -99h-381z" />
<glyph unicode="&#xea;" horiz-adv-x="490" d="M256 813l-108 -64l-34 42l131 105h21l131 -105l-34 -42zM54 0v718h409l-35 -99h-247v-157h272l-35 -99h-237v-264h289l-35 -99h-381z" />
<glyph unicode="&#xeb;" horiz-adv-x="490" d="M227 807q0 -22 -14 -35t-38 -13q-23 0 -37 13t-14 35q0 23 13.5 35.5t37.5 12.5q52 0 52 -48zM392 807q0 -23 -13.5 -35.5t-37.5 -12.5t-38 13t-14 35q0 48 52 48q51 0 51 -48zM54 0v718h409l-35 -99h-247v-157h272l-35 -99h-237v-264h289l-35 -99h-381z" />
<glyph unicode="&#xec;" horiz-adv-x="245" d="M59 0v718h127v-718h-127zM156 744l-159 61l43 84l143 -92z" />
<glyph unicode="&#xed;" horiz-adv-x="245" d="M59 0v718h127v-718h-127zM250 805l-159 -61l-27 53l143 92z" />
<glyph unicode="&#xee;" horiz-adv-x="245" d="M59 0v718h127v-718h-127zM123 813l-108 -64l-34 42l131 105h21l131 -105l-34 -42z" />
<glyph unicode="&#xef;" horiz-adv-x="245" d="M59 0v718h127v-718h-127zM92 807q0 -22 -14 -35t-38 -13q-23 0 -37 13t-14 35q0 23 13.5 35.5t37.5 12.5q52 0 52 -48zM257 807q0 -23 -13.5 -35.5t-37.5 -12.5t-38 13t-14 35q0 48 52 48q51 0 51 -48z" />
<glyph unicode="&#xf0;" horiz-adv-x="625" d="M70 718h60q202 0 340 -119.5t138 -308.5q0 -139 -100.5 -214.5t-283.5 -75.5h-154v280h-80l34 94h46v344zM470 302q0 120 -76.5 210.5t-196.5 106.5v-245h141l-33 -94h-108v-186q137 0 205 48t68 160z" />
<glyph unicode="&#xf1;" horiz-adv-x="618" d="M564 0h-115v321l-280 231v-552h-115v718h100l295 -242v242h115v-718zM269 877q24 0 53.5 -19t52.5 -19q38 0 65 34l32 -41q-40 -69 -110 -69q-24 0 -54.5 19t-53.5 19q-41 0 -66 -34l-32 41q39 69 113 69z" />
<glyph unicode="&#xf2;" horiz-adv-x="646" d="M323 638q-72 0 -114 -84t-42 -226q0 -125 42 -186.5t114 -61.5t114 61.5t42 186.5q0 142 -42 226t-114 84zM323 737q93 0 161 -58.5t100.5 -149.5t32.5 -201q0 -165 -79 -256t-215 -91t-215 91t-79 256q0 110 32.5 201t100.5 149.5t161 58.5zM335 744l-159 61l43 84 l143 -92z" />
<glyph unicode="&#xf3;" horiz-adv-x="646" d="M469 805l-159 -61l-27 53l143 92zM323 638q-72 0 -114 -84t-42 -226q0 -125 42 -186.5t114 -61.5t114 61.5t42 186.5q0 142 -42 226t-114 84zM323 737q93 0 161 -58.5t100.5 -149.5t32.5 -201q0 -165 -79 -256t-215 -91t-215 91t-79 256q0 110 32.5 201t100.5 149.5 t161 58.5z" />
<glyph unicode="&#xf4;" horiz-adv-x="646" d="M324 813l-108 -64l-34 42l131 105h21l131 -105l-34 -42zM323 638q-72 0 -114 -84t-42 -226q0 -125 42 -186.5t114 -61.5t114 61.5t42 186.5q0 142 -42 226t-114 84zM323 737q93 0 161 -58.5t100.5 -149.5t32.5 -201q0 -165 -79 -256t-215 -91t-215 91t-79 256 q0 110 32.5 201t100.5 149.5t161 58.5z" />
<glyph unicode="&#xf5;" horiz-adv-x="646" d="M323 638q-72 0 -114 -84t-42 -226q0 -125 42 -186.5t114 -61.5t114 61.5t42 186.5q0 142 -42 226t-114 84zM323 737q93 0 161 -58.5t100.5 -149.5t32.5 -201q0 -165 -79 -256t-215 -91t-215 91t-79 256q0 110 32.5 201t100.5 149.5t161 58.5zM282 877q24 0 53.5 -19 t52.5 -19q38 0 65 34l32 -41q-40 -69 -110 -69q-24 0 -54.5 19t-53.5 19q-41 0 -66 -34l-32 41q39 69 113 69z" />
<glyph unicode="&#xf6;" horiz-adv-x="646" d="M293 807q0 -22 -14 -35t-38 -13q-23 0 -37 13t-14 35q0 23 13.5 35.5t37.5 12.5q52 0 52 -48zM458 807q0 -23 -13.5 -35.5t-37.5 -12.5t-38 13t-14 35q0 48 52 48q51 0 51 -48zM323 638q-72 0 -114 -84t-42 -226q0 -125 42 -186.5t114 -61.5t114 61.5t42 186.5 q0 142 -42 226t-114 84zM323 737q93 0 161 -58.5t100.5 -149.5t32.5 -201q0 -165 -79 -256t-215 -91t-215 91t-79 256q0 110 32.5 201t100.5 149.5t161 58.5z" />
<glyph unicode="&#xf7;" horiz-adv-x="627" d="M248 568q0 61 65 61q66 0 66 -61t-66 -61q-65 0 -65 61zM62 332v48h503v-48h-503zM248 134q0 61 65 61q66 0 66 -61t-66 -61q-65 0 -65 61z" />
<glyph unicode="&#xf8;" horiz-adv-x="663" d="M332 737q88 0 156 -55l49 86l50 -30l-55 -97q103 -117 103 -313q0 -165 -81 -256t-222 -91q-91 0 -158 42l-53 -92l-50 30l56 96q-97 91 -97 271q0 109 34 200.5t104 150t164 58.5zM496 328q0 118 -32 197l-235 -407q39 -38 103 -38q77 0 120.5 61.5t43.5 186.5zM332 638 q-74 0 -118.5 -84t-44.5 -226q0 -96 26 -153l237 411q-41 52 -100 52z" />
<glyph unicode="&#xf9;" horiz-adv-x="609" d="M444 244v474h115v-474q0 -129 -70 -196t-184 -67t-184.5 67t-70.5 196v474h128v-474q0 -80 34.5 -122t97.5 -42q64 0 99 42.5t35 121.5zM340 744l-159 61l43 84l143 -92z" />
<glyph unicode="&#xfa;" horiz-adv-x="609" d="M436 805l-159 -61l-27 53l143 92zM444 244v474h115v-474q0 -129 -70 -196t-184 -67t-184.5 67t-70.5 196v474h128v-474q0 -80 34.5 -122t97.5 -42q64 0 99 42.5t35 121.5z" />
<glyph unicode="&#xfb;" horiz-adv-x="609" d="M314 813l-108 -64l-34 42l131 105h21l131 -105l-34 -42zM444 244v474h115v-474q0 -129 -70 -196t-184 -67t-184.5 67t-70.5 196v474h128v-474q0 -80 34.5 -122t97.5 -42q64 0 99 42.5t35 121.5z" />
<glyph unicode="&#xfc;" horiz-adv-x="609" d="M280 807q0 -22 -14 -35t-38 -13q-23 0 -37 13t-14 35q0 23 13.5 35.5t37.5 12.5q52 0 52 -48zM445 807q0 -23 -13.5 -35.5t-37.5 -12.5t-38 13t-14 35q0 48 52 48q51 0 51 -48zM444 244v474h115v-474q0 -129 -70 -196t-184 -67t-184.5 67t-70.5 196v474h128v-474 q0 -80 34.5 -122t97.5 -42q64 0 99 42.5t35 121.5z" />
<glyph unicode="&#xfd;" horiz-adv-x="556" d="M215 0v259l-215 459h132l152 -339l154 339h115l-212 -451v-267h-126zM427 805l-159 -61l-27 53l143 92z" />
<glyph unicode="&#xff;" horiz-adv-x="556" d="M215 0v259l-215 459h132l152 -339l154 339h115l-212 -451v-267h-126zM255 807q0 -22 -14 -35t-38 -13q-23 0 -37 13t-14 35q0 23 13.5 35.5t37.5 12.5q52 0 52 -48zM420 807q0 -23 -13.5 -35.5t-37.5 -12.5t-38 13t-14 35q0 48 52 48q51 0 51 -48z" />
<glyph unicode="&#x152;" horiz-adv-x="901" d="M338 737q51 0 103 -19h433l-35 -98h-261v-158h286l-35 -99h-251v-265h303l-35 -98h-393q-60 -19 -122 -19q-140 0 -221.5 91t-81.5 256q0 110 34 201t106 149.5t170 58.5zM455 126v448q-42 64 -117 64q-80 0 -126 -84t-46 -226q0 -125 44.5 -186.5t120.5 -61.5 q42 0 69 11.5t55 34.5z" />
<glyph unicode="&#x153;" horiz-adv-x="903" d="M339 737q51 0 103 -19h433l-35 -98h-261v-158h286l-35 -99h-251v-265h303l-35 -98h-393q-60 -19 -122 -19q-140 0 -221.5 91t-81.5 256q0 110 34 201t106 149.5t170 58.5zM456 126v448q-42 64 -117 64q-80 0 -126 -84t-46 -226q0 -125 44.5 -186.5t120.5 -61.5 q42 0 69 11.5t55 34.5z" />
<glyph unicode="&#x178;" horiz-adv-x="556" d="M215 0v259l-215 459h132l152 -339l154 339h115l-212 -451v-267h-126zM255 807q0 -22 -14 -35t-38 -13q-23 0 -37 13t-14 35q0 23 13.5 35.5t37.5 12.5q52 0 52 -48zM420 807q0 -23 -13.5 -35.5t-37.5 -12.5t-38 13t-14 35q0 48 52 48q51 0 51 -48z" />
<glyph unicode="&#x2c6;" horiz-adv-x="668" d="M324 813l-108 -64l-34 42l131 105h21l131 -105l-34 -42z" />
<glyph unicode="&#x2dc;" horiz-adv-x="641" d="M294 877q24 0 53.5 -19t52.5 -19q38 0 65 34l32 -41q-40 -69 -110 -69q-24 0 -54.5 19t-53.5 19q-41 0 -66 -34l-32 41q39 69 113 69z" />
<glyph unicode="&#x2000;" horiz-adv-x="448" />
<glyph unicode="&#x2001;" horiz-adv-x="896" />
<glyph unicode="&#x2002;" horiz-adv-x="448" />
<glyph unicode="&#x2003;" horiz-adv-x="896" />
<glyph unicode="&#x2004;" horiz-adv-x="298" />
<glyph unicode="&#x2005;" horiz-adv-x="224" />
<glyph unicode="&#x2006;" horiz-adv-x="149" />
<glyph unicode="&#x2007;" horiz-adv-x="149" />
<glyph unicode="&#x2008;" horiz-adv-x="112" />
<glyph unicode="&#x2009;" horiz-adv-x="179" />
<glyph unicode="&#x200a;" horiz-adv-x="49" />
<glyph unicode="&#x2010;" horiz-adv-x="372" d="M51 247l35 98h239l-35 -98h-239z" />
<glyph unicode="&#x2011;" horiz-adv-x="372" d="M51 247l35 98h239l-35 -98h-239z" />
<glyph unicode="&#x2012;" horiz-adv-x="372" d="M51 247l35 98h239l-35 -98h-239z" />
<glyph unicode="&#x2013;" horiz-adv-x="576" d="M38 252v89h500v-89h-500z" />
<glyph unicode="&#x2014;" horiz-adv-x="1056" d="M28 252v89h1000v-89h-1000z" />
<glyph unicode="&#x2018;" horiz-adv-x="252" d="M210 716l-61 -262l-111 37l109 246z" />
<glyph unicode="&#x2019;" horiz-adv-x="252" d="M42 475l61 262l110 -37l-108 -246z" />
<glyph unicode="&#x201a;" horiz-adv-x="252" d="M36 -122l63 270l120 -39l-112 -254z" />
<glyph unicode="&#x201c;" horiz-adv-x="404" d="M362 716l-61 -262l-110 37l109 246zM203 716l-61 -262l-110 37l109 246z" />
<glyph unicode="&#x201d;" horiz-adv-x="404" d="M42 475l61 262l110 -37l-108 -246zM201 475l61 262l110 -37l-109 -246z" />
<glyph unicode="&#x201e;" horiz-adv-x="404" d="M27 -122l63 270l120 -39l-112 -254zM197 -122l63 270l119 -39l-112 -254z" />
<glyph unicode="&#x2022;" horiz-adv-x="376" d="M80 355q0 48 28.5 74.5t79.5 26.5t79.5 -26.5t28.5 -74.5t-28.5 -75t-79.5 -27t-79.5 26.5t-28.5 75.5z" />
<glyph unicode="&#x2026;" horiz-adv-x="802" d="M56 63q0 32 19 49.5t53 17.5q33 0 52 -17.5t19 -49.5q0 -33 -19 -50.5t-52 -17.5q-34 0 -53 17.5t-19 50.5zM331 63q0 32 19 49.5t53 17.5q33 0 52 -17.5t19 -49.5q0 -33 -19 -50.5t-52 -17.5q-34 0 -53 17.5t-19 50.5zM610 63q0 32 19 49.5t53 17.5q33 0 52 -17.5 t19 -49.5q0 -33 -19 -50.5t-52 -17.5q-34 0 -53 17.5t-19 50.5z" />
<glyph unicode="&#x202f;" horiz-adv-x="179" />
<glyph unicode="&#x2039;" horiz-adv-x="382" d="M283 90l-233 219l233 219l34 -36l-195 -183l195 -183z" />
<glyph unicode="&#x203a;" horiz-adv-x="382" d="M99 90l-34 36l195 183l-195 183l34 36l233 -219z" />
<glyph unicode="&#x205f;" horiz-adv-x="224" />
<glyph unicode="&#x20ac;" horiz-adv-x="615" d="M9 361l18 51h73q26 120 104.5 193t201.5 73q68 0 127 -26v-102q-67 29 -121 29q-140 0 -176 -167h246l-18 -51h-237q-3 -33 -3 -72h258l-18 -51h-235q10 -92 54.5 -125t130.5 -33q61 0 128 26v-102q-65 -23 -138 -23q-143 0 -222 59.5t-93 197.5h-80l18 51h61q0 41 4 72 h-83z" />
<glyph unicode="&#x2122;" horiz-adv-x="742" d="M312 718l-16 -44h-100v-290h-47v290h-109v44h272zM616 718h46v-334h-47v262l-102 -130l-102 129v-261h-47v334h46l103 -132z" />
<glyph unicode="&#x25fc;" horiz-adv-x="720" d="M0 720h720v-720h-720v720z" />
<glyph unicode="&#xfb01;" horiz-adv-x="720" d="M54 0v718h409l-35 -99h-247v-171h264l-35 -99h-229v-349h-127zM534 0v718h127v-718h-127z" />
<glyph unicode="&#xfb02;" horiz-adv-x="945" d="M54 0v718h409l-35 -99h-247v-171h264l-35 -99h-229v-349h-127zM529 0v718h127v-619h289l-35 -99h-381z" />
</font>
</defs>
</svg>
