<?xml version="1.0" encoding="utf-8"?>
<!-- Generator: Adobe Illustrator 26.5.0, SVG Export Plug-In . SVG Version: 6.00 Build 0)  -->
<svg version="1.1" id="AP-Logo-Church" xmlns="http://www.w3.org/2000/svg" xmlns:xlink="http://www.w3.org/1999/xlink" x="0px"
	 y="0px" viewBox="0 0 600 600" style="enable-background:new 0 0 600 600;" xml:space="preserve">
<style type="text/css">
	.st0{display:none;opacity:0;fill:none;}
	.st1{fill:#424143;}
	.st2{display:none;fill:#424143;}
	.st3{fill:#FFFFFF;}
</style>
<rect id="Background_00000151505251245468061580000013951823623872356498_" x="0.002" class="st0" width="600" height="600"/>
<path id="Text-Spanish" class="st1" d="M156.702,475.8c0-0.6,0.5-1.1,1-1.1h2.1c0.5,0,1,0.5,1,1.1v36.9c0,0.6-0.5,1.1-1,1.1h-2.1
	c-0.5,0-1-0.5-1-1.1V475.8z M175.802,494.2c0,10.8,8.6,19.4,19.3,19.4c7.7,0,13.2-3.6,13.2-3.6c0.2-0.2,0.4-0.6,0.4-0.9v-12.4
	c0-0.5-0.5-1-1-1h-9.3c-0.6,0-1,0.4-1,1v2c0,0.6,0.4,1,1,1h6.2v7.6c0,0-3.7,2.3-9.6,2.3c-8.5,0-14.9-7.4-14.9-15.7
	c0-8.4,6.5-15.5,14.9-15.5c3.6,0,7.5,1.8,10.2,4.2c0.6,0.6,0.9,0.6,1.4,0.1c0.4-0.5,1-1,1.5-1.5c0.4-0.4,0.3-1.1-0.1-1.5
	c-3.6-3.1-7.5-5-12.9-5C184.402,474.7,175.802,483.4,175.802,494.2z M224.402,476.3l0.1,0v35.9c0,0.5,0.4,1,1,1h18.5
	c0.6,0,1-0.5,1-1v-1.6c0-0.5-0.4-1-1-1h-15.5v-33.3c0-0.5-0.5-1-1-1h-2.1C224.802,475.3,224.402,475.8,224.402,476.3L224.402,476.3z
	 M257.402,512.1c0,0.5,0.4,1,1,1h21.1c0.6,0,1-0.5,1-1v-1.6c0-0.5-0.4-1-1-1h-18v-13.8h15.3c0.5,0,1-0.4,1-1v-1.6c0-0.5-0.5-1-1-1
	h-15.3v-13.2h18c0.6,0,1-0.5,1-1v-1.6c0-0.5-0.4-1-1-1h-21.1c-0.6,0-1,0.5-1,1V512.1z M293.602,509.2c0.7,0.7,5,4.4,11.3,4.4
	c6.3,0,11.6-4.1,11.6-9.7c0-6.3-4.7-9-11.9-12c-4.5-1.9-7.2-4-7.2-7.6c0-2.3,1.7-6,7.4-6c3.3,0,6.6,2.3,7,2.5
	c0.9,0.5,1.4,0.3,1.9-0.5c0.2-0.3,0.4-0.7,0.6-1c0.7-1,0-1.6-0.3-1.8c0,0-3.9-2.8-9.1-2.8c-8.5,0-11.4,5.9-11.4,9.6
	c0,6.2,3.5,8.6,9.4,11.2c6.2,2.6,9.4,4.9,9.4,8.6c0,3.2-2.9,6-7.2,6c-4.7,0-8.6-3.8-9-4.1c-0.8-0.6-1.4-0.2-1.9,0.5
	c-0.3,0.3-0.5,0.7-0.8,1C292.802,508.5,293.302,508.9,293.602,509.2z M331.102,512.2c0,0.5,0.5,1,1,1h2.1c0.5,0,1-0.5,1-1v-35.9
	c0-0.5-0.5-1-1-1h-2.1c-0.5,0-1,0.5-1,1V512.2z M348.702,513.2h2.1c0.5,0,0.8-0.3,0.9-0.6l3.9-8.9h19l4,8.9c0.1,0.3,0.4,0.6,0.9,0.6
	h2.1c0.8,0,1.2-0.7,0.9-1.4l-16.2-36.5c-0.2-0.3-0.4-0.6-0.9-0.6h-0.5c-0.5,0-0.7,0.3-0.9,0.6l-16.3,36.5
	C347.402,512.5,347.902,513.2,348.702,513.2z M357.102,500.3l7.8-17.8h0.4c2.6,5.9,5.2,11.9,7.8,17.8H357.102z M413.902,508.1
	c-0.4,0-0.8,0.3-0.8,0.7v1.4c0,0.4,0.4,0.7,0.8,0.7h27.9c0.4,0,0.8-0.3,0.8-0.7v-1.4c0-0.4-0.4-0.7-0.8-0.7H413.902z M413.502,502.3
	c0,0.1,0.1,0.3,0.3,0.3h4c3.3,0,6-2.8,6-6.2c0-3.4-2.7-6.2-6-6.2h-4c-0.2,0-0.3,0.1-0.3,0.3V502.3z M417.602,500.4h-1.9v-8.1h1.9
	c2.2,0,3.8,1.7,3.8,4s-1.6,4-3.8,4V500.4z M426.202,502c0,0.1,0.1,0.3,0.3,0.3h6.9c0.2,0,0.3-0.1,0.3-0.3v-1.4
	c0-0.1-0.1-0.3-0.3-0.3h-5v-3.1h4.2c0.1,0,0.3-0.1,0.3-0.3v-1.5c0-0.1-0.1-0.3-0.3-0.3h-4.2v-2.9h5c0.2,0,0.3-0.1,0.3-0.3v-1.4
	c0-0.1-0.1-0.3-0.3-0.3h-6.9c-0.2,0-0.3,0.1-0.3,0.3V502z M436.402,490.5l0,11.6c0,0.1,0.1,0.3,0.3,0.3h6.2c0.2,0,0.3-0.1,0.3-0.3
	v-1.4c0-0.1-0.1-0.3-0.3-0.3h-4.3v-9.9c0-0.1-0.1-0.3-0.3-0.3h-1.6C436.502,490.2,436.402,490.3,436.402,490.5L436.402,490.5z
	 M86.902,539l0,48.9c0,0.8,0.6,1.4,1.4,1.4h2.6c0.8,0,1.4-0.6,1.4-1.4v-39.6l0,0l33.3,41.8h1.4c0.8,0,1.4-0.4,1.4-1.2V540
	c0-0.8-0.6-1.4-1.4-1.4h-2.5c-0.8,0-1.4,0.6-1.4,1.4v38.8c-0.2,0-0.2,0-0.2,0l-32.9-41h-1.9C87.302,537.8,86.902,538.2,86.902,539
	L86.902,539z M145.002,589.4h3c0.6,0,1-0.5,1.2-0.8l5.3-12h25.9l5.5,12c0.1,0.3,0.6,0.8,1.2,0.8h3c1,0,1.7-1,1.2-1.9l-22-48.9
	c-0.1-0.5-0.6-0.8-1.2-0.8h-0.8c-0.6,0-1,0.3-1.2,0.8l-22.1,48.9C143.502,588.3,144.202,589.5,145.002,589.4z M156.802,572
	l10.6-23.8h0.6c3.6,7.9,7,15.9,10.6,23.8H156.802z M202.002,587.8c0,0.8,0.6,1.4,1.4,1.4h30.2c0.8,0,1.4-0.6,1.4-1.4v-2.3
	c0-0.8-0.6-1.4-1.4-1.4h-24l0,0l26.8-43.5v-0.9c0-0.8-0.6-1.4-1.4-1.4h-29.4c-0.8,0-1.4,0.6-1.4,1.4v2.3c0,0.8,0.6,1.4,1.4,1.4h22.9
	v0.2l-26.5,43V587.8z M248.202,589.4h3c0.6,0,1-0.5,1.2-0.8l5.3-12h25.9l5.5,12c0.1,0.3,0.6,0.8,1.2,0.8h3c1,0,1.7-1,1.2-1.9
	l-22-48.9c-0.1-0.5-0.6-0.8-1.2-0.8h-0.8c-0.6,0-1,0.3-1.2,0.8l-22.1,48.9C246.702,588.3,247.302,589.5,248.202,589.4z M260.002,572
	l10.6-23.8h0.6c3.6,7.9,7,15.9,10.6,23.8H260.002z M310.602,539.8V588c0,0.8,0.6,1.4,1.4,1.4h2.8c0.8,0,1.4-0.6,1.4-1.4v-18.4h13.9
	l9.7,19.3c0,0.3,0.5,0.6,1.1,0.6h3.7c1.2,0,1.7-1.3,1.2-2.2l-10-18.5c6.3-2.5,10.8-8.1,10.8-14.8c0-8.7-7.2-15.6-15.9-15.6h-18.9
	C311.002,538.4,310.602,539,310.602,539.8L310.602,539.8z M330.202,564.6l-14.2,0v-20.9h14.2c5.6,0,10.4,4.7,10.4,10.3
	C340.602,559.9,335.802,564.6,330.202,564.6L330.202,564.6z M418.202,539v48.9c0,0.8,0.6,1.4,1.4,1.4h2.5c0.8,0,1.4-0.6,1.4-1.4
	v-39.6l0,0l33.3,41.8h1.2c0.8,0,1.4-0.4,1.4-1.2V540c0-0.8-0.6-1.4-1.4-1.4h-2.5c-0.8,0-1.4,0.6-1.4,1.4v38.8c-0.2,0-0.2,0-0.2,0
	l-32.9-41h-1.9C418.302,537.8,418.202,538.2,418.202,539L418.202,539z M366.502,588.1c0,0.8,0.6,1.4,1.4,1.4h28.7
	c0.8,0,1.4-0.6,1.4-1.4v-2.2c0-0.8-0.6-1.4-1.4-1.4h-24.5V566h20.9c0.8,0,1.4-0.6,1.4-1.4v-2.2c0-0.8-0.6-1.4-1.4-1.4h-20.9v-17.6
	h24.5c0.8,0,1.4-0.6,1.4-1.4v-2.2c0-0.8-0.6-1.4-1.4-1.4h-28.7c-0.8,0-1.4,0.6-1.4,1.4V588.1z M473.802,564
	c0,14.2,11.1,25.5,25.1,25.5c13.9,0,25.1-11.2,25.1-25.5s-11.1-25.7-25.1-25.7C485.002,538.3,473.802,549.8,473.802,564z
	 M478.702,563.9c0-11.3,9.1-20.7,20.2-20.7c11.1,0,20.2,9.4,20.2,20.7c0,11.4-9.1,20.6-20.2,20.6S478.702,575.3,478.702,563.9z"/>
<path id="Text-English" class="st2" d="M142.602,474.2c5.6,0,9.7,1.9,13.4,5.1c0.5,0.5,0.5,1.1,0,1.6l-1.6,1.6
	c-0.5,0.6-0.9,0.5-1.4,0c-3-2.5-6.9-4.2-10.6-4.2c-8.7,0-15.4,7.3-15.4,16.1c0,8.6,6.7,15.9,15.4,15.9c4.8,0,7.6-1.9,10.6-4.2
	c0.6-0.5,0.9-0.3,1.4-0.2l1.7,1.6c0.5,0.3,0.3,1.1,0,1.6c-3.7,3.7-8.6,5.5-13.6,5.5c-11.1,0-20.1-8.9-20.1-19.9
	C122.702,483.1,131.502,474.2,142.602,474.2z M171.602,475.8l0,36.8c0,0.6,0.5,1.1,1.1,1.1h2.2c0.6,0,1.1-0.5,1.1-1.1v-16.8h22.6
	v16.8c0,0.6,0.5,1.1,1.1,1.1h2.2c0.6,0,1.1-0.5,1.1-1.1v-36.8c0-0.6-0.5-1.1-1.1-1.1h-2.2c-0.6,0-1.1,0.5-1.1,1.1V492h-22.6v-16.2
	c0-0.6-0.5-1.1-1.1-1.1h-2.2C172.102,474.7,171.602,475.2,171.602,475.8L171.602,475.8z M220.902,475.8v23.5
	c0,8.4,5.9,14.8,14.6,14.8c8.9,0,14.8-6.4,14.8-14.8v-23.5c0-0.6-0.5-1.1-1.1-1.1h-2.2c-0.6,0-1.1,0.5-1.1,1.1V499
	c0,6.4-4.1,11.2-10.6,11.2s-10.4-4.8-10.4-11.2v-23.2c0-0.6-0.5-1.1-1.1-1.1h-2.2C221.002,474.7,220.902,475.2,220.902,475.8
	L220.902,475.8z M267.602,475.8l0,36.8c0,0.6,0.5,1.1,1.1,1.1h2.2c0.6,0,1.1-0.5,1.1-1.1v-14.2h10.6l7.3,14.6
	c0.1,0.2,0.4,0.5,0.9,0.5h2.8c0.9,0,1.2-0.8,0.9-1.6l-7.6-14c4.9-2.1,8.3-6.3,8.3-11.4c0-6.7-5.5-11.8-12.2-11.8h-14.3
	C268.102,474.7,267.602,475.2,267.602,475.8L267.602,475.8z M272.102,494.8v-15.9h10.8c4.2,0,7.9,3.6,7.9,7.8c0,4.5-3.7,8.1-7.9,8.1
	H272.102z M308.302,494.7c0,11,9,19.9,20.1,19.9c5,0,9.9-1.8,13.6-5.5c0.3-0.5,0.5-1.3,0-1.6l-1.7-1.6c-0.5-0.1-0.8-0.3-1.4,0.2
	c-3,2.3-5.8,4.2-10.6,4.2c-8.7,0-15.4-7.3-15.4-15.9c0-8.8,6.7-16.1,15.4-16.1c3.7,0,7.6,1.7,10.6,4.2c0.5,0.5,0.9,0.6,1.4,0
	l1.6-1.6c0.5-0.5,0.5-1.1,0-1.6c-3.7-3.2-7.8-5.1-13.4-5.1C317.502,474.2,308.402,483.1,308.302,494.7z M357.502,512.6
	c0,0.6,0.5,1.1,1.1,1.1h2.2c0.6,0,1.1-0.5,1.1-1.1v-16.8h22.6v16.8c0,0.6,0.5,1.1,1.1,1.1h2.2c0.6,0,1.1-0.5,1.1-1.1v-36.8
	c0-0.6-0.5-1.1-1.1-1.1h-2.2c-0.6,0-1.1,0.5-1.1,1.1V492h-22.6v-16.2c0-0.6-0.5-1.1-1.1-1.1h-2.2c-0.6,0-1.1,0.5-1.1,1.1V512.6z
	 M408.302,510.9h60v-2.6h-60V510.9z M408.302,496.8c0,3.4,2.7,6.2,6.1,6.2c3.4,0,6.2-2.8,6.2-6.2c0-3.4-2.8-6.2-6.2-6.2
	S408.302,493.2,408.302,496.8z M410.502,496.8c0-2,1.7-3.9,3.9-3.9c2.2,0,3.9,1.7,3.9,3.9c0,2.2-1.7,3.9-3.9,3.9
	C412.402,500.7,410.502,498.8,410.502,496.8z M423.302,502.4c0,0.1,0.1,0.3,0.3,0.3h1.6c0.1,0,0.3-0.1,0.3-0.3V498h4.2
	c0.1,0,0.3-0.1,0.3-0.3v-1.4c0-0.1-0.1-0.3-0.3-0.3h-4.2v-3.3h5.1c0.1,0,0.3-0.1,0.3-0.3V491c0-0.1-0.1-0.3-0.3-0.3h-7
	c-0.1,0-0.3,0.1-0.3,0.3V502.4z M439.202,492.8l0.1,9.6c0,0.1,0.1,0.3,0.3,0.3h1.6c0.1,0,0.3-0.1,0.3-0.3v-9.7h2.6
	c0.1,0,0.3-0.1,0.3-0.3V491c0-0.1-0.1-0.3-0.3-0.3h-7.5c-0.1,0-0.3,0.1-0.3,0.3v1.5c0,0.1,0.1,0.3,0.3,0.3H439.202L439.202,492.8z
	 M446.602,502.4c0,0.1,0.1,0.3,0.3,0.3h1.6c0.1,0,0.3-0.1,0.3-0.3v-4.7h5.6v4.7c0,0.1,0.1,0.3,0.3,0.3h1.6c0.1,0,0.3-0.1,0.3-0.3
	V491c0-0.1-0.1-0.3-0.3-0.3h-1.6c-0.1,0-0.3,0.1-0.3,0.3v4.5h-5.6V491c0-0.1-0.1-0.3-0.3-0.3h-1.6c-0.1,0-0.3,0.1-0.3,0.3V502.4z
	 M460.202,502.2c0,0.1,0.1,0.3,0.3,0.3h7c0.1,0,0.3-0.1,0.3-0.3v-1.4c0-0.1-0.1-0.3-0.3-0.3h-5.1v-3h4.2c0.1,0,0.3-0.1,0.3-0.3v-1.4
	c0-0.1-0.1-0.3-0.3-0.3h-4.2v-2.8h5.1c0.1,0,0.3-0.1,0.3-0.3V491c0-0.1-0.1-0.3-0.3-0.3h-7c-0.1,0-0.3,0.1-0.3,0.3V502.2z
	 M86.902,538.9l0,48.9c0,0.8,0.6,1.4,1.4,1.4h2.6c0.8,0,1.4-0.6,1.4-1.4v-39.6l0,0l33.3,41.8h1.4c0.8,0,1.4-0.4,1.4-1.2v-48.9
	c0-0.8-0.6-1.4-1.4-1.4h-2.5c-0.8,0-1.4,0.6-1.4,1.4v38.8c-0.2,0-0.2,0-0.2,0l-32.9-41h-1.9C87.302,537.7,86.902,538.1,86.902,538.9
	L86.902,538.9z M145.002,589.3h3c0.6,0,1-0.5,1.2-0.8l5.3-12h25.9l5.5,12c0.1,0.3,0.6,0.8,1.2,0.8h3c1,0,1.7-1,1.2-1.9l-22-48.9
	c-0.1-0.5-0.6-0.8-1.2-0.8h-0.8c-0.6,0-1,0.3-1.2,0.8l-22.1,48.9C143.502,588.3,144.202,589.4,145.002,589.3z M156.802,571.9
	l10.6-23.8h0.6c3.6,7.9,7,15.9,10.6,23.8H156.802z M202.002,587.8c0,0.8,0.6,1.4,1.4,1.4h30.2c0.8,0,1.4-0.6,1.4-1.4v-2.3
	c0-0.8-0.6-1.4-1.4-1.4h-24l0,0l26.8-43.5v-0.9c0-0.8-0.6-1.4-1.4-1.4h-29.4c-0.8,0-1.4,0.6-1.4,1.4v2.3c0,0.8,0.6,1.4,1.4,1.4h22.9
	v0.2l-26.5,43V587.8z M248.202,589.3h3c0.6,0,1-0.5,1.2-0.8l5.3-12h25.9l5.5,12c0.1,0.3,0.6,0.8,1.2,0.8h3c1,0,1.7-1,1.2-1.9
	l-22-48.9c-0.1-0.5-0.6-0.8-1.2-0.8h-0.8c-0.6,0-1,0.3-1.2,0.8l-22.1,48.9C246.702,588.3,247.302,589.4,248.202,589.3z
	 M260.002,571.9l10.6-23.8h0.6c3.6,7.9,7,15.9,10.6,23.8H260.002z M310.602,539.7V588c0,0.8,0.6,1.4,1.4,1.4h2.8
	c0.8,0,1.4-0.6,1.4-1.4v-18.5h13.9l9.7,19.3c0,0.3,0.5,0.6,1.1,0.6h3.7c1.2,0,1.7-1.3,1.2-2.2l-10-18.5c6.3-2.5,10.8-8.1,10.8-14.8
	c0-8.7-7.2-15.6-15.9-15.6h-18.9C311.002,538.3,310.602,538.9,310.602,539.7L310.602,539.7z M330.202,564.6l-14.2,0v-20.9h14.2
	c5.6,0,10.4,4.7,10.4,10.3C340.602,559.9,335.802,564.6,330.202,564.6L330.202,564.6z M366.502,588.1c0,0.8,0.6,1.4,1.4,1.4h28.7
	c0.8,0,1.4-0.6,1.4-1.4v-2.2c0-0.8-0.6-1.4-1.4-1.4h-24.5V566h20.9c0.8,0,1.4-0.6,1.4-1.4v-2.2c0-0.8-0.6-1.4-1.4-1.4h-20.9v-17.7
	h24.5c0.8,0,1.4-0.6,1.4-1.4v-2.2c0-0.8-0.6-1.4-1.4-1.4h-28.7c-0.8,0-1.4,0.6-1.4,1.4V588.1z M418.202,538.9v48.9
	c0,0.8,0.6,1.4,1.4,1.4h2.5c0.8,0,1.4-0.6,1.4-1.4v-39.6l0,0l33.3,41.8h1.2c0.8,0,1.4-0.4,1.4-1.2v-48.9c0-0.8-0.6-1.4-1.4-1.4h-2.5
	c-0.8,0-1.4,0.6-1.4,1.4v38.8c-0.2,0-0.2,0-0.2,0l-32.9-41h-1.9C418.302,537.7,418.202,538.1,418.202,538.9L418.202,538.9z
	 M481.802,539.6v48.5c0,0.8,0.6,1.4,1.4,1.4h28.7c0.8,0,1.4-0.6,1.4-1.4v-2.2c0-0.8-0.6-1.4-1.4-1.4h-24.5V566h20.9
	c0.8,0,1.4-0.6,1.4-1.4v-2.2c0-0.8-0.6-1.4-1.4-1.4h-20.9v-17.7h24.5c0.8,0,1.4-0.6,1.4-1.4v-2.2c0-0.8-0.6-1.4-1.4-1.4h-28.5
	C482.602,538.3,481.802,538.8,481.802,539.6L481.802,539.6z"/>
<g id="AP-Logo">
	<circle id="Body-Background" class="st3" cx="300.002" cy="235.744" r="206.006"/>
	<path id="Body_00000126300936817321577020000002191191763952083846_" class="st1" d="M300.002,29.738
		c-113.774,0-206.006,92.233-206.006,206.006S186.229,441.75,300.002,441.75s206.006-92.233,206.006-206.006
		C506.008,121.971,413.776,29.738,300.002,29.738z M300.44,438.134c-111.64,0-202.142-90.502-202.142-202.14
		S188.801,33.851,300.44,33.851s202.14,90.502,202.14,202.142S412.08,438.134,300.44,438.134z M300.002,38.467
		c-105.312,0-197.277,88.324-197.277,197.277s88.324,197.277,197.277,197.277s197.277-88.324,197.277-197.277
		S415.469,38.467,300.002,38.467z M301.426,56.23c103.195,0,180.185,78.508,180.185,179.55l-24.28-9.565l-21.7,9.565
		c0-74.199-55.994-135.664-134.558-135.664c-71.798,0-136.698,59.279-136.698,135.664c0,0.088-21.549-9.565-21.549-9.565
		l-24.432,9.565C118.394,134.739,203.828,56.23,301.426,56.23z M240.048,299.711c-0.599,0-7.382,0.2-7.98-0.399
		c0.1,0,1.796-1.297,2.494-1.995c2.294-2.394,4.289-5.686,4.688-10.973c1.708,0,4.023-0.008,5.707,0
		c2.222,0.011,3.879-0.056,5.964,0c0,0.1-0.375,2.883-0.898,5.786c-0.288,1.598-0.745,3.404-1.097,4.788
		c-1.217,4.785-5.985,9.277-10.175,9.676C239.948,302.603,240.247,300.808,240.048,299.711z M226.681,290.334
		c-0.299,0-0.599-0.199-0.599-0.299c0-0.199,0-2.993,0-3.192c0.1-0.299,0.499-0.399,0.698-0.499c2.294,0,7.88,0,8.279,0
		c0.2,0,1.197,0,1.397,0c1.297,0,0.299,3.392,0.2,3.691c-0.394,0.357-1.496,0.299-1.596,0.299
		C234.561,290.334,228.975,290.334,226.681,290.334z M228.177,282.852c0,0-1.197,0-1.197-0.698c0-0.599-0.399-2.195,1.796-2.594
		c2.693-0.599,10.773-1.496,17.257-2.893c17.357-3.791,40.4-10.674,50.475-8.08c9.776,2.494,14.265,10.873,15.462,13.566
		c0.299,0.798-0.399,0.698-0.399,0.698H228.177z M252.905,286.521c0.062-0.176,0.125-0.169,0.51-0.177c6.883,0,19.552,0.1,31.322,0
		c14.065-0.1,26.435,0,27.233,0c0.199,0,0.399,0.199,0.499,0.399c0.199,0.698,0.199,2.394-0.1,3.192
		c-0.1,0.199-0.2,0.299-0.399,0.399c-0.698,0-59.073,0-59.572,0C252.17,290.334,252.834,286.721,252.905,286.521z M291.62,263.101
		c-11.272,0-27.432,0.698-41.497-5.087c-25.537-10.574-24.14-32.12-22.245-40.899c2.095-11.97,11.771-15.861,11.671-15.063
		c-0.997,4.888-5.885,20.948,0.299,32.918c12.569,27.133,44.091,16.958,62.346,23.542c13.267,4.788,12.569,12.569,13.766,14.963
		c0.499,0.998,4.788-5.486,7.382-10.873c3.392-7.082,2.893-18.654-1.596-27.233c-2.095-3.99-8.379-10.973-25.237-21.646
		c-34.714-22.045-5.885-50.176-3.591-48.779c-8.579,13.566-6.883,24.04-5.087,29.128c-0.199-1.796-0.1-4.09,0.2-7.082
		c1.097-7.98,4.389-12.669,5.786-14.364c0.798-0.998,0.898-0.299,0.698-0.1c-7.98,18.554-1.796,28.529,2.394,32.519
		c0.499,0.299,0.898,0.698,1.397,0.997c5.786,1.496,8.678-7.282,4.788-12.369c-0.698-1.097,0.599-0.698,1.097-0.399
		c2.195,1.097,6.284,3.491,8.679,9.377c1.596,3.791-0.299,9.377-3.292,11.073c2.993,2.095,6.185,4.489,9.676,7.282
		c1.397,1.197,14.165,14.065,13.566,27.632c0,1.297-0.1,2.294,0.1,2.195c3.292-0.998,13.367-17.556,4.788-32.619
		c-5.586-9.776-25.337-23.442-25.437-23.542c-1.696-1.097,5.387,0.399,10.973,3.292c9.776,4.988,46.285,28.23,9.177,63.343
		c-5.985,5.586-15.063,16.958-17.457,19.452c-0.299,0.299-0.299,0.1-0.399,0C312.568,277.266,313.665,263.101,291.62,263.101z
		 M245.833,184.895c-0.1-5.786,5.087-15.761,5.087-12.469c0,3.491-6.883,25.836,30.225,51.273c0.399,0.299,0.499,0.798,0.299,0.798
		c-14.963,0-22.843-6.085-28.23-10.374c-5.885-5.187-7.98-10.674-8.579-12.569c-0.399-1.197,0.199-0.798,0.299-0.598
		c2.793,4.389,10.973,13.965,17.257,15.561C262.392,216.517,245.434,202.851,245.833,184.895z M313.665,258.114
		c0.698,0,2.494,0.599,3.092,1.895c0.898,1.895-0.2,5.087-3.092,1.397C311.77,259.111,311.571,257.914,313.665,258.114z
		 M317.257,286.643c0-0.199,0.299-0.199,0.499-0.299c15.561,0,52.869,0,56.36,0c0.898,0,3.791-0.2,4.489,0.1
		c0.698,0.299,0.599,3.691-0.1,3.89c-0.698,0.1-45.587,0-60.749,0c-0.299,0-0.499-0.199-0.499-0.399
		C317.157,289.735,317.157,286.942,317.257,286.643z M378.804,282.852H319.75c0,0-0.599-0.1-0.299-0.599
		c1.297-2.095,5.686-8.678,11.771-10.674c6.983-2.394,22.444,3.392,34.714,6.384c4.489,1.097,10.275,1.895,12.17,2.294
		c0.499,0.1,0.997,0.698,1.097,0.997c0.1,0.2,0.1,0.798,0.299,1.097c0,0.199-0.199,0.299-0.299,0.399
		S378.804,282.852,378.804,282.852z M224.387,288.664c0,1.071-0.875,1.94-1.945,1.94c-1.069,0-1.939-0.869-1.939-1.94
		c0-1.068,0.87-1.944,1.939-1.944C223.511,286.719,224.387,287.596,224.387,288.664z M160.092,344.224
		c-1.283,0.823-1.948,1.553-2.139,2.431l-5.908-9.196c0.371-0.011,0.707-0.076,1.134-0.351c0.428-0.275,1.062-1.286,1.696-2.298
		l16.338-25.828l-0.069-0.106l-17.59,11.3c-4.705,3.023-6.431,5.038-6.627,9.318l-8.312-12.939c2.348,0.833,4.96,0.666,6.938-0.604
		l26.626-17.105c1.978-1.271,3.216-3.577,3.434-6.059l8.003,12.458c-0.497,0.167-0.992,0.336-1.474,0.646
		c-0.588,0.377-1.253,1.106-1.833,2.084l-14.654,23.161l0.069,0.106l15.558-9.995c4.705-3.022,6.432-5.038,6.628-9.318l8.312,12.939
		c-2.348-0.833-4.959-0.666-6.938,0.605L160.092,344.224z M197.176,384.092l-10.292-8.984c1.906-0.444,3.412-1.492,4.582-2.833
		c0.752-0.862,1.695-2.232,1.897-3.236l-11.824-10.321c-1.099,0.389-2.347,1.24-3.392,2.436c-1.254,1.436-1.933,3.373-1.746,4.802
		l-9.957-8.691c3.437-0.458,7.995-2.975,11.065-4.849l26.481-15.261c0.866-0.51,1.768-1.157,2.269-1.731
		c0.334-0.383,0.573-0.848,0.447-1.382l8.712,7.606c-0.448,0.03-0.753,0.186-1.045,0.521c-0.418,0.479-1.456,2.441-2.195,4.157
		l-11.643,26.189C199.091,375.812,197.214,380.667,197.176,384.092z M234.12,404.791c-0.658-1.39-1.771-2.438-4.732-3.905
		l-23.573-11.68l29.987-22.162c1.105-0.799,1.985-1.428,2.323-2.112c0.367-0.74,0.221-1.592-2.967-3.172
		c-5.808-2.877-10.573-0.274-14.594,3.548l-0.171,0.058l7.589-15.317c0.314,0.369,0.657,0.822,1.084,1.247
		c0.428,0.425,0.941,0.82,1.51,1.103l23.118,11.454l-27.89,20.507c-1.559,1.142-3.515,2.655-3.91,3.453
		c-0.62,1.252,0.122,2.329,3.824,4.163c6.776,3.357,11.655,0.81,16.272-3.356l0.17-0.058L234.12,404.791z M274.994,413.396
		c1.404-1.363,2.154-3.037,2.465-4.789c0.2-1.126,0.302-2.785-0.042-3.75l-15.451-2.75c-0.741,0.901-1.373,2.273-1.651,3.837
		c-0.334,1.877,0.083,3.887,0.979,5.014l-13.011-2.315c2.708-2.164,5.317-6.669,6.982-9.857l14.823-26.725
		c0.48-0.882,0.919-1.9,1.053-2.652c0.089-0.5,0.053-1.023-0.33-1.416l11.386,2.026c-0.369,0.257-0.55,0.547-0.627,0.985
		c-0.112,0.626,0.011,2.842,0.262,4.693l3.522,28.442c0.463,3.567,1.357,8.695,3.09,11.65L274.994,413.396z M331.697,412.391
		c-2.587,0.311-3.304-1.395-4.744-8.582c-1.65-7.865-3.503-9.434-10.443-8.599l-3.533,0.425l1.397,11.607
		c0.387,3.218,2.048,5.322,4.454,6.697l-14.636,1.761c1.799-2.072,2.46-3.496,2.065-6.777l-3.666-30.471
		c-0.357-2.965-1.395-5.208-4.076-6.745c1.868,0.095,3.389-0.024,5.786-0.312c1.956-0.235,9.418-1.517,12.635-1.9
		c11.608-1.397,15.443,4.414,16.065,9.587c0.676,5.615-1.234,9.429-6.232,11.502c3.927,1.256,6.402,2.686,8.437,12.681
		c0.779,3.81,1.917,6.362,4.628,8.147L331.697,412.391z M381.82,395.454l-25.962,11.359c1.193-2.187,1.44-4.792,0.498-6.946
		l-12.684-28.989c-0.943-2.154-3.024-3.74-5.44-4.348l26.312-11.512c1.688-0.738,2.492-1.436,3.46-2.553l5.909,13.504
		c-5.501-3.696-9.732-3.856-16.31-0.977c-4.599,2.011-5.752,3.972-4.326,7.233l2.496,5.705c1.215-0.393,2.755-0.997,4.093-1.583
		c4.307-1.884,7.222-3.784,7.993-7.728l5.629,12.865c-3.395-2.052-6.768-1.201-11.075,0.684c-1.339,0.585-2.828,1.306-3.94,1.932
		l3.387,7.742c1.452,3.319,3.383,3.929,9.031,1.459c6.694-2.929,9.808-7.067,10.161-14.503l6.8,15.543
		C386.364,393.951,384.847,394.13,381.82,395.454z M422.16,366.724c-0.066-0.365-0.18-0.687-0.516-1.069
		c-0.335-0.383-1.43-0.859-2.525-1.335l-27.973-12.312l-0.096,0.084l13.792,15.712c3.689,4.203,5.939,5.61,10.201,5.167
		l-11.558,10.145c0.475-2.446-0.08-5.003-1.63-6.77l-20.877-23.784c-1.551-1.767-4.015-2.647-6.502-2.494l11.128-9.768
		c0.239,0.467,0.48,0.932,0.857,1.363c0.461,0.524,1.281,1.074,2.334,1.502l25.083,11.043l0.096-0.084l-12.199-13.898
		c-3.689-4.202-5.939-5.61-10.201-5.166l11.557-10.145c-0.474,2.445,0.08,5.004,1.631,6.77l22.889,26.076
		c1.007,1.147,1.826,1.695,2.723,1.754L422.16,366.724z M458.624,319.272l-14.708,24.224c-0.281-2.475-1.577-4.749-3.587-5.97
		l-27.048-16.422c-2.01-1.22-4.624-1.32-6.95-0.429l14.906-24.549c0.956-1.575,1.212-2.609,1.361-4.08l12.601,7.65
		c-6.626,0.141-10.18,2.443-13.906,8.58c-2.605,4.291-2.421,6.558,0.621,8.405l5.323,3.231c0.768-1.02,1.68-2.399,2.438-3.648
		c2.44-4.02,3.732-7.249,2.095-10.92l12.004,7.288c-3.957,0.274-6.227,2.909-8.667,6.929c-0.759,1.25-1.561,2.695-2.112,3.847
		l7.224,4.386c3.096,1.88,5.028,1.269,8.227-4c3.793-6.247,3.961-11.421-0.027-17.709l14.503,8.805
		C461.477,315.429,460.338,316.447,458.624,319.272z M222.441,287.063c-0.882,0-1.602,0.713-1.602,1.601
		c0,0.883,0.72,1.603,1.602,1.603c0.889,0,1.604-0.72,1.604-1.603C224.045,287.776,223.33,287.063,222.441,287.063z M223.18,289.493
		c0.038,0.066-0.014,0.147-0.091,0.147h-0.182c-0.043,0-0.081-0.044-0.096-0.076l-0.301-0.668h-0.395v0.641
		c0,0.054-0.043,0.103-0.103,0.103h-0.138c-0.06,0-0.103-0.049-0.103-0.103v-1.756c0-0.055,0.042-0.1,0.103-0.1h0.76
		c0.333,0,0.658,0.198,0.658,0.6c0,0.401-0.283,0.545-0.433,0.582C222.967,289.07,223.074,289.285,223.18,289.493z M222.957,288.28
		c0,0.164-0.126,0.305-0.323,0.305h-0.525v-0.612h0.525C222.831,287.974,222.957,288.096,222.957,288.28z M314.805,389.015
		l-2.587,0.312l-1.199-9.968c-0.175-1.452,0.872-2.857,4.846-3.335c5.993-0.721,8.57,1.017,9.086,5.307
		C325.529,386.125,322.249,388.12,314.805,389.015z M265.205,396.23l9.146-17.669l0.125,0.022l2.177,19.683L265.205,396.23z
		 M204.292,344.925l0.096,0.083l-8.282,17.991l-8.76-7.647L204.292,344.925z M246.731,291.232l-0.199,0.798
		c-0.071,0.284-0.054,0.394-0.299,0.399h-2.095l-1.397,4.788c-0.053,0.167-0.089,0.196-0.399,0.2h-0.798
		c-0.211-0.012-0.35-0.022-0.299-0.2l1.397-4.788h-2.095c-0.147,0.002-0.196-0.076-0.1-0.399l0.2-0.798
		c0.093-0.387,0.093-0.387,0.299-0.399h2.095l0.599-2.195c0.047-0.154,0.2-0.2,0.399-0.2h0.421h0.377c0.2,0,0.299,0.1,0.299,0.2
		l-0.599,2.195h2.095C246.877,290.825,246.777,291.043,246.731,291.232z M138.313,200.601c-0.9,0.107-1.976,0.148-2.279,0.089
		c-0.211-0.041-0.351-0.131-0.473-0.313l-1.077,5.506c0.193-0.183,0.447-0.196,0.689-0.149c0.363,0.071,0.854,0.293,1.277,0.532
		l12.842,7.411c1.533,0.833,3.696,2.136,4.724,3.467l1.23-6.292c-0.553,0.426-1.532,0.611-2.44,0.434
		c-0.757-0.148-1.416-0.466-1.848-0.832l1.46-7.472c0.471-0.159,1.276-0.096,1.82,0.01c0.847,0.166,1.653,0.543,2.302,1.235
		l1.272-6.504c-1.447,0.816-3.943,1.208-5.677,1.403L138.313,200.601z M148.136,208.835l-8.495-4.582l0.012-0.06l9.566-0.894
		L148.136,208.835z M162.057,185.284l-1.875,5.451c-0.037-0.176-0.279-0.422-0.628-0.542c-0.292-0.1-0.74-0.124-1.091-0.147
		l-14.804-0.661c-2.407-0.111-4.497,0.278-5.878,0.878l2.428-7.055c0.234,1.026,0.726,1.586,1.864,1.978
		c0.611,0.21,1.38,0.345,2.248,0.383l12.035,0.556l0.03-0.088l-9.829-6.969c-0.706-0.504-1.395-0.872-2.007-1.082
		c-1.137-0.391-1.87-0.252-2.685,0.412l2.297-6.675c0.504,1.282,2.129,2.721,3.474,3.739l12.621,9.365
		c0.34,0.247,0.698,0.436,0.99,0.536C161.597,185.484,161.852,185.409,162.057,185.284z M163.331,157.007
		c-7.804-3.965-11.637-1.661-13.746,2.488c-2.109,4.149-1.711,8.604,6.094,12.57c6.21,3.156,10.981,2.952,13.746-2.488
		C172.189,164.136,169.54,160.163,163.331,157.007z M166.512,168.097c-1.369,2.693-4.292,2.798-9.018,0.396
		c-5.221-2.653-6.268-5.017-4.996-7.517c1.27-2.501,3.796-3.049,9.017-0.397C166.242,162.981,167.88,165.404,166.512,168.097z
		 M184.514,144.766l-3.056,4.334c-0.072-0.165-0.163-0.304-0.364-0.446c-0.202-0.142-0.772-0.242-1.343-0.343l-14.591-2.629
		l-0.035,0.05l8.289,5.843c2.218,1.563,3.439,1.971,5.398,1.278l-4.299,6.098c-0.054-1.207-0.606-2.351-1.538-3.008l-12.548-8.845
		c-0.933-0.658-2.195-0.792-3.35-0.438l4.138-5.871c0.166,0.193,0.331,0.385,0.559,0.545c0.277,0.195,0.726,0.361,1.271,0.444
		l13.085,2.359l0.035-0.05l-7.332-5.169c-2.218-1.563-3.438-1.971-5.398-1.278l4.298-6.097c0.055,1.207,0.606,2.351,1.539,3.008
		l13.758,9.698C183.635,144.674,184.084,144.84,184.514,144.766z M196.299,127.025l-1.864-2.012
		c-1.131-1.222-1.11-1.788,1.048-4.585c3.305-4.28,1.84-7.041,0.165-8.85c-2.786-3.008-6.265-2.727-9.092-0.109
		c-1.154,1.07-3.719,3.698-4.421,4.347c-0.859,0.796-1.423,1.276-2.184,1.77c1.49-0.161,2.536,0.424,3.521,1.488l10.117,10.923
		c1.089,1.176,1.236,1.923,1.119,3.249l5.247-4.86C198.619,128.532,197.368,128.179,196.299,127.025z M192.577,118.834
		c-0.994,1.467-1.261,2.176-1.177,2.812l-0.045,0.042l-3.603-3.89c-1.341-1.448-0.947-2.61,0.297-3.762
		c1.9-1.76,3.705-1.036,4.585-0.086C193.848,115.261,193.942,116.813,192.577,118.834z M207.135,98.952
		c-0.725-0.544-1.531-1.257-1.709-1.509c-0.125-0.176-0.163-0.337-0.127-0.553l-4.58,3.239c0.266,0.001,0.458,0.167,0.601,0.368
		c0.213,0.302,0.415,0.801,0.557,1.267l4.172,14.226c0.533,1.661,1.198,4.098,1.023,5.77l5.233-3.702
		c-0.695-0.075-1.53-0.616-2.064-1.371c-0.445-0.629-0.704-1.315-0.762-1.878l6.215-4.396c0.45,0.21,0.989,0.81,1.309,1.264
		c0.499,0.704,0.821,1.534,0.813,2.483l5.41-3.827c-1.61-0.408-3.686-1.848-5.074-2.904L207.135,98.952z M208.556,111.689
		l-2.981-9.179l0.05-0.035l7.536,5.958L208.556,111.689z M237.101,98.386c-2.626-4.196-3.993-4.424-5.991-4.326
		c1.918-1.792,2.137-3.849,0.875-6.286c-1.163-2.244-3.894-4.232-8.93-1.623c-1.396,0.72-4.568,2.572-5.417,3.012
		c-1.04,0.539-1.71,0.852-2.575,1.126c1.478,0.244,2.331,1.087,2.998,2.373l6.849,13.22c0.737,1.423,0.679,2.182,0.215,3.43
		l6.35-3.29c-1.327-0.215-2.439-0.889-3.162-2.285l-2.609-5.036l1.533-0.794c3.011-1.56,4.12-1.162,6.208,2.131
		c1.877,3.02,2.493,3.673,3.615,3.092l3.531-1.83C239.054,100.95,238.103,99.985,237.101,98.386z M225.407,95.382l-1.122,0.581
		l-2.24-4.325c-0.326-0.629-0.09-1.446,1.635-2.339c2.6-1.347,4.066-0.996,5.031,0.865
		C229.788,92.245,228.638,93.709,225.407,95.382z M256.829,90.399c1.418,1.171,3.396,2.638,5.149,3.269l-7.338,2.549
		c0.344-0.511,0.455-1.039,0.202-1.767c-0.162-0.466-0.48-1.008-1.063-1.556l-6.233-5.731l-1.849,4.069l1.548,4.455
		c0.414,1.194,0.937,1.665,2.155,2.351l-6.464,2.246c0.659-1.012,0.878-2.262,0.503-3.34l-5.038-14.5
		c-0.375-1.077-1.321-1.924-2.466-2.308l6.464-2.246c-0.53,1.293-0.647,1.987-0.233,3.181l1.943,5.591l2.961-7.164
		c0.539-1.264,0.553-1.791,0.36-2.344c-0.162-0.466-0.407-0.609-0.751-0.751l6.581-2.286c-0.474,1.078-1.678,2.965-2.303,4.455
		L249,83.363L256.829,90.399z M288.313,81.816c0.573,4.899-1.309,8.268-6.174,8.869c-3.854,0.476-8.332-1.58-9.367-9.963
		c-0.918-7.434,2.266-11.585,6.885-12.156c1.836-0.226,3.364,0.33,4.313,0.213c0.734-0.091,1.22-0.43,1.714-0.957l1.084,8.782
		c0.004,0.03,0.007,0.061-0.023,0.065c-0.031,0.004-0.035-0.026-0.069-0.056c-2.089-3.345-4.025-4.938-6.198-4.67
		c-2.294,0.283-4.485,2.168-3.718,8.379c0.65,5.262,3.174,6.596,5.836,6.268c2.661-0.328,4.504-2.264,5.62-4.794L288.313,81.816z
		 M309.712,70.979L309.48,86.33c-0.017,1.141,0.582,2.26,1.527,3.014l-6.843-0.103c0.94-1.034,1.289-1.646,1.308-2.91l0.105-6.936
		l-7.336-0.111l-0.105,6.936c-0.02,1.264,0.31,1.885,1.219,2.947l-6.844-0.103c0.967-0.725,1.6-1.826,1.617-2.966l0.232-15.351
		c0.016-1.141-0.583-2.26-1.527-3.014l6.843,0.103c-0.941,1.035-1.289,1.646-1.308,2.91l-0.083,5.456l7.337,0.111l0.082-5.456
		c0.019-1.264-0.311-1.886-1.219-2.947l6.843,0.103C310.362,68.738,309.728,69.839,309.712,70.979z M329.41,70.484l6.753,1.101
		c-1.062,0.576-1.849,1.572-2.032,2.697l-1.588,9.734c-0.953,5.84-3.569,8.474-9.561,7.496c-4.319-0.705-6.927-3.285-6.243-7.482
		l1.999-12.259c0.184-1.125-0.245-2.32-1.07-3.204l6.754,1.102c-1.082,0.885-1.516,1.439-1.719,2.686l-1.872,11.468
		c-0.476,2.92,0.517,4.113,2.92,4.505c2.038,0.333,4.087-0.364,4.564-3.284l1.87-11.468C330.389,72.33,330.154,71.667,329.41,70.484
		z M350.954,75.646c-1.499-0.475-5.053-1.401-5.965-1.688c-1.117-0.352-1.813-0.604-2.62-1.02c0.878,1.216,0.888,2.416,0.453,3.797
		l-4.477,14.199c-0.482,1.529-1.058,2.026-2.268,2.582l6.821,2.15c-0.788-1.089-1.101-2.351-0.629-3.85l1.705-5.41l1.646,0.519
		c3.235,1.019,3.739,2.083,2.895,5.89c-0.801,3.464-0.825,4.361,0.381,4.741l3.792,1.195c-0.84-1.331-0.833-2.686-0.415-4.526
		c1.101-4.824,0.293-5.952-1.191-7.292c2.624,0.084,4.23-1.22,5.054-3.836C356.896,80.686,356.363,77.351,350.954,75.646z
		 M352.13,82.48c-0.705,2.235-2.553,2.46-6.022,1.366l-1.205-0.38l1.464-4.645c0.213-0.676,0.957-1.088,2.809-0.504
		C351.968,79.197,352.76,80.481,352.13,82.48z M377.359,86.187l-3.758,8.008c-0.013,0.028-0.026,0.056-0.054,0.043
		c-0.028-0.013-0.015-0.041-0.03-0.083c0.013-3.943-0.777-6.323-2.759-7.252c-2.092-0.982-4.95-0.553-7.607,5.111
		c-2.253,4.799-0.826,7.273,1.601,8.412c2.428,1.139,5.017,0.482,7.309-1.064l0.071,0.067c-2.123,4.451-5.511,6.3-9.947,4.218
		c-3.515-1.65-6.21-5.774-2.623-13.419c3.182-6.78,8.087-8.598,12.3-6.62c1.673,0.785,2.671,2.07,3.535,2.477
		C376.068,86.398,376.66,86.37,377.359,86.187z M393.22,96.268l5.735,3.735c-1.205,0.098-2.327,0.692-2.949,1.648l-8.378,12.866
		c-0.623,0.956-0.712,2.222-0.315,3.363l-5.735-3.735c1.347-0.374,1.968-0.705,2.658-1.765l3.786-5.813l-6.15-4.004l-3.785,5.813
		c-0.691,1.059-0.743,1.761-0.54,3.144l-5.735-3.735c1.205-0.099,2.327-0.692,2.95-1.648l8.379-12.866
		c0.623-0.956,0.711-2.222,0.314-3.363l5.735,3.735c-1.347,0.374-1.968,0.705-2.657,1.765l-2.978,4.573l6.148,4.004l2.978-4.572
		C393.371,98.353,393.423,97.651,393.22,96.268z M405.662,119.293c-4.96,4.89-6.278,9.479-1.993,13.825
		c4.284,4.345,8.891,3.092,13.851-1.799c6.233-6.145,5.26-10.511,1.993-13.824C416.246,114.181,411.894,113.148,405.662,119.293z
		 M414.707,128.466c-3.775,3.722-6.591,4.508-8.712,2.358c-2.12-2.151-1.294-4.956,2.48-8.678c4.169-4.111,6.742-4.355,8.712-2.358
		C419.156,121.785,418.876,124.355,414.707,128.466z M438.059,139.558l-5.365,4.097c1.24-2.187,0.789-4.248-0.969-6.551
		c-1.366-1.788-2.296-1.738-3.325-0.951l-2.67,2.039c0.218,0.337,0.606,0.895,1.092,1.532c1.273,1.666,2.009,2.073,3.928,2.198
		l-5.242,4.004c0.479-1.607-0.069-2.934-1.135-4.331c-0.411-0.539-0.848-1.059-1.191-1.457l-5.267,4.022
		c-0.906,0.692-1.414,1.856-1.421,3.064l-4.34-5.684c1.167,0.31,2.424,0.127,3.329-0.566l12.202-9.316
		c0.906-0.692,1.413-1.856,1.421-3.064l7.352,9.628C437,138.931,437.422,139.23,438.059,139.558z M454.322,168.611l-7.683,3.797
		l-0.027-0.055c2.339-1.878,3.549-4.16,2.565-6.15c-0.613-1.244-1.358-1.289-2.519-0.715l-11.938,5.9
		c-1.022,0.505-1.745,1.55-1.984,2.734l-3.169-6.411c1.087,0.529,2.355,0.59,3.377,0.085l11.938-5.9
		c1.162-0.574,1.578-1.192,0.963-2.436c-0.983-1.99-3.532-2.416-6.443-1.698l-0.027-0.055l7.683-3.797
		c0.013,0.235,0.011,0.511,0.052,0.8c0.039,0.29,0.121,0.593,0.258,0.87l5.818,11.773
		C453.471,167.931,453.952,168.347,454.322,168.611z M461.982,191.631c-1.003-0.674-2.25-0.909-3.334-0.549l-14.567,4.839
		c-1.083,0.36-1.941,1.295-2.343,2.435l-2.157-6.494c1.286,0.547,1.978,0.675,3.177,0.276l6.582-2.187l-2.312-6.962l-6.582,2.187
		c-1.199,0.398-1.677,0.914-2.381,2.123l-2.157-6.494c1.003,0.673,2.251,0.909,3.333,0.549l14.569-4.84
		c1.082-0.36,1.941-1.294,2.342-2.434l2.157,6.494c-1.286-0.547-1.977-0.675-3.177-0.276l-5.178,1.72l2.313,6.963l5.178-1.72
		c1.199-0.398,1.677-0.914,2.38-2.122L461.982,191.631z M462.042,207.218c-0.427-2.398-1.221-3.164-2.921-2.861l-2.975,0.53
		c0.048,0.618,0.158,1.412,0.282,2.11c0.4,2.246,0.966,3.836,2.739,4.647l-6.707,1.196c1.353-1.369,1.335-3.056,0.935-5.302
		c-0.125-0.698-0.296-1.482-0.466-2.078l-4.036,0.719c-1.731,0.308-2.238,1.151-1.712,4.095c0.621,3.49,2.22,5.429,5.688,6.439
		l-8.104,1.444c0.353-0.658,0.441-1.393,0.159-2.972l-2.412-13.536c0.896,0.811,2.096,1.223,3.219,1.023l15.116-2.694
		c1.122-0.2,2.106-1.002,2.668-2.073l2.445,13.719c0.157,0.88,0.395,1.339,0.813,1.922l-7.042,1.255
		C462.097,212.626,462.653,210.648,462.042,207.218z"/>
</g>
</svg>
