<?xml version="1.0" encoding="utf-8"?>
<!-- Generator: Adobe Illustrator 26.5.0, SVG Export Plug-In . SVG Version: 6.00 Build 0)  -->
<svg version="1.1" id="AP-Logo_00000002366651322638159280000014617953948659807410_"
	 xmlns="http://www.w3.org/2000/svg" xmlns:xlink="http://www.w3.org/1999/xlink" x="0px" y="0px" viewBox="0 0 601.5 601.5"
	 style="enable-background:new 0 0 601.5 601.5;" xml:space="preserve">
<style type="text/css">
	.st0{fill:#FFFFFF;}
	.st1{fill:#424143;}
</style>
<g id="AP-Logo">
	<circle id="Body-Background" class="st0" cx="300.7" cy="300.7" r="300.7"/>
	<path id="Body" class="st1" d="M300.7,0C134.6,0,0,134.6,0,300.7s134.6,300.7,300.7,300.7s300.7-134.6,300.7-300.7
		C601.5,134.6,466.8,0,300.7,0z M301.4,596.2c-163,0-295.1-132.1-295.1-295.1S138.4,6,301.4,6s295.1,132.1,295.1,295.1
		S464.4,596.2,301.4,596.2z M300.7,12.7c-153.7,0-288,128.9-288,288s128.9,288,288,288s288-128.9,288-288S469.3,12.7,300.7,12.7z
		 M302.8,38.7c150.7,0,263,114.6,263,262.1l-35.4-14l-31.7,14c0-108.3-81.7-198.1-196.4-198.1c-104.8,0-199.6,86.5-199.6,198.1
		c0,0.1-31.5-14-31.5-14l-35.7,14C35.6,153.3,160.3,38.7,302.8,38.7z M213.2,394.1c-0.9,0-10.8,0.3-11.7-0.6c0.1,0,2.6-1.9,3.6-2.9
		c3.3-3.5,6.3-8.3,6.8-16c2.5,0,5.9,0,8.3,0c3.2,0,5.7-0.1,8.7,0c0,0.1-0.5,4.2-1.3,8.4c-0.4,2.3-1.1,5-1.6,7
		c-1.8,7-8.7,13.5-14.9,14.1C213.1,398.4,213.5,395.7,213.2,394.1z M193.7,380.4c-0.4,0-0.9-0.3-0.9-0.4c0-0.3,0-4.4,0-4.7
		c0.1-0.4,0.7-0.6,1-0.7c3.3,0,11.5,0,12.1,0c0.3,0,1.7,0,2,0c1.9,0,0.4,5,0.3,5.4c-0.6,0.5-2.2,0.4-2.3,0.4
		C205.2,380.4,197.1,380.4,193.7,380.4z M195.9,369.5c0,0-1.7,0-1.7-1c0-0.9-0.6-3.2,2.6-3.8c3.9-0.9,15.7-2.2,25.2-4.2
		c25.3-5.5,59-15.6,73.7-11.8c14.3,3.6,20.8,15.9,22.6,19.8c0.4,1.2-0.6,1-0.6,1H195.9z M232,374.9c0.1-0.3,0.2-0.2,0.7-0.3
		c10,0,28.5,0.1,45.7,0c20.5-0.1,38.6,0,39.8,0c0.3,0,0.6,0.3,0.7,0.6c0.3,1,0.3,3.5-0.1,4.7c-0.1,0.3-0.3,0.4-0.6,0.6
		c-1,0-86.2,0-87,0C230.9,380.4,231.9,375.2,232,374.9z M288.5,340.7c-16.5,0-40,1-60.6-7.4c-37.3-15.4-35.2-46.9-32.5-59.7
		c3.1-17.5,17.2-23.2,17-22c-1.5,7.1-8.6,30.6,0.4,48.1c18.3,39.6,64.4,24.8,91,34.4c19.4,7,18.3,18.3,20.1,21.8
		c0.7,1.5,7-8,10.8-15.9c5-10.3,4.2-27.2-2.3-39.8c-3.1-5.8-12.2-16-36.8-31.6c-50.7-32.2-8.6-73.3-5.2-71.2
		c-12.5,19.8-10,35.1-7.4,42.5c-0.3-2.6-0.1-6,0.3-10.3c1.6-11.7,6.4-18.5,8.4-21c1.2-1.5,1.3-0.4,1-0.1
		c-11.7,27.1-2.6,41.6,3.5,47.5c0.7,0.4,1.3,1,2,1.5c8.4,2.2,12.7-10.6,7-18.1c-1-1.6,0.9-1,1.6-0.6c3.2,1.6,9.2,5.1,12.7,13.7
		c2.3,5.5-0.4,13.7-4.8,16.2c4.4,3.1,9,6.6,14.1,10.6c2,1.7,20.7,20.5,19.8,40.3c0,1.9-0.1,3.3,0.1,3.2c4.8-1.5,19.5-25.6,7-47.6
		c-8.2-14.3-37-34.2-37.1-34.4c-2.5-1.6,7.9,0.6,16,4.8c14.3,7.3,67.6,41.2,13.4,92.5c-8.7,8.2-22,24.8-25.5,28.4
		c-0.4,0.4-0.4,0.1-0.6,0C319.1,361.4,320.7,340.7,288.5,340.7z M221.7,226.5c-0.1-8.4,7.4-23,7.4-18.2c0,5.1-10,37.7,44.1,74.9
		c0.6,0.4,0.7,1.2,0.4,1.2c-21.8,0-33.3-8.9-41.2-15.1c-8.6-7.6-11.7-15.6-12.5-18.3c-0.6-1.7,0.3-1.2,0.4-0.9
		c4.1,6.4,16,20.4,25.2,22.7C245.8,272.7,221.1,252.7,221.7,226.5z M320.7,333.4c1,0,3.6,0.9,4.5,2.8c1.3,2.8-0.3,7.4-4.5,2
		C317.9,334.9,317.6,333.1,320.7,333.4z M325.9,375.1c0-0.3,0.4-0.3,0.7-0.4c22.7,0,77.2,0,82.3,0c1.3,0,5.5-0.3,6.6,0.1
		c1,0.4,0.9,5.4-0.1,5.7c-1,0.1-66.6,0-88.7,0c-0.4,0-0.7-0.3-0.7-0.6C325.8,379.6,325.8,375.5,325.9,375.1z M415.8,369.5h-86.2
		c0,0-0.9-0.1-0.4-0.9c1.9-3.1,8.3-12.7,17.2-15.6c10.2-3.5,32.8,5,50.7,9.3c6.6,1.6,15,2.8,17.8,3.3c0.7,0.1,1.5,1,1.6,1.5
		c0.1,0.3,0.1,1.2,0.4,1.6c0,0.3-0.3,0.4-0.4,0.6S415.8,369.5,415.8,369.5z M190.4,378c0,1.6-1.3,2.8-2.8,2.8
		c-1.6,0-2.8-1.3-2.8-2.8c0-1.6,1.3-2.8,2.8-2.8C189.1,375.2,190.4,376.4,190.4,378z M96.5,459.1c-1.9,1.2-2.8,2.3-3.1,3.5
		l-8.6-13.4c0.5,0,1-0.1,1.7-0.5c0.6-0.4,1.6-1.9,2.5-3.4l23.9-37.7l-0.1-0.2L86.9,424c-6.9,4.4-9.4,7.4-9.7,13.6l-12.1-18.9
		c3.4,1.2,7.2,1,10.1-0.9l38.9-25c2.9-1.9,4.7-5.2,5-8.8l11.7,18.2c-0.7,0.2-1.4,0.5-2.2,0.9c-0.9,0.6-1.8,1.6-2.7,3L104.6,440
		l0.1,0.2l22.7-14.6c6.9-4.4,9.4-7.4,9.7-13.6l12.1,18.9c-3.4-1.2-7.2-1-10.1,0.9L96.5,459.1z M150.6,517.3l-15-13.1
		c2.8-0.6,5-2.2,6.7-4.1c1.1-1.3,2.5-3.3,2.8-4.7l-17.3-15.1c-1.6,0.6-3.4,1.8-5,3.6c-1.8,2.1-2.8,4.9-2.5,7l-14.5-12.7
		c5-0.7,11.7-4.3,16.2-7.1l38.7-22.3c1.3-0.7,2.6-1.7,3.3-2.5c0.5-0.6,0.8-1.2,0.7-2l12.7,11.1c-0.7,0-1.1,0.3-1.5,0.8
		c-0.6,0.7-2.1,3.6-3.2,6.1l-17,38.2C153.4,505.2,150.7,512.3,150.6,517.3z M204.6,547.5c-1-2-2.6-3.6-6.9-5.7l-34.4-17.1l43.8-32.4
		c1.6-1.2,2.9-2.1,3.4-3.1c0.5-1.1,0.3-2.3-4.3-4.6c-8.5-4.2-15.4-0.4-21.3,5.2l-0.2,0.1l11.1-22.4c0.5,0.5,1,1.2,1.6,1.8
		c0.6,0.6,1.4,1.2,2.2,1.6l33.7,16.7l-40.7,29.9c-2.3,1.7-5.1,3.9-5.7,5c-0.9,1.8,0.2,3.4,5.6,6.1c9.9,4.9,17,1.2,23.8-4.9l0.2-0.1
		L204.6,547.5z M264.2,560.1c2-2,3.1-4.4,3.6-7c0.3-1.6,0.4-4.1-0.1-5.5l-22.6-4c-1.1,1.3-2,3.3-2.4,5.6c-0.5,2.7,0.1,5.7,1.4,7.3
		l-19-3.4c4-3.2,7.8-9.7,10.2-14.4l21.6-39c0.7-1.3,1.3-2.8,1.5-3.9c0.1-0.7,0.1-1.5-0.5-2.1l16.6,3c-0.5,0.4-0.8,0.8-0.9,1.4
		c-0.2,0.9,0,4.1,0.4,6.9l5.1,41.5c0.7,5.2,2,12.7,4.5,17L264.2,560.1z M347,558.6c-3.8,0.5-4.8-2-6.9-12.5
		c-2.4-11.5-5.1-13.8-15.2-12.6l-5.2,0.6l2,16.9c0.6,4.7,3,7.8,6.5,9.8l-21.4,2.6c2.6-3,3.6-5.1,3-9.9l-5.4-44.5
		c-0.5-4.3-2-7.6-6-9.8c2.7,0.1,4.9,0,8.4-0.5c2.9-0.3,13.7-2.2,18.4-2.8c16.9-2,22.5,6.4,23.5,14c1,8.2-1.8,13.8-9.1,16.8
		c5.7,1.8,9.3,3.9,12.3,18.5c1.1,5.6,2.8,9.3,6.8,11.9L347,558.6z M420.2,533.9l-37.9,16.6c1.7-3.2,2.1-7,0.7-10.1L364.5,498
		c-1.4-3.1-4.4-5.5-7.9-6.3l38.4-16.8c2.5-1.1,3.6-2.1,5.1-3.7l8.6,19.7c-8-5.4-14.2-5.6-23.8-1.4c-6.7,2.9-8.4,5.8-6.3,10.6
		l3.6,8.3c1.8-0.6,4-1.5,6-2.3c6.3-2.8,10.5-5.5,11.7-11.3l8.2,18.8c-5-3-9.9-1.8-16.2,1c-2,0.9-4.1,1.9-5.8,2.8l4.9,11.3
		c2.1,4.8,4.9,5.7,13.2,2.1c9.8-4.3,14.3-10.3,14.8-21.2l9.9,22.7C426.8,531.7,424.6,532,420.2,533.9z M479.1,492
		c-0.1-0.5-0.3-1-0.8-1.6c-0.5-0.6-2.1-1.3-3.7-1.9l-40.8-18l-0.1,0.1l20.1,22.9c5.4,6.1,8.7,8.2,14.9,7.5l-16.9,14.8
		c0.7-3.6-0.1-7.3-2.4-9.9L419,471.3c-2.3-2.6-5.9-3.9-9.5-3.6l16.2-14.3c0.3,0.7,0.7,1.4,1.3,2c0.7,0.8,1.9,1.6,3.4,2.2l36.6,16.1
		l0.1-0.1l-17.8-20.3c-5.4-6.1-8.7-8.2-14.9-7.5l16.9-14.8c-0.7,3.6,0.1,7.3,2.4,9.9l33.4,38.1c1.5,1.7,2.7,2.5,4,2.6L479.1,492z
		 M532.3,422.7L510.8,458c-0.4-3.6-2.3-6.9-5.2-8.7l-39.5-24c-2.9-1.8-6.8-1.9-10.1-0.6l21.8-35.8c1.4-2.3,1.8-3.8,2-6l18.4,11.2
		c-9.7,0.2-14.9,3.6-20.3,12.5c-3.8,6.3-3.5,9.6,0.9,12.3l7.8,4.7c1.1-1.5,2.5-3.5,3.6-5.3c3.6-5.9,5.4-10.6,3.1-15.9l17.5,10.6
		c-5.8,0.4-9.1,4.2-12.7,10.1c-1.1,1.8-2.3,3.9-3.1,5.6l10.5,6.4c4.5,2.7,7.3,1.9,12-5.8c5.5-9.1,5.8-16.7,0-25.9l21.2,12.9
		C536.5,417.1,534.8,418.6,532.3,422.7z M187.5,375.7c-1.3,0-2.3,1-2.3,2.3c0,1.3,1.1,2.3,2.3,2.3c1.3,0,2.3-1.1,2.3-2.3
		C189.9,376.7,188.8,375.7,187.5,375.7z M188.6,379.2c0.1,0.1,0,0.2-0.1,0.2h-0.3c-0.1,0-0.1-0.1-0.1-0.1l-0.4-1H187v0.9
		c0,0.1-0.1,0.2-0.2,0.2h-0.2c-0.1,0-0.1-0.1-0.1-0.2v-2.6c0-0.1,0.1-0.1,0.1-0.1h1.1c0.5,0,1,0.3,1,0.9c0,0.6-0.4,0.8-0.6,0.8
		C188.3,378.6,188.4,378.9,188.6,379.2z M188.3,377.4c0,0.2-0.2,0.4-0.5,0.4H187V377h0.8C188.1,377,188.3,377.2,188.3,377.4z
		 M322.4,524.5l-3.8,0.5l-1.8-14.6c-0.3-2.1,1.3-4.2,7.1-4.9c8.7-1.1,12.5,1.5,13.3,7.7C338,520.3,333.2,523.2,322.4,524.5z
		 M249.9,535l13.4-25.8l0.2,0l3.2,28.7L249.9,535z M161,460.1l0.1,0.1l-12.1,26.3l-12.8-11.2L161,460.1z M223,381.7l-0.3,1.2
		c-0.1,0.4-0.1,0.6-0.4,0.6h-3.1l-2,7c-0.1,0.2-0.1,0.3-0.6,0.3h-1.2c-0.3,0-0.5,0-0.4-0.3l2-7h-3.1c-0.2,0-0.3-0.1-0.1-0.6l0.3-1.2
		c0.1-0.6,0.1-0.6,0.4-0.6h3.1l0.9-3.2c0.1-0.2,0.3-0.3,0.6-0.3h0.6h0.6c0.3,0,0.4,0.1,0.4,0.3l-0.9,3.2h3.1
		C223.2,381.2,223,381.5,223,381.7z M64.7,249.4c-1.3,0.2-2.9,0.2-3.3,0.1c-0.3-0.1-0.5-0.2-0.7-0.5l-1.6,8c0.3-0.3,0.7-0.3,1-0.2
		c0.5,0.1,1.2,0.4,1.9,0.8l18.7,10.8c2.2,1.2,5.4,3.1,6.9,5.1l1.8-9.2c-0.8,0.6-2.2,0.9-3.6,0.6c-1.1-0.2-2.1-0.7-2.7-1.2l2.1-10.9
		c0.7-0.2,1.9-0.1,2.7,0c1.2,0.2,2.4,0.8,3.4,1.8l1.9-9.5c-2.1,1.2-5.8,1.8-8.3,2L64.7,249.4z M79,261.5l-12.4-6.7l0-0.1l14-1.3
		L79,261.5z M99.4,227.1l-2.7,8c-0.1-0.3-0.4-0.6-0.9-0.8c-0.4-0.1-1.1-0.2-1.6-0.2l-21.6-1c-3.5-0.2-6.6,0.4-8.6,1.3l3.5-10.3
		c0.3,1.5,1.1,2.3,2.7,2.9c0.9,0.3,2,0.5,3.3,0.6l17.6,0.8l0-0.1L76.7,218c-1-0.7-2-1.3-2.9-1.6c-1.7-0.6-2.7-0.4-3.9,0.6l3.4-9.7
		c0.7,1.9,3.1,4,5.1,5.5l18.4,13.7c0.5,0.4,1,0.6,1.4,0.8C98.7,227.4,99.1,227.3,99.4,227.1z M101.2,185.8
		c-11.4-5.8-17-2.4-20.1,3.6c-3.1,6.1-2.5,12.6,8.9,18.4c9.1,4.6,16,4.3,20.1-3.6C114.2,196.2,110.3,190.4,101.2,185.8z M105.9,202
		c-2,3.9-6.3,4.1-13.2,0.6c-7.6-3.9-9.1-7.3-7.3-11c1.9-3.7,5.5-4.5,13.2-0.6C105.5,194.5,107.9,198.1,105.9,202z M132.1,167.9
		l-4.5,6.3c-0.1-0.2-0.2-0.4-0.5-0.7c-0.3-0.2-1.1-0.4-2-0.5l-21.3-3.8l-0.1,0.1l12.1,8.5c3.2,2.3,5,2.9,7.9,1.9l-6.3,8.9
		c-0.1-1.8-0.9-3.4-2.2-4.4L97,171.3c-1.4-1-3.2-1.2-4.9-0.6l6-8.6c0.2,0.3,0.5,0.6,0.8,0.8c0.4,0.3,1.1,0.5,1.9,0.6l19.1,3.4
		l0.1-0.1l-10.7-7.5c-3.2-2.3-5-2.9-7.9-1.9l6.3-8.9c0.1,1.8,0.9,3.4,2.2,4.4l20.1,14.2C130.9,167.8,131.5,168,132.1,167.9z
		 M149.4,142l-2.7-2.9c-1.7-1.8-1.6-2.6,1.5-6.7c4.8-6.2,2.7-10.3,0.2-12.9c-4.1-4.4-9.1-4-13.3-0.2c-1.7,1.6-5.4,5.4-6.5,6.3
		c-1.3,1.2-2.1,1.9-3.2,2.6c2.2-0.2,3.7,0.6,5.1,2.2l14.8,15.9c1.6,1.7,1.8,2.8,1.6,4.7l7.7-7.1C152.7,144.2,150.9,143.7,149.4,142z
		 M143.9,130.1c-1.5,2.1-1.8,3.2-1.7,4.1l-0.1,0.1l-5.3-5.7c-2-2.1-1.4-3.8,0.4-5.5c2.8-2.6,5.4-1.5,6.7-0.1
		C145.8,124.9,145.9,127.1,143.9,130.1z M165.2,101c-1.1-0.8-2.2-1.8-2.5-2.2c-0.2-0.3-0.2-0.5-0.2-0.8l-6.7,4.7
		c0.4,0,0.7,0.2,0.9,0.5c0.3,0.4,0.6,1.2,0.8,1.9l6.1,20.8c0.8,2.4,1.7,6,1.5,8.4l7.6-5.4c-1-0.1-2.2-0.9-3-2
		c-0.6-0.9-1-1.9-1.1-2.7l9.1-6.4c0.7,0.3,1.4,1.2,1.9,1.8c0.7,1,1.2,2.2,1.2,3.6l7.9-5.6c-2.4-0.6-5.4-2.7-7.4-4.2L165.2,101z
		 M167.2,119.6l-4.4-13.4l0.1-0.1l11,8.7L167.2,119.6z M208.9,100.2c-3.8-6.1-5.8-6.5-8.7-6.3c2.8-2.6,3.1-5.6,1.3-9.2
		c-1.7-3.3-5.7-6.2-13-2.4c-2,1.1-6.7,3.8-7.9,4.4c-1.5,0.8-2.5,1.2-3.8,1.6c2.2,0.4,3.4,1.6,4.4,3.5l10,19.3c1.1,2.1,1,3.2,0.3,5
		l9.3-4.8c-1.9-0.3-3.6-1.3-4.6-3.3l-3.8-7.4l2.2-1.2c4.4-2.3,6-1.7,9.1,3.1c2.7,4.4,3.6,5.4,5.3,4.5l5.2-2.7
		C211.8,104,210.4,102.6,208.9,100.2z M191.8,95.8l-1.6,0.8l-3.3-6.3c-0.5-0.9-0.1-2.1,2.4-3.4c3.8-2,5.9-1.5,7.3,1.3
		C198.2,91.3,196.6,93.4,191.8,95.8z M237.7,88.6c2.1,1.7,5,3.9,7.5,4.8l-10.7,3.7c0.5-0.7,0.7-1.5,0.3-2.6
		c-0.2-0.7-0.7-1.5-1.6-2.3l-9.1-8.4l-2.7,5.9l2.3,6.5c0.6,1.7,1.4,2.4,3.1,3.4l-9.4,3.3c1-1.5,1.3-3.3,0.7-4.9l-7.4-21.2
		c-0.5-1.6-1.9-2.8-3.6-3.4l9.4-3.3c-0.8,1.9-0.9,2.9-0.3,4.6l2.8,8.2l4.3-10.5c0.8-1.8,0.8-2.6,0.5-3.4c-0.2-0.7-0.6-0.9-1.1-1.1
		l9.6-3.3c-0.7,1.6-2.4,4.3-3.4,6.5l-2.9,7L237.7,88.6z M283.7,76c0.8,7.2-1.9,12.1-9,12.9c-5.6,0.7-12.2-2.3-13.7-14.5
		c-1.3-10.9,3.3-16.9,10.1-17.7c2.7-0.3,4.9,0.5,6.3,0.3c1.1-0.1,1.8-0.6,2.5-1.4l1.6,12.8c0,0,0,0.1,0,0.1c0,0-0.1,0-0.1-0.1
		c-3.1-4.9-5.9-7.2-9-6.8c-3.3,0.4-6.5,3.2-5.4,12.2c0.9,7.7,4.6,9.6,8.5,9.1c3.9-0.5,6.6-3.3,8.2-7L283.7,76z M314.9,60.2
		l-0.3,22.4c0,1.7,0.8,3.3,2.2,4.4l-10-0.2c1.4-1.5,1.9-2.4,1.9-4.2l0.2-10.1l-10.7-0.2L298,82.5c0,1.8,0.5,2.8,1.8,4.3l-10-0.2
		c1.4-1.1,2.3-2.7,2.4-4.3l0.3-22.4c0-1.7-0.9-3.3-2.2-4.4l10,0.2c-1.4,1.5-1.9,2.4-1.9,4.2l-0.1,8L309,68l0.1-8
		c0-1.8-0.5-2.8-1.8-4.3l10,0.2C315.9,56.9,314.9,58.5,314.9,60.2z M343.7,59.5l9.9,1.6c-1.5,0.8-2.7,2.3-3,3.9l-2.3,14.2
		c-1.4,8.5-5.2,12.4-14,10.9c-6.3-1-10.1-4.8-9.1-10.9l2.9-17.9c0.3-1.6-0.4-3.4-1.6-4.7l9.9,1.6c-1.6,1.3-2.2,2.1-2.5,3.9L331.2,79
		c-0.7,4.3,0.8,6,4.3,6.6c3,0.5,6-0.5,6.7-4.8l2.7-16.7C345.1,62.2,344.8,61.2,343.7,59.5z M375.1,67c-2.2-0.7-7.4-2-8.7-2.5
		c-1.6-0.5-2.6-0.9-3.8-1.5c1.3,1.8,1.3,3.5,0.7,5.5l-6.5,20.7c-0.7,2.2-1.5,3-3.3,3.8l10,3.1c-1.2-1.6-1.6-3.4-0.9-5.6l2.5-7.9
		l2.4,0.8c4.7,1.5,5.5,3,4.2,8.6c-1.2,5.1-1.2,6.4,0.6,6.9l5.5,1.7c-1.2-1.9-1.2-3.9-0.6-6.6c1.6-7,0.4-8.7-1.7-10.6
		c3.8,0.1,6.2-1.8,7.4-5.6C383.8,74.4,383,69.5,375.1,67z M376.8,77c-1,3.3-3.7,3.6-8.8,2l-1.8-0.6l2.1-6.8c0.3-1,1.4-1.6,4.1-0.7
		C376.6,72.2,377.8,74.1,376.8,77z M413.7,82.4l-5.5,11.7c0,0,0,0.1-0.1,0.1c0,0,0-0.1,0-0.1c0-5.8-1.1-9.2-4-10.6
		c-3.1-1.4-7.2-0.8-11.1,7.5c-3.3,7-1.2,10.6,2.3,12.3c3.5,1.7,7.3,0.7,10.7-1.6l0.1,0.1c-3.1,6.5-8,9.2-14.5,6.2
		c-5.1-2.4-9.1-8.4-3.8-19.6c4.6-9.9,11.8-12.6,18-9.7c2.4,1.1,3.9,3,5.2,3.6C411.8,82.7,412.7,82.7,413.7,82.4z M436.8,97.1
		l8.4,5.5c-1.8,0.1-3.4,1-4.3,2.4l-12.2,18.8c-0.9,1.4-1,3.2-0.5,4.9l-8.4-5.5c2-0.5,2.9-1,3.9-2.6l5.5-8.5l-9-5.8l-5.5,8.5
		c-1,1.5-1.1,2.6-0.8,4.6l-8.4-5.5c1.8-0.1,3.4-1,4.3-2.4l12.2-18.8c0.9-1.4,1-3.2,0.5-4.9l8.4,5.5c-2,0.5-2.9,1-3.9,2.6l-4.3,6.7
		l9,5.8l4.3-6.7C437.1,100.2,437.1,99.1,436.8,97.1z M455,130.7c-7.2,7.1-9.2,13.8-2.9,20.2c6.3,6.3,13,4.5,20.2-2.6
		c9.1-9,7.7-15.3,2.9-20.2C470.4,123.3,464.1,121.8,455,130.7z M468.2,144.1c-5.5,5.4-9.6,6.6-12.7,3.4c-3.1-3.1-1.9-7.2,3.6-12.7
		c6.1-6,9.8-6.4,12.7-3.4C474.7,134.4,474.3,138.1,468.2,144.1z M502.3,160.3l-7.8,6c1.8-3.2,1.2-6.2-1.4-9.6
		c-2-2.6-3.4-2.5-4.9-1.4l-3.9,3c0.3,0.5,0.9,1.3,1.6,2.2c1.9,2.4,2.9,3,5.7,3.2l-7.7,5.8c0.7-2.3-0.1-4.3-1.7-6.3
		c-0.6-0.8-1.2-1.5-1.7-2.1l-7.7,5.9c-1.3,1-2.1,2.7-2.1,4.5l-6.3-8.3c1.7,0.5,3.5,0.2,4.9-0.8l17.8-13.6c1.3-1,2.1-2.7,2.1-4.5
		l10.7,14.1C500.7,159.4,501.4,159.8,502.3,160.3z M526,202.7l-11.2,5.5l0-0.1c3.4-2.7,5.2-6.1,3.7-9c-0.9-1.8-2-1.9-3.7-1
		l-17.4,8.6c-1.5,0.7-2.5,2.3-2.9,4l-4.6-9.4c1.6,0.8,3.4,0.9,4.9,0.1l17.4-8.6c1.7-0.8,2.3-1.7,1.4-3.6c-1.4-2.9-5.2-3.5-9.4-2.5
		l0-0.1l11.2-5.5c0,0.3,0,0.7,0.1,1.2c0.1,0.4,0.2,0.9,0.4,1.3l8.5,17.2C524.8,201.7,525.5,202.4,526,202.7z M537.2,236.3
		c-1.5-1-3.3-1.3-4.9-0.8l-21.3,7.1c-1.6,0.5-2.8,1.9-3.4,3.6l-3.1-9.5c1.9,0.8,2.9,1,4.6,0.4l9.6-3.2l-3.4-10.2l-9.6,3.2
		c-1.8,0.6-2.4,1.3-3.5,3.1l-3.1-9.5c1.5,1,3.3,1.3,4.9,0.8l21.3-7.1c1.6-0.5,2.8-1.9,3.4-3.6l3.1,9.5c-1.9-0.8-2.9-1-4.6-0.4
		l-7.6,2.5l3.4,10.2l7.6-2.5c1.8-0.6,2.4-1.3,3.5-3.1L537.2,236.3z M537.3,259.1c-0.6-3.5-1.8-4.6-4.3-4.2l-4.3,0.8
		c0.1,0.9,0.2,2.1,0.4,3.1c0.6,3.3,1.4,5.6,4,6.8l-9.8,1.7c2-2,1.9-4.5,1.4-7.7c-0.2-1-0.4-2.2-0.7-3l-5.9,1.1
		c-2.5,0.5-3.3,1.7-2.5,6c0.9,5.1,3.2,7.9,8.3,9.4l-11.8,2.1c0.5-1,0.6-2,0.2-4.3l-3.5-19.8c1.3,1.2,3.1,1.8,4.7,1.5l22.1-3.9
		c1.6-0.3,3.1-1.5,3.9-3l3.6,20c0.2,1.3,0.6,2,1.2,2.8l-10.3,1.8C537.4,267,538.2,264.1,537.3,259.1z"/>
</g>
</svg>
