<?xml version="1.0" encoding="utf-8"?>
<!-- Generator: Adobe Illustrator 26.5.0, SVG Export Plug-In . SVG Version: 6.00 Build 0)  -->
<svg version="1.1" id="Layer_1" xmlns="http://www.w3.org/2000/svg" xmlns:xlink="http://www.w3.org/1999/xlink" x="0px" y="0px"
	 viewBox="0 0 463.6 600" style="enable-background:new 0 0 463.6 600;" xml:space="preserve">
<style type="text/css">
	.st0{opacity:0;fill:none;}
	.st1{fill:#FFFFFF;}
</style>
<rect class="st0" width="463.6" height="600"/>
<g>
	<path id="Outline-LINE" d="M414.4,596.8c-124.3,0-240.6,0-364.9,0c-12.2,0-29.5-10.7-29.1-28.5L20,30.1
		C20.3,14.7,32.8,3.2,48.4,3.2c124,0,243.9,0,367.9,0c14.2,0,27.4,14.3,27.4,27.4c0,180.9,0,357.9,0,538.9
		C443.6,575.6,437.5,596.8,414.4,596.8z M440.8,28.8C440.4,16,426.2,5.5,416.3,5.2L52.8,5.1C34,5.1,22.6,15,22.6,31.9
		c0,127.5,0,257.8,0,385.3c0,49.6,0,99.2,0,148.7c0,6.9,1.7,13.1,6.1,18.6c6.4,7.9,15,10.5,24.8,10.5c68.9-0.1,137.9,0,206.8,0
		c50.5,0,101,0,151.4,0c11.1,0,19.9-3.9,26-13.4c3.6-5.7,4-12,4-18.5L440.8,28.8z"/>
	<path id="Inner-White" class="st1" d="M440.8,28.8C440.4,16,426.2,5.5,416.3,5.2L52.8,5.1C34,5.1,22.6,15,22.6,31.9
		c0,127.5,0,257.8,0,385.3c0,49.6,0,99.2,0,148.7c0,6.9,1.7,13.1,6.1,18.6c6.4,7.9,15,10.5,24.8,10.5c68.9-0.1,137.9,0,206.8,0
		c50.5,0,101,0,151.4,0c11.1,0,19.9-3.9,26-13.4c3.6-5.7,4-12,4-18.5L440.8,28.8z"/>
	<path d="M401.2,375.7c-90.9,0-181.7,0-273.5,0c31.4-34.1,62.1-67.6,93.2-101.5c-4.2-2-8.1-3.8-12-5.6
		c-18.4-8.4-36.8-16.7-55.2-25.1c-2.1-1-3.3-0.7-4.8,1c-26.6,28.9-53.3,57.7-80,86.6c-0.9,0.9-1.5,2-2.3,3c-0.3-0.2-0.6-0.3-0.9-0.5
		c0-100,0-200.1,0-300.4c91.8,0,183.4,0,276.1,0c-17.9,19.2-35.4,37.9-53.2,57.1c10.7,6.6,20.6,13.7,29,22.7
		c8.4,9,15,19.1,20.3,30.8c21.1-23.2,41.9-46.1,63.3-69.6C401.2,175.2,401.2,275.2,401.2,375.7z M142.5,190.1
		c0.5-7.9,0.5-15.2,1.4-22.5c2-16.9,8.4-31.8,21.2-43.5c34.5-31.4,91-30.7,124.6,1.6c19.3,18.6,28.1,41.2,23.1,68.2
		c-3.6,19.1-13.2,35.3-26.1,49.6c-5.1,5.7-11,10.8-16,16.6c-10.9,12.6-17.9,27.6-24.7,42.7c-2.3,5.1-5.1,10.2-8.8,14.3
		c-9.5,10.3-26.2,12.9-39.8,7.1c-2.7-1.2-5.4-2.5-8.6-3.9c0.7,7.1,1.2,13.5,2.1,19.8c0.1,1,1.7,2.2,2.8,2.5
		c4.8,1.2,9.7,2.5,14.6,3.1c21.1,2.4,45.8-3.9,56.3-31.8c2.4-6.5,5.2-12.8,8-19.1c6.6-14.7,17.1-26.6,28.4-37.9
		c13.5-13.5,23.3-29.1,29.2-47.2c11.8-36.1,3.8-67.7-22.3-94.7c-18.5-19.2-42.1-28.6-68.3-31.7c-28.5-3.4-55,1.7-78.9,18.4
		C134.2,120,121,145.6,120.6,178c0,1.1,0.6,2.7,1.4,3.1C128.7,184.2,135.5,187.1,142.5,190.1z M275.8,199.8c6.7-0.6,13-1.6,19.4-1.7
		c4.3-0.1,5.6-2.1,6.3-5.8c4.4-22.9-2.8-42.2-18.4-58.6c-23.3-24.5-62.7-28.4-90.4-15.4c-24.3,11.4-37.8,30.6-38.6,57.9
		c-0.1,5.1,0.6,10.2,1,16.1c6.3-4,11.5-7.4,16.9-10.6c2-1.2,2.8-2.5,2.9-4.8c0.5-13.4,5.2-25,15.5-33.8
		c16.9-14.5,44.9-16.7,65.3-5.5c21.8,11.9,30.5,36.7,21,59.4C276.4,197.7,276.2,198.6,275.8,199.8z"/>
	<g id="ASSISTIVE">
		<path d="M106.4,427.7l15.1-40.9h4.9l15.1,40.9h-6.2l-11.3-33l-11.3,33H106.4z M113.3,418.7v-5.5h21.5v5.5H113.3z"/>
		<path d="M156.3,428.1c-2,0-3.9-0.2-5.6-0.6c-1.8-0.4-3.4-0.9-4.9-1.7s-3-1.7-4.3-2.8l3.6-4.4c1.6,1.4,3.3,2.4,5.2,3
			c1.9,0.7,3.9,1,6.1,1c3,0,5.3-0.6,6.9-1.7c1.6-1.1,2.4-2.7,2.4-4.6v0c0-1.6-0.4-2.8-1.2-3.6c-0.8-0.8-1.9-1.4-3.3-1.8
			c-1.3-0.4-2.8-0.7-4.4-1c-1.5-0.3-3.1-0.6-4.7-0.9c-1.6-0.4-3-0.9-4.3-1.7c-1.3-0.8-2.4-1.9-3.2-3.3s-1.2-3.3-1.2-5.7v0
			c0-3.8,1.3-6.8,3.8-8.9s6.1-3.1,10.7-3.1c2.2,0,4.3,0.4,6.4,1.1c2.1,0.7,4.1,1.8,6.1,3.2l-3.3,4.6c-1.6-1.2-3.1-2-4.7-2.6
			c-1.5-0.6-3.1-0.8-4.7-0.8c-2.8,0-5,0.6-6.5,1.7c-1.5,1.1-2.3,2.7-2.3,4.7v0c0,1.5,0.5,2.7,1.4,3.5c0.9,0.8,2.1,1.4,3.5,1.8
			s3,0.7,4.7,1.1c1.5,0.3,3,0.7,4.5,1.1c1.5,0.4,2.9,1,4.1,1.8c1.2,0.8,2.2,1.9,3,3.3c0.7,1.4,1.1,3.2,1.1,5.4v0.1
			c0,3.8-1.3,6.7-3.9,8.8C164.7,427.1,161,428.1,156.3,428.1z"/>
		<path d="M189.2,428.1c-2,0-3.9-0.2-5.6-0.6c-1.8-0.4-3.4-0.9-4.9-1.7s-3-1.7-4.3-2.8l3.6-4.4c1.6,1.4,3.3,2.4,5.2,3
			c1.9,0.7,3.9,1,6.1,1c3,0,5.3-0.6,6.9-1.7c1.6-1.1,2.4-2.7,2.4-4.6v0c0-1.6-0.4-2.8-1.2-3.6c-0.8-0.8-1.9-1.4-3.3-1.8
			c-1.3-0.4-2.8-0.7-4.4-1c-1.5-0.3-3.1-0.6-4.7-0.9c-1.6-0.4-3-0.9-4.3-1.7c-1.3-0.8-2.4-1.9-3.2-3.3s-1.2-3.3-1.2-5.7v0
			c0-3.8,1.3-6.8,3.8-8.9s6.1-3.1,10.7-3.1c2.2,0,4.3,0.4,6.4,1.1c2.1,0.7,4.1,1.8,6.1,3.2l-3.3,4.6c-1.6-1.2-3.1-2-4.7-2.6
			c-1.5-0.6-3.1-0.8-4.7-0.8c-2.8,0-5,0.6-6.5,1.7c-1.5,1.1-2.3,2.7-2.3,4.7v0c0,1.5,0.5,2.7,1.4,3.5c0.9,0.8,2.1,1.4,3.5,1.8
			s3,0.7,4.7,1.1c1.5,0.3,3,0.7,4.5,1.1c1.5,0.4,2.9,1,4.1,1.8c1.2,0.8,2.2,1.9,3,3.3c0.7,1.4,1.1,3.2,1.1,5.4v0.1
			c0,3.8-1.3,6.7-3.9,8.8C197.7,427.1,194,428.1,189.2,428.1z"/>
		<path d="M216.2,386.7v40.9h-5.7v-40.9H216.2z"/>
		<path d="M237.2,428.1c-2,0-3.9-0.2-5.6-0.6s-3.4-0.9-4.9-1.7s-3-1.7-4.3-2.8l3.6-4.4c1.6,1.4,3.3,2.4,5.2,3c1.9,0.7,3.9,1,6.1,1
			c3,0,5.3-0.6,6.9-1.7c1.6-1.1,2.5-2.7,2.5-4.6v0c0-1.6-0.4-2.8-1.2-3.6s-1.9-1.4-3.3-1.8c-1.3-0.4-2.8-0.7-4.4-1
			c-1.5-0.3-3.1-0.6-4.7-0.9c-1.6-0.4-3-0.9-4.3-1.7c-1.3-0.8-2.4-1.9-3.2-3.3s-1.2-3.3-1.2-5.7v0c0-3.8,1.3-6.8,3.8-8.9
			s6.1-3.1,10.7-3.1c2.2,0,4.3,0.4,6.4,1.1s4.1,1.8,6.1,3.2l-3.3,4.6c-1.6-1.2-3.1-2-4.7-2.6c-1.5-0.6-3.1-0.8-4.7-0.8
			c-2.8,0-5,0.6-6.5,1.7c-1.5,1.1-2.3,2.7-2.3,4.7v0c0,1.5,0.5,2.7,1.4,3.5c0.9,0.8,2.1,1.4,3.5,1.8c1.5,0.4,3,0.7,4.7,1.1
			c1.5,0.3,3,0.7,4.5,1.1c1.5,0.4,2.9,1,4.1,1.8c1.2,0.8,2.2,1.9,3,3.3c0.7,1.4,1.1,3.2,1.1,5.4v0.1c0,3.8-1.3,6.7-3.9,8.8
			C245.6,427.1,241.9,428.1,237.2,428.1z"/>
		<path d="M253.3,392.2v-5.5h28.9v5.5H253.3z M264.9,427.7v-37.6h5.7v37.6H264.9z"/>
		<path d="M292.1,386.7v40.9h-5.7v-40.9H292.1z"/>
		<path d="M311,427.7l-13.3-40.9h6.3l9.8,32.1l9.8-32.1h6.3l-13.3,40.9H311z"/>
		<path d="M334.6,427.7v-40.9h5.7v40.9H334.6z M337.4,392.2v-5.5h23.5v5.5H337.4z M337.4,410.1v-5.5h20.4v5.5H337.4z M337.4,427.7
			v-5.5h23.5v5.5H337.4z"/>
	</g>
	<g id="LISTENING">
		<path d="M95.1,484.3v-40.9h5.7v40.9H95.1z M98,484.3v-5.5h23.4v5.5H98z"/>
		<path d="M133.5,443.4v40.9h-5.7v-40.9H133.5z"/>
		<path d="M155.5,484.8c-2,0-3.9-0.2-5.6-0.6c-1.8-0.4-3.4-0.9-4.9-1.7s-3-1.7-4.3-2.8l3.6-4.4c1.6,1.4,3.3,2.4,5.2,3
			c1.9,0.7,3.9,1,6.1,1c3,0,5.3-0.6,6.9-1.7c1.6-1.1,2.4-2.7,2.4-4.6v0c0-1.6-0.4-2.8-1.2-3.6c-0.8-0.8-1.9-1.4-3.3-1.8
			c-1.3-0.4-2.8-0.7-4.4-1c-1.5-0.3-3.1-0.6-4.7-0.9c-1.6-0.4-3-0.9-4.3-1.7c-1.3-0.8-2.4-1.9-3.2-3.3s-1.2-3.3-1.2-5.7v0
			c0-3.8,1.3-6.8,3.8-8.9s6.1-3.1,10.7-3.1c2.2,0,4.3,0.4,6.4,1.1c2.1,0.7,4.1,1.8,6.1,3.2l-3.3,4.6c-1.6-1.2-3.1-2-4.7-2.6
			c-1.5-0.6-3.1-0.8-4.7-0.8c-2.8,0-5,0.6-6.5,1.7c-1.5,1.1-2.3,2.7-2.3,4.7v0c0,1.5,0.5,2.7,1.4,3.5c0.9,0.8,2.1,1.4,3.5,1.8
			s3,0.7,4.7,1.1c1.5,0.3,3,0.7,4.5,1.1c1.5,0.4,2.9,1,4.1,1.8c1.2,0.8,2.2,1.9,3,3.3c0.7,1.4,1.1,3.2,1.1,5.4v0.1
			c0,3.8-1.3,6.7-3.9,8.8C163.9,483.7,160.2,484.8,155.5,484.8z"/>
		<path d="M172.6,448.9v-5.5h28.9v5.5H172.6z M184.1,484.3v-37.6h5.7v37.6H184.1z"/>
		<path d="M206.6,484.3v-40.9h5.7v40.9H206.6z M209.4,448.9v-5.5h23.5v5.5H209.4z M209.4,466.8v-5.5h20.4v5.5H209.4z M209.4,484.3
			v-5.5h23.5v5.5H209.4z"/>
		<path d="M241.9,484.3v-40.9h5.2l20,31.6l-0.7,0.7v-32.4h5.7v40.9h-5.3l-20-31.2l0.7-0.7v31.9H241.9z"/>
		<path d="M288.9,443.4v40.9h-5.7v-40.9H288.9z"/>
		<path d="M299.6,484.3v-40.9h5.2l20,31.6l-0.7,0.7v-32.4h5.7v40.9h-5.3l-20-31.2l0.7-0.7v31.9H299.6z"/>
		<path d="M358,462.3h14.2v7.2c0,3.1-0.6,5.8-1.8,8.1c-1.2,2.3-2.9,4.1-5,5.3c-2.1,1.3-4.7,1.9-7.5,1.9c-2.9,0-5.5-0.6-7.6-1.8
			c-2.2-1.2-3.9-2.9-5.1-5s-1.8-4.7-1.8-7.6v-12.1c0-3.1,0.6-5.8,1.8-8.1c1.2-2.3,2.9-4.1,5-5.3c2.1-1.3,4.7-1.9,7.5-1.9
			c2.4,0,4.6,0.5,6.5,1.5c2,1,3.6,2.4,4.9,4.3c1.3,1.8,2.2,4,2.7,6.4h-6.2c-0.5-2.1-1.5-3.7-3.1-4.9c-1.5-1.1-3.1-1.7-4.9-1.7
			c-2.6,0-4.6,0.9-6.1,2.7s-2.3,4.1-2.3,7v12.1c0,2.7,0.8,4.8,2.4,6.4c1.6,1.6,3.7,2.4,6.2,2.4c2.6,0,4.6-0.8,6.1-2.5
			c1.5-1.7,2.3-4,2.3-7.1v-1.8H358V462.3z"/>
	</g>
	<g id="AVAILABLE">
		<path d="M87.1,540.3l15.1-40.9h4.9l15.1,40.9H116l-11.3-33l-11.3,33H87.1z M94,531.4v-5.5h21.5v5.5H94z"/>
		<path d="M135.2,540.3l-13.3-40.9h6.3l9.8,32.1l9.8-32.1h6.3l-13.3,40.9H135.2z"/>
		<path d="M153.8,540.3l15.1-40.9h4.9l15.1,40.9h-6.2l-11.3-33l-11.3,33H153.8z M160.7,531.4v-5.5h21.5v5.5H160.7z"/>
		<path d="M201.1,499.4v40.9h-5.7v-40.9H201.1z"/>
		<path d="M211.5,540.3v-40.9h5.7v40.9H211.5z M214.4,540.3v-5.5h23.4v5.5H214.4z"/>
		<path d="M241.5,540.3l15.1-40.9h4.9l15.1,40.9h-6.2l-11.3-33l-11.3,33H241.5z M248.4,531.4v-5.5H270v5.5H248.4z"/>
		<path d="M283,540.3v-40.9h5.7v40.9H283z M286.4,540.3V535h11.1c3,0,5.2-0.6,6.5-1.7c1.3-1.2,1.9-2.7,1.9-4.6v-0.1
			c0-2-0.5-3.6-1.6-4.9c-1.1-1.2-2.9-1.8-5.3-1.8h-12.5v-5.2h12.5c2.1,0,3.7-0.5,4.8-1.5c1.1-1,1.6-2.5,1.6-4.4c0-2-0.6-3.6-1.8-4.6
			c-1.2-1-3-1.5-5.4-1.5h-11.7v-5.3h12.8c4,0,7,1,9,3c2,2,3,4.7,3,8.1c0,2-0.6,3.9-1.8,5.6c-1.2,1.7-3.1,2.8-5.7,3.3
			c2.5,0.4,4.5,1.5,5.9,3.4s2.1,4,2.1,6.4v0.1c0,3.3-1.1,6-3.2,8.1c-2.2,2-5.1,3.1-8.8,3.1H286.4z"/>
		<path d="M320.6,540.3v-40.9h5.7v40.9H320.6z M323.4,540.3v-5.5h23.4v5.5H323.4z"/>
		<path d="M353.9,540.3v-40.9h5.7v40.9H353.9z M356.7,504.9v-5.5h23.5v5.5H356.7z M356.7,522.7v-5.5h20.4v5.5H356.7z M356.7,540.3
			v-5.5h23.5v5.5H356.7z"/>
	</g>
</g>
</svg>
