<?xml version="1.0" encoding="utf-8"?>
<!-- Generator: Adobe Illustrator 26.5.0, SVG Export Plug-In . SVG Version: 6.00 Build 0)  -->
<svg version="1.1" id="Layer_2" xmlns="http://www.w3.org/2000/svg" xmlns:xlink="http://www.w3.org/1999/xlink" x="0px" y="0px"
	 viewBox="0 0 600 435.4" style="enable-background:new 0 0 600 435.4;" xml:space="preserve">
<style type="text/css">
	.st0{opacity:0;fill:none;}
	.st1{fill:#FFFFFF;}
	.st2{font-family:'BritannicBold';}
	.st3{font-size:57.1222px;}
	.st4{font-size:58.6254px;}
	.st5{font-size:60.1286px;}
</style>
<rect id="Background" class="st0" width="600" height="435.4"/>
<g id="Asssistive-Listening-2">
	<g>
		<path id="Big-Box" d="M299.3,411.5c-88.4,0-176.9,0-265.3,0c-20,0-27-7-27-27.1C7,273.1,7,161.9,7,50.6c0-19.5,7.1-26.7,26.8-26.7
			c178.4,0,356.7,0,535.1,0c15.5,0,24,8.2,24,23.5c0.1,113.3,0.1,226.6,0,339.8c0,16.8-7.9,24.3-24.5,24.3
			C478.7,411.6,389,411.5,299.3,411.5z"/>
		<path id="Box-Outline" class="st1" d="M169.1,354.9c-40.8,0-81.7,0-122.5,0c-12.6,0-14.5-1.9-14.5-14.3c0-82.2,0-164.4,0-246.6
			c0-11.3,2.4-13.6,13.6-13.6c82.7,0,165.3,0,248,0c10.3,0,13.1,2.7,13.1,12.8c0,82.7,0,165.4,0,248.1c0,11.3-2.4,13.7-13.7,13.7
			C251.7,355,210.4,354.9,169.1,354.9C169.1,354.9,169.1,354.9,169.1,354.9z M298.3,346.8c0-76.3,0-151.6,0-227
			c-0.7-0.4-1.4-0.9-2.1-1.3c-16.4,16.7-32.8,33.5-48.3,49.3c-6.7-12.3-13.5-24.9-21.4-39.6c12.7-12.4,26.6-25.9,40.7-39.6
			c-75.7,0-151.1,0-226.6,0c0,75.9,0,151.3,0,229.1c2.5-3.1,3.4-4.6,4.6-5.9c24.9-25,49.9-50,75-74.8c1.9-1.9,5.3-4.4,7.2-3.9
			c14,4,27.9,8.7,44.6,14.1c-34.4,34.2-67.3,66.8-100.3,99.6C147.2,346.8,222.6,346.8,298.3,346.8z"/>
		<path id="Ear-2" class="st1" d="M113.7,185.6c-13.8-6.2-14-6.6-9.8-19.6c8.8-27.1,33.3-46.2,61.4-47.7c28.1-1.5,53.9,14,66,39.8
			c11.9,25.2,7,55.9-13.6,76.4c-12,12-17.4,24.5-13.9,41.7c3.1,15.5-3.5,28-17.1,36.2c-11.9,7.1-27.9,5.9-38.9-2.5
			c-12.4-9.5-12.6-13.4-0.9-24.7c0.8,1.9,1.6,3.6,2.4,5.3c4.5,9.9,15,15,25.5,12.3c10-2.6,16.7-11.9,15.9-22.6
			c-0.3-4-1.4-7.9-1.7-11.9c-1.2-16.4,5.1-29.6,17-40.8c19.9-18.7,23.9-46.4,10.3-69.2c-11.8-19.9-34.7-29.9-58.1-25.3
			c-22.3,4.3-39.4,22.1-43.1,44.6C114.7,180,114.3,182.5,113.7,185.6z"/>
		<path id="Ear-1" class="st1" d="M121.5,186.1c-0.8-26.4,22.7-48.6,49.3-47.5c26.1,1.1,48.1,23.9,45.8,47.8
			c-6.2,1.1-10.7,2.2-12-7.3c-2.2-16-17.1-27.8-33.2-28.9c-15.4-1-31,8.3-35.9,23.1C133.1,180.6,128.1,183.2,121.5,186.1z"/>
	</g>
	<text transform="matrix(1 0 0 1 338.883 131.7743)" class="st1 st2 st3">Assistive</text>
	<text transform="matrix(1 0 0 1 330.8703 204.4491)" class="st1 st2 st4">Listening</text>
	<text transform="matrix(1 0 0 1 355.3605 275.3295)" class="st1 st2 st4">System</text>
	<text transform="matrix(1 0 0 1 331.3097 348.2455)" class="st1 st2 st5">Available</text>
</g>
</svg>
