<?xml version="1.0" encoding="utf-8"?>
<!-- Generator: Adobe Illustrator 27.0.0, SVG Export Plug-In . SVG Version: 6.00 Build 0)  -->
<svg version="1.1" id="Love-Lead" xmlns="http://www.w3.org/2000/svg" xmlns:xlink="http://www.w3.org/1999/xlink" x="0px" y="0px"
	 viewBox="0 0 400 153" style="enable-background:new 0 0 400 153;" xml:space="preserve">
<style type="text/css">
	.st0{display:none;opacity:0.41;fill:#84CBA0;}
	.st1{fill:#84CBA0;stroke:#231F20;stroke-width:0.75;stroke-miterlimit:10;}
</style>
<rect id="Background" class="st0" width="400" height="153"/>
<g id="Loving-and-Leading-Group">
	<g id="Crosses">
		<path id="Cross-Right" class="st1" d="M379.7,92.8c0.4-2.5,0.9-4.9,1.4-8.2c0.4-2.5,0.8-3.4-0.8-3.6c-4.6-0.5-5.1-1.3-5.4,0.7
			c-0.2,1.7-1.5,9.1-2.1,12.5c-0.2,1-0.9,0.9-4.3,0.5c-2.5-0.3-7.2-0.9-9.8-1.2c-2-0.3-1.9-0.2-2.1,0.2c-0.2,0.7-1,4.2-0.9,4.5
			c0.1,0.4,1.4,0.5,2.6,0.7c3.3,0.6,6.6,1.1,9.8,1.8c3.4,0.7,3.2,0.3,2.6,5.7c-0.1,0.8-2.5,18-2.8,21c-0.2,1.6-0.4,2.2,0.5,2.3
			c6,1.1,5.2,1.8,6.1-4.1c1-7.2,2.1-14,3.2-21.1c0.3-1.7,0.9-2.3,2.6-1.9c3.8,0.7,7.7,1.2,11.6,2c1.7,0.3,2.4,0.5,2.7-1.9
			c0-0.2,0.1-0.5,0.1-0.7c0.7-4.1,0.1-3.3-4.1-3.9c-3.8-0.5-5.5-0.9-8.2-1.4C378.7,96,379.3,95.8,379.7,92.8z"/>
		<path id="Cross-Left" class="st1" d="M18.6,93.6c-0.4-2.5-0.9-4.9-1.4-8.2c-0.4-2.5-0.8-3.4,0.8-3.6c4.6-0.5,5.1-1.3,5.4,0.7
			c0.2,1.7,1.5,9.1,2.1,12.5c0.2,1,0.9,0.9,4.3,0.5c2.5-0.3,7.2-0.9,9.8-1.2c2-0.3,1.9-0.2,2.1,0.2c0.2,0.7,1,4.2,0.9,4.5
			c-0.1,0.4-1.4,0.5-2.6,0.7c-3.3,0.6-6.6,1.1-9.8,1.8c-3.4,0.7-3.2,0.3-2.6,5.7c0.1,0.8,2.5,18,2.8,21c0.2,1.6,0.4,2.2-0.5,2.3
			c-6,1.1-5.2,1.8-6.1-4.1c-1-7.2-2.1-14-3.2-21.1c-0.3-1.7-0.9-2.3-2.6-1.9c-3.8,0.7-7.7,1.2-11.6,2c-1.7,0.3-2.4,0.5-2.7-1.9
			c0-0.2-0.1-0.5-0.1-0.7c-0.7-4.1-0.1-3.3,4.1-3.9c3.8-0.5,5.5-0.9,8.2-1.4C19.6,96.8,19,96.5,18.6,93.6z"/>
	</g>
	<g id="Gods-People">
		<path id="G-Gods-People" class="st1" d="M91.6,134.5l-4.3,1.1c-0.3,0.1-0.6,0.1-0.9,0.1c-3.8,0-6.7-1.1-8.7-3.2
			c-0.5-0.6-1.2-1.2-1.9-1.9c-2.3-4.5-3.4-8.7-3.4-12.4c0-4.4,0.4-8.1,1.1-11.2c0.7-2.9,2.1-6.6,4.2-11.1c0-0.2,0.3-0.5,0.8-1
			c0.7-0.8,1.3-1.8,2-3c1.9,0,3.6-0.2,5-0.5c1.4-0.3,2.6-0.5,3.4-0.5c1.6,0,2.9,0.1,3.8,0.4c1.1,0.6,2.3,1.2,3.7,1.8
			c0.7,0.2,1.1,0.4,1.2,0.8l0.1,1.4l0.9,4.6l0.7,5.9c0,0-0.6,0.3-1.7,0.9c-1,0.5-1.7,0.7-2.1,0.7c0,0-0.6-0.3-1.7-0.8
			c-0.2-0.1-0.6-0.2-1.4-0.4l-0.7-1.8c0.2-0.5,0.3-0.9,0.3-1.3L91,97.4c-0.1-1-0.5-1.7-1.2-2.2h-0.5c-0.3-0.2-0.6-0.3-0.9-0.3
			c-1,0-1.9,0.7-2.9,2.1c-0.7,1-1.5,2.3-2.3,3.9c-0.9,1.7-1.4,2.7-1.5,3.2l-1,4.4c-0.5,2.6-0.8,4.6-0.8,6v5.7c0,1.7,0.6,3.9,1.7,6.8
			c1.1,2.8,2.5,4.3,4.3,4.3c1.6,0,3.2-1.2,4.7-3.7c1.5-2.4,2.4-5.1,2.7-8l-0.4-0.5h-0.8c-0.1,0-0.5,0.1-1.2,0.2
			c-0.7,0.2-1.1,0.2-1.1,0.2c-0.7,0.1-1.9,0.2-3.7,0.2c-0.6-0.8-0.9-1.6-0.9-2.4c0.2-0.2,0.5-0.6,0.9-1.2c-0.2-0.8-0.4-1.8-0.4-2.9
			c0.2,0,0.6,0,1.1,0s0.8,0,1,0c0.5,0,1.7-0.1,3.7-0.2l4.3-0.4c1.8,0.1,2.9,0.2,3.3,0.2c0.4,0.1,0.7,0.3,1,0.6
			c0.1,1.6,0.2,2.6,0.4,3c0.2,0.5,0.3,0.8,0.3,1c0,0.4-0.1,0.9-0.2,1.5l-0.8,0.6c0.2,0.7,0.2,1.2,0.2,1.4c0,0.9-0.6,2.5-1.7,4.9
			c-1,2.2-1.7,3.5-2.1,3.9l-2.8,3.3L91.6,134.5z"/>
		<path id="o2-Gods-People" class="st1" d="M117.9,128.8c-1.7,4.2-4.4,6.2-8.1,6.2c-1.9,0-3.5-0.9-4.7-2.8c-1.1-1.7-1.6-3.6-1.6-5.9
			c0-4.9,0.5-9.2,1.4-12.8c0.3-1.4,0.7-2.7,1-4.1c0.4-1.4,1-2,1.7-2c0.2,0,0.7,0.1,1.6,0.3c0.2,0,0.5-0.1,1.1-0.2
			c0.5-0.1,0.9-0.2,1-0.2c0.2,0,0.7,0,1.3,0.1c0.6-0.7,1.3-1,2-1c1.9,0,3.3,0.6,4.2,1.7c0.4,0.5,0.8,1.4,1.2,2.8
			c0.4,1.4,0.6,2.6,0.6,3.5c0,1.6-0.2,3.6-0.7,6c-0.5,2.7-0.8,4.5-0.9,5.4c0.6,0.8,1.6,1.2,3,1.2c0.4,0,1-0.5,1.9-1.5l0.9-1
			c0.2,1.2,0.3,2,0.3,2.3c0,0.8-0.3,1.6-1,2.2c-0.7,0.7-1.6,1-2.6,1C120.1,130.2,118.9,129.7,117.9,128.8z M112.4,131.2
			c1.2,0,2.3-1.5,3.2-4.5c-0.6-0.7-1.3-2.1-1.9-4.2c-0.8-2.6-1.2-5.1-1.2-7.5c0-0.7,0-1.2,0.1-1.7c0.1-0.7,0.2-1.1,0.2-1.3
			c0-0.4-0.2-0.7-0.7-1c-1.4,3.5-2.1,7.9-2.1,13C109.9,128.9,110.8,131.2,112.4,131.2z M117.5,117.7c0-2.9-0.5-4.7-1.6-5.6
			c0,0.3,0,1.1-0.1,2.2c-0.1,1.1-0.1,1.7-0.1,1.8c0,0.3,0.1,1.4,0.3,3c0.1,0.9,0.3,1.9,0.6,3.2C117.2,122.3,117.5,120.7,117.5,117.7
			z"/>
		<path id="d-Gods-People" class="st1" d="M134.8,132.1c-1.3,1.7-2.6,2.6-3.8,2.6c-1.1,0-2.2-0.5-3.1-1.6c-1.9-2.2-2.8-4.8-2.8-7.9
			c0-1.4,0.3-3.5,0.9-6.2l1.1-4.6c0.2-1,0.6-2.1,1-3.3c0.6-1.7,1.1-2.5,1.5-2.5c0.5-0.4,0.9-0.7,1.4-1.1c0.7-0.5,1.7-0.7,3-0.7
			l1.7,0.1l1.9,1.5l0.3-0.9l0.5-5.6c0-0.2,0.1-1.2,0.2-3.1c0.1-1.9,0.2-2.9,0.2-3.1c0-0.4-0.4-0.9-1.1-1.5c0.5-1,1.3-2,2.3-2.9
			c0.6,0,1-0.2,1.4-0.4c0.3-0.2,0.9-0.2,1.7-0.2h2.1c0.9,1.1,1.3,2.1,1.3,2.9c0,1.5-0.2,2.4-0.5,2.6c-0.3,0.2-0.5,0.7-0.5,1.6
			l-0.7,5l-1.3,13.1l-0.2,6.3c-0.1,2.1,0.7,3.8,2.4,5.1c0.6-0.1,1.2-0.6,1.8-1.4l1.9-2.3v1.9c0,1.8-0.4,3-1.3,3.8
			c-2.4,2.2-4.3,3.3-5.8,3.3c-1.7,0-3.2-1.4-4.5-4.2L134.8,132.1z M134.3,128.7c1-1.5,1.7-3.7,2.1-6.6l1.3-9c0-1.1-0.1-1.8-0.4-2.2
			c-0.3-0.3-0.8-0.6-1.7-0.7c-1.1,0.8-1.9,2.4-2.4,4.6l-1.1,4.6c-0.3,1.4-0.5,3.1-0.5,5.1c0,1.8,0.2,3.1,0.6,4l0.8,0.4L134.3,128.7z
			"/>
		<path id="Hpn--Gods-People" class="st1" d="M157.8,101.7c-0.4,0.7-1.5,2.4-3.3,5.2L154,107c-1.1-0.3-1.9-0.9-2.4-1.6v-0.5
			c0-0.5,0.7-2.1,2-4.9l2-4.2l0.6-1.7l0.6-0.4c0.4,0.1,0.8,0.3,1.2,0.6l0.9-0.1c0.7,0.8,1,1.4,1,1.8
			C159.9,97.3,159.2,99.2,157.8,101.7z"/>
		<path id="s-Gods-People" class="st1" d="M169.3,134.7l-1.7,1c-1.4-0.2-2.6-1-3.6-2.3c-0.9-1.2-1.3-2.6-1.3-4.1
			c0-0.6,0.1-1.3,0.4-2.3c-0.3,0.6-0.7,1-1.2,1.2v-2.3c0-1.2,0.4-3.4,1.2-6.6c0.8-3.3,1.3-5.7,1.4-7c0.1-0.8,0.2-2,0.3-3.7
			c0-0.1,0-0.6-0.1-1.3c0.6-0.3,1.2-0.5,1.7-0.6c1.2-0.7,2.5-1.2,3.8-1.3c0.6,0,1.4,0.1,2.4,0.3c0.3,0.5,0.4,1,0.4,1.5
			c0.1,2.1,0.4,3.7,0.9,4.9c0.6,1.6,1,2.9,1.1,3.7c1.7,2.5,2.5,4.4,2.5,5.7v4.6c0,0.6-0.3,1.5-0.9,2.7c-0.6,1.2-1.2,2-1.7,2.5
			C174.7,131.5,172.8,132.7,169.3,134.7z M169.8,130.7c1.6-1,2.4-2.2,2.4-3.7c0-0.8-0.7-2.8-2.2-6c-0.9-2.1-1.4-4.4-1.6-7l-0.3-0.5
			c-0.2,0.5-0.5,1.2-0.8,2.2l-1.6,5.4c-0.4,1.3-1,2.7-1.8,4.3c0.4-0.4,1.4-1,3-1.8c0.2,0.5,0.3,0.8,0.3,1c0,0.2-0.1,0.7-0.3,1.6
			s-0.3,1.5-0.3,1.6c0.1,0.8,0.5,1.4,1.1,2C168.4,130.4,169.1,130.7,169.8,130.7z"/>
		<path id="P-Gods-People" class="st1" d="M207.2,135.3c-0.1,0.3-0.6,0.5-1.5,0.5c-1.2,0-2.3-0.8-3.3-2.5c-1.4-0.3-2.3-1-2.6-1.9
			l0.6-0.3l0.2-0.8l0.1-7.4l0.6-7v-4.7l0.4-5.1c0.1-1.7,0.2-3.2,0.2-4.5c0-0.5,0-1-0.1-1.3c-0.4,0-1.3,0.3-2.8,0.8
			c-0.2,0.1-0.5,0.3-1,0.6c-0.4,0.4-0.7,0.5-1,0.5c-1.2-0.9-1.8-1.8-1.8-3c-0.4-0.4-0.9-1.1-1.6-2.1c0.3-0.3,1.3-0.9,3.1-1.8
			l3.8-1.8c1.4-0.7,4-1.6,7.6-2.6c1.7-0.5,3.6-0.8,5.7-0.8c2.8,0,5.1,0.8,6.9,2.4L223,96c1.9,2.7,2.8,5.2,2.8,7.4
			c0,4.7-2.2,8.8-6.6,12.1c-3.1,2.3-5.9,3.5-8.5,3.5c-0.4,0-0.9-0.1-1.6-0.3c-0.8-0.3-1.3-0.4-1.6-0.5l-0.1,7c0,3.5,0.2,5.8,0.7,6.8
			c0.2,0.4,0.3,0.7,0.3,0.9c0,0.6-0.2,1-0.6,1.4C207.5,134.8,207.3,135.1,207.2,135.3z M208.3,113c2.6,0,5.5-1.7,8.7-5.1
			c2.1-2.2,3.1-4.8,3.1-7.8c0-2.8-1.5-4.2-4.4-4.2c-2.4,0-5,0.7-8,2.1c1,0.5,1.5,1,1.5,1.7c-0.4,0.6-0.7,1.7-0.8,3.4l-0.7,9.4
			L208.3,113z"/>
		<path id="e2-Gods-People" class="st1" d="M230.8,107.2l3.9-1.5l4.7-0.4c0.2,0,0.8,0.3,1.6,1c0.9,0.7,1.7,1.6,2.3,2.5
			c0.8,1.3,1.3,3.1,1.3,5.2c0,2.4-0.7,4.7-2.2,6.7c-1.5,2.2-3.3,3.3-5.4,3.3c-0.1,0-0.5,0-1.1-0.1c-0.6-0.1-0.9-0.1-0.9-0.1
			c-0.2,0-0.5,0.1-0.8,0.2c-0.1,0.3-0.1,0.6-0.1,0.8c0,0.8,0.3,1.8,0.9,2.8c0.7,1.3,1.5,1.9,2.5,1.9c1.7,0,3.2-0.4,4.5-1.3
			c1.5-1,3-2.8,4.6-5.3l0.4,0.1c0.2,0.5,0.2,0.9,0.2,1.2c0,0.4-0.1,0.9-0.2,1.6c-0.2,0.9-0.3,1.4-0.3,1.5c-0.2,0.9-0.7,1.6-1.5,2.3
			c-0.7,0.5-1.4,1.1-2,1.6c-2.1,2.4-4.2,3.6-6.6,3.6c-2.3,0-4.2-0.8-5.5-2.4l-1.8-2.2l-1.3-3.6c0-1.7,0-2.8,0.1-3.4
			c0.1-0.9,0.2-2.6,0.3-5.2l1.1-5.7C229.9,110,230.3,108.2,230.8,107.2z M235.5,112.8l-1.2,6.6v1.6l1.4,0.6c0.9-0.1,1.7-0.8,2.4-2.3
			c0.8-1.8,1.3-4.2,1.3-7.2c0-1.9-0.5-3.3-1.6-4.1l-0.7,0.2C236.7,108.6,236.2,110.2,235.5,112.8z"/>
		<path id="o-Gods-People" class="st1" d="M261.7,128.8c-1.7,4.2-4.4,6.2-8.1,6.2c-1.9,0-3.5-0.9-4.7-2.8c-1.1-1.7-1.6-3.6-1.6-5.9
			c0-4.9,0.5-9.2,1.4-12.8c0.3-1.4,0.7-2.7,1-4.1c0.4-1.4,1-2,1.7-2c0.2,0,0.7,0.1,1.6,0.3c0.2,0,0.5-0.1,1.1-0.2
			c0.5-0.1,0.9-0.2,1-0.2c0.2,0,0.7,0,1.3,0.1c0.6-0.7,1.3-1,2-1c1.9,0,3.3,0.6,4.2,1.7c0.4,0.5,0.8,1.4,1.2,2.8
			c0.4,1.4,0.6,2.6,0.6,3.5c0,1.6-0.2,3.6-0.7,6c-0.5,2.7-0.8,4.5-0.9,5.4c0.6,0.8,1.6,1.2,3,1.2c0.4,0,1-0.5,1.9-1.5l0.9-1
			c0.2,1.2,0.3,2,0.3,2.3c0,0.8-0.3,1.6-1,2.2c-0.7,0.7-1.6,1-2.6,1C263.9,130.2,262.7,129.7,261.7,128.8z M256.2,131.2
			c1.2,0,2.3-1.5,3.2-4.5c-0.6-0.7-1.3-2.1-1.9-4.2c-0.8-2.6-1.2-5.1-1.2-7.5c0-0.7,0-1.2,0.1-1.7c0.1-0.7,0.2-1.1,0.2-1.3
			c0-0.4-0.2-0.7-0.7-1c-1.4,3.5-2.1,7.9-2.1,13C253.7,128.9,254.5,131.2,256.2,131.2z M261.3,117.7c0-2.9-0.5-4.7-1.6-5.6
			c0,0.3,0,1.1-0.1,2.2c-0.1,1.1-0.1,1.7-0.1,1.8c0,0.3,0.1,1.4,0.3,3c0.1,0.9,0.3,1.9,0.6,3.2C261,122.3,261.3,120.7,261.3,117.7z"
			/>
		<path id="p-Gods-People" class="st1" d="M275.9,145.3c-0.6,0.6-1.3,1-2.1,1c-0.5,0-0.9-0.2-1.3-0.6c-0.6-0.6-1.2-0.9-1.7-1.1
			c-0.2-0.3-0.7-1-1.6-2.1v-4.6l0.2-8.7v-5l0.5-12.9c0-0.3,0.1-0.7,0.2-1.3c0.1-0.4,0.1-0.9,0.1-1.4v-4.7l-0.7-0.8l3.2-1.6
			c0.3,0,0.6,0,1.1,0.1c0.6,0.1,1.4,0.2,2.2,0.2c0.6,0.6,1.2,1.2,1.7,1.9l-0.1,0.6c-0.3,0.3-0.6,1.4-1,3.4c-0.3,1.8-0.5,3.3-0.5,4.4
			c0.3,0,0.6-0.3,1-0.8c0.6-0.8,1-1.4,1.3-1.7c0.3-0.8,0.8-1.4,1.7-1.6c0.8-0.3,1.6-0.4,2.2-0.4c0.8,0,1.7,0.2,2.6,0.7
			c1.1,0.6,1.8,1.3,2.3,2.2c0.8,1.5,1.2,4.5,1.2,9c0,3.3-0.8,6.3-2.4,8.9c-0.6,1.1-1.6,2.1-2.8,3.1c-1.2,1-2.2,1.5-2.9,1.5
			c-1.2,0-2.2-0.1-3-0.2s-1.2-0.2-1.1-0.2h-0.6l-0.4,0.7c0.1,0.2,0.2,0.4,0.2,0.6c0,0.1,0,0.5-0.1,1c-0.1,0.5-0.1,1-0.1,1.3v4.7
			C275.2,141.4,275.4,143,275.9,145.3z M278.3,129.4c1.1-1.1,1.7-2.3,1.9-3.7l0.6-4.2l0.1-4.8c0-1.2,0-2-0.1-2.4
			c-0.1-0.4-0.5-0.8-1.1-1.2l-0.9,0.1c-1.8,2.3-2.8,4.7-3,7.2l-0.4,6.2v2C276.5,129.1,277.4,129.4,278.3,129.4z"/>
		<path id="l-Gods-People" class="st1" d="M308.4,128.5c-1.6,2.6-3.1,4.5-4.4,5.6c-1.3,1.1-2.8,1.6-4.4,1.6c-0.7,0-1.7-0.2-2.8-0.7
			c-1.4-0.6-2.5-1.4-3.2-2.3c-0.3-0.4-0.7-1.4-1.3-3c-0.5-1.6-0.8-2.8-0.8-3.5l0.3-3v-7.6l0.3-7.7c0.3-2.2,0.9-5.3,1.7-9.3
			c0.7-3.1,1-5.1,1-5.9c1.8-1,3.4-1.6,4.7-1.6c2.6,0,4.5,0.9,5.5,2.7s1.6,4.8,1.6,8.9c0,6.3-2.7,13-8.2,20.1
			c-0.5,0.7-0.8,1.1-0.8,1.4c0,4.1,1.2,6.1,3.7,6.1c1.1,0,2.4-0.6,3.7-1.7s2.4-2.6,3.2-4.5c0,0.1,0,0.5,0.1,1.1
			c0,0.6,0.1,1.1,0.1,1.4C308.4,127,308.4,127.6,308.4,128.5z M297.8,118.2c1.4-1.1,2.6-3.4,3.6-6.8c0.9-3.1,1.4-5.8,1.4-8.1
			c0-5.5-0.5-8.3-1.6-8.3c-0.4,0-0.7,0.6-1,1.9c-0.9,3.9-1.4,7-1.4,9.4c0,1.1-0.1,2.6-0.4,4.2c-0.2,1.8-0.4,2.8-0.4,3L297.8,118.2z"
			/>
		<path id="e-Gods-People" class="st1" d="M311.3,107.2l3.9-1.5l4.7-0.4c0.2,0,0.8,0.3,1.6,1c0.9,0.7,1.7,1.6,2.3,2.5
			c0.8,1.3,1.3,3.1,1.3,5.2c0,2.4-0.7,4.7-2.2,6.7c-1.5,2.2-3.3,3.3-5.4,3.3c-0.1,0-0.5,0-1.1-0.1c-0.6-0.1-0.9-0.1-0.9-0.1
			c-0.2,0-0.5,0.1-0.8,0.2c-0.1,0.3-0.1,0.6-0.1,0.8c0,0.8,0.3,1.8,0.9,2.8c0.7,1.3,1.5,1.9,2.5,1.9c1.7,0,3.2-0.4,4.5-1.3
			c1.5-1,3-2.8,4.6-5.3l0.4,0.1c0.2,0.5,0.2,0.9,0.2,1.2c0,0.4-0.1,0.9-0.2,1.6c-0.2,0.9-0.3,1.4-0.3,1.5c-0.2,0.9-0.7,1.6-1.5,2.3
			c-0.7,0.5-1.4,1.1-2,1.6c-2.1,2.4-4.2,3.6-6.6,3.6c-2.3,0-4.2-0.8-5.5-2.4l-1.8-2.2l-1.3-3.6c0-1.7,0-2.8,0.1-3.4
			c0.1-0.9,0.2-2.6,0.3-5.2l1.1-5.7C310.3,110,310.8,108.2,311.3,107.2z M315.9,112.8l-1.2,6.6v1.6l1.4,0.6c0.9-0.1,1.7-0.8,2.4-2.3
			c0.8-1.8,1.3-4.2,1.3-7.2c0-1.9-0.5-3.3-1.6-4.1l-0.7,0.2C317.1,108.6,316.6,110.2,315.9,112.8z"/>
	</g>
	<g id="Loving-and-Leading">
		<path id="L-Loving-and-Leading" class="st1" d="M34.7,51.8L30,53.4c-0.8,0.2-2.1,0.4-4.2,0.4c-2.3,0-4.6-0.3-6.7-0.9
			c-0.7-0.2-1.4-0.3-1.9-0.3c-0.4,0-0.8,0.2-1.4,0.6c-0.3,0.2-1.1,0.6-2.3,1.3c-0.3-0.2-0.8-0.2-1.4-0.2c-0.1-0.1-0.6-0.3-1.3-0.6
			c-1.1-0.2-2.2-0.7-3.1-1.6l-0.1-2l0.7-2.8l0.5-0.4l6-0.4l0.5-0.9l1-4.2l0.6-3.8l0.2-4.1v-5.5c0-0.2,0-1.1,0.1-2.7
			c0.1-1.6,0.1-2.6,0.1-3.1c0-4.2,0.6-7.2,1.8-8.7c2.2-2.9,4.3-4.3,6.5-4.3c0.9,0,1.7,0.1,2.4,0.4c0.4,0.2,0.9,0.4,1.3,0.6l4-0.6
			c0.2,0,0.6,0.2,1.2,0.5c0.8,0.4,1.3,0.6,1.6,0.7l0.4,0.8v2L37,19l0.7,2.8c0,1.5-0.2,2.7-0.6,3.5c0,0.9-0.2,1.4-0.7,1.6l-2.6,1
			c-0.8-0.6-1.5-0.8-2-0.8h-0.7c0-0.5-0.1-1.3-0.3-2.2c-0.3-1.3-0.5-2.9-0.7-4.8c-0.2-2.2-0.4-3.6-0.5-4.2c-0.1-0.9-0.4-1.9-0.7-2.9
			c-0.6-0.2-1-0.4-1.2-0.4c-1,0-1.7,1.5-2.1,4.5l-1,6.3l-0.2,11c-0.1,2.2-0.2,4.3-0.3,6.6c-0.1,1.2-0.9,2.9-2.4,5.2l0.4,0.1
			c0.8-0.1,1.6-0.1,2.3-0.1c0.7,0,1.7,0.1,3.2,0.3c1.5,0.2,2.5,0.3,3.2,0.3c1.1,0,2.3-0.5,3.6-1.4c1.4-1,2.4-2.4,3.1-4.1l0.7-0.1
			c0.6,0.8,0.8,1.4,0.8,1.8c0,0.1-0.3,0.6-0.8,1.5c-0.1,0.2-0.6,1.6-1.5,4.2C36,50.5,35.4,51.6,34.7,51.8z"/>
		<path id="_x30_-Loving-and-Leading" class="st1" d="M54.4,47.8C52.7,51.9,50,54,46.3,54c-1.9,0-3.5-0.9-4.7-2.8
			c-1.1-1.7-1.6-3.6-1.6-5.9c0-4.9,0.5-9.2,1.4-12.8c0.3-1.4,0.7-2.7,1-4.1c0.4-1.4,1-2,1.7-2c0.2,0,0.7,0.1,1.6,0.3
			c0.2,0,0.5-0.1,1.1-0.2c0.5-0.1,0.9-0.2,1-0.2c0.2,0,0.7,0,1.3,0.1c0.6-0.7,1.3-1,2-1c1.9,0,3.3,0.6,4.2,1.7
			c0.4,0.5,0.8,1.4,1.2,2.8c0.4,1.4,0.6,2.6,0.6,3.5c0,1.6-0.2,3.6-0.7,6c-0.5,2.7-0.8,4.5-0.9,5.4c0.6,0.8,1.6,1.2,3,1.2
			c0.4,0,1-0.5,1.9-1.5l0.9-1c0.2,1.2,0.3,2,0.3,2.3c0,0.8-0.3,1.6-1,2.2c-0.7,0.7-1.6,1-2.6,1C56.6,49.2,55.5,48.7,54.4,47.8z
			 M48.9,50.2c1.2,0,2.3-1.5,3.2-4.5c-0.6-0.7-1.3-2.1-1.9-4.2C49.4,39,49,36.5,49,34.1c0-0.7,0-1.2,0.1-1.7
			c0.1-0.7,0.2-1.1,0.2-1.3c0-0.4-0.2-0.7-0.7-1c-1.4,3.5-2.1,7.9-2.1,13C46.5,47.9,47.3,50.2,48.9,50.2z M54,36.7
			c0-2.9-0.5-4.7-1.6-5.6c0,0.3,0,1.1-0.1,2.2c-0.1,1.1-0.1,1.7-0.1,1.8c0,0.3,0.1,1.4,0.3,3c0.1,0.9,0.3,1.9,0.6,3.2
			C53.7,41.3,54,39.7,54,36.7z"/>
		<path id="v-Loving-and-Leading" class="st1" d="M75.1,46.5c-2.2,4.8-4.6,7.2-7.4,7.2c-2.2,0-3.9-1.7-5.1-5L62,47l-0.2-5.3l0.3-5.2
			c0-0.4,0.1-1.3,0.2-2.8c0.1-1.4,0.2-2.2,0.2-2.3c0-0.5-0.2-1.1-0.6-1.8c0.1-0.8,0.1-1.3,0.1-1.5c0-0.7,0-1.3,0-1.6
			c0.6-0.6,1.1-1,1.6-1.1c0.5-0.1,1.2-0.3,2-0.6c0.9,0.9,1.9,1.7,3.1,2.6c0.1,0.4,0.3,0.8,0.5,1.1c0.2,0.3,0.4,0.6,0.4,0.7l-0.4,1.6
			c-0.3,1.7-0.7,3.8-1.1,6.4l-0.2,6c-0.1,2.9,0.6,4.9,2.1,6.1c1.2-0.8,2-1.6,2.3-2.3c0.1-0.3,0.3-1.1,0.7-2.4
			c0.4-1.6,0.6-2.8,0.6-3.6c0-0.1-0.1-1-0.3-2.8c-0.2-1.8-0.3-2.8-0.3-3c0-0.3,0-0.7,0.1-1.1l0.2-1.9V27c0-1,0.7-1.9,2.2-2.8
			c2.2,0.6,3.3,1.6,3.3,3.1c0,1.6,0,2.9-0.1,3.7l-0.5,5c-0.2,1.8-0.7,4.2-1.5,7c0.5,1.1,1.2,1.7,2.2,1.7c0.7,0,1.3-0.3,1.8-0.9
			c0.6-0.8,1-1.2,1.3-1.3l-0.2,2c-0.1,0.5-0.1,1.2-0.2,2.2c-1.1,0.7-2,1.1-2.7,1.1c-0.5,0-1.2-0.2-2.1-0.7L75.1,46.5z"/>
		<path id="i-Loving-and-Leading" class="st1" d="M91.6,50.7c-1.1,0.8-2.7,1.3-4.9,1.3c-1.3,0-2.6-0.7-3.7-2.2
			c-1.1-1.4-1.6-2.7-1.6-4.1c0-1.2,0.2-3.5,0.7-7c0.5-3.5,1-6.3,1.5-8.2c0.1-0.5,0.2-1,0.2-1.4c0-0.3-0.1-0.6-0.4-0.8v-0.9
			c0.1-0.2,0.9-0.4,2.4-0.6l2.2-0.3c0.4,0,0.8,0,1.1,0.1l2.8,2.8v0.5c-0.5,0.5-1,1.9-1.6,4.3c-1.2,4.5-1.8,7.6-1.8,9.4
			c0,1.4,0.1,2.3,0.4,2.9c0.3,0.7,1,1,1.9,1c1.3,0,3-1.3,5-4l0.1,0.2c0,0.1,0,0.3,0,0.7c0,0.4,0,0.6,0,0.7c0,0.1,0,0.5,0.1,1.3
			c-0.3,0.9-0.9,1.7-1.9,2.6C93.1,49.5,92.4,50.1,91.6,50.7z M91.6,20.4c-0.6,0.8-1,1.3-1.2,1.5c-0.2,0.2-0.6,0.3-1.1,0.3
			c-1.3,0-2.4-0.4-3.4-1.2c-1-0.8-1.5-1.7-1.5-2.6c0-1.2,0.4-2.2,1.2-3c0.7-0.7,1.7-1.1,2.8-1.1c1.2,0,2.2,0.3,3,1s1.2,1.6,1.2,2.8
			C92.6,18.6,92.3,19.4,91.6,20.4z"/>
		<path id="n-Loving-and-Leading" class="st1" d="M116.4,50c-1.9,1.4-3.4,2.1-4.5,2.1c-3.3,0-5-2.6-5-7.9c0-1.7,0.2-3,0.5-4
			c0.2-0.6,0.3-1,0.3-1.4c0-0.5-0.2-0.8-0.5-0.8c-0.5,0-0.8,0.5-1.1,1.6c-0.5,1.9-0.7,3-0.8,3l-1.2,3.1c-1.2,3-1.8,5.1-1.8,6.2
			c0,0.2,0,0.6,0.1,1.1l-1.3,1.1l-2-0.2l-0.6-1l-1.5-0.4c-0.5-0.7-0.8-1.4-0.8-2.3c0-0.1,0-0.7-0.1-1.9c-0.1-1.2-0.1-2.1-0.1-2.6
			c0-1.6,0.1-3.2,0.2-4.8l0.8-10c0-0.2,0-0.8,0.1-1.9c0-0.1-0.1-0.2-0.2-0.3c-0.1-0.1-0.2-0.3-0.2-0.4c0-0.5,0.5-1.1,1.4-1.9
			c0.6,0.1,1.1,0.2,1.6,0.5l2.1-0.6c1.3,1.2,2,2.2,2,2.8c0,0.3-0.1,0.6-0.3,0.9c-0.3,0.5-0.6,1.6-0.8,3.4L101.8,47l5-14.4
			c0.5-1.3,0.8-2.6,1-3.8c0.2-1.2,0.4-1.9,0.4-2.1c0.1-0.4,0.6-0.8,1.3-1.4c0.9-0.6,1.7-0.9,2.5-0.9c0.4,0,1.1,0.4,2,1.1
			c0.8,0.6,1.3,1.2,1.8,1.8c-0.4,0.7-0.6,1.4-0.8,2.1l-1.4,5l-0.6,3.4l-0.3,5.5c0,0.2,0.2,0.8,0.6,1.7c0.4,0.9,1,1.3,1.8,1.3
			c1,0,2.1-0.7,3.3-2v1.1l-0.4,0.8l0.2,0.6l-0.1,0.8l0.2,0.6c-0.1,0.1-0.4,0.3-0.7,0.5C117.1,49.2,116.7,49.6,116.4,50z"/>
		<path id="g-Loving-and-Leading" class="st1" d="M129.1,63.7c-0.7,0.6-1.4,0.8-2.1,0.8c-1.4,0-2.7-0.6-4-1.7s-1.9-2.4-1.9-3.6v-2.5
			c0.4-0.3,1-0.7,1.8-1.1c0.4,1,1.3,2.1,2.7,3.3c1.4,1.2,2.6,1.8,3.5,1.8c0.8,0,1.1-1.8,1.1-5.4c0-0.1-0.1-1-0.3-2.7
			c-0.2-1.6-0.3-2.8-0.3-3.5c0-0.1,0-0.8,0.1-2.1l-0.2-0.2c-2.2,3.2-4.1,4.7-5.8,4.7c-0.6,0-1.4-0.3-2.5-0.9c-1.2-0.7-2-1.4-2.5-2.2
			c-0.5-0.7-0.7-2.6-0.7-5.7c0-4.9,1.1-9.9,3.2-15c0.3-0.6,1-1.2,2.1-1.7c0.9-0.5,1.7-0.7,2.4-0.8l3.3,1.6l0.3-0.1l0.3-0.6l0.9-0.3
			h1.3c0.3,0,0.9-0.2,1.8-0.6c0.5,0.3,1.4,0.9,2.5,1.8l0.5,0.3c0.2,0.1,0.3,0.3,0.3,0.4c0,0.1-0.2,0.6-0.5,1.5
			c-0.2,1.5-0.4,3.6-0.7,6.2c-0.1,0.7-0.1,1.3-0.1,1.7v0.9c0,0.3,0,0.9,0,1.7s0,1.4,0,1.7c0-0.2,0.1,0.8,0.2,3.1
			c0.2,2.3,0.2,5,0.2,8c0,0.7-0.2,1.7-0.6,3.1c-0.5,1.6-1,2.8-1.6,3.6C133.3,60.3,131.7,61.7,129.1,63.7z M126.1,47.8
			c0.6,0,1.3-1,1.9-2.9c0.5-1.6,0.9-3.2,1.1-4.7l1.1-9c0-0.4-0.2-0.8-0.7-1.2c-0.5-0.4-0.9-0.6-1.2-0.6c-0.2,0-0.4,0-0.6,0.1
			c-0.7,1.3-1.4,3.3-2.2,5.9c-0.8,3-1.2,5.6-1.2,7.8C124.2,46.3,124.8,47.8,126.1,47.8z"/>
		<path id="a-Loving-and-Leading" class="st1" d="M164.5,47.1c-0.9,2.1-2,3.8-3.3,5c-1.1,1.1-2.1,1.7-3,1.7c-2.1,0-3.6-1.1-4.6-3.2
			c-0.8-1.7-1.2-3.9-1.1-6.5l0.1-2.8l1.1-6.4c0.5-3,1.8-5.7,3.9-8.2c0.4-0.5,1.1-0.9,2.2-1.3c1-0.4,1.8-0.6,2.4-0.6
			c1,0,2.1,0.7,3.4,2c0.8,0,1.3,0.1,1.6,0.4c0.3,0.3,0.7,0.4,1.3,0.4c1.1,0,2.1,0.2,3.1,0.6c0.6,0.7,0.9,1.4,0.9,2.1
			c-0.4,0.5-0.6,1-0.6,1.5c-1.1,6-1.6,9.4-1.6,10.4c0,2.4,0.7,3.8,2.1,4.3l0.8-0.4l3.3-4.2c0.2,0.6,0.3,1.2,0.3,1.8
			c0,0.5-0.1,0.9-0.3,1.3c0,0.7-0.1,1.2-0.4,1.5c0,0-0.4,0.4-1,1c-2.2,2.2-4.1,3.3-5.5,3.3c-1.1,0-2.2-0.4-3.1-1.2
			c-0.8-0.8-1.3-1.7-1.6-2.8L164.5,47.1z M161.6,47.4c1.2-1.3,2.1-4.1,2.8-8.3l0.8-4.9c0.2-1,0.2-2,0.2-3c0-0.5-0.2-1.2-0.6-2
			l-1.8-0.6c-0.8,0.6-1.6,2.3-2.4,5.1c-1.2,4.4-1.8,8-1.8,10.8c0,1.8,0.4,3.1,1.3,4.1l0.7-0.1C161.1,48.1,161.4,47.8,161.6,47.4z"/>
		<path id="n-Loving-and-Leading_00000076591782493292747900000001120321380191110571_" class="st1" d="M196.9,50
			c-1.9,1.4-3.4,2.1-4.5,2.1c-3.3,0-5-2.6-5-7.9c0-1.7,0.2-3,0.5-4c0.2-0.6,0.3-1,0.3-1.4c0-0.5-0.2-0.8-0.5-0.8
			c-0.5,0-0.8,0.5-1.1,1.6c-0.5,1.9-0.7,3-0.8,3l-1.2,3.1c-1.2,3-1.8,5.1-1.8,6.2c0,0.2,0,0.6,0.1,1.1l-1.3,1.1l-2-0.2l-0.6-1
			l-1.5-0.4c-0.5-0.7-0.8-1.4-0.8-2.3c0-0.1,0-0.7-0.1-1.9c-0.1-1.2-0.1-2.1-0.1-2.6c0-1.6,0.1-3.2,0.2-4.8l0.8-10
			c0-0.2,0-0.8,0.1-1.9c0-0.1-0.1-0.2-0.2-0.3c-0.1-0.1-0.2-0.3-0.2-0.4c0-0.5,0.5-1.1,1.4-1.9c0.6,0.1,1.1,0.2,1.6,0.5l2.1-0.6
			c1.3,1.2,2,2.2,2,2.8c0,0.3-0.1,0.6-0.3,0.9c-0.3,0.5-0.6,1.6-0.8,3.4L182.2,47l5-14.4c0.5-1.3,0.8-2.6,1-3.8
			c0.2-1.2,0.4-1.9,0.4-2.1c0.1-0.4,0.6-0.8,1.3-1.4c0.9-0.6,1.7-0.9,2.5-0.9c0.4,0,1.1,0.4,2,1.1c0.8,0.6,1.3,1.2,1.8,1.8
			c-0.4,0.7-0.6,1.4-0.8,2.1l-1.4,5l-0.6,3.4l-0.3,5.5c0,0.2,0.2,0.8,0.6,1.7c0.4,0.9,1,1.3,1.8,1.3c1,0,2.1-0.7,3.3-2v1.1l-0.4,0.8
			l0.2,0.6l-0.1,0.8l0.2,0.6c-0.1,0.1-0.4,0.3-0.7,0.5C197.5,49.2,197.2,49.6,196.9,50z"/>
		<path id="d-Loving-and-Leading" class="st1" d="M208,51.1c-1.3,1.7-2.6,2.6-3.8,2.6c-1.1,0-2.2-0.5-3.1-1.6
			c-1.9-2.2-2.8-4.8-2.8-7.9c0-1.4,0.3-3.5,0.9-6.2l1.1-4.6c0.2-1,0.6-2.1,1-3.3c0.6-1.7,1.1-2.5,1.5-2.5c0.5-0.4,0.9-0.7,1.4-1.1
			c0.7-0.5,1.7-0.7,3-0.7l1.7,0.1l1.9,1.5l0.3-0.9l0.5-5.6c0-0.2,0.1-1.2,0.2-3.1c0.1-1.9,0.2-2.9,0.2-3.1c0-0.4-0.4-0.9-1.1-1.5
			c0.5-1,1.3-2,2.3-2.9c0.6,0,1-0.2,1.4-0.4c0.3-0.2,0.9-0.2,1.7-0.2h2.1c0.9,1.1,1.3,2.1,1.3,2.9c0,1.5-0.2,2.4-0.5,2.6
			c-0.3,0.2-0.5,0.7-0.5,1.6l-0.7,5l-1.3,13.1l-0.2,6.3c-0.1,2.1,0.7,3.8,2.4,5.1c0.6-0.1,1.2-0.6,1.8-1.4l1.9-2.3v1.9
			c0,1.8-0.4,3-1.3,3.8c-2.4,2.2-4.3,3.3-5.8,3.3c-1.7,0-3.2-1.4-4.5-4.2L208,51.1z M207.6,47.7c1-1.5,1.7-3.7,2.1-6.6l1.3-9
			c0-1.1-0.1-1.8-0.4-2.2c-0.3-0.3-0.8-0.6-1.7-0.7c-1.1,0.8-1.9,2.4-2.4,4.6l-1.1,4.6c-0.3,1.4-0.5,3.1-0.5,5.1
			c0,1.8,0.2,3.1,0.6,4l0.8,0.4L207.6,47.7z"/>
		<path id="L2-Loving-and-Leading" class="st1" d="M263.6,51.8l-4.7,1.6c-0.8,0.2-2.1,0.4-4.2,0.4c-2.3,0-4.6-0.3-6.7-0.9
			c-0.7-0.2-1.4-0.3-1.9-0.3c-0.4,0-0.8,0.2-1.4,0.6c-0.3,0.2-1.1,0.6-2.3,1.3c-0.3-0.2-0.8-0.2-1.4-0.2c-0.1-0.1-0.6-0.3-1.3-0.6
			c-1.1-0.2-2.2-0.7-3.1-1.6l-0.1-2l0.7-2.8l0.5-0.4l6-0.4l0.5-0.9l1-4.2l0.6-3.8l0.2-4.1v-5.5c0-0.2,0-1.1,0.1-2.7
			c0.1-1.6,0.1-2.6,0.1-3.1c0-4.2,0.6-7.2,1.8-8.7c2.2-2.9,4.3-4.3,6.5-4.3c0.9,0,1.7,0.1,2.4,0.4c0.4,0.2,0.9,0.4,1.3,0.6l4-0.6
			c0.2,0,0.6,0.2,1.2,0.5c0.8,0.4,1.3,0.6,1.6,0.7l0.4,0.8v2l0.4,5.6l0.7,2.8c0,1.5-0.2,2.7-0.6,3.5c0,0.9-0.2,1.4-0.7,1.6l-2.6,1
			c-0.8-0.6-1.5-0.8-2-0.8h-0.7c0-0.5-0.1-1.3-0.3-2.2c-0.3-1.3-0.5-2.9-0.7-4.8c-0.2-2.2-0.4-3.6-0.5-4.2c-0.1-0.9-0.4-1.9-0.7-2.9
			c-0.6-0.2-1-0.4-1.2-0.4c-1,0-1.7,1.5-2.1,4.5l-1,6.3l-0.2,11c-0.1,2.2-0.2,4.3-0.3,6.6c-0.1,1.2-0.9,2.9-2.4,5.2l0.4,0.1
			c0.8-0.1,1.6-0.1,2.3-0.1c0.7,0,1.7,0.1,3.2,0.3c1.5,0.2,2.5,0.3,3.2,0.3c1.1,0,2.3-0.5,3.6-1.4c1.4-1,2.4-2.4,3.1-4.1l0.7-0.1
			c0.6,0.8,0.8,1.4,0.8,1.8c0,0.1-0.3,0.6-0.8,1.5c-0.1,0.2-0.6,1.6-1.5,4.2C264.9,50.5,264.2,51.6,263.6,51.8z"/>
		<path id="e-Loving-and-Leading" class="st1" d="M271.9,26.2l3.9-1.5l4.7-0.4c0.2,0,0.8,0.3,1.6,1c0.9,0.7,1.7,1.6,2.3,2.5
			c0.8,1.3,1.3,3.1,1.3,5.2c0,2.4-0.7,4.7-2.2,6.7c-1.5,2.2-3.3,3.3-5.4,3.3c-0.1,0-0.5,0-1.1-0.1c-0.6-0.1-0.9-0.1-0.9-0.1
			c-0.2,0-0.5,0.1-0.8,0.2c-0.1,0.3-0.1,0.6-0.1,0.8c0,0.8,0.3,1.8,0.9,2.8c0.7,1.3,1.5,1.9,2.5,1.9c1.7,0,3.2-0.4,4.5-1.3
			c1.5-1,3-2.8,4.6-5.3l0.4,0.1c0.2,0.5,0.2,0.9,0.2,1.2c0,0.4-0.1,0.9-0.2,1.6c-0.2,0.9-0.3,1.4-0.3,1.5c-0.2,0.9-0.7,1.6-1.5,2.3
			c-0.7,0.5-1.4,1.1-2,1.6c-2.1,2.4-4.2,3.6-6.6,3.6c-2.3,0-4.2-0.8-5.5-2.4l-1.8-2.2l-1.3-3.6c0-1.7,0-2.9,0.1-3.4
			c0.1-0.9,0.2-2.6,0.3-5.2l1.1-5.7C271,29,271.5,27.2,271.9,26.2z M276.6,31.8l-1.2,6.6v1.6l1.4,0.6c0.9-0.1,1.7-0.8,2.4-2.3
			c0.8-1.8,1.3-4.2,1.3-7.2c0-1.9-0.5-3.3-1.6-4.1l-0.7,0.2C277.8,27.6,277.3,29.2,276.6,31.8z"/>
		<path id="a-Loving-and-Leading_00000124147597612966415100000000092777271031722388_" class="st1" d="M300.4,47.1
			c-0.9,2.1-2,3.8-3.3,5c-1.1,1.1-2.1,1.7-3,1.7c-2.1,0-3.6-1.1-4.6-3.2c-0.8-1.7-1.2-3.9-1.1-6.5l0.1-2.8l1.1-6.4
			c0.5-3,1.8-5.7,3.9-8.2c0.4-0.5,1.1-0.9,2.2-1.3c1-0.4,1.8-0.6,2.4-0.6c1,0,2.1,0.7,3.4,2c0.8,0,1.3,0.1,1.6,0.4
			c0.3,0.3,0.7,0.4,1.3,0.4c1.1,0,2.1,0.2,3.1,0.6c0.6,0.7,0.9,1.4,0.9,2.1c-0.4,0.5-0.6,1-0.6,1.5c-1.1,6-1.6,9.4-1.6,10.4
			c0,2.4,0.7,3.8,2.1,4.3l0.8-0.4l3.3-4.2c0.2,0.6,0.3,1.2,0.3,1.8c0,0.5-0.1,0.9-0.3,1.3c0,0.7-0.1,1.2-0.4,1.5c0,0-0.4,0.4-1,1
			c-2.2,2.2-4.1,3.3-5.5,3.3c-1.1,0-2.2-0.4-3.1-1.2c-0.8-0.8-1.3-1.7-1.6-2.8L300.4,47.1z M297.5,47.4c1.2-1.3,2.1-4.1,2.8-8.3
			l0.8-4.9c0.2-1,0.2-2,0.2-3c0-0.5-0.2-1.2-0.6-2l-1.8-0.6c-0.8,0.6-1.6,2.3-2.4,5.1c-1.2,4.4-1.8,8-1.8,10.8
			c0,1.8,0.4,3.1,1.3,4.1l0.7-0.1C297,48.1,297.2,47.8,297.5,47.4z"/>
		<path id="d-Loving-and-Leading_00000098915796093302933420000010163680978940637090_" class="st1" d="M322,51.1
			c-1.3,1.7-2.6,2.6-3.8,2.6c-1.1,0-2.2-0.5-3.1-1.6c-1.9-2.2-2.8-4.8-2.8-7.9c0-1.4,0.3-3.5,0.9-6.2l1.1-4.6c0.2-1,0.6-2.1,1-3.3
			c0.6-1.7,1.1-2.5,1.5-2.5c0.5-0.4,0.9-0.7,1.4-1.1c0.7-0.5,1.7-0.7,3-0.7l1.7,0.1l1.9,1.5l0.3-0.9l0.5-5.6c0-0.2,0.1-1.2,0.2-3.1
			c0.1-1.9,0.2-2.9,0.2-3.1c0-0.4-0.4-0.9-1.1-1.5c0.5-1,1.3-2,2.3-2.9c0.6,0,1-0.2,1.4-0.4c0.3-0.2,0.9-0.2,1.7-0.2h2.1
			c0.9,1.1,1.3,2.1,1.3,2.9c0,1.5-0.2,2.4-0.5,2.6c-0.3,0.2-0.5,0.7-0.5,1.6l-0.7,5l-1.3,13.1l-0.2,6.3c-0.1,2.1,0.7,3.8,2.4,5.1
			c0.6-0.1,1.2-0.6,1.8-1.4l1.9-2.3v1.9c0,1.8-0.4,3-1.3,3.8c-2.4,2.2-4.3,3.3-5.8,3.3c-1.7,0-3.2-1.4-4.5-4.2L322,51.1z
			 M321.5,47.7c1-1.5,1.7-3.7,2.1-6.6l1.3-9c0-1.1-0.1-1.8-0.4-2.2c-0.3-0.3-0.8-0.6-1.7-0.7c-1.1,0.8-1.9,2.4-2.4,4.6l-1.1,4.6
			c-0.3,1.4-0.5,3.1-0.5,5.1c0,1.8,0.2,3.1,0.6,4l0.8,0.4L321.5,47.7z"/>
		<path id="i2-Loving-and-Leading" class="st1" d="M347,50.7c-1.1,0.8-2.7,1.3-4.9,1.3c-1.3,0-2.6-0.7-3.7-2.2
			c-1.1-1.4-1.6-2.7-1.6-4.1c0-1.2,0.2-3.5,0.7-7c0.5-3.5,1-6.3,1.5-8.2c0.1-0.5,0.2-1,0.2-1.4c0-0.3-0.1-0.6-0.4-0.8v-0.9
			c0.1-0.2,0.9-0.4,2.4-0.6l2.2-0.3c0.4,0,0.8,0,1.1,0.1l2.8,2.8v0.5c-0.5,0.5-1,1.9-1.6,4.3c-1.2,4.5-1.8,7.6-1.8,9.4
			c0,1.4,0.1,2.3,0.4,2.9c0.3,0.7,1,1,1.9,1c1.3,0,3-1.3,5-4l0.1,0.2c0,0.1,0,0.3,0,0.7c0,0.4,0,0.6,0,0.7c0,0.1,0,0.5,0.1,1.3
			c-0.3,0.9-0.9,1.7-1.9,2.6C348.5,49.5,347.8,50.1,347,50.7z M347,20.4c-0.6,0.8-1,1.3-1.2,1.5c-0.2,0.2-0.6,0.3-1.1,0.3
			c-1.3,0-2.4-0.4-3.4-1.2c-1-0.8-1.5-1.7-1.5-2.6c0-1.2,0.4-2.2,1.2-3c0.7-0.7,1.7-1.1,2.8-1.1c1.2,0,2.2,0.3,3,1s1.2,1.6,1.2,2.8
			C348,18.6,347.7,19.4,347,20.4z"/>
		<path id="n2-Loving-and-Leading" class="st1" d="M371.8,50c-1.9,1.4-3.4,2.1-4.5,2.1c-3.3,0-5-2.6-5-7.9c0-1.7,0.2-3,0.5-4
			c0.2-0.6,0.3-1,0.3-1.4c0-0.5-0.2-0.8-0.5-0.8c-0.5,0-0.8,0.5-1.1,1.6c-0.5,1.9-0.7,3-0.8,3l-1.2,3.1c-1.2,3-1.8,5.1-1.8,6.2
			c0,0.2,0,0.6,0.1,1.1l-1.3,1.1l-2-0.2l-0.6-1l-1.5-0.4c-0.5-0.7-0.8-1.4-0.8-2.3c0-0.1,0-0.7-0.1-1.9c-0.1-1.2-0.1-2.1-0.1-2.6
			c0-1.6,0.1-3.2,0.2-4.8l0.8-10c0-0.2,0-0.8,0.1-1.9c0-0.1-0.1-0.2-0.2-0.3c-0.1-0.1-0.2-0.3-0.2-0.4c0-0.5,0.5-1.1,1.4-1.9
			c0.6,0.1,1.1,0.2,1.6,0.5l2.1-0.6c1.3,1.2,2,2.2,2,2.8c0,0.3-0.1,0.6-0.3,0.9c-0.3,0.5-0.6,1.6-0.8,3.4L357.1,47l5-14.4
			c0.5-1.3,0.8-2.6,1-3.8c0.2-1.2,0.4-1.9,0.4-2.1c0.1-0.4,0.6-0.8,1.3-1.4c0.9-0.6,1.7-0.9,2.5-0.9c0.4,0,1.1,0.4,2,1.1
			c0.8,0.6,1.3,1.2,1.8,1.8c-0.4,0.7-0.6,1.4-0.8,2.1l-1.4,5l-0.6,3.4l-0.3,5.5c0,0.2,0.2,0.8,0.6,1.7c0.4,0.9,1,1.3,1.8,1.3
			c1,0,2.1-0.7,3.3-2v1.1l-0.4,0.8l0.2,0.6l-0.1,0.8l0.2,0.6c-0.1,0.1-0.4,0.3-0.7,0.5C372.4,49.2,372.1,49.6,371.8,50z"/>
		<path id="g2-Loving-and-Leading" class="st1" d="M384.5,63.7c-0.7,0.6-1.4,0.8-2.1,0.8c-1.4,0-2.7-0.6-4-1.7s-1.9-2.4-1.9-3.6
			v-2.5c0.4-0.3,1-0.7,1.8-1.1c0.4,1,1.3,2.1,2.7,3.3c1.4,1.2,2.6,1.8,3.5,1.8c0.8,0,1.1-1.8,1.1-5.4c0-0.1-0.1-1-0.3-2.7
			c-0.2-1.6-0.3-2.8-0.3-3.5c0-0.1,0-0.8,0.1-2.1l-0.2-0.2c-2.2,3.2-4.1,4.7-5.8,4.7c-0.6,0-1.4-0.3-2.5-0.9c-1.2-0.7-2-1.4-2.5-2.2
			c-0.5-0.7-0.7-2.6-0.7-5.7c0-4.9,1.1-9.9,3.2-15c0.3-0.6,1-1.2,2.1-1.7c0.9-0.5,1.7-0.7,2.4-0.8l3.3,1.6l0.3-0.1l0.3-0.6l0.9-0.3
			h1.3c0.3,0,0.9-0.2,1.8-0.6c0.5,0.3,1.4,0.9,2.5,1.8l0.5,0.3c0.2,0.1,0.3,0.3,0.3,0.4c0,0.1-0.2,0.6-0.5,1.5
			c-0.2,1.5-0.4,3.6-0.7,6.2c-0.1,0.7-0.1,1.3-0.1,1.7v0.9c0,0.3,0,0.9,0,1.7s0,1.4,0,1.7c0-0.2,0.1,0.8,0.2,3.1
			c0.2,2.3,0.2,5,0.2,8c0,0.7-0.2,1.7-0.6,3.1c-0.5,1.6-1,2.8-1.6,3.6C388.7,60.3,387,61.7,384.5,63.7z M381.4,47.8
			c0.6,0,1.3-1,1.9-2.9c0.5-1.6,0.9-3.2,1.1-4.7l1.1-9c0-0.4-0.2-0.8-0.7-1.2c-0.5-0.4-0.9-0.6-1.2-0.6c-0.2,0-0.4,0-0.6,0.1
			c-0.7,1.3-1.4,3.3-2.2,5.9c-0.8,3-1.2,5.6-1.2,7.8C379.6,46.3,380.2,47.8,381.4,47.8z"/>
	</g>
</g>
</svg>
