<?xml version="1.0" encoding="utf-8"?>
<!-- Generator: Adobe Illustrator 26.5.0, SVG Export Plug-In . SVG Version: 6.00 Build 0)  -->
<svg version="1.1" id="Blog" xmlns="http://www.w3.org/2000/svg" xmlns:xlink="http://www.w3.org/1999/xlink" x="0px" y="0px"
	 viewBox="0 0 600 600" style="enable-background:new 0 0 600 600;" xml:space="preserve">
<style type="text/css">
	.st0{fill:#FFFFFF;}
</style>
<g id="Blog_00000032610742920922525190000014295584062641587371_">
	<path id="Blog-Text-b" class="st0" d="M203.3,246.4c-57.8,0-109.1,28.7-140.4,72.5l0,0l0,0l0,0V9H31.1v409.7
		c0,95,77.2,172.3,172.3,172.3s172.2-77.2,172.2-172.3S298.4,246.4,203.3,246.4z M203.3,559.1c-77.4,0-140.4-63-140.4-140.4
		s63-140.4,140.4-140.4s140.4,63,140.4,140.4S280.8,559.1,203.3,559.1z"/>
	<path id="Blog-Arch-4" class="st0" d="M206.5,187.6c-1.1,0-2.1,0-3.2,0v31.9c1.1,0,2.1,0,3.2,0c76.9,0,143.6,44.6,175.7,109.2
		l28.5-14.5C373.4,239.3,295.9,187.6,206.5,187.6z"/>
	<path id="Blog-Arch-3" class="st0" d="M410.8,211.3c-54.5-54.5-127.1-84.6-204.2-84.6c-1.1,0-2.1,0-3.2,0v31.9c1.1,0,2.1,0,3.2,0
		c100.6,0,187.8,58.2,230,142.5l28.6-14.6C451.4,259.1,433.2,233.7,410.8,211.3z"/>
	<path id="Blog-Arch-2" class="st0" d="M452.4,169.6C386.7,103.9,299.4,67.7,206.5,67.7c-1.1,0-2.1,0-3.2,0v31.9c1.1,0,2.1,0,3.2,0
		c123.5,0,230.7,71.2,282.6,174.8l28.6-14.6C501.2,226.9,479.3,196.4,452.4,169.6z"/>
	<path id="Blog-Arch-1" class="st0" d="M493.1,129C416.6,52.4,314.8,10.3,206.5,10.3c-1.1,0-2.1,0-3.2,0v31.9c1.1,0,2.1,0,3.2,0
		c145.8,0,272.3,84,333.7,206.1l28.6-14.6C549.7,195.5,524.2,160.1,493.1,129z"/>
</g>
</svg>
