<?xml version="1.0" encoding="utf-8"?>
<!-- Generator: Adobe Illustrator 26.0.1, SVG Export Plug-In . SVG Version: 6.00 Build 0)  -->
<svg version="1.1" id="Layer_1" xmlns="http://www.w3.org/2000/svg" xmlns:xlink="http://www.w3.org/1999/xlink" x="0px" y="0px"
	 width="600px" height="600px" viewBox="0 0 600 600" style="enable-background:new 0 0 600 600;" xml:space="preserve">
<style type="text/css">
	.st0{fill:none;}
	.st1{display:none;fill:#FFFFFF;}
</style>
<g id="Background">
	<rect id="Rectangle" class="st0" width="600" height="600"/>
</g>
<g id="Cross">
	<path id="Cross-White" class="st1" d="M353.6,600h-107V222.2H105.3v-96.1h141.2V2.3h107v123.9h143.2l0.2,93.9H353.6
		C353.6,220,353.6,600,353.6,600z M274.5,574.5l49.1-0.1v-380h147.7v-40.5H323.5V25.7h-47.1v128.1H130.9v40.5h143.4L274.5,574.5z"/>
	<path id="Cross-Black" d="M351.2,597.8h-107V219.9H103v-96.1h141.2V0h107v123.9h143.4v93.9H351.2V597.8z M272,572.1h49.2v-380H469
		v-40.5H321.4V23.5h-47.1v128.1H128.8v40.5h143.4v380H272L272,572.1z"/>
</g>
</svg>
