<?xml version="1.0" encoding="UTF-8"?>
<svg id="Love-Lead" xmlns="http://www.w3.org/2000/svg" version="1.1" viewBox="0 0 400 138.1">
  <defs>
    <style>
      .cls-1 {
        display: none;
        fill: #84cba0;
        isolation: isolate;
        opacity: .4;
      }

      .cls-1, .cls-2, .cls-3 {
        stroke-width: 0px;
      }

      .cls-2 {
        fill: #a3bfd9;
      }

      .cls-3 {
        fill: #265039;
      }
    </style>
  </defs>
  <rect id="Background" class="cls-1" width="400" height="138.1"/>
  <g id="Loving-and-Leading-Group">
    <g id="Crosses">
      <g id="Cross-Right">
        <path class="cls-2" d="M368.4,123.2c-.6,0-1.3-.1-2.4-.4-.5-.1-1.1-.2-1.9-.4-.4,0-.8-.2-1-.5-.4-.5-.3-1.1-.2-2.1v-.5c.3-2.3,1.7-12.7,2.4-17.8.2-1.4.3-2.4.4-2.6v-1c.3-1.7.4-2.8.3-3.1,0-.2-.7-.3-1.6-.5h-.6c-2.1-.6-4.3-1-6.5-1.3-1-.2-2-.3-3-.5-.2,0-.4,0-.7-.1-1.3-.2-2.3-.3-2.5-1.1-.2-.6.9-4.7.9-4.8h0c0,0,0-.1,0-.1.2-.4.5-.8,1.2-.8s.7,0,1.6.2c1.5.2,3.7.4,5.8.7,1.4.2,2.7.3,3.7.5h.2c1.3.2,2.2.3,2.7.3s.4,0,.5,0c0,0,0,0,0-.1,1.2-6.9,1.9-10.9,2-12.1.1-.7.3-1.9,1.8-1.9s.9,0,1.6.2c.7.1,1.6.3,2.7.4.5,0,1.1.2,1.5.7.5.7.3,1.5.1,2.8,0,.3,0,.5-.1.9-.3,1.9-.6,3.4-.8,4.9-.2,1.1-.4,2.1-.5,3.1,0,.4-.1.7-.2,1,0,.6-.2,1.2,0,1.3.2.3,1.6.5,2.3.6.6.1,1.2.2,1.7.3,1.7.3,3.4.7,6.2,1,.7,0,1.3.2,1.8.2,1.3.1,2.2.2,2.7.9.5.7.5,1.6.1,3.5,0,.1,0,.3,0,.4,0,0,0,.1,0,.2-.2,1.5-.6,2.8-2.1,2.8h0c-.4,0-.8,0-1.3-.2h-.1c-2.2-.5-4.4-.8-6.6-1.2-1.6-.3-3.1-.5-4.7-.8-.3,0-.5-.1-.7-.1-.4,0-.7,0-.9,1.3l-.7,4.6c-.8,5.4-1.6,10.5-2.4,15.9,0,.6-.2,1.1-.2,1.6-.3,2.4-.5,3.8-2.3,3.8Z"/>
        <path class="cls-3" d="M371.6,73.9c.7,0,2,.3,4.2.6,1.6.2,1.2,1.1.8,3.5-.5,3.2-1,5.5-1.4,8-.4,2.9-1,3.1,2.6,3.8,2.6.5,4.3.9,8,1.4,4.1.6,4.7-.2,4,3.8,0,.2,0,.5,0,.7-.2,1.6-.6,2-1.4,2s-.8,0-1.3-.2c-3.8-.8-7.6-1.3-11.3-1.9-.3,0-.6-.1-.9-.1-1,0-1.4.6-1.7,2-1.1,6.9-2.1,13.5-3.1,20.5-.6,3.7-.4,4.7-1.8,4.7s-2-.3-4.1-.7c-.9,0-.7-.7-.5-2.2.3-2.9,2.6-19.6,2.7-20.4.6-5.2.8-4.9-2.5-5.5-3.1-.7-6.3-1.2-9.5-1.7-1.2-.2-2.4-.3-2.5-.7,0-.3.7-3.7.9-4.4.1-.2.1-.4.5-.4.3,0,.7,0,1.5.2,2.5.3,7.1.9,9.5,1.2,1.4.2,2.3.3,3,.3s1.1-.2,1.2-.8c.6-3.3,1.8-10.5,2-12.1.1-1,.3-1.2,1-1.2M371.6,72.4c-2.1,0-2.4,1.8-2.5,2.5-.1,1.2-.8,5-1.9,11.6-.5,0-1.3-.1-2.4-.2h-.2c-1-.1-2.3-.3-3.7-.5-2.1-.3-4.3-.5-5.8-.7-.9-.1-1.3-.2-1.7-.2-.9,0-1.5.4-1.9,1.1h0c0,.1,0,.3,0,.3,0,0-1.1,4-.9,5.1h0c.3,1.3,1.7,1.5,3.1,1.7.2,0,.4,0,.7.1,1,.2,2,.4,3,.5,2.1.4,4.3.7,6.4,1.2h.6c.4.2.8.3,1.1.4,0,.5,0,1.5-.2,2.6v1c-.1.2-.3,1.2-.5,2.7-.7,5-2.1,15.5-2.4,17.7v.4c-.2,1-.3,1.9.3,2.6.3.4.8.7,1.5.8.7.1,1.3.2,1.8.4,1.1.2,1.9.4,2.5.4,2.4,0,2.7-2,3.1-4.4,0-.5.1-1,.2-1.5.8-5.4,1.5-10.5,2.4-15.9.2-1.5.5-3.1.7-4.6,0-.4.1-.6.2-.7,0,0,.3,0,.5,0h0s0,0,0,0c1.6.3,3.2.5,4.7.8,2.1.3,4.3.7,6.5,1.1h.2c.5.1.9.2,1.4.2,2.4,0,2.7-2.4,2.8-3.3h0c0-.2,0-.2,0-.2,0-.1,0-.3,0-.5.3-1.8.4-3.1-.3-4-.7-.9-1.8-1.1-3.2-1.2-.5,0-1.1-.1-1.7-.2-2.8-.4-4.4-.7-6.2-1-.5-.1-1.1-.2-1.7-.3-.3,0-1.2-.2-1.7-.4,0-.2,0-.5.1-.7,0-.3.1-.7.2-1,.2-1,.3-2,.5-3,.3-1.5.5-3,.8-4.9,0-.3,0-.6.1-.8.2-1.4.4-2.5-.2-3.4-.6-.8-1.6-1-2-1-1.1-.1-2-.3-2.7-.4-.7-.1-1.3-.2-1.7-.2h0Z"/>
      </g>
      <g id="Cross-Left">
        <path class="cls-2" d="M31.6,124c-1.8,0-2-1.3-2.3-3.8,0-.5-.1-1-.2-1.6-.8-5.4-1.6-10.5-2.4-15.9l-.7-4.6c-.2-1.3-.6-1.3-.9-1.3s-.4,0-.7,0c-1.6.3-3.2.5-4.7.8-2.1.3-4.4.7-6.5,1.1h-.2c-.5.1-.9.2-1.3.2-1.5,0-1.9-1.3-2.1-2.7,0-.1,0-.2,0-.3,0-.1,0-.3,0-.4-.3-1.9-.4-2.8.1-3.5.5-.7,1.4-.8,2.7-.9.5,0,1.1-.1,1.8-.2,2.8-.4,4.4-.7,6.2-1,.6-.1,1.1-.2,1.7-.3q2.4-.5,2.2-2c0-.3-.1-.6-.2-1-.2-1-.3-2-.5-3.1-.3-1.5-.5-3-.8-4.9,0-.3,0-.6-.1-.8-.2-1.3-.4-2.1.1-2.8.4-.5,1-.7,1.5-.7,1.2-.1,2-.3,2.7-.4.7-.1,1.2-.2,1.6-.2,1.5,0,1.6,1.2,1.8,1.9.1,1.2.8,5.2,2,12.1,0,0,0,0,0,.1,0,0,0,0,0,0,0,0,.1,0,.4,0,.6,0,1.4-.1,2.7-.3h.2c1-.1,2.3-.3,3.7-.5,2.1-.3,4.3-.5,5.8-.7.8-.1,1.3-.2,1.6-.2.7,0,1,.3,1.2.7v.2c0,0,1.2,4.1.9,4.8-.2.7-1.1.9-2.4,1.1-.2,0-.4,0-.7.1-1,.2-2,.4-3,.5-2.1.4-4.3.7-6.5,1.2h-.6c-.9.3-1.5.4-1.6.6-.2.4,0,1.5.1,3.1v1c.1.2.3,1.2.5,2.7.7,5,2.1,15.5,2.4,17.7v.5c.2.9.3,1.6-.1,2.1-.2.3-.6.5-1,.5-.7.1-1.3.2-1.8.4-1.1.2-1.8.4-2.4.4Z"/>
        <path class="cls-3" d="M28.4,74.7c.7,0,.9.3,1,1.2.2,1.6,1.5,8.8,2,12.1.1.6.4.8,1.2.8s1.5-.1,3-.3c2.4-.3,7-.9,9.5-1.2.8-.1,1.2-.2,1.5-.2.4,0,.4.1.5.4.2.7,1,4.1.9,4.4,0,.4-1.4.5-2.5.7-3.2.6-6.4,1.1-9.5,1.7-3.3.7-3.1.3-2.5,5.5,0,.8,2.4,17.5,2.7,20.4.2,1.6.4,2.1-.5,2.2-2.1.4-3.3.7-4.1.7-1.4,0-1.2-1-1.8-4.7-1-7-2-13.6-3.1-20.5-.2-1.3-.7-2-1.7-2-.2,0-.5,0-.9.1-3.7.7-7.5,1.2-11.3,1.9-.5,0-.9.2-1.3.2-.8,0-1.2-.4-1.4-2,0-.2,0-.5,0-.7-.7-4,0-3.2,4-3.8,3.7-.5,5.3-.9,8-1.4,3.6-.7,3-1,2.6-3.8-.4-2.4-.9-4.8-1.4-8-.4-2.4-.8-3.3.8-3.5,2.3-.2,3.5-.6,4.2-.6M28.4,73.2h0c-.5,0-1,0-1.7.2-.7.1-1.5.3-2.7.4-.4,0-1.4.2-2,1-.7.9-.5,2-.2,3.4,0,.3,0,.5.1.8.3,1.9.6,3.4.8,4.9.2,1.1.4,2,.5,3.1,0,.3.1.7.1,1,0,.2,0,.5.1.7-.3,0-.8.2-1.7.4-.6.1-1.2.2-1.7.3-1.8.3-3.4.7-6.2,1-.7,0-1.2.2-1.8.2-1.4.1-2.5.3-3.2,1.2-.7,1-.6,2.2-.3,4,0,.2,0,.3,0,.5,0,0,0,0,0,0h0s0,.1,0,.1c.1.9.4,3.3,2.8,3.3s.9,0,1.4-.2h.1c2.2-.5,4.4-.8,6.6-1.2,1.5-.2,3.1-.5,4.7-.8h0s0,0,0,0c.3,0,.4,0,.5,0,0,0,.1.3.2.7.2,1.5.5,3,.7,4.6.8,5.4,1.6,10.4,2.4,15.9,0,.6.2,1.1.2,1.6.3,2.5.6,4.4,3.1,4.4s1.4-.2,2.5-.4c.5-.1,1.1-.2,1.8-.4.6,0,1.1-.3,1.5-.8.6-.7.5-1.6.3-2.6v-.5c-.3-2.2-1.7-12.7-2.4-17.7-.2-1.5-.3-2.5-.4-2.7v-.9c-.2-1.1-.3-2.1-.3-2.6.3,0,.7-.2,1.1-.2h.6c2.1-.6,4.3-1,6.4-1.3,1-.2,2-.3,3-.5.2,0,.4,0,.6,0,1.4-.2,2.8-.4,3.1-1.7h0c.2-1.2-.9-5.1-.9-5.1h0c0-.1,0-.3,0-.3-.4-.8-1-1.2-1.9-1.2s-.8,0-1.7.2c-1.5.2-3.7.4-5.8.7-1.4.2-2.7.3-3.7.5h-.2c-1.1.1-1.9.2-2.4.3-1.2-6.6-1.8-10.5-1.9-11.6-.1-.7-.4-2.6-2.5-2.6h0Z"/>
      </g>
    </g>
    <g id="Gods-People">
      <g id="G-Gods-People">
        <path class="cls-2" d="M85.7,123.9c-5.5,0-9.6-2.7-11.9-7.7-5-10.8-.7-29.1,6.1-37l.2-.2h.3c1.1-.1,2.2-.3,3.3-.4,1.9-.2,3.8-.5,5.6-.5,3.6,0,6.4,1,8.7,3l.2.2v.3c.2,1.4.5,3.1.8,5,.4,2.5.8,5,1,7v.5s-1.1.6-1.1.6c-1.4.8-2.1,1.2-3,1.2s-1.5-.3-2.9-.8l-1.2-.4-1-2.5.3-.3c.3-.5-.3-3.6-.6-4.7-.2-.8-.3-1.4-.3-1.8,0-.6-.3-1.1-.7-1.5h-.4c-.2,0-.4,0-.5,0-.8,0-1.5.4-2.3,1.2-3.7,3.8-5.7,14.6-5.7,17.5-.8,6.8,1,12.2,3.1,14.6.6.6,1.5,1.4,2.5,1.4,2.4,0,4.7-3.9,6.2-10.6-.8,0-1.4.2-2.1.3-1,.2-2,.3-3.5.3s-.5,0-.8,0h-.4s-.2-.3-.2-.3c-.7-.9-1-1.9-1-2.9v-.3l.2-.2c0,0,.3-.3.6-.8-.2-.7-.3-1.7-.3-2.8v-.9h.9c.3.2.7.2,1.2.2,1.2,0,2.6-.2,4.1-.3,1.7-.2,3.4-.4,5-.4s3.4.3,4.5.9l.4.2v.4c0,1.3.2,2,.4,2.6.2.8.5,1.6.1,3v.3c0,0-.7.5-.7.5.4,5.5-4.8,12.3-8.5,15.2h-.1c0,0-.1.1-.1.1-2.2.6-4.3.9-6.1.9Z"/>
        <path class="cls-3" d="M89.4,78.9c2.9,0,5.7.6,8.2,2.8.3,3.2,1.5,8.6,1.7,11.9-1.8,1-2.5,1.5-3.4,1.5s-1.6-.4-3.5-1.1l-.7-1.8c.8-.9-.6-6-.7-7-.1-1-.5-1.7-1.2-2.2h-.5c-.2,0-.5,0-.7,0-5.6,0-8.7,15.5-8.7,19.4-1,9.1,2.5,16.7,6.4,16.7s5.3-3.3,7-11.6l-.4-.5c-2.4.1-3.4.6-6.1.6s-.5,0-.7,0c-.6-.8-.9-1.6-.9-2.4.2-.2.5-.6.9-1.2-.2-.8-.4-1.8-.4-2.9.4,0,.8,0,1.3,0,2.5,0,6.1-.7,9-.7,1.6,0,3,.2,4.1.8,0,3,1.1,3.2.5,5.5l-.8.6c.7,5.1-4.4,12-8.2,15-2.2.6-4.2.9-5.9.9-18.7,0-14.9-32.2-5.2-43.5,3.1-.3,6.1-.8,8.9-.8M89.4,77.4c-1.9,0-3.7.2-5.7.5-1.1.1-2.2.3-3.3.4h-.6c0,0-.4.5-.4.5-7,8.1-11.3,26.8-6.3,37.8,2.4,5.3,6.8,8.2,12.6,8.2s4.1-.3,6.3-1h.3c0,0,.2-.3.2-.3,3.8-3,9-9.8,8.8-15.5h.1c0-.1.4-.4.4-.4v-.5c.5-1.6.3-2.5,0-3.4-.2-.6-.4-1.2-.3-2.4v-.9s-.7-.4-.7-.4c-1.2-.7-2.7-1-4.8-1-1.6,0-3.4.2-5.1.4-1.5.2-2.9.3-4,.3s-.8,0-1.1,0l-1.7-.2v1.7c0,1,.1,1.9.3,2.6-.2.3-.3.4-.4.4l-.4.4v.6c0,1.1.4,2.2,1.2,3.3l.4.6h.7c.3,0,.5,0,.8,0,1.6,0,2.6-.2,3.6-.3.3,0,.7-.1,1-.2-1.6,6.6-3.8,9-5.2,9s-1.5-.6-1.9-1.1c-1.9-2.2-3.7-7.4-3-13.9h0c0,0,0-.2,0-.2,0-3.3,2.1-13.5,5.4-16.9.6-.6,1.2-.9,1.8-.9.1,0,.2,0,.4,0h.2s0,0,0,0c.1.2.2.4.3.8,0,.4.1.9.3,1.8.2,1,.7,3.4.6,4.2l-.4.5.3.8.7,1.8.2.6.6.2.9.3c1.5.5,2.3.8,3.2.8s1.9-.5,3.4-1.3l.7-.4.8-.5v-1c-.2-2-.6-4.5-1-7-.3-1.8-.6-3.6-.7-4.9v-.6c0,0-.5-.4-.5-.4-2.5-2.2-5.4-3.2-9.2-3.2h0Z"/>
      </g>
      <g id="o2-Gods-People">
        <path class="cls-2" d="M110.1,123.6c-2.2,0-4.3-1.1-5.7-3.2-3-5.1-1.5-12.8-.6-18l.3-1.4h0c.2-.6.3-1.2.4-1.9.4-2.1.9-4.8,3.3-4.8s.9,0,1.4.3c.2,0,.5,0,.7-.1.5-.1,1.1-.2,1.7-.2s.5,0,.8,0c1.2-.6,2.4-.8,3.4-.8,1.4,0,2.6.6,3.5,1.7,3.4,4.3,1,15.8.5,18.1.5.4.9.7,1.4.7.9,0,2-.8,3-2.2l.8-1.1.5,1.3c.7,1.7.5,3.3-.3,4.6-.9,1.3-2.4,2-4.1,2s-2-.3-2.9-.8c-1.6,3.5-4.8,5.8-8.1,5.8ZM111.8,102.6c-1,4.4-1.8,11.3-.4,14.3.3.7.7,1.1,1.1,1.2.4,0,1.3-.6,2.3-3.6-1.9-2.9-3-8.2-3-12ZM116.5,102.7c0,1.4,0,2.8.2,4.1,0-.4,0-.8,0-1.3,0-1.1,0-2-.2-2.8Z"/>
        <path class="cls-3" d="M115.9,94.3c6.7,0,4.2,14.8,3.1,19.3.7.8,1.5,1.2,2.2,1.2,1.2,0,2.5-1,3.6-2.5,1.3,3.4-1.1,5.6-3.7,5.6s-2.3-.4-3.2-1.3c-1.3,3.7-4.6,6.3-7.8,6.3s-3.7-.9-5-2.9c-3.1-5.2-1.1-13.8-.2-18.7.7-2.1.7-6.1,3-6.1s.8,0,1.3.3c.8,0,1.7-.4,2.6-.4s.6,0,.8,0c1.3-.6,2.4-.9,3.3-.9M112.4,119c1.2,0,2.3-1.5,3.2-4.5-2.2-3-3.5-9.5-3-13.4.1-1.3.6-1.6-.5-2.3-1.5,3.4-4.3,18.8.3,20.2M116.6,110.1c.6,0,.9-1.6.9-4.6s-.5-4.7-1.6-5.6c-.2,3.3-.3,6.5.7,10.2M115.9,92.8c-1,0-2.2.3-3.5.8-.2,0-.4,0-.6,0-.7,0-1.3.1-1.9.3-.2,0-.3,0-.5.1-.5-.2-1-.3-1.5-.3-3,0-3.6,3.2-4,5.4-.1.7-.3,1.3-.4,1.8h0c0,.1,0,.2,0,.2,0,.4-.2.8-.2,1.3-1,5.3-2.5,13.2.6,18.4h0s0,0,0,0c1.5,2.3,3.8,3.5,6.3,3.5s6.6-2.2,8.4-5.5c.8.4,1.7.5,2.5.5,1.9,0,3.7-.9,4.7-2.4,1-1.5,1.1-3.3.4-5.2l-1-2.6-1.6,2.3c-.8,1.2-1.7,1.8-2.3,1.8s-.4,0-.6-.2c.7-3.3,2.7-14-.7-18.3-1-1.3-2.4-1.9-4-1.9h0ZM112.5,117.4c-.2-.2-.3-.4-.5-.7-.8-1.8-.8-5.1-.5-8.4.5,2.4,1.3,4.8,2.4,6.5-.6,1.8-1.2,2.4-1.4,2.7h0Z"/>
      </g>
      <g id="d-Gods-People">
        <path class="cls-2" d="M131,123.2c-1.3,0-2.5-.6-3.7-1.9-1.9-2.1-3.2-5.6-3-8.4.6-6,2-13.9,4.7-17,1.3-1.4,3.1-2.1,5.2-2.1s1.1,0,1.6.1h.2s1.1.9,1.1.9c.2-1.2.3-3.2.4-4.1,0-.5,0-.9,0-1.1,0-.5,0-1.3.2-2.2.2-1.5.5-4.4-.4-4.8l-.7-.3.4-.7c.5-1.1,1.4-2.2,2.5-3.1h.1c0-.1.2-.2.2-.2,1.5-.4,3-.7,4.4-.7s.7,0,1.1,0h.3s.2.2.2.2c2.2,2.4,1.5,4.5.9,6.2-.2.5-.3,1-.4,1.5h0c0,.6-.2,1.9-.6,4.9,0,1.5-.3,3.7-.6,6.4-.8,6-2,15.1.9,17.3.6-.3,1.5-1.5,2.1-2.2.4-.5.7-.9,1-1.2l1-1.1.2,1.5c.4,2.4-.4,4.9-2.1,6.9-1.5,1.8-3.6,2.9-5.6,2.9s-3.5-.5-4.9-3.4l-2.2,2.7c-1.3,1.9-2.8,2.8-4.4,2.8ZM133.1,115.9h.7c1.4-2.2,2-7.5,2.5-11.4.2-1.5.4-2.7.5-3.7,0-1.6,0-1.8-1.1-2-3,3.6-4.2,12.4-3.1,17h.3Z"/>
        <path class="cls-3" d="M144.2,78.4c.3,0,.7,0,1,0,2.4,2.7.8,4.7.3,7.1,0,0-.7,5-.7,5,0,5.2-4.1,21.6.9,24.5,1.2-.1,2.8-2.8,3.7-3.7.7,4.6-3.3,8.9-6.9,8.9s-3.7-1.2-4.7-4.1l-3,3.7c-1.3,1.8-2.6,2.5-3.8,2.5-3.4,0-6.2-5.6-5.9-9.4.4-4,1.6-13.3,4.5-16.6,1.2-1.3,2.8-1.8,4.6-1.8s1,0,1.5.1l1.9,1.5c.4-.4.7-5.9.8-6.5-.2-1.5,1.4-6.8-.7-7.7.5-1,1.3-2,2.3-2.9,1.3-.4,2.7-.6,4.2-.6M133,116.7l1.3-.2c2.2-2.8,2.7-11.8,3.4-15.6,0-2-.1-2.6-2.1-2.9-3.4,3.6-4.9,13.4-3.4,18.3l.8.4M144.2,76.9c-1.5,0-3.1.2-4.6.7h-.3c0,0-.2.3-.2.3-1.1,1-2.1,2.2-2.6,3.3l-.7,1.4,1.4.6c.4.6,0,3.1,0,4-.1.9-.2,1.7-.2,2.3,0,.2,0,.5,0,1.1,0,.6-.1,1.7-.2,2.7l-.2-.2h-.4c-.6-.1-1.2-.2-1.7-.2-2.3,0-4.3.8-5.7,2.3h0s0,0,0,0c-2.3,2.6-3.9,8.5-4.9,17.4-.2,3.1,1.1,6.8,3.2,9,1.3,1.4,2.7,2.1,4.2,2.1s3.2-.5,5-3.1l1.5-1.8c1.2,1.8,3,2.8,5,2.8s4.5-1.2,6.1-3.1c1.8-2.2,2.7-4.9,2.2-7.5l-.5-2.9-2.1,2.1c-.3.3-.7.8-1,1.3-.3.4-.9,1.2-1.4,1.7-2-2.6-.9-11-.2-16.2.3-2.6.6-4.9.6-6.4l.3-2.4.2-1.7c0-.2,0-.4,0-.7h0c0-.5.3-.9.4-1.4.6-1.9,1.4-4.2-1.1-7l-.4-.4h-.6c-.4,0-.8-.1-1.2-.1h0ZM133.4,115c-.9-4.5.4-12,2.7-15.3,0,.3,0,.7,0,1-.2,1-.3,2.2-.5,3.7-.4,3.4-1.1,8.4-2.2,10.6h0ZM145.4,113.6h0s0,0,0,0h0Z"/>
      </g>
      <g id="Hpn--Gods-People">
        <path class="cls-2" d="M154.1,95.5c-1.2,0-2.4-1-3.1-1.8v-.2c-.1,0-.2-.2-.2-.2,0-1.2.9-3.3,2.5-6.7.9-1.8,1.8-3.7,2.1-4.9v-.3c0,0,1.2-.7,1.2-.7h.3c.4.2.8.4,1.2.6h1c0-.1.3.2.3.2,2,2.4,1.1,4,0,6.3-.3.6-.6,1.2-1,2-.4.7-1.3,2-2.7,4.3l-.8,1.3h-.3c-.2.1-.4.1-.6.1Z"/>
        <path class="cls-3" d="M156.8,81.5c.4,0,.8.3,1.2.6h.9c2.1,2.5.5,3.8-1.1,7.4-.4.7-1.5,2.4-3.3,5.2-.1,0-.3,0-.4,0-1,0-2-.9-2.5-1.5-.2-1.9,3.8-8.4,4.6-11.3l.6-.4M156.5,79.9l-.6.4-.6.4-.5.3v.5c-.4,1.1-1.4,3-2.2,4.8-1.7,3.4-2.7,5.6-2.6,7.1v.4s.3.4.3.4c.4.5,1.8,2.1,3.7,2.1s.5,0,.8,0h.6c0-.1.3-.6.3-.6l.6-.9c1.5-2.3,2.4-3.7,2.7-4.3h0c0,0,0-.1,0-.1.3-.7.7-1.4,1-1.9,1.1-2.2,2.2-4.3,0-7.1l-.5-.6h-.8c0,0-.4.1-.4.1-.4-.2-.8-.4-1.2-.5l-.6-.2h0Z"/>
      </g>
      <g id="s-Gods-People">
        <path class="cls-2" d="M167.5,124.2c-1.9-.3-3.5-1.4-4.5-3.2-.8-1.3-1.1-2.8-1.1-4.3l-.7.3v-1c-.3-3.1.6-6.7,1.4-10.2.9-3.7,1.7-7.5,1.4-10.7v-.6c0,0,.5-.2.5-.2.6-.2,1.1-.4,1.6-.7,1.5-.7,2.9-1.3,4.6-1.3s1.4.1,2.1.3h.5c0,.1,0,.6,0,.6.5,3.2,1.4,7,2.3,9.9,1.7,2.5,2.6,4.6,2.6,6,.3,7.2-.8,9.9-8.6,13.9l-1.9,1.1h-.3ZM167.6,111.1c.4,1.1.2,2.2,0,3.2-.3,1.8-.4,2.7,2,3.3,2.6-2,2.2-2.9.7-6.3-.3-.7-.6-1.4-1-2.3-.7-1.3-1-2.9-1.2-4.5,0-.2,0-.4-.1-.7-.2.7-.5,1.5-.7,2.3-.5,1.7-1,3.4-1.6,5,.3-.1.6-.3.9-.5l.8-.4.3.8Z"/>
        <path class="cls-3" d="M170.7,93.2c.6,0,1.2,0,1.9.3.6,3.5,1.5,7.4,2.4,10.1,1.7,2.5,2.5,4.4,2.5,5.7.3,7-.5,9.4-8.2,13.2l-1.7,1c-3.7-.6-5.8-5.1-4.5-8.7-.3.6-.7,1-1.2,1.2-.4-6.3,3.5-14.5,2.8-20.9,2.2-.8,3.9-1.9,6-1.9M163.9,113.2c.4-.4,1.4-1,3-1.8,1,2.8-2.3,5.9,2.9,7.1,4-3,2.4-4.3.2-9.7-1.2-2.2-1.1-5-1.9-7.5-1.4,3.5-2.2,8.4-4.2,11.9M170.7,91.7h0c-1.9,0-3.4.7-4.9,1.3-.5.2-1,.4-1.6.7l-1.1.4v1.2c.5,3.1-.4,6.8-1.2,10.4-.8,3.5-1.7,7.2-1.4,10.4v2.1c.1,0,.8-.3.8-.3.1,1.2.5,2.4,1.1,3.5,1.1,1.9,2.9,3.2,5,3.6h.5c0,0,.5-.2.5-.2l1.7-1c8.1-4.1,9.3-7.1,9-14.6,0-1.6-.9-3.7-2.6-6.3-.9-2.8-1.8-6.6-2.3-9.7l-.2-.9-.9-.3c-.8-.2-1.6-.3-2.3-.3h0ZM167,109.6c.3-.8.5-1.7.8-2.5.2.8.5,1.6.8,2.3.3.8.7,1.6,1,2.2,1.4,3.2,1.7,3.8-.1,5.2-1.4-.4-1.3-.8-1.1-2.4.2-1,.4-2.3,0-3.6l-.6-1.6-.8.4h0Z"/>
      </g>
      <g id="P-Gods-People">
        <path class="cls-2" d="M205.8,124.4c-1.4,0-3-1-3.9-2.6-1.5-.4-2.4-1.2-2.8-2.3l-.2-.6.8-.4c.2-1.7.2-3.9.3-6.2,0-3.1.2-6.3.5-8.6-.1-2.4,0-5.1.3-7.8.2-2.4.4-4.8.3-7-.8.3-2.2,1-3,1.3-.3.2-.6.3-.8.4l-.4.2-.4-.3c-1.3-1-2-2-2.1-3.3-.4-.4-.9-1.1-1.5-2l-.5-.7.7-.4c8-4.7,14.8-7.1,20.1-7.1s8.4,2.1,10.3,6.2c3.2,3.7,3.8,8.7,1.6,13.7-2.7,5.9-8.7,10.2-14.3,10.2s-1.8-.1-2.7-.3c0,.4,0,.9,0,1.4,0,3.4-.2,9.8.5,11,.9,1.3,0,2.6-.5,3.4-.1.2-.3.4-.4.6h0c0,.1-.1.2-.1.2-.5.5-1.2.7-1.9.7ZM208.5,100c6.3-.7,10.9-7.7,10.7-12,0-1.6-.8-3.6-3.9-3.6s-3.7.5-6.1,1.6c.4.4.7.9.7,1.6v.4c-.8.9-1.1,5.8-1.2,8.8,0,1.3-.1,2.5-.2,3.3h0Z"/>
        <path class="cls-3" d="M213.3,77.9c4.1,0,7.7,1.5,9.7,5.9,7.8,8.8-2.1,22.8-12.1,22.8s-2.3-.2-3.4-.6c0,3.1-.4,12,.6,13.8.9,1.3-.5,2.4-.9,3.3-.4.4-.9.5-1.4.5-1.2,0-2.6-1-3.4-2.5-1.4-.3-2.3-1-2.6-1.9l.6-.3c.4-3.9.3-11.2.9-15.2-.3-4.8.9-11,.5-15.6,0,0,0,0-.1,0-.9,0-3.6,1.4-4.7,1.9-1.2-.9-1.8-1.8-1.8-3-.4-.4-.9-1.1-1.6-2.1,4.5-2.6,12.8-7,19.7-7M208.3,100.8c10.2-.7,16.5-17.2,7-17.2s-4.4.6-7.6,2.2c1,.5,1.5,1,1.5,1.7-1.2,1.6-1.2,10.6-1.5,12.8l.6.5M213.3,76.4c-5.4,0-12.3,2.4-20.4,7.2l-1.4.8.9,1.3c.6.8,1,1.4,1.4,1.9.2,1.8,1.4,2.9,2.4,3.6l.7.5.8-.4c.2-.1.5-.2.8-.4.4-.2,1.2-.6,1.9-.9,0,1.8-.2,3.8-.3,5.8-.2,2.6-.4,5.4-.3,7.8-.3,2.3-.4,5.5-.5,8.6,0,2.1-.1,4.1-.3,5.7l-1,.5.4,1.2c.4,1.3,1.5,2.2,3,2.7,1.1,1.7,2.8,2.8,4.4,2.8s1.7-.3,2.4-.9l.2-.2v-.2c.2-.1.3-.3.5-.5.6-.8,1.7-2.4.5-4.2-.6-1.2-.5-8-.4-10.6,0-.2,0-.3,0-.5.6.1,1.3.2,1.9.2,6,0,12.1-4.4,15-10.7,2.4-5.2,1.8-10.5-1.6-14.4-2.1-4.3-5.9-6.6-11-6.6h0ZM210.4,86.2c1.9-.8,3.5-1.1,4.9-1.1,2.1,0,3.1.9,3.2,2.9.1,3.9-3.8,10-9.2,11.1,0-.7,0-1.5.1-2.4.1-2.4.4-7.5,1-8.4l.3-.4v-.5c0-.5-.1-.9-.3-1.3h0Z"/>
      </g>
      <g id="e2-Gods-People">
        <path class="cls-2" d="M236.6,123.3c-3.2,0-6.2-1.8-7.9-4.9-3-7.1-.4-17,1.4-23.6v-.4c0,0,4.5-1.7,4.5-1.7l5-.4h.2c5,2.3,6.3,7.7,5.3,12-.9,4.1-4.1,8.3-9.2,8.3h0c-.3,0-.6,0-.9,0,0,1.4.5,2.5,1.1,3.1.5.5,1.1.7,1.9.7,2.7,0,6.5-2.9,7.9-6.1l.3-.6,1.4.4v.4c.9,3.4-.6,6.9-3.9,8.9-1.9,2.4-4.4,3.7-7.1,3.7ZM235,108.3c.2,0,.4.1.6.1h0c.9,0,1.8-1.1,2.4-2.9,1.1-3.2.8-7.4-.4-8.8-.3.2-.4.6-.7,1.8-.2.6-.4,1.4-.7,2.3,0,.3-.1.7-.2,1.3-.3,1.4-.9,5-1,6.2Z"/>
        <path class="cls-3" d="M239.4,93.1c8.7,3.9,5.7,18.9-3.5,18.9s-1.1,0-1.7-.2c0,3.9,1.6,5.4,3.8,5.4s7-3,8.6-6.5h.4c.8,3.5-1,6.6-3.8,8.3-1.9,2.5-4.3,3.6-6.6,3.6s-5.6-1.7-7.3-4.6c-2.8-6.7-.3-16.3,1.5-23l3.9-1.5,4.7-.4M235.6,109.2c3.9,0,5.2-11.2,2.2-13.4-1.5.3-1.3,1.7-2.3,4.8-.2,1.2-1.4,7.1-1.2,8.2.5.3.9.4,1.3.4M239.7,91.5h-.4s-4.7.4-4.7.4h-.2s-.2,0-.2,0l-3.9,1.5-.7.3-.2.7c-1.8,6.7-4.5,16.7-1.4,24h0c0,0,0,.2,0,.2,1.9,3.3,5.1,5.3,8.6,5.3s5.6-1.4,7.6-3.9c3.5-2.3,5.1-5.9,4.2-9.7l-.2-.9-.9-.2h-.4c0,0-1.2-.4-1.2-.4l-.5,1.1c-1.5,3.2-5.1,5.7-7.3,5.7s-1.1-.2-1.4-.5c-.4-.4-.6-1-.8-1.8,0,0,0,0,0,0,5.5,0,9-4.5,9.9-8.9,1-4.6-.4-10.4-5.8-12.8l-.4-.2h0ZM237,100.9c.3-.9.5-1.7.7-2.3,0,0,0-.1,0-.2.4,1.7.4,4.5-.4,6.8-.5,1.4-1.1,2.2-1.5,2.4.2-1.5.7-4.2.9-5.4.1-.5.2-1,.2-1.3h0Z"/>
      </g>
      <g id="o-Gods-People">
        <path class="cls-2" d="M253.9,123.6c-2.2,0-4.3-1.1-5.7-3.2-3-5.1-1.5-12.8-.6-18l.3-1.4h0c.2-.6.3-1.2.4-1.9.4-2.1.9-4.8,3.3-4.8s.9,0,1.4.3c.2,0,.5,0,.7-.1.5-.1,1.1-.2,1.7-.2s.5,0,.8,0c1.2-.6,2.4-.8,3.4-.8,1.4,0,2.6.6,3.5,1.7,3.4,4.3,1,15.8.5,18.1.5.4.9.7,1.4.7.9,0,2-.8,3-2.2l.8-1.1.5,1.3c.7,1.7.5,3.3-.3,4.6-.9,1.3-2.4,2-4.1,2s-2-.3-2.9-.8c-1.6,3.5-4.8,5.8-8.1,5.8ZM255.6,102.6c-1,4.5-1.8,11.3-.4,14.4.3.6.7,1,1.1,1.2.4,0,1.3-.6,2.3-3.6-1.9-2.9-3.1-8.2-3-12ZM260.3,102.7c0,1.4,0,2.8.2,4.1,0-.4,0-.8,0-1.3,0-1.1,0-2-.2-2.8Z"/>
        <path class="cls-3" d="M259.7,94.3c6.7,0,4.2,14.8,3.1,19.3.7.8,1.5,1.2,2.2,1.2,1.2,0,2.5-1,3.6-2.5,1.3,3.4-1.1,5.6-3.7,5.6s-2.3-.4-3.2-1.3c-1.3,3.7-4.6,6.3-7.8,6.3s-3.7-.9-5-2.9c-3.1-5.2-1.1-13.8-.2-18.7.7-2.1.7-6.1,3-6.1s.8,0,1.3.3c.8,0,1.7-.4,2.6-.4s.6,0,.8,0c1.3-.6,2.4-.9,3.3-.9M256.2,119c1.2,0,2.3-1.5,3.2-4.5-2.2-3-3.5-9.5-3-13.4.1-1.3.6-1.6-.5-2.3-1.5,3.4-4.4,18.8.3,20.2M260.4,110.1c.6,0,.9-1.6.9-4.6s-.5-4.7-1.6-5.6c-.2,3.3-.3,6.5.7,10.2M259.7,92.8c-1,0-2.2.3-3.5.8-.2,0-.4,0-.6,0-.7,0-1.3.1-1.9.3-.2,0-.3,0-.5.1-.5-.2-1-.3-1.5-.3-3,0-3.6,3.2-4,5.4-.1.7-.3,1.3-.4,1.8h0c0,.1,0,.2,0,.2,0,.4-.2.8-.2,1.3-1,5.3-2.5,13.2.6,18.4h0s0,0,0,0c1.5,2.3,3.8,3.5,6.3,3.5s6.6-2.2,8.4-5.5c.8.4,1.7.5,2.5.5,1.9,0,3.7-.9,4.7-2.4,1-1.5,1.1-3.3.4-5.2l-1-2.6-1.6,2.3c-.8,1.2-1.7,1.8-2.3,1.8s-.4,0-.6-.2c.7-3.3,2.7-14-.7-18.3-1-1.3-2.4-1.9-4-1.9h0ZM256.3,117.4c-.2-.1-.3-.4-.5-.7-.8-1.8-.8-5.2-.5-8.5.5,2.4,1.3,4.8,2.4,6.6-.6,1.8-1.2,2.5-1.4,2.7h0Z"/>
      </g>
      <g id="p-Gods-People">
        <path class="cls-2" d="M274.2,134.8c-1.1,0-2-.6-2.9-1.2-.3-.2-.6-.4-.9-.5h-.2c0,0-.1-.2-.1-.2-.1-.2-.6-.8-1.6-2l-.2-.2v-.3c0-8.7.3-18.3.6-27.6.1-3.7.3-7.3.4-10.7l-1.1-1.3.8-.5c2-1.1,2.9-1.6,4.5-1.6s1.5,0,2.4.2h.3s.2.2.2.2c.6.6,1.2,1.3,1.8,2l.2.3-.2,1.1v.2c-.5.5-1,3.1-1.3,5.1,2.1-2.1,4.1-3.2,5.9-3.2,4.3,0,6.3,5.7,6.3,11.4,0,7.7-3.5,15.6-10.3,15.6h0c-.9,0-1.8-.1-2.8-.4h-.1c.1,1.7,0,3,0,4.3,0,2.3-.2,4.4.6,7.5v.4c0,0-.1.3-.1.3-.6.8-1.4,1.2-2.3,1.2ZM276.2,115.9c.7.3,1.3.5,1.8.5,2-2.3,2-6,2.1-9.3,0-.9,0-1.8,0-2.6,0-.4,0-.8,0-1.2,0-1,0-1.1-.6-1.6h-.3c-2.8,3.5-2.9,8-3,12.5,0,.6,0,1.2,0,1.8Z"/>
        <path class="cls-3" d="M273.7,89.4c.6,0,1.3,0,2.3.2.6.6,1.2,1.2,1.7,1.9v.6c-.8.8-1.6,6.5-1.6,7.8,2.7-3.3,5-4.6,6.8-4.6,8.1,0,7.8,25.5-4,25.5s-1.8-.1-2.7-.4h-.6l-.4.7c.4,4.4-.6,7,.7,12-.6.7-1.1.9-1.7.9-1.2,0-2.4-1.1-3.4-1.6-.2-.3-.7-1-1.6-2.1-.1-12.2.6-26.4,1-38.6l-.7-.8c2-1.1,2.8-1.5,4.2-1.5M278.3,117.2c3-3.1,2.3-8.8,2.6-12.7,0-2.1.4-2.5-1.2-3.6h-.9c-3.7,4.4-3.2,10.4-3.4,15.5,1.1.5,2,.8,2.9.8M273.7,87.9c-1.8,0-2.8.6-4.9,1.7l-1.6.9,1.2,1.4.3.4c-.1,3.3-.2,6.8-.4,10.4-.3,9.3-.7,19-.6,27.7v.5s.3.4.3.4c1,1.2,1.4,1.8,1.5,2l.2.3.3.2c.2.1.5.3.8.5.9.6,2,1.3,3.3,1.3s1.9-.3,2.9-1.5l.5-.6-.2-.7c-.8-3-.7-5-.6-7.2,0-1.1,0-2.2,0-3.4.7.2,1.5.2,2.2.2,7.6,0,11.1-8.5,11.1-16.3s-.6-6-1.6-8.1c-1.3-2.6-3.2-4.1-5.5-4.1s-3.2.7-4.8,2c.2-1.2.5-2.3.7-2.7l.2-.3v-.4c0,0,.2-.6.2-.6v-.6c.1,0-.3-.5-.3-.5-.6-.8-1.2-1.5-1.9-2.1l-.4-.4h-.5c-1-.2-1.8-.3-2.5-.3h0ZM276.9,115.4c0-.4,0-.8,0-1.3,0-4.1.2-8.3,2.4-11.5,0,.1,0,.4,0,.6,0,.3,0,.7,0,1.2,0,.8,0,1.7,0,2.6,0,3-.1,6.4-1.6,8.5-.2,0-.5-.1-.7-.2h0Z"/>
      </g>
      <g id="l-Gods-People">
        <path class="cls-2" d="M299.1,124.1c-3.5,0-6.3-2.3-7.6-6.4-1-2.8-.8-4.3-.6-6.5v-.3s0-7.5,0-7.5c-.3-4.6.9-11,1.9-16.7.4-2.3.8-4.5,1.1-6.3v-.4c0,0,.4-.2.4-.2,2.2-1,4.1-1.5,5.8-1.5,2.9,0,5.1,1.5,6.2,4.3,3.1,7.6-1.6,22.5-7.4,28.4-.8,2.3-.8,4.2,0,5.2.6.8,1.4,1,2.1,1,2.2,0,5.1-1.9,6.4-5.6l1.2-3.5.3,3.7v.9c.2,1.1.2,2.2.2,3.5h0c0,.1,0,.3,0,.3-1.9,4.5-5.9,7.5-9.9,7.5ZM301.3,84.1c-1.4,2.8-1.5,5.9-1.7,9,0,1.8-.2,3.6-.5,5.4-.3,2.3-.4,3.8-.5,5.5,2.1-3.3,3.6-10.2,3.5-15.3,0-2-.3-3.7-.8-4.6Z"/>
        <path class="cls-3" d="M300.3,79.1c11.1,0,6,23.9-1.9,31.5-1.8,5.1,0,7.4,2.7,7.4s5.8-2.2,7.1-6.1c.1,1.5.3,2.7.2,4.4-1.9,4.4-5.7,7.1-9.3,7.1s-5.6-1.8-6.8-5.9c-1-2.8-.8-4.1-.5-6.5,0,0,0-7.6,0-7.6-.4-6.4,2.1-16.4,3-22.9,2.1-1,3.9-1.4,5.5-1.4M297.8,106c4.4-3.2,6.9-20.8,3.4-23.2-3,4.9-1.8,10.6-2.8,15.5-.5,3.3-.5,5-.6,7.7M300.3,77.6c-1.8,0-3.8.5-6.1,1.5l-.7.3v.8c-.4,1.9-.8,4-1.2,6.3-1,5.7-2.2,12.1-1.9,16.9v3.8s0,2.6,0,2.6c0,.4,0,.7,0,1h0s0,.3,0,.3c-.3,2.3-.5,3.9.6,6.9,1.4,4.4,4.4,6.9,8.3,6.9s8.6-3.2,10.6-8v-.3c.1,0,.1-.3.1-.3,0-1.4,0-2.5-.1-3.6,0-.3,0-.6,0-.9l-.5-7.4-2.4,7c-1.1,3.3-3.8,5.1-5.7,5.1s-1.2-.2-1.5-.6c-.6-.8-.6-2.4,0-4.4,5.9-6.1,10.6-21.3,7.4-29-1.3-3.1-3.7-4.8-6.9-4.8h0ZM299.9,98.5c.4-1.8.4-3.6.5-5.4.1-2.3.2-4.5.8-6.6,0,.6.1,1.3.1,2.2,0,3.5-.6,7.6-1.6,10.8,0-.3,0-.6.1-.9h0Z"/>
      </g>
      <g id="e-Gods-People">
        <path class="cls-2" d="M317.1,123.3c-3.2,0-6.2-1.8-7.9-4.9-2.2-4.9-1.7-12.8,1.4-23.6v-.4c.1,0,4.5-1.7,4.5-1.7l5-.4h.2c5,2.3,6.3,7.7,5.3,12-.9,4.1-4.1,8.3-9.2,8.3h0c-.3,0-.6,0-.9,0,0,1.4.5,2.5,1.1,3.1.5.5,1.1.7,1.9.7,2.7,0,6.5-2.9,7.9-6.1l.3-.6,1.4.4v.4c.9,3.4-.6,6.9-3.9,8.9-1.9,2.4-4.4,3.7-7.1,3.7ZM315.4,108.3c.2,0,.4.1.6.1h0c.9,0,1.8-1.1,2.4-2.9,1.1-3.2.8-7.5-.4-8.8-.3.2-.4.6-.7,1.8-.2.6-.4,1.4-.7,2.3,0,.3-.1.7-.2,1.3-.3,1.4-1,5-1,6.2Z"/>
        <path class="cls-3" d="M319.9,93.1c8.7,3.9,5.7,18.9-3.5,18.9s-1.1,0-1.7-.2c0,3.9,1.6,5.4,3.8,5.4s7-3,8.6-6.5h.4c.8,3.5-1,6.6-3.8,8.3-1.9,2.5-4.3,3.6-6.6,3.6s-5.6-1.7-7.3-4.6c-2.8-6.2-.4-16.7,1.5-23l3.9-1.5,4.7-.4M316,109.2c3.9,0,5.2-11.2,2.2-13.4-1.5.3-1.3,1.7-2.3,4.8-.2,1.2-1.4,7.1-1.2,8.2.5.3.9.4,1.3.4M320.2,91.5h-.4s-4.7.4-4.7.4h-.2s-.2,0-.2,0l-3.9,1.5-.7.3-.2.7c-3.2,10.9-3.7,19-1.4,24h0c0,0,0,.1,0,.1,1.9,3.3,5.1,5.3,8.6,5.3s5.6-1.4,7.6-3.9c3.5-2.3,5.1-5.9,4.2-9.7l-.2-.9-.9-.2h-.4c0-.1-1.2-.4-1.2-.4l-.5,1.1c-1.5,3.2-5.1,5.7-7.3,5.7s-1.1-.2-1.4-.5c-.4-.4-.6-1-.8-1.8,0,0,0,0,0,0,5.5,0,9-4.5,9.9-8.9,1-4.6-.4-10.4-5.8-12.8l-.4-.2h0ZM317.4,100.9c.3-.9.5-1.7.7-2.3,0,0,0-.1,0-.2.4,1.7.4,4.5-.4,6.8-.5,1.4-1.1,2.2-1.5,2.4.2-1.5.7-4.2.9-5.4.1-.5.2-1,.2-1.3h0Z"/>
      </g>
    </g>
    <g id="Loving-and-Leading">
      <g id="L-Loving-and-Leading">
        <path class="cls-2" d="M13.1,52.9c-.1,0-.6,0-1,0h-.4c-.3-.3-.8-.5-1.4-.7-1.1-.4-2.4-.8-3.2-1.8h-.1c0-.1,0-.3,0-.3-.3-1.5.3-4.1.6-5.2v-.2c0,0,.9-.7.9-.7l5.8-.4c2.1-5.2,2.1-12,2.1-17.5v-.3c0-.8,0-1.7,0-2.7.1-5.7.4-10.5,2.1-12.3,2.3-3.1,4.7-4.6,7.2-4.6s2.4.3,3.7,1c.3,0,.6,0,.8-.1.9-.2,1.7-.3,2.5-.3,1.2,0,2.3.3,3.8,1.2h0s0,.1,0,.1c.6.6.7,1.9.6,3.2v.2s.5,5.2.5,5.2c.9,2.4,1.1,6.7-.8,8.6h-.1c0,.1-3.1,1.3-3.1,1.3l-.3-.2c-.8-.6-1.2-.7-1.9-.7h-1s-.1-.6-.1-.6c-.3-1.7-.5-3.6-.8-5.6-.3-2.9-.7-5.9-1.3-8.1-.2,0-.3-.1-.4-.1-1.2,0-1.7,4.5-1.9,6.7-.2,1.5-.3,2.7-.5,3.5-.2,2.3-.2,4.6-.1,7.2.1,5.1.3,10.3-2.2,14.8.8,0,1.7.1,2.5.2,1.2.1,2.5.2,3.7.2,3.1,0,6.1-.6,7.6-4.8v-.4c.1,0,1.8-.2,1.8-.2l.5.8c.9,1.4.9,1.7,0,3.1l-.3.6c0,.1-.1.4-.3.8-1.7,4.9-2.6,6.7-3.7,6.8-3,1.4-5.7,2-8.5,2s-3.4-.3-4.8-.5c-1.2-.2-2.3-.4-3.3-.4-1.6,0-2.9.5-4.3,1.5l-.4.3-.4-.3Z"/>
        <path class="cls-3" d="M25.7,7c1.1,0,2.3.3,3.6,1,1.5-.2,2.4-.5,3.4-.5s2,.3,3.4,1.1c.5.5.4,2.2.4,2.8,0,0,.5,5.4.5,5.4.9,2.3,1,6.3-.6,7.9,0,0-2.6,1-2.6,1-1-.7-1.5-.8-2.3-.8s-.2,0-.4,0c-.8-4.2-1-10.2-2.2-14.1-.4-.3-.8-.4-1.1-.4-2.7,0-2.5,8.7-3.2,10.8-.8,7.3,1.6,16.2-2.9,22.8,0,0,0,0,.1,0,2.4,0,5,.4,7.4.4,3.6,0,6.8-.9,8.3-5.3h.7c1.1,1.7,1,1.3,0,3.2,0,0,0,0,0,0-.1,0-2.2,7.3-3.5,7.3s0,0,0,0c-3.3,1.6-6,2-8.3,2-3.3,0-5.7-1-8.2-1-1.5,0-3,.4-4.8,1.6-.3-.2-.8-.2-1.4-.2-1.1-.7-3.3-.9-4.4-2.2-.3-1.2.2-3.6.6-4.8l.5-.4,6-.4c2.4-5.4,2.3-12.6,2.3-18.5.2-3.9,0-12.4,2-14.5,2.2-2.9,4.3-4.3,6.6-4.3M25.7,5.5c-2.8,0-5.3,1.6-7.8,4.8-1.9,2-2.1,6.8-2.3,12.8,0,1,0,1.9,0,2.6h0s0,0,0,0v.3c0,5.3,0,11.8-1.8,16.8l-5.1.3h-.5s-.4.3-.4.3l-.5.4-.3.3v.4c-.4.9-1.2,3.8-.8,5.6v.3c0,0,.3.3.3.3.9,1.1,2.4,1.6,3.5,2,.5.2,1,.3,1.2.5l.4.2h.4c.2,0,.5,0,.7,0l.8.5.8-.6c1.3-.9,2.4-1.4,3.9-1.4s2,.2,3.2.4c1.4.3,3.1.6,5,.6,2.8,0,5.7-.7,8.7-2,1.5-.3,2.5-2.5,4.2-7.3.1-.3.2-.6.2-.7h0c.1-.2.2-.4.3-.5.9-1.7.9-2.2-.1-3.9l-.2-.4-.5-.8h-1c0,.1-.7.2-.7.2h-.9c0,.1-.3,1-.3,1-1.2,3.6-3.6,4.3-6.9,4.3s-2.4-.1-3.6-.2c-.5,0-.9,0-1.4-.1,2-4.4,1.9-9.3,1.8-14.1,0-2.5-.1-4.8,0-7,.3-.8.4-2,.6-3.5.2-1.5.5-4.6,1.1-5.8.5,2.1.8,4.7,1.1,7.3.2,2,.5,4,.8,5.6l.2,1.2h1.3c.1,0,.2,0,.4,0,.5,0,.7,0,1.4.5l.7.5.8-.3s.8-.3,1.4-.6l.3.5,1.3-1.3c2.2-2.1,1.9-6.7,1-9.3l-.2-2.5-.2-1.9c0-.2,0-.5,0-.7h0s0-.2,0-.2c0-1.4,0-2.9-.9-3.7h-.1c0-.1-.2-.2-.2-.2-1.6-.9-2.8-1.3-4.1-1.3s-1.6.1-2.6.3c-.2,0-.4,0-.6,0-1.3-.6-2.6-1-3.8-1h0Z"/>
      </g>
      <g id="_0-Loving-and-Leading" data-name="0-Loving-and-Leading">
        <path class="cls-2" d="M46.6,52.6c-2.2,0-4.2-1.1-5.6-3.2-3-5.1-1.5-12.8-.6-18l.3-1.4h0c.2-.6.3-1.2.4-1.9.4-2.1.9-4.8,3.3-4.8s.9,0,1.4.3c.2,0,.5,0,.7-.1.5-.1,1.1-.2,1.7-.2s.5,0,.8,0c1.2-.6,2.4-.9,3.4-.9,1.4,0,2.6.6,3.5,1.7,3.4,4.3,1,15.8.5,18.1.5.4.9.7,1.4.7.9,0,2-.8,3-2.2l.8-1.2.5,1.3c.6,1.7.5,3.3-.3,4.6-.9,1.3-2.4,2-4,2s-2-.3-2.9-.8c-1.6,3.4-4.9,5.8-8.1,5.8ZM48.3,31.6c-1,4.5-1.7,11.3-.4,14.3.3.7.7,1.1,1.1,1.3.4,0,1.3-.6,2.3-3.6-1.9-2.9-3.1-8.2-3-12ZM53,31.7c0,1.4,0,2.8.2,4.1,0-.4,0-.8,0-1.3,0-1.1,0-2-.2-2.8Z"/>
        <path class="cls-3" d="M52.4,23.3c6.7,0,4.2,14.8,3.1,19.3.7.8,1.5,1.2,2.2,1.2,1.2,0,2.5-1,3.6-2.5,1.3,3.4-1.1,5.6-3.7,5.6s-2.3-.4-3.2-1.3c-1.3,3.7-4.6,6.3-7.8,6.3s-3.6-.9-5-2.9c-3.1-5.2-1.1-13.8-.2-18.7.7-2.1.7-6.1,3-6.1s.8,0,1.3.3c.8,0,1.7-.4,2.6-.4s.6,0,.8,0c1.3-.6,2.4-.9,3.3-.9M48.9,48c1.2,0,2.3-1.5,3.2-4.5-2.2-3-3.5-9.4-3-13.3.1-1.3.6-1.6-.5-2.3-1.5,3.4-4.3,18.6.3,20.1M53.1,39.1c.6,0,.9-1.6.9-4.6s-.5-4.7-1.6-5.6c-.2,3.3-.3,6.5.7,10.2M52.4,21.8c-1,0-2.2.3-3.5.8-.2,0-.4,0-.6,0-.7,0-1.3.1-1.9.3-.2,0-.3,0-.5.1-.5-.2-1-.3-1.5-.3-3,0-3.6,3.2-4,5.4-.1.7-.3,1.3-.4,1.8h0c0,.1,0,.2,0,.2,0,.4-.2.8-.2,1.3-1,5.3-2.5,13.2.6,18.4h0s0,0,0,0c1.5,2.3,3.7,3.5,6.2,3.5s6.6-2.3,8.5-5.6c.8.4,1.7.6,2.6.6,1.9,0,3.6-.9,4.7-2.3,1-1.5,1.2-3.3.4-5.3l-1-2.6-1.6,2.3c-.8,1.2-1.7,1.8-2.3,1.8s-.4,0-.6-.2c.7-3.3,2.7-14-.7-18.3-1-1.3-2.4-1.9-4-1.9h0ZM49.1,46.4c-.2-.2-.3-.4-.5-.7-.8-1.8-.8-5.1-.5-8.3.5,2.4,1.3,4.7,2.4,6.4-.6,1.8-1.1,2.4-1.4,2.7h0Z"/>
      </g>
      <g id="v-Loving-and-Leading">
        <path class="cls-2" d="M67.8,52.1c-3,0-5.4-2.7-6.6-7.2h0c0,0,0-.1,0-.1-.2-2.7-.2-7.9,0-10.6,0-.5,0-1.2.2-2,.2-1.5.4-3.6-.2-4.4l-.2-.2v-.3c.1-.9.1-1.6.1-2.2,0-.3,0-.5,0-.8v-.3s.2-.2.2-.2c1-1.1,1.8-1.3,2.6-1.5.4,0,.8-.2,1.3-.4l.5-.2.4.4c.9.9,2,1.8,3,2.5h.2c0,.1,0,.3,0,.3.2.4.3.7.4,1,.5.9.6,1.4,0,2.9-.1.8-.3,1.7-.4,2.6-.8,4.7-2,11.6.6,14.7,3-2.4,2.7-6.2,2.4-10.2-.1-2.1-.3-4.2,0-6,0-.6,0-1.3,0-2.1-.1-2.3-.3-5.2,2.7-6.5h.2c0,0,.2,0,.2,0,4.4.7,4.1,4.5,3.9,6.8,0,.3,0,.5,0,.8v1c-.4,3.6-.7,6.7-1.9,10.9.5,1,1,1,1.1,1,1,0,2.4-1.5,2.8-1.9l1.5-1.6-.2,2.2c0,.5,0,.9-.1,1.3,0,.9-.2,1.7-.3,2.9v.3s-.3.2-.3.2c-1,.8-2,1.2-3,1.2s-2-.4-3-.8c-.2,0-.4-.1-.5-.2-1.9,4.3-4.7,6.9-7.7,6.9Z"/>
        <path class="cls-3" d="M75.5,22c4.1.7,3.3,4.4,3.2,6.8-.4,4.2-.6,7.4-2,12,.5,1.2,1.2,1.7,1.9,1.7,1.2,0,2.5-1.3,3.4-2.2-.1,1.5-.3,2.5-.4,4.2-1,.8-1.8,1-2.6,1-1.2,0-2.4-.7-3.9-1.2-1.9,4.7-4.7,7.1-7.3,7.1s-4.7-2.2-5.8-6.6c-.2-2.6-.2-7.9.1-10.5,0-1.6,1-5.5-.2-6.9.2-1.4,0-2.2,0-3.1,1.2-1.4,2-1,3.6-1.7.9.9,1.9,1.7,3.1,2.6.6,1.7,1.2,1.5.5,3.4-.6,4.7-3.3,14.8.8,18.5,5.7-3.8,2.3-11.7,3.3-17.1.3-2.5-1.2-6.6,2.2-8M75.3,20.4l-.4.2c-3.4,1.5-3.2,4.9-3.1,7.2,0,.7,0,1.4,0,1.9-.3,1.9-.2,4.1,0,6.2.3,3.7.5,6.9-1.5,9-1.7-3.1-.7-9.5,0-13.4.2-.9.3-1.8.4-2.6.6-1.6.4-2.3-.2-3.4-.1-.2-.3-.5-.4-.9l-.2-.4-.3-.3c-1-.7-2-1.6-2.9-2.5l-.7-.7-.9.4c-.4.2-.8.3-1.2.4-.9.2-1.8.5-3,1.7l-.4.4v.6c0,.3,0,.6,0,.9,0,.6,0,1.2,0,2.1v.6c0,0,.3.5.3.5.4.5.2,2.7,0,3.8,0,.8-.2,1.5-.2,2.1-.3,2.7-.3,7.9,0,10.7h0c0,.1,0,.2,0,.2,1.2,4.8,3.9,7.7,7.3,7.7s6-2.5,8.1-6.7c1,.4,2,.8,3.1.8s2.3-.4,3.5-1.3l.5-.4v-.7c.1-1.1.2-2,.3-2.8,0-.4,0-.8.1-1.3l.4-4.4-3,3.2c-1.5,1.5-2.1,1.7-2.3,1.7s-.2,0-.3-.3c1.2-4.1,1.5-7.1,1.8-10.7v-1c0,0,0,0,0,0h0c0-.3,0-.5,0-.8.2-2.2.6-6.8-4.5-7.6h-.4Z"/>
      </g>
      <g id="i-Loving-and-Leading">
        <path class="cls-2" d="M88,50.5c-2,0-4.1-.9-5.5-2.3-1.2-1.3-1.9-2.9-1.8-4.7-.2-2,.4-5.2,1-8.6.7-3.4,1.3-6.9,1-8.7-.2-.6,0-1.1.1-1.4.6-.9,2-1,3.5-1.2.6,0,1.1,0,1.5-.2.2,0,.4-.1.5-.1,1.1,0,2.1,1.1,3.3,2.4.3.3.6.6.7.7l.3.2v1.3c-2.3,3.8-4.2,13.5-2.7,16.1.2.4.5.5.7.5.4,0,1.8-.4,4.6-3.8l.9-1.1.4,1.4c1.1,4.3-1.4,6-4.3,7.9h-.2c-1,1-2.5,1.5-4,1.5ZM88.9,20.7c-2.5,0-5.1-2.2-5.3-4.5,0-1.4.4-2.6,1.2-3.4.8-.9,2.1-1.3,3.5-1.3,2,0,3.9,1,4.7,2.5.4.8.8,2.4-.8,4.6-.7,1.4-1.8,2.2-3.3,2.2Z"/>
        <path class="cls-3" d="M88.3,12.2c2.9,0,5.9,2.4,3.3,6-.6,1.3-1.6,1.8-2.7,1.8-2.1,0-4.4-1.9-4.5-3.8,0-2.8,1.9-4,3.9-4M88.3,24.2c1.2,0,3,2.5,3.6,3v.5c-2.6,4.4-5.1,17.7-1.3,17.7s2.8-1.2,5.2-4.1c.9,3.8-1.2,5.2-4.2,7.2-1,.9-2.3,1.3-3.6,1.3-3.3,0-6.7-2.5-6.6-6.3-.5-3.8,2.8-13.9,2-17.4-.7-1.8,3.2-1.4,4.6-1.8,0,0,.2,0,.3,0M88.3,10.7h0c-1.6,0-3,.6-4,1.6-.7.7-1.5,1.9-1.4,4h0s0,0,0,0c.2,2.7,3.1,5.2,6,5.2s3.2-.9,4-2.5c1.8-2.5,1.3-4.4.8-5.3-.9-1.8-3-2.9-5.3-2.9h0ZM88.3,22.7c-.3,0-.5,0-.8.1-.3,0-.8.1-1.3.2-1.6.1-3.3.3-4.1,1.5-.2.3-.5,1-.2,2,.3,1.6-.4,5.1-1,8.3-.7,3.4-1.3,6.7-1.1,8.8,0,1.9.7,3.7,2,5.1,1.5,1.6,3.8,2.6,6,2.6s3.3-.5,4.5-1.6h0c3-2.1,5.8-4,4.7-8.8l-.7-2.9-1.9,2.3c-2.7,3.2-3.8,3.5-4,3.5-1.3-1.3,0-11.2,2.6-15.4l.2-.4v-1.7l-.6-.4c0,0-.4-.4-.6-.6-1.4-1.5-2.5-2.6-3.9-2.6h0Z"/>
      </g>
      <g id="n-Loving-and-Leading">
        <path class="cls-2" d="M98.7,52.4l-.6-1.1-1.6-.4v-.3c-1.9-4.3-1.2-10.3-.7-15.5.2-2.2.5-4.3.5-6.2,0-.2,0-.4,0-.7,0-.2.1-1,0-1.2-.8-1.2.1-2.1.9-2.9l.7-.7h.4c.5.2,1.1.3,1.6.5l2.2-.6.3.3c2.4,2.1,2.4,3.2,1.8,5-.3.7-.5,1.5-.6,2.8h0c0,.8-.1,2.7-.5,8.1l3.2-9.1c.6-1.3,1-3.6,1.2-5l.2-.9h0c.9-1.7,2.3-2.6,3.9-2.6s3.7,1.1,4.9,3.1l.3.4-.2.4c-1.5,2.6-4.1,14.4-2.4,17.3.3.5.5.5.8.5.4,0,1.3-.2,3-1.8l1.1-1,.2,1.4c0,.5,0,1.4-.3,2.1,0,.3,0,.7,0,1,0,.3,0,.5,0,.6l.3.6-.6.4c-.5.3-1.4,1.2-1.7,1.6h0c0,0,0,.2,0,.2-1.9,1.5-3.6,2.3-5.2,2.3s-2.8-.7-3.8-2.1c-1.4-2-2-5.3-1.7-8.5,0,.3-.1.5-.2.7-.2.7-.5,1.4-.8,2.2-1.1,2.7-2.4,6.1-2,7.7v.5c.1,0-1.8,1.6-1.8,1.6l-2.7-.3Z"/>
        <path class="cls-3" d="M111.5,22.3c1.6,0,3.2,1,4.3,2.7-1.6,2.8-5.4,19-.9,19s2-.6,3.5-2c0,.5,0,1.5-.4,1.9.4.6,0,1.4.3,2-.6.4-1.6,1.3-1.9,1.8-1.8,1.5-3.4,2.1-4.7,2.1-4.6,0-5.9-7.9-4-13.3,0-.6-.3-.8-.5-.8-.4,0-.9.7-1.1,1.6-.5,1.9-.7,3-.8,3-1.2,3.3-3.5,8.1-2.9,10.4l-1.3,1.1-2-.2-.6-1-1.5-.4c-2.4-5.9,0-15.3,0-21.6,0,0,0,0,0,0-.1,0,.4-1.6,0-2.2-.6-.8.2-1.3,1.2-2.3.6.1,1.1.2,1.6.5l2.1-.6c3.5,3,1.2,3.1.9,7.1,0,0-.9,13.6-.9,13.6l5-14.4c.7-1.6,1.2-4.6,1.4-5.9.9-1.5,2.1-2.1,3.3-2.1M111.5,20.8c-1.9,0-3.5,1-4.6,2.9v.2c-.1,0-.2.2-.2.2,0,.2,0,.5-.1.8-.2,1.4-.7,3.6-1.2,4.8h0s0,0,0,0l-1.4,3.9v-.4c0-1,.1-1.7.1-2.1h0c0-1.1.3-1.9.6-2.6.8-2.2.7-3.5-2-5.8l-.6-.5-.8.2-1.5.4c-.5-.2-1-.3-1.5-.4h-.8c0-.1-.5.4-.5.4-.1.1-.3.3-.4.4-.8.7-2.1,2.1-1.1,3.7,0,.2,0,.6,0,.8,0,.3,0,.6,0,.9,0,1.8-.3,3.9-.5,6-.6,5.4-1.2,11.4.6,15.9l.3.7.7.2.9.2.3.5.4.6h.7c0,0,2,.3,2,.3h.6c0,0,.5-.3.5-.3l1.3-1.1.7-.6-.2-.9c-.3-1.2.7-4.1,1.7-6.5.3,2,.9,3.8,1.8,5.1,1.1,1.6,2.6,2.4,4.4,2.4s3.6-.8,5.7-2.5h.2c0-.1.1-.3.1-.3.2-.3,1-1.1,1.5-1.4l1.2-.8-.6-1.2c0,0,0-.2,0-.3,0-.2,0-.6,0-.9.3-.8.3-1.7.3-2.2l-.4-2.8-2.1,1.9c-1.7,1.5-2.4,1.6-2.5,1.6-.3-.2-1.1-2-.2-7.6.7-4.3,1.9-8.1,2.4-9.1l.5-.8-.5-.8c-1.4-2.1-3.5-3.4-5.6-3.4h0Z"/>
      </g>
      <g id="g-Loving-and-Leading">
        <path class="cls-2" d="M126.7,63c-1.8,0-3.5-1-4.9-2.7-1.4-1.8-2-4.2-1.4-6v-.2c0,0,.3-.2.3-.2.4-.3,1-.7,1.9-1.2l.5-.3.4.5c3.4,4.4,4.8,4.9,5.2,4.9s.1,0,.2,0c.8-.8.5-4.7.3-7.8,0-1.1-.1-2.2-.2-3.3-1.7,2.2-3.5,3.3-5.4,3.3s-3.7-1.1-5.5-3.3h-.1c0-.1,0-.3,0-.3-1.1-4.3-1.3-14.8,2.4-20.5,1.4-2.1,3.1-3.3,5.2-3.7h.2s3,1.4,3,1.4l.2-.4h.3c.8-.4,1.4-.5,2-.5.6,0,1.1,0,2-.5l.4-.2.4.3c.1,0,.3.2.6.4,1.2.8,2.3,1.5,2.9,2.3l.2.3v.4c-1.4,3.8-1.4,10.7-1.4,13.5,0,.5,0,1.1.1,1.7.6,7,1.3,16.5-7,21.3-.8.6-1.8.9-2.8.9ZM128.2,27.9c-2,4.6-5,14.4-2.2,16.7,2-2,2.5-7,2.8-11.2.2-1.7.3-3.4.6-4.6,0,0-.1-.3-.3-.5-.3-.3-.7-.5-.9-.5Z"/>
        <path class="cls-3" d="M133.6,23c.5.3,2.6,1.6,3.3,2.5-1.2,3.5-1.4,9.5-1.3,13.7.5,7.3,2.1,17.4-6.5,22.3-.8.6-1.6.8-2.4.8-3.4,0-6.5-4.4-5.6-7.8.4-.3,1-.7,1.8-1.1,2.9,3.7,4.7,5.2,5.7,5.2,2.5,0,1-8.3,1.1-13.8l-.2-.2c-1.9,3.1-3.9,4.6-5.9,4.6s-3.3-1-4.9-3c-1.4-5.4-1.3-21.8,7-23.2l3.3,1.6h.3c0,0,.3-.7.3-.7,1.5-.6,2.3,0,4-.9M126.1,45.6c3.6-2.6,3.2-12.4,4.1-16.6,0-.8-1.2-1.8-2.1-1.8s-.3,0-.4.1c-1.7,3.8-6.1,16-1.6,18.3M133.7,21.2l-.9.5c-.7.4-1,.4-1.6.4-.6,0-1.3,0-2.2.4l-.5.2-2.2-1.1-.4-.2h-.5c-2.3.5-4.2,1.8-5.7,4.1-3.8,5.8-3.6,16.6-2.5,21.1v.3c0,0,.3.3.3.3,1.9,2.3,3.9,3.5,6.1,3.5s3.2-.7,4.7-2.2c0,.5,0,1,0,1.5.1,2.2.4,5.7,0,6.9-.5-.3-1.8-1.2-4.3-4.5l-.8-1-1.1.5c-.7.4-1.4.8-2,1.2l-.4.3v.5c-.7,2.1-.1,4.6,1.4,6.7,1.5,1.9,3.4,3,5.4,3s2.2-.3,3.2-1c8.7-5,7.9-14.8,7.3-21.9,0-.6,0-1.1-.1-1.7,0-2.8,0-9.5,1.2-13.2l.3-.8-.5-.6c-.6-.8-1.9-1.7-3.1-2.4-.2-.2-.4-.3-.5-.3l-.8-.6h0ZM126,43.4c-1.2-2.5.4-9.3,2.6-14.5,0,0,0,0,0,0-.2,1.2-.4,2.8-.5,4.4-.3,3.4-.7,7.9-2.1,10h0Z"/>
      </g>
      <g id="a-Loving-and-Leading">
        <path class="cls-2" d="M157.8,52.1c-1.4,0-2.7-.6-3.8-1.7-1.7-1.9-2.6-4.9-2.3-8.5,0-4.2,1.4-13.9,5.4-18,1.2-1.2,2.6-1.9,4.1-1.9s3,.6,4.6,1.9c.6,0,1.3.1,1.8.5.4.2,1,.3,1.7.4,1.6.2,4.1.6,3.9,3.4h0c0,0,0,.1,0,.1-.2.7-.4,1.5-.6,2.2-1.4,5.6-2.8,11-.2,12.9.7-.6,2.1-2.5,2.7-3.2.4-.6.7-.9.8-1l.9-.9.4,1.2c.6,2,.2,4.1-1.1,6-1.6,2.3-4.4,3.8-6.9,3.8s-3.6-1-4.5-2.8c-1.7,3.6-4.2,5.8-6.9,5.8ZM163.3,27.3c-2.8,4.6-5.1,14.1-2.9,18.2,0,0,0,0,0,0,.2-.2.3-.4.4-.6h0c0,0,0-.1,0-.1,1.7-2,4.5-13,3.2-17.1l-.9-.3Z"/>
        <path class="cls-3" d="M161.2,22.7c1.3,0,2.7.6,4.4,1.9.8,0,1.3.1,1.6.4,1.8.9,5.5,0,5.3,3.1-1.7,7.1-4,13.9-.1,16.2,0,0,0,0,0,0,.8,0,3.6-4.2,4.1-4.6,1.4,4.4-3.4,8.7-7.3,8.7s-3.7-1.1-4.3-3.8l-.4.3c-1.7,4.5-4.3,6.5-6.7,6.5s-5.8-3.5-5.3-9.5c-.1-5.4,2.4-19.2,8.7-19.2M160.1,46.4h.7c.3-.5.6-.8.8-1.2,2-2.4,4.9-14.2,3.2-18.2l-1.8-.6c-3.1,4.5-5.9,15.6-2.9,20M161.2,21.2c-1.7,0-3.2.7-4.6,2.1-4.1,4.2-5.7,14.1-5.6,18.5-.3,3.8.6,7,2.5,9,1.2,1.3,2.7,2,4.3,2,2.7,0,5.1-1.8,6.9-5,1.1,1.3,2.6,2.1,4.4,2.1,2.7,0,5.7-1.6,7.5-4.1,1.5-2.1,1.9-4.4,1.2-6.6l-.8-2.4-1.7,1.8c-.2.2-.4.5-.9,1.1-.4.6-1.4,1.9-2.1,2.6-1.5-2-.3-6.7.9-11.7.2-.7.4-1.5.6-2.2h0c0-.1,0-.3,0-.3.2-3.5-3-4-4.6-4.2-.5,0-1.1-.2-1.4-.3-.6-.4-1.2-.6-1.9-.6-1.7-1.3-3.3-1.9-4.9-1.9h0ZM160.6,44c-1.1-4.1.7-11.6,3-15.7.8,3.8-1.3,13.3-3,15.7h0Z"/>
      </g>
      <g id="n-Loving-and-Leading-2" data-name="n-Loving-and-Leading">
        <path class="cls-2" d="M179.2,52.4l-.6-1.1-1.6-.4v-.3c-1.9-4.3-1.2-10.3-.7-15.5.2-2.2.5-4.3.5-6.2,0-.2,0-.4,0-.7,0-.3.1-1,0-1.2-.8-1.2.1-2.1.9-2.9l.7-.7h.4c.5.2,1.1.3,1.6.5l2.2-.6.3.3c2.4,2.1,2.4,3.2,1.8,5-.3.7-.5,1.5-.6,2.8h0c0,.7-.1,2.7-.5,7.9l3.1-9c.6-1.3,1-3.6,1.2-5l.2-.9h0c.9-1.7,2.3-2.6,3.9-2.6s3.7,1.1,4.9,3.1l.3.4-.2.4c-1.5,2.6-4.1,14.4-2.4,17.3.3.5.5.5.8.5.4,0,1.3-.2,3-1.8l1.1-1,.2,1.4c0,.5,0,1.4-.3,2.1,0,.3,0,.7,0,1,0,.3,0,.5,0,.6l.4.6-.6.4c-.5.3-1.3,1.1-1.5,1.5h0c0,.1,0,.2,0,.2-1.9,1.5-3.6,2.3-5.2,2.3s-2.8-.7-3.8-2.1c-1.4-2-2-5.3-1.7-8.5,0,.3-.1.5-.2.7-.2.7-.5,1.4-.8,2.2-1.1,2.7-2.4,6.1-2,7.7v.5c.1,0-1.8,1.6-1.8,1.6l-2.7-.3Z"/>
        <path class="cls-3" d="M191.9,22.3c1.6,0,3.2,1,4.3,2.7-1.6,2.8-5.4,19-.9,19s2-.6,3.5-2c0,.5,0,1.5-.4,1.9.4.6,0,1.4.3,2-.6.3-1.5,1.3-1.8,1.8-1.8,1.5-3.4,2.1-4.7,2.1-4.6,0-5.9-7.9-4-13.3,0-.6-.3-.8-.5-.8-.4,0-.9.7-1.1,1.6-.5,1.9-.7,3-.8,3-1.2,3.3-3.5,8.1-2.9,10.4l-1.3,1.1-2-.2-.6-1-1.5-.4c-2.4-5.9,0-15.3,0-21.6,0,0,0,0,0,0-.1,0,.4-1.6,0-2.2-.6-.8.2-1.3,1.2-2.3.6.1,1.1.2,1.6.5l2.1-.6c3.5,3,1.2,3.1.9,7.1,0,0-1,13.6-1,13.6l5-14.4c.7-1.6,1.2-4.6,1.4-5.9.9-1.5,2.1-2.1,3.3-2.1M191.9,20.8c-1.9,0-3.5,1-4.6,2.9v.2c-.1,0-.2.2-.2.2,0,.2,0,.5-.1.8-.2,1.4-.7,3.6-1.2,4.8h0s0,0,0,0l-1.2,3.6h0c0-1.1.1-1.8.1-2.2h0c0-1.1.3-1.9.6-2.6.8-2.2.7-3.5-2-5.8l-.6-.5-.8.2-1.5.4c-.5-.2-1-.3-1.5-.4h-.8c0-.1-.5.4-.5.4-.1.1-.3.3-.4.4-.8.7-2.1,2.1-1.1,3.7,0,.2,0,.6,0,.8,0,.3,0,.6,0,.9,0,1.8-.3,3.9-.5,6-.6,5.4-1.2,11.4.6,15.9l.3.7.7.2.9.2.3.5.4.6h.7c0,0,2,.3,2,.3h.6c0,0,.5-.3.5-.3l1.3-1.1.7-.6-.2-.9c-.3-1.2.7-4.1,1.7-6.5.3,2,.9,3.8,1.8,5.1,1.1,1.6,2.6,2.4,4.4,2.4s3.6-.8,5.7-2.5l.2-.2v-.2c.3-.3,1.1-1.1,1.4-1.3l1.3-.7-.7-1.2c0,0,0-.2,0-.3,0-.2,0-.6,0-.9.3-.8.3-1.7.3-2.2l-.4-2.8-2.1,1.9c-1.7,1.5-2.4,1.6-2.5,1.6-.3-.2-1.1-2-.2-7.6.7-4.3,1.9-8.1,2.4-9.1l.5-.8-.5-.8c-1.4-2.1-3.5-3.4-5.6-3.4h0Z"/>
      </g>
      <g id="d-Loving-and-Leading">
        <path class="cls-2" d="M204.2,52.2c-1.3,0-2.5-.6-3.7-1.9-1.9-2.1-3.2-5.6-3-8.4.6-6.1,2-13.9,4.7-17,1.3-1.4,3.1-2.1,5.2-2.1s1.1,0,1.6.1h.2s1.1.9,1.1.9c.2-1.2.3-3.2.4-4.1,0-.5,0-.9,0-1.1,0-.5,0-1.3.2-2.2.2-1.5.5-4.4-.4-4.8l-.7-.3.4-.7c.5-1.1,1.4-2.1,2.5-3.1h.1c0-.1.2-.2.2-.2,1.5-.4,3-.7,4.4-.7s.7,0,1.1,0h.3s.2.2.2.2c2.2,2.4,1.5,4.5.9,6.2-.2.5-.3,1-.4,1.5h0c0,.6-.2,1.9-.6,4.9,0,1.5-.3,3.7-.6,6.3-.8,6-2,15.1.9,17.3.6-.3,1.5-1.5,2.1-2.2.4-.5.7-.9,1-1.2l1-1.1.2,1.5c.4,2.4-.4,4.9-2.1,6.9-1.5,1.8-3.6,2.9-5.6,2.9h0c-1.3,0-3.5-.5-4.9-3.4l-2.2,2.7c-1.3,1.9-2.8,2.8-4.4,2.8ZM206.4,44.9h.7c1.4-2.2,2-7.5,2.5-11.4.2-1.5.4-2.7.5-3.7,0-1.6,0-1.8-1.1-2-3,3.6-4.2,12.4-3.1,17h.3Z"/>
        <path class="cls-3" d="M217.4,7.4c.3,0,.7,0,1,0,2.4,2.7.8,4.7.3,7.1,0,0-.7,5-.7,5,0,5.2-4.1,21.6.9,24.5,1.2-.1,2.8-2.8,3.7-3.7.7,4.6-3.3,8.9-6.9,8.9s-3.7-1.2-4.7-4.1l-3,3.7c-1.3,1.8-2.6,2.5-3.8,2.5-3.4,0-6.2-5.6-5.9-9.4.4-4,1.6-13.3,4.5-16.6,1.2-1.3,2.8-1.8,4.6-1.8s1,0,1.5.1l1.9,1.5c.4-.4.7-5.9.8-6.5-.2-1.5,1.4-6.8-.7-7.7.5-1,1.3-2,2.3-2.9,1.3-.4,2.7-.6,4.2-.6M206.3,45.7l1.3-.2c2.2-2.8,2.7-11.8,3.4-15.6,0-2-.1-2.6-2.1-2.9-3.4,3.6-4.9,13.4-3.4,18.3l.8.4M217.4,5.9c-1.5,0-3.1.2-4.6.7h-.3c0,0-.2.3-.2.3-1.1,1-2.1,2.2-2.6,3.3l-.7,1.4,1.4.6c.4.6,0,3.1,0,4-.1.9-.2,1.7-.2,2.3,0,.2,0,.5,0,1.1,0,.6-.1,1.7-.2,2.7l-.2-.2h-.4c-.6-.1-1.2-.2-1.7-.2-2.3,0-4.3.8-5.7,2.3h0s0,0,0,0c-2.3,2.6-3.9,8.5-4.9,17.4-.2,3.1,1.1,6.8,3.2,9,1.3,1.4,2.7,2.1,4.2,2.1s3.2-.5,5-3.1l1.5-1.8c1.2,1.8,3,2.8,5,2.8s4.5-1.2,6.1-3.1c1.8-2.2,2.7-4.9,2.2-7.5l-.5-2.9-2.1,2.1c-.3.3-.7.8-1,1.3-.3.4-.9,1.2-1.4,1.7-2-2.6-.9-11-.2-16.2.3-2.6.6-4.9.6-6.4l.3-2.4.2-1.7c0-.2,0-.4,0-.7h0c0-.5.3-.9.4-1.4.6-1.9,1.4-4.2-1.1-7l-.4-.4h-.6c-.4,0-.8-.1-1.2-.1h0ZM206.7,44c-.9-4.5.4-12,2.7-15.3,0,.3,0,.7,0,1-.2,1-.3,2.2-.5,3.7-.4,3.4-1.1,8.4-2.2,10.6h0ZM218.6,42.6h0s0,0,0,0h0Z"/>
      </g>
      <g id="L2-Loving-and-Leading">
        <path class="cls-2" d="M242,52.9c-.1,0-.6,0-1,0h-.4c-.3-.3-.8-.5-1.4-.7-1.1-.4-2.4-.8-3.2-1.8h-.1c0-.1,0-.3,0-.3-.3-1.5.3-4.1.6-5.2v-.2c0,0,.9-.7.9-.7l5.8-.4c2.1-5.2,2.1-12,2.1-17.5v-.3c0-.8,0-1.7,0-2.7.1-5.7.4-10.5,2.1-12.3,2.3-3.1,4.7-4.6,7.2-4.6s2.4.3,3.7,1c.3,0,.6,0,.8-.1.9-.2,1.7-.3,2.5-.3,1.2,0,2.3.3,3.8,1.2h0s0,.1,0,.1c.6.6.7,1.9.6,3.2v.2s.4,5.4.4,5.4c.9,2.4,1.1,6.7-.8,8.6h-.1c0,.1-3.1,1.3-3.1,1.3l-.3-.2c-.8-.6-1.2-.7-1.9-.7h-1s-.1-.6-.1-.6c-.3-1.7-.5-3.6-.8-5.6-.3-2.9-.7-5.9-1.3-8.1-.2,0-.3-.1-.4-.1-1.2,0-1.7,4.5-2,6.7-.2,1.5-.3,2.7-.5,3.5-.2,2.3-.2,4.6-.1,7.2.1,5.1.3,10.3-2.2,14.8.8,0,1.7.1,2.5.2,1.2.1,2.5.2,3.7.2,3.1,0,6.1-.6,7.6-4.8l.2-.4,1.6-.2.5.8c.9,1.4.9,1.7,0,3.1l-.3.6c0,.2-.2.5-.3.9-1.5,4.6-2.4,6.3-3.5,6.5-3,1.4-5.8,2-8.5,2s-3.4-.3-4.8-.5c-1.2-.2-2.3-.4-3.3-.4-1.6,0-2.9.5-4.3,1.5l-.4.3-.4-.3Z"/>
        <path class="cls-3" d="M254.6,7c1.1,0,2.3.3,3.6,1,1.5-.2,2.4-.5,3.4-.5s2,.3,3.4,1.1c.5.5.4,2.2.4,2.8,0,0,.4,5.6.4,5.6.9,2.3,1,6.3-.6,7.9,0,0-2.6,1-2.6,1-1-.7-1.5-.8-2.3-.8s-.2,0-.4,0c-.8-4.2-1-10.2-2.2-14.1-.4-.3-.8-.4-1.1-.4-2.7,0-2.5,8.7-3.2,10.8-.8,7.3,1.6,16.2-2.9,22.8,0,0,0,0,.1,0,2.4,0,5,.4,7.4.4,3.6,0,6.8-.9,8.3-5.3h.7c1.1,1.7,1,1.3,0,3.2,0,0,0,0,0,0-.1,0-2.1,6.9-3.4,7.1-3.3,1.6-6,2-8.3,2-3.3,0-5.7-1-8.2-1-1.5,0-3,.4-4.8,1.6-.3-.2-.8-.2-1.4-.2-1.1-.7-3.3-.9-4.4-2.2-.3-1.2.2-3.6.6-4.8l.5-.4,6-.4c2.4-5.4,2.3-12.6,2.3-18.5.2-3.9,0-12.4,2-14.5,2.2-2.9,4.3-4.3,6.6-4.3M254.6,5.5c-2.8,0-5.3,1.6-7.8,4.8-1.9,2-2.1,6.8-2.3,12.8,0,1,0,1.9,0,2.6h0s0,0,0,0v.3c0,5.3,0,11.8-1.8,16.8l-5.1.3h-.5s-.4.3-.4.3l-.5.4-.3.3v.4c-.4.9-1.2,3.8-.8,5.6v.3c0,0,.3.3.3.3.9,1.1,2.4,1.6,3.5,2,.5.2,1,.3,1.2.5l.4.2h.4c.2,0,.5,0,.7,0l.8.5.8-.6c1.3-.9,2.4-1.4,3.9-1.4s2,.2,3.2.4c1.4.3,3.1.6,5,.6,2.8,0,5.7-.7,8.8-2.1,1.5-.4,2.5-2.6,4-7,0-.3.2-.6.3-.8h0c.1-.2.2-.4.3-.6.9-1.7.9-2.2-.1-3.9l-.2-.4-.5-.8h-1c0,.1-.7.2-.7.2h-.9c0,.1-.3,1-.3,1-1.2,3.6-3.6,4.3-6.9,4.3s-2.4-.1-3.6-.2c-.5,0-.9,0-1.4-.1,2-4.4,1.9-9.3,1.8-14.1,0-2.5-.1-4.8,0-7,.3-.8.4-2,.6-3.5.2-1.5.5-4.6,1.1-5.8.5,2.1.8,4.7,1.1,7.3.2,2,.5,4,.8,5.6l.2,1.2h1.3c.1,0,.2,0,.4,0,.5,0,.7,0,1.4.5l.7.5.8-.3s.7-.3,1.4-.5l.3.6,1.4-1.4c2.1-2.1,1.9-6.7,1-9.3l-.2-2.6v-1.9c-.2-.2-.2-.5-.2-.7h0s0-.2,0-.2c0-1.4,0-2.9-.9-3.7h-.1c0-.1-.2-.2-.2-.2-1.6-.9-2.8-1.3-4.1-1.3s-1.6.1-2.6.3c-.2,0-.4,0-.6,0-1.3-.6-2.6-1-3.8-1h0Z"/>
      </g>
      <g id="e-Loving-and-Leading">
        <path class="cls-2" d="M277.7,52.3c-3.2,0-6.2-1.8-7.9-4.9-3-6.9-.5-16.3,1.3-23.1l.2-.8,4.4-1.7,5-.4h.2c5,2.3,6.3,7.7,5.3,12-.9,4.1-4.1,8.3-9.2,8.3h0c-.3,0-.6,0-.9,0,0,1.4.5,2.5,1.1,3.1.5.5,1.1.7,1.9.7,2.7,0,6.5-2.9,7.9-6.1l.3-.6,1.4.4v.4c.9,3.4-.6,6.9-3.9,8.9-1.9,2.4-4.4,3.7-7.1,3.7ZM276.1,37.3c.2,0,.4.1.6.1h0c.9,0,1.8-1.1,2.4-2.9,1.1-3.2.8-7.5-.4-8.9-.3.2-.4.6-.7,1.8-.2.6-.4,1.4-.7,2.3,0,.3-.1.7-.2,1.3-.3,1.4-.9,5-1,6.2Z"/>
        <path class="cls-3" d="M280.5,22.1c8.7,3.9,5.7,18.9-3.5,18.9s-1.1,0-1.7-.2c0,3.9,1.6,5.4,3.8,5.4s7-3,8.6-6.5h.4c.8,3.5-1,6.6-3.8,8.3-1.9,2.5-4.3,3.6-6.6,3.6s-5.6-1.7-7.3-4.6c-2.9-6.7-.3-16.3,1.5-23l3.9-1.5,4.7-.4M276.7,38.2c3.9,0,5.2-11.2,2.2-13.4-1.5.3-1.3,1.7-2.3,4.8-.2,1.2-1.4,7.1-1.2,8.2.5.3.9.4,1.3.4M280.8,20.5h-.4s-4.7.4-4.7.4h-.2s-.2,0-.2,0l-3.9,1.5-.7.3-.2.7v.4c-1.9,7-4.4,16.5-1.4,23.5h0c0,0,0,.2,0,.2,1.9,3.3,5.1,5.3,8.6,5.3s5.6-1.4,7.6-3.9c3.5-2.3,5.1-5.9,4.2-9.7l-.2-.9-.9-.2h-.4c0,0-1.2-.4-1.2-.4l-.5,1.1c-1.5,3.2-5.1,5.7-7.3,5.7s-1.1-.2-1.4-.5c-.4-.4-.6-1-.8-1.8,0,0,0,0,0,0,5.5,0,9-4.5,9.9-8.9,1-4.6-.4-10.4-5.8-12.8l-.4-.2h0ZM278.1,29.9c.3-.9.5-1.7.7-2.3,0,0,0-.1,0-.2.4,1.7.4,4.5-.4,6.8-.5,1.4-1.1,2.2-1.5,2.4.2-1.5.7-4.2.9-5.4.1-.5.2-1,.2-1.3h0Z"/>
      </g>
      <g id="a-Loving-and-Leading-2" data-name="a-Loving-and-Leading">
        <path class="cls-2" d="M293.7,52.1c-1.4,0-2.7-.6-3.8-1.7-1.7-1.9-2.6-4.9-2.3-8.5,0-4.2,1.4-13.9,5.4-18,1.2-1.2,2.6-1.9,4.1-1.9s3,.6,4.6,1.9c.6,0,1.3.1,1.8.5.4.2,1,.3,1.7.4,1.6.2,4.1.6,3.9,3.4h0c0,0,0,.1,0,.1-.2.7-.4,1.5-.6,2.2-1.4,5.6-2.8,11-.2,12.9.7-.6,2.1-2.5,2.7-3.2.4-.6.7-.9.8-1l.9-.9.4,1.2c.6,2,.2,4.1-1.1,6-1.6,2.3-4.4,3.8-6.9,3.8s-3.6-1-4.5-2.8c-1.7,3.6-4.2,5.8-6.9,5.8ZM299.2,27.3c-2.8,4.6-5.1,14.1-2.9,18.2,0,0,0-.1.1-.2.1-.2.3-.4.4-.6,1.7-2.1,4.5-13.1,3.2-17.2l-.9-.3Z"/>
        <path class="cls-3" d="M297.1,22.7c1.3,0,2.7.6,4.4,1.9.8,0,1.3,0,1.6.4,1.8.9,5.5,0,5.3,3.1-1.7,7.1-4,13.9-.1,16.2,0,0,0,0,0,0,.8,0,3.6-4.2,4.1-4.6,1.4,4.4-3.4,8.7-7.3,8.7s-3.7-1.1-4.3-3.8l-.4.3c-1.7,4.5-4.3,6.5-6.7,6.5s-5.8-3.5-5.3-9.5c-.1-5.4,2.4-19.2,8.7-19.2M296,46.4h.7c.3-.5.5-.8.8-1.2,2-2.4,4.9-14.2,3.2-18.2l-1.8-.6c-3.1,4.5-5.9,15.6-2.9,20M297.1,21.2c-1.7,0-3.2.7-4.6,2.1-4.1,4.2-5.7,14.1-5.6,18.5-.3,3.8.6,7,2.5,9,1.2,1.3,2.7,2,4.3,2,2.7,0,5.1-1.8,6.9-5,1.1,1.3,2.6,2.1,4.4,2.1,2.7,0,5.7-1.6,7.5-4.1,1.5-2.1,1.9-4.4,1.2-6.6l-.8-2.4-1.7,1.8c-.2.2-.4.5-.9,1.1-.4.6-1.4,1.9-2.1,2.6-1.5-2-.3-6.7.9-11.7.2-.7.4-1.5.6-2.2h0c0-.1,0-.3,0-.3.2-3.5-3-4-4.6-4.2-.5,0-1.1-.2-1.4-.3-.6-.4-1.2-.6-1.9-.6-1.7-1.3-3.3-1.9-4.9-1.9h0ZM296.5,44c-1.1-4.1.7-11.6,3-15.7.8,3.8-1.3,13.3-3,15.7h0Z"/>
      </g>
      <g id="d-Loving-and-Leading-2" data-name="d-Loving-and-Leading">
        <path class="cls-2" d="M318.2,52.2c-1.3,0-2.5-.6-3.7-1.9-1.9-2.1-3.2-5.6-3-8.4.6-6.1,2-13.9,4.7-17,1.3-1.4,3.1-2.1,5.2-2.1s1.1,0,1.6.1h.2s1.1.9,1.1.9c.2-1.2.3-3.2.4-4.1,0-.5,0-.9,0-1.1,0-.5,0-1.3.2-2.2.2-1.5.5-4.4-.4-4.8l-.7-.3.4-.7c.5-1.1,1.4-2.1,2.5-3.1h.1c0-.1.2-.2.2-.2,1.5-.4,3-.7,4.4-.7s.7,0,1.1,0h.3s.2.2.2.2c2.2,2.4,1.5,4.5.9,6.2-.2.5-.3,1-.4,1.5h0c0,.6-.2,1.9-.6,4.9,0,1.5-.3,3.7-.6,6.3-.8,6-2,15.1.9,17.3.6-.3,1.5-1.5,2.1-2.2.4-.5.7-.9,1-1.2l1-1.1.2,1.5c.4,2.4-.4,4.9-2.1,6.9-1.5,1.8-3.6,2.9-5.6,2.9h0c-1.3,0-3.5-.5-4.9-3.4l-2.2,2.7c-1.3,1.9-2.8,2.8-4.4,2.8ZM320.3,44.9h.7c1.4-2.2,2-7.5,2.5-11.4.2-1.5.4-2.7.5-3.7,0-1.6,0-1.8-1.1-2-3,3.6-4.2,12.4-3.1,17h.3Z"/>
        <path class="cls-3" d="M331.4,7.4c.3,0,.7,0,1,0,2.4,2.7.8,4.7.3,7.1,0,0-.7,5-.7,5,0,5.2-4.1,21.6.9,24.5,1.2-.1,2.8-2.8,3.7-3.7.7,4.6-3.3,8.9-6.9,8.9s-3.7-1.2-4.7-4.1l-3,3.7c-1.3,1.8-2.6,2.5-3.8,2.5-3.4,0-6.2-5.6-5.9-9.4.4-4,1.6-13.3,4.5-16.6,1.2-1.3,2.8-1.8,4.6-1.8s1,0,1.5.1l1.9,1.5c.4-.4.7-5.9.8-6.5-.2-1.5,1.4-6.8-.7-7.7.5-1,1.3-2,2.3-2.9,1.3-.4,2.7-.6,4.2-.6M320.2,45.7l1.3-.2c2.2-2.8,2.7-11.8,3.4-15.6,0-2-.1-2.6-2.1-2.9-3.4,3.6-4.9,13.4-3.4,18.3l.8.4M331.4,5.9c-1.5,0-3.1.2-4.6.7h-.3c0,0-.2.3-.2.3-1.1,1-2.1,2.2-2.6,3.3l-.7,1.4,1.4.6c.4.6,0,3.1,0,4-.1.9-.2,1.7-.2,2.3,0,.2,0,.5,0,1.1,0,.6-.1,1.7-.2,2.7l-.2-.2h-.4c-.6-.1-1.2-.2-1.7-.2-2.3,0-4.3.8-5.7,2.3h0s0,0,0,0c-2.3,2.6-3.9,8.5-4.9,17.4-.2,3.1,1.1,6.8,3.2,9,1.3,1.4,2.7,2.1,4.2,2.1s3.2-.5,5-3.1l1.5-1.8c1.2,1.8,3,2.8,5,2.8s4.5-1.2,6.1-3.1c1.8-2.2,2.7-4.9,2.2-7.5l-.5-2.9-2.1,2.1c-.3.3-.7.8-1,1.3-.3.4-.9,1.2-1.4,1.7-2-2.6-.9-11-.2-16.2.3-2.6.6-4.9.6-6.4l.3-2.4.2-1.7c0-.2,0-.4,0-.7h0c0-.5.3-.9.4-1.4.6-1.9,1.4-4.2-1.1-7l-.4-.4h-.6c-.4,0-.8-.1-1.2-.1h0ZM320.6,44c-.9-4.5.4-12,2.7-15.3,0,.3,0,.7,0,1-.2,1-.3,2.2-.5,3.7-.4,3.4-1.1,8.4-2.2,10.6h0ZM332.6,42.6h0s0,0,0,0h0Z"/>
      </g>
      <g id="i2-Loving-and-Leading">
        <path class="cls-2" d="M343.4,50.5c-2,0-4.1-.9-5.5-2.3-1.2-1.3-1.9-2.9-1.8-4.7-.2-2,.4-5.2,1-8.6.7-3.4,1.3-7,1-8.7-.2-.6,0-1.1,0-1.4.6-.9,2-1,3.5-1.2.6,0,1.2,0,1.5-.2.2,0,.4-.1.5-.1,1.1,0,2.1,1.1,3.3,2.4.3.3.6.6.7.7l.3.2v1.3c-2.3,3.8-4.2,13.5-2.7,16.1.2.4.5.5.7.5.4,0,1.8-.4,4.6-3.8l1-1.1.4,1.4c1.1,4.3-1.4,6-4.3,7.9h-.2c-1,1-2.5,1.5-4,1.5ZM344.3,20.7c-2.5,0-5.1-2.2-5.3-4.5,0-1.4.4-2.6,1.2-3.4.8-.9,2.1-1.3,3.5-1.3,2,0,3.9,1,4.7,2.5.4.8.8,2.4-.8,4.6-.7,1.4-1.8,2.2-3.3,2.2Z"/>
        <path class="cls-3" d="M343.7,12.2c2.9,0,5.9,2.4,3.3,6-.6,1.3-1.6,1.8-2.7,1.8-2.1,0-4.4-1.9-4.5-3.8,0-2.8,1.9-4,3.9-4M343.7,24.2c1.2,0,3,2.5,3.6,3v.5c-2.6,4.4-5.1,17.7-1.3,17.7s2.8-1.2,5.2-4.1c.9,3.8-1.2,5.2-4.2,7.2-1,.9-2.3,1.3-3.6,1.3-3.3,0-6.7-2.5-6.6-6.3-.5-3.8,2.8-13.9,2-17.4-.7-1.8,3.2-1.4,4.6-1.8,0,0,.2,0,.3,0M343.7,10.7h0c-1.6,0-3,.6-4,1.6-.7.7-1.5,1.9-1.4,4h0s0,0,0,0c.2,2.7,3.1,5.2,6,5.2s3.2-.9,4-2.5c1.8-2.5,1.3-4.4.8-5.3-.9-1.8-3-2.9-5.3-2.9h0ZM343.7,22.7c-.3,0-.5,0-.8.1-.3,0-.8.1-1.3.2-1.6.1-3.3.3-4.1,1.5-.2.3-.5,1-.2,2,.3,1.6-.4,5.1-1,8.3-.7,3.4-1.3,6.7-1.1,8.8,0,1.9.7,3.7,2,5.1,1.5,1.6,3.8,2.6,6,2.6s3.3-.5,4.5-1.6h0c3-2.1,5.8-4,4.7-8.8l-.7-2.9-1.9,2.3c-2.7,3.2-3.8,3.5-4,3.5-1.3-1.3,0-11.2,2.6-15.4l.2-.4v-1.7l-.6-.4c0,0-.4-.4-.6-.6-1.4-1.5-2.5-2.6-3.9-2.6h0Z"/>
      </g>
      <g id="n2-Loving-and-Leading">
        <path class="cls-2" d="M354.1,52.4l-.6-1.1-1.6-.4v-.3c-1.9-4.3-1.2-10.3-.7-15.5.2-2.2.5-4.3.5-6.2,0-.2,0-.4,0-.7,0-.2.1-1,0-1.2-.8-1.2.1-2.1.9-2.9l.7-.7h.4c.5.2,1.1.3,1.6.5l2.2-.6.3.3c2.4,2.1,2.4,3.2,1.8,5-.3.7-.5,1.5-.6,2.8l-.6,7.9,3.1-9c.6-1.3,1-3.6,1.2-5l.2-.9h0c.9-1.7,2.3-2.6,3.9-2.6s3.7,1.1,4.9,3.1l.3.4-.2.4c-1.5,2.6-4.1,14.4-2.4,17.3.3.5.5.5.8.5.4,0,1.3-.2,3-1.8l1.1-1,.2,1.4c0,.5,0,1.4-.3,2.1,0,.3,0,.7,0,1,0,.3,0,.5,0,.6l.4.6-.6.4c-.5.3-1.3,1.1-1.5,1.5h0c0,.1,0,.2,0,.2-1.9,1.5-3.6,2.3-5.2,2.3s-2.8-.7-3.8-2.1c-1.4-2-2-5.3-1.7-8.5,0,.3-.1.5-.2.7-.2.7-.5,1.4-.8,2.2-1.1,2.7-2.4,6.1-2,7.7v.5c.1,0-1.8,1.6-1.8,1.6l-2.7-.3Z"/>
        <path class="cls-3" d="M366.8,22.3c1.6,0,3.2,1,4.3,2.7-1.6,2.8-5.4,19-.9,19s2-.6,3.5-2c0,.5,0,1.5-.4,1.9.4.6,0,1.4.3,2-.6.3-1.5,1.3-1.8,1.8-1.8,1.5-3.4,2.1-4.7,2.1-4.6,0-5.9-7.9-4-13.3,0-.6-.3-.8-.5-.8-.4,0-.9.7-1.1,1.6-.5,1.9-.7,3-.8,3-1.2,3.3-3.5,8.1-2.9,10.4l-1.3,1.1-2-.2-.6-1-1.5-.4c-2.4-5.9,0-15.3,0-21.6,0,0,0,0,0,0-.1,0,.4-1.6,0-2.2-.6-.8.2-1.3,1.2-2.3.6.1,1.1.2,1.6.5l2.1-.6c3.5,3,1.2,3.1.9,7.1,0,0-1,13.6-1,13.6l5-14.4c.7-1.6,1.2-4.6,1.4-5.9.9-1.5,2.1-2.1,3.3-2.1M366.8,20.8c-1.9,0-3.5,1-4.6,2.9v.2c-.1,0-.2.2-.2.2,0,.2,0,.5-.1.8-.2,1.4-.7,3.6-1.2,4.8h0s0,0,0,0l-1.2,3.6h0c0-1.1.1-1.8.1-2.2h0c0-1.1.3-1.9.6-2.6.8-2.2.7-3.5-2-5.8l-.6-.5-.8.2-1.5.4c-.5-.2-1-.3-1.5-.4h-.8c0-.1-.5.4-.5.4-.1.1-.3.3-.4.4-.8.7-2.1,2.1-1.1,3.7,0,.2,0,.6,0,.8,0,.3,0,.6,0,.9,0,1.8-.3,3.9-.5,6-.6,5.4-1.2,11.4.6,15.9l.3.7.7.2.9.2.3.5.4.6h.7c0,0,2,.3,2,.3h.6c0,0,.5-.3.5-.3l1.3-1.1.7-.6-.2-.9c-.3-1.2.7-4.1,1.7-6.5.3,2,.9,3.8,1.8,5.1,1.1,1.6,2.6,2.4,4.4,2.4s3.6-.8,5.7-2.5l.2-.2v-.2c.3-.3,1.1-1.1,1.4-1.3l1.3-.7-.7-1.2c0,0,0-.2,0-.3,0-.2,0-.6,0-.9.3-.8.3-1.7.3-2.2l-.4-2.8-2.1,1.9c-1.7,1.5-2.4,1.6-2.5,1.6-.3-.2-1.1-2-.2-7.6.7-4.3,1.9-8.1,2.4-9.1l.5-.8-.5-.8c-1.4-2.1-3.5-3.4-5.6-3.4h0Z"/>
      </g>
      <g id="g2-Loving-and-Leading">
        <path class="cls-2" d="M382.1,63c-1.8,0-3.5-1-4.9-2.7-1.4-1.8-2-4.2-1.4-6v-.2c0,0,.3-.2.3-.2.6-.4,1.2-.8,1.9-1.2l.5-.3.4.5c3.4,4.4,4.8,4.9,5.2,4.9s.1,0,.2,0c.8-.8.5-4.7.3-7.8,0-1.1-.1-2.2-.2-3.3-1.7,2.2-3.5,3.3-5.4,3.3s-3.7-1.1-5.5-3.3h-.1c0-.1,0-.3,0-.3-1.1-4.3-1.3-14.8,2.4-20.5,1.4-2.1,3.1-3.3,5.2-3.7h.2s3,1.4,3,1.4l.2-.4h.3c.8-.4,1.4-.5,2-.5.6,0,1.1,0,2-.5l.4-.2.4.3c.1,0,.3.2.6.4,1.2.8,2.3,1.5,2.9,2.3l.2.3v.4c-1.4,3.8-1.4,10.7-1.4,13.5,0,.5,0,1,.1,1.5.6,7,1.4,16.6-7,21.4-.8.6-1.8.9-2.8.9ZM383.5,27.9c-2.2,4.9-4.8,14.3-2.2,16.7,2-2,2.4-7,2.8-11.2.2-1.7.3-3.4.6-4.6,0,0-.1-.3-.3-.5-.3-.3-.7-.5-.9-.5Z"/>
        <path class="cls-3" d="M389,23c.5.3,2.6,1.6,3.3,2.5-1.2,3.5-1.4,9.5-1.3,13.7.5,7.3,2,17.4-6.5,22.3-.8.6-1.6.8-2.4.8-3.4,0-6.5-4.4-5.6-7.8.4-.3,1-.7,1.8-1.1,2.9,3.7,4.7,5.2,5.7,5.2,2.5,0,1-8.3,1.1-13.8l-.2-.2c-1.9,3.1-3.9,4.6-5.9,4.6s-3.3-1-4.9-3c-1.4-5.4-1.3-21.8,7-23.2l3.3,1.6h.3c0,0,.3-.7.3-.7,1.5-.6,2.3,0,4-.9M381.4,45.6c3.6-2.6,3.2-12.4,4.1-16.6,0-.8-1.2-1.8-2.1-1.8s-.3,0-.4.1c-1.8,3.8-6,15.9-1.6,18.3M389.1,21.2l-.9.5c-.7.4-1,.4-1.6.4-.6,0-1.3,0-2.2.4l-.5.2-2.2-1.1-.4-.2h-.5c-2.3.5-4.2,1.8-5.7,4.1-3.8,5.8-3.6,16.6-2.5,21.1v.3c0,0,.3.3.3.3,1.9,2.3,3.9,3.5,6.1,3.5s3.2-.7,4.7-2.2c0,.5,0,1,0,1.5.1,2.2.4,5.7,0,6.9-.5-.3-1.8-1.2-4.3-4.5l-.8-1-1.1.5c-.7.4-1.4.8-2,1.2l-.4.3v.5c-.7,2.1-.1,4.6,1.4,6.7,1.5,1.9,3.4,3,5.4,3s2.2-.3,3.2-1c8.7-5.1,7.9-14.9,7.3-22.1,0-.5,0-1-.1-1.5,0-2.8,0-9.5,1.2-13.2l.3-.8-.5-.6c-.6-.8-1.9-1.7-3.1-2.4-.2-.2-.4-.3-.5-.3l-.8-.6h0ZM381.4,43.4c-1.2-2.6.4-9.5,2.5-14.4,0,0,0,0,0,0-.2,1.2-.4,2.8-.5,4.4-.3,3.4-.7,7.8-2.1,10h0Z"/>
      </g>
    </g>
  </g>
</svg>