<?xml version="1.0" encoding="UTF-8"?>
<svg id="Layer_1" data-name="Layer 1" xmlns="http://www.w3.org/2000/svg" version="1.1" viewBox="0 0 209.9 151.7">
  <defs>
    <style>
      .cls-1 {
        display: none;
        fill: #e8e8e8;
      }

      .cls-1, .cls-2 {
        stroke-width: 0px;
      }

      .cls-2 {
        fill: #5481a2;
      }
    </style>
  </defs>
  <path class="cls-1" d="M103.2,154.7c-36.3,0-72.6,0-108.9,0-2.7,0-4.1,0-4-3.6.2-56.6.1-113.2,0-169.8,0-3.2.9-3.5,3.7-3.5,72.9,0,145.9,0,218.8,0,3.2,0,3.5.9,3.5,3.7,0,56.6-.1,113.2,0,169.8,0,3.2-.9,3.5-3.7,3.5-36.5-.1-72.9,0-109.4,0ZM105.9,89.9c-2.2-10.9-.5-46.6,1.8-55.2,6.1-22.6,31.5-25.9,45.2-15.1,11.5,9,13.1,21,10.8,34.1-1.4,7.9-5,15.1-8.6,22.3-3.4,6.7-.2,11.4,7,10.9,3.2-.2,6.3-.6,9.5-.5,12.3.3,21.9,8.6,24.4,21,2.3,11.2-3.8,23.2-14.3,28.2-5.9,2.8-12.2,3-18.5,3-39,0-77.9,0-116.9,0-22.9,0-38.6-21.9-31-43.5,4.9-13.9,15.7-20.3,29.9-22.2,6.1-.8,8.1-3.7,7.7-9.8-1.7-25.9,13.6-46.4,33.9-49.7,4.2-.7,6.3-3.6,5.6-8-.7-3.9-4.2-6.1-8.8-5.1-5.3,1.2-10.6,2.7-15.4,5.6-18.6,11.3-27.3,28.5-28.8,49.7-.2,2.5.2,4.5-3.4,5.5C11.2,67.7-1.7,86.2.2,111.5c1.6,21.5,21.6,40.2,43.1,40.2,42,0,83.9,0,125.9,0,2.7,0,5.4,0,8-.5,19.8-3.9,33-20.1,32.8-40.1-.2-18.9-14.3-35-33.8-38-4.2-.6-3.7-2-2.6-4.9,4-10.6,5.9-21.4,3.9-32.7C174,16.6,158.1,1.5,138.5.2c-16.3-1.1-35.7,6.7-42.5,27.2-2.2,6.5-3.3,13.2-3.9,20-1.1,12.3-.4,24.6-.6,36.9,0,1.1.5,2.5-.8,3.1-1.4.6-2-.8-2.8-1.5-3.7-3.6-7.3-7.3-11-10.9-2.9-2.8-6.2-3.1-9.4-.5-2.9,2.4-3,6.8-.1,9.8,8.6,8.8,17.3,17.5,26.1,26.1,2.7,2.7,6.2,3.2,9.1.7,9.8-8.8,19.2-18,27.9-27.9,3-3.5,1.2-8.8-2.9-10.2-3.5-1.2-6.2.3-8.5,2.8-4.2,4.4-8.3,8.9-13,14.1Z"/>
  <path class="cls-2" d="M105.9,89.9c4.8-5.2,8.9-9.6,13-14.1,2.3-2.5,5-3.9,8.5-2.8,4.1,1.4,5.9,6.8,2.9,10.2-8.7,9.9-18.1,19.1-27.9,27.9-2.8,2.5-6.4,2-9.1-.7-8.8-8.6-17.5-17.3-26.1-26.1-2.9-2.9-2.7-7.4.1-9.8,3.2-2.7,6.5-2.4,9.4.5,3.7,3.6,7.3,7.3,11,10.9.8.8,1.4,2.1,2.8,1.5,1.3-.6.8-2,.8-3.1.2-12.3-.5-24.6.6-36.9.6-6.8,1.7-13.5,3.9-20C102.9,6.9,122.2-.9,138.5.2c19.5,1.3,35.5,16.4,38.8,35.3,2,11.4,0,22.2-3.9,32.7-1.1,3-1.6,4.3,2.6,4.9,19.5,3,33.6,19.1,33.8,38,.2,20-13,36.2-32.8,40.1-2.6.5-5.3.5-8,.5-42,0-83.9,0-125.9,0-21.5,0-41.5-18.7-43.1-40.2-1.9-25.3,11.1-43.8,35.6-50.5,3.5-1,3.2-3,3.4-5.5,1.6-21.2,10.2-38.3,28.8-49.7,4.8-2.9,10.1-4.4,15.4-5.6,4.6-1,8.2,1.1,8.8,5.1.7,4.4-1.4,7.3-5.6,8-20.2,3.3-35.6,23.8-33.9,49.7.4,6.2-1.6,9-7.7,9.8-14.1,1.9-25,8.3-29.9,22.2-7.6,21.7,8.2,43.5,31,43.5,39,0,77.9,0,116.9,0,6.3,0,12.6-.2,18.5-3,10.5-5,16.6-17,14.3-28.2-2.5-12.4-12.1-20.7-24.4-21-3.1,0-6.3.2-9.5.5-7.2.5-10.4-4.2-7-10.9,3.6-7.2,7.2-14.3,8.6-22.3,2.3-13.2.7-25.1-10.8-34.1-13.7-10.7-39.1-7.4-45.2,15.1-2.3,8.6-4,44.2-1.8,55.2Z"/>
</svg>