<?xml version="1.0" standalone="no"?>
<!DOCTYPE svg PUBLIC "-//W3C//DTD SVG 1.1//EN" "http://www.w3.org/Graphics/SVG/1.1/DTD/svg11.dtd" >
<svg xmlns="http://www.w3.org/2000/svg" xmlns:xlink="http://www.w3.org/1999/xlink" version="1.1">
<metadata></metadata>
<defs>
<font id="cordial_prolight" horiz-adv-x="501" >
<font-face units-per-em="1000" ascent="750" descent="-250" />
<missing-glyph horiz-adv-x="210" />
<glyph horiz-adv-x="0" />
<glyph horiz-adv-x="333" />
<glyph unicode=" "  horiz-adv-x="210" />
<glyph unicode="&#x09;" horiz-adv-x="210" />
<glyph unicode="&#xa0;" horiz-adv-x="210" />
<glyph unicode="!" horiz-adv-x="274" d="M183 718l-8 -532l-50 -18v550h58zM100 46q0 49 52 49t52 -49t-52 -49t-52 49z" />
<glyph unicode="&#x22;" horiz-adv-x="299" d="M127 718l-26 -232h-41v232h67zM239 718l-26 -232h-41v232h67z" />
<glyph unicode="#" horiz-adv-x="770" d="M119 448l8 48h156l38 219l50 -8l-36 -211h145l38 219l50 -8l-36 -211h157l-8 -48h-158l-29 -174h157l-8 -48h-157l-38 -223l-50 8l36 215h-145l-38 -223l-50 8l36 215h-156l8 48h156l30 174h-156zM327 448l-30 -174h145l30 174h-145z" />
<glyph unicode="$" horiz-adv-x="327" d="M257 182q0 -107 -95 -157l15 -96l-33 -6l-14 88q-32 -12 -73 -18l-21 50q163 22 163 138q0 36 -23 75t-51 68t-51 69.5t-23 79.5q0 81 66 152l-16 104l33 6l13 -82q32 26 75 42l20 -51q-58 -25 -95.5 -72.5t-37.5 -95.5q0 -27 15 -55.5t37 -54.5t44 -53.5t37 -61.5 t15 -69z" />
<glyph unicode="%" horiz-adv-x="744" d="M70 571q0 63 44 107.5t108 44.5t108.5 -44.5t44.5 -107.5t-44.5 -107t-108.5 -44t-108 44t-44 107zM120 571q0 -43 29.5 -73t72.5 -30t73 30t30 73t-30 73.5t-73 30.5t-72.5 -30t-29.5 -74zM369 146q0 63 44 107.5t108 44.5t108.5 -44.5t44.5 -107.5t-44.5 -107 t-108.5 -44t-108 44t-44 107zM419 146q0 -43 29.5 -73t72.5 -30t73 30t30 73t-30 73.5t-73 30.5t-72.5 -30t-29.5 -74zM93 26l511 696l40 -30l-511 -696z" />
<glyph unicode="&#x26;" horiz-adv-x="645" d="M442 585q0 -82 -93 -129l-38 31q77 34 77 98q0 45 -34.5 72.5t-88.5 27.5q-52 0 -87 -32.5t-35 -77.5q0 -44 48 -94l323 -337q47 53 65 111l45 -16q-21 -67 -77 -128l96 -100l-44 -31l-90 93q-52 -43 -113.5 -66.5t-116.5 -23.5q-120 0 -180.5 54.5t-60.5 137.5 q0 63 38 117t113 114q-53 53 -78.5 90t-25.5 79q0 65 51 112.5t129 47.5t127.5 -43.5t49.5 -106.5zM279 33q108 0 197 74l-250 262q-130 -97 -130 -194q0 -60 46.5 -101t136.5 -41z" />
<glyph unicode="'" horiz-adv-x="187" d="M127 718l-26 -232h-41v232h67z" />
<glyph unicode="(" horiz-adv-x="317" d="M191 768l47 -29q-106 -176 -106 -389q0 -225 120 -410l-47 -29q-130 201 -130 439q0 226 116 418z" />
<glyph unicode=")" horiz-adv-x="317" d="M79 739l47 29q116 -192 116 -418q0 -238 -130 -439l-47 29q120 185 120 410q0 213 -106 389z" />
<glyph unicode="*" horiz-adv-x="384" d="M334 615l-103 -53l103 -53l-29 -50l-98 62l6 -115h-57l5 115l-97 -62l-29 50l102 53l-102 53l29 50l97 -63l-5 116h57l-6 -116l98 63z" />
<glyph unicode="+" horiz-adv-x="665" d="M66 332v48h241v242h50v-242h242v-48h-242v-251h-50v251h-241z" />
<glyph unicode="," horiz-adv-x="204" d="M26 -139l70 267l78 -26l-103 -256z" />
<glyph unicode="-" horiz-adv-x="365" d="M60 272l17 48h230l-17 -48h-230z" />
<glyph unicode="." horiz-adv-x="229" d="M65 44q0 49 52 49t52 -49t-52 -49t-52 49z" />
<glyph unicode="/" horiz-adv-x="491" d="M60 0l345 739l46 -21l-345 -739z" />
<glyph unicode="0" horiz-adv-x="586" d="M293 -17q-121 0 -186 103t-65 273q0 167 68 271.5t183 104.5t183 -104.5t68 -271.5q0 -170 -65 -273t-186 -103zM293 33q87 0 140 89.5t53 236.5q0 144 -55.5 235t-137.5 91t-137.5 -91t-55.5 -235q0 -147 53 -236.5t140 -89.5z" />
<glyph unicode="1" horiz-adv-x="218" d="M24 624v2l119 112v-738h-53v624h-66z" />
<glyph unicode="2" horiz-adv-x="518" d="M18 0l95 109q180 207 236 293t56 153q0 61 -39 95.5t-100 34.5q-80 0 -185 -68l16 67q87 51 169 51q93 0 145 -51t52 -129q0 -66 -30.5 -124.5t-121.5 -165.5l-186 -217h338l-16 -48h-429z" />
<glyph unicode="3" horiz-adv-x="530" d="M92 633l17 65q73 37 149 37q83 0 133 -45.5t50 -114.5q0 -122 -134 -171q82 -17 132.5 -73.5t50.5 -135.5q0 -84 -59.5 -148t-163.5 -64q-112 0 -222 62l14 50q104 -62 208 -62q84 0 124.5 48t40.5 114q0 79 -55.5 129t-147.5 55l-91 4l9 42q36 -2 78 -2q67 0 112.5 43 t45.5 109q0 41 -31.5 75.5t-93.5 34.5q-83 0 -166 -52z" />
<glyph unicode="4" horiz-adv-x="574" d="M455 156l84 1l-12 -53h-72v-104h-53v104h-366l380 614h39v-562zM124 152l278 3l4 454z" />
<glyph unicode="5" horiz-adv-x="524" d="M474 196q0 -93 -65.5 -153t-164.5 -60q-116 0 -209 68l29 42q76 -60 180 -60q76 0 124 46t48 117q0 101 -75 150.5t-227 60.5l-42 3l29 308h359l-16 -48h-294l-20 -220q151 -2 247.5 -66.5t96.5 -187.5z" />
<glyph unicode="6" horiz-adv-x="552" d="M267 718h80q-75 -56 -142.5 -154.5t-87.5 -187.5q23 41 67 69t103 28q102 0 168.5 -69.5t66.5 -182.5q0 -105 -69.5 -171.5t-167.5 -66.5q-117 0 -178.5 70.5t-61.5 186.5q0 79 23 157.5t55.5 133.5t65 99t55.5 66zM103 240q0 -104 51 -155.5t125 -51.5q41 0 81 16.5 t72 61t32 110.5q0 96 -54 149t-123 53q-72 0 -128 -54.5t-56 -128.5z" />
<glyph unicode="7" horiz-adv-x="475" d="M65 670v48h420l-335 -727l-51 10l310 671z" />
<glyph unicode="8" horiz-adv-x="578" d="M289 735q81 0 137 -46t56 -121q0 -50 -40.5 -95.5t-94.5 -63.5q77 -29 133 -86.5t56 -138.5q0 -83 -67.5 -142t-183.5 -59t-179.5 60t-63.5 150q0 67 53.5 125.5t122.5 89.5q-52 23 -87 65.5t-35 94.5q0 75 56 121t137 46zM154 568q0 -47 34 -84t101 -54q60 21 97.5 57.5 t37.5 80.5q0 48 -38 82.5t-97 34.5t-97 -34.5t-38 -82.5zM100 193q0 -62 45.5 -111t143.5 -49q97 0 143 48t46 103q0 45 -23 82.5t-59 61t-65 36.5t-57 20q-78 -33 -126 -82t-48 -109z" />
<glyph unicode="9" horiz-adv-x="550" d="M273 0h-83q86 69 153.5 158.5t91.5 183.5q-24 -40 -72.5 -62t-102.5 -22q-95 0 -160 63.5t-65 182.5q0 95 67 163t161 68q107 0 174.5 -71.5t67.5 -183.5q0 -79 -24 -157.5t-58 -134t-68 -100t-58 -66.5zM449 496q0 87 -58 138t-122 51q-65 0 -120.5 -47t-55.5 -134 q0 -53 17 -93.5t43.5 -61.5t53.5 -31t53 -10q30 0 61 10t61 30.5t48.5 59t18.5 88.5z" />
<glyph unicode=":" horiz-adv-x="244" d="M75 46q0 49 52 49t52 -49t-52 -49t-52 49zM75 414q0 49 52 49t52 -49t-52 -49t-52 49z" />
<glyph unicode=";" horiz-adv-x="250" d="M50 -139l70 267l78 -26l-103 -256zM90 414q0 49 52 49t52 -49t-52 -49t-52 49z" />
<glyph unicode="&#x3c;" horiz-adv-x="505" d="M124 309l291 -273l-34 -36l-329 309l329 309l34 -36z" />
<glyph unicode="=" horiz-adv-x="613" d="M80 222v48h453v-48h-453zM80 422v48h453v-48h-453z" />
<glyph unicode="&#x3e;" horiz-adv-x="505" d="M381 309l-291 273l34 36l329 -309l-329 -309l-34 36z" />
<glyph unicode="?" horiz-adv-x="410" d="M306 211l-16 -47q-62 19 -99 55t-37 82q0 27 10.5 48.5t26.5 35t34.5 29t34.5 29.5t26.5 37t10.5 51q0 56 -56 94.5t-151 49.5l16 48q114 -15 181.5 -66t67.5 -126q0 -40 -15 -71t-37 -50t-43.5 -35.5t-36.5 -35.5t-15 -40q0 -29 27 -52t71 -36zM164 46q0 49 52 49 t52 -49t-52 -49t-52 49z" />
<glyph unicode="@" horiz-adv-x="764" d="M464 188l-229 8q29 162 143 333h64l40 -296q93 0 133.5 46t40.5 147q0 105 -75 182t-185 77q-118 0 -204 -90t-86 -236t97.5 -234t235.5 -88q106 0 179 31v-58q-75 -23 -178 -23q-173 0 -282.5 101.5t-109.5 270.5q0 166 102.5 271t245.5 105q139 0 228.5 -91t89.5 -218 q0 -107 -55 -172.5t-178 -65.5h-17zM299 238l129 -4l-26 245q-78 -120 -103 -241z" />
<glyph unicode="A" d="M60 0h-52q52 387 251 718h90l134 -718h-51l-29 159h-314q-17 -71 -29 -159zM97 205h298l-92 493q-140 -235 -206 -493z" />
<glyph unicode="B" horiz-adv-x="532" d="M121 377v-329q182 0 253.5 30.5t71.5 128.5q0 50 -23 84t-68.5 52.5t-101.5 26t-132 7.5zM121 670v-251q276 0 276 126q0 68 -66.5 96.5t-209.5 28.5zM68 718h23q182 0 273 -39.5t91 -129.5q0 -62 -45 -100t-117 -48q86 -6 148.5 -55.5t62.5 -132.5q0 -111 -76.5 -162 t-249.5 -51h-110v718z" />
<glyph unicode="C" horiz-adv-x="468" d="M431 718v-51q-54 18 -95 18q-111 0 -176.5 -99.5t-65.5 -261.5q0 -159 60.5 -224t176.5 -65q42 0 107 18v-53q-62 -17 -107 -17q-146 0 -220.5 82t-74.5 259q0 110 32.5 201.5t102 150.5t165.5 59q42 0 95 -17z" />
<glyph unicode="D" horiz-adv-x="566" d="M68 718h17q123 0 227 -54.5t166 -154.5t62 -224q0 -133 -95 -209t-270 -76h-107v718zM482 290q0 146 -106 260t-255 119v-621q188 0 274.5 56t86.5 186z" />
<glyph unicode="E" horiz-adv-x="460" d="M68 0v718h354l-17 -48h-284v-232h290l-17 -48h-273v-342h309l-17 -48h-345z" />
<glyph unicode="F" horiz-adv-x="442" d="M68 0v718h354l-17 -48h-284v-243h281l-17 -48h-264v-379h-53z" />
<glyph unicode="G" horiz-adv-x="536" d="M449 718v-51q-54 18 -100 18q-121 0 -188 -97.5t-67 -263.5q0 -159 59.5 -225t180.5 -66q26 0 94 6v357h53v-396q-74 -17 -147 -17q-149 0 -223.5 83t-74.5 258q0 113 33 204t105.5 149t174.5 58q49 0 100 -17z" />
<glyph unicode="H" horiz-adv-x="600" d="M479 438v280h53v-718h-53v390h-358v-390h-53v718h53v-280h358z" />
<glyph unicode="I" horiz-adv-x="199" d="M73 0v718h53v-718h-53z" />
<glyph unicode="J" horiz-adv-x="298" d="M27 -23l-17 48q93 0 130 25t37 99v569h53v-569q0 -95 -50.5 -133.5t-152.5 -38.5z" />
<glyph unicode="K" horiz-adv-x="512" d="M442 0l-308 420l275 298h67l-281 -301l309 -417h-62zM68 0v718h53v-718h-53z" />
<glyph unicode="L" horiz-adv-x="440" d="M68 0v718h53v-670h309l-18 -48h-344z" />
<glyph unicode="M" horiz-adv-x="685" d="M68 718h53l221 -297l222 297h53v-718h-53v635l-222 -297l-221 297v-635h-53v718z" />
<glyph unicode="N" horiz-adv-x="595" d="M527 0h-53v358l-353 291v-649h-53v718h48l358 -295v295h53v-718z" />
<glyph unicode="O" horiz-adv-x="604" d="M302 685q-95 0 -151.5 -99.5t-56.5 -261.5q0 -146 56.5 -218.5t151.5 -72.5t151.5 72.5t56.5 218.5q0 162 -56.5 261.5t-151.5 99.5zM302 735q85 0 147 -59t90.5 -150.5t28.5 -201.5q0 -161 -71 -251t-195 -90t-195 90t-71 251q0 110 28.5 201.5t90.5 150.5t147 59z" />
<glyph unicode="P" horiz-adv-x="480" d="M68 718h99q137 0 216 -75.5t79 -202.5q0 -132 -86.5 -206t-254.5 -74v-160h-53v718zM121 670v-462q283 0 283 234q0 127 -72.5 177.5t-210.5 50.5z" />
<glyph unicode="Q" horiz-adv-x="624" d="M302 -17q-124 0 -195 90t-71 251q0 113 28 203.5t89.5 149t148.5 58.5q85 0 147 -59t90.5 -150.5t28.5 -201.5q0 -163 -82 -258l138 -112l-45 -48l-131 124q-66 -47 -146 -47zM302 685q-97 0 -152.5 -98.5t-55.5 -262.5q0 -146 56.5 -218.5t151.5 -72.5q94 0 151 76 t57 215q0 161 -57 261t-151 100z" />
<glyph unicode="R" horiz-adv-x="486" d="M202 216l264 -184l-40 -49l-305 233v-216h-53v718h107q139 0 210.5 -53.5t71.5 -156.5q0 -47 -22 -91t-62.5 -81t-79.5 -64t-91 -56zM121 669v-448q19 12 58.5 37.5t55 36t45.5 31.5t42.5 33t31 32t26 37t13.5 38.5t6 45.5q0 48 -21 80.5t-61.5 48.5t-86 22t-109.5 6z " />
<glyph unicode="S" horiz-adv-x="321" d="M271 192q0 -84 -55 -140t-145 -69l-21 50q77 10 120 53.5t43 104.5q0 38 -23 82t-51 78t-51 78.5t-23 83.5q0 68 49.5 132.5t121.5 89.5l20 -51q-58 -25 -95.5 -72.5t-37.5 -95.5q0 -34 23 -76.5t51 -76.5t51 -81t23 -90z" />
<glyph unicode="T" horiz-adv-x="440" d="M440 718l-17 -48h-176v-670h-53v670h-184v48h430z" />
<glyph unicode="U" horiz-adv-x="584" d="M467 240v478h53v-479q0 -125 -62.5 -190.5t-165.5 -65.5t-165.5 65.5t-62.5 190.5v479h53v-478q0 -99 45.5 -153t129.5 -54t129.5 54t45.5 153z" />
<glyph unicode="V" horiz-adv-x="498" d="M15 718h52l184 -670l183 670h52l-195 -709l-73 -26z" />
<glyph unicode="W" horiz-adv-x="742" d="M10 718h52l163 -647l128 444l-51 203h51l163 -648l164 648h51l-180 -711l-63 -24l-111 441l-119 -413l-61 -28z" />
<glyph unicode="X" horiz-adv-x="532" d="M441 718h58l-203 -345l218 -373h-58l-192 333l-185 -333h-57l210 373l-200 345h57l175 -306z" />
<glyph unicode="Y" horiz-adv-x="507" d="M226 0v261l-214 457h55l185 -399l190 399h55l-218 -455v-263h-53z" />
<glyph unicode="Z" horiz-adv-x="518" d="M74 718h394l-329 -670h349l-18 -48h-410l330 670h-316v48z" />
<glyph unicode="[" horiz-adv-x="337" d="M285 796v-48h-125v-800h125v-48h-175v896h175z" />
<glyph unicode="\" horiz-adv-x="487" d="M119 739l296 -742l-47 -18l-297 741z" />
<glyph unicode="]" horiz-adv-x="337" d="M52 748v48h175v-896h-175v48h125v800h-125z" />
<glyph unicode="^" horiz-adv-x="874" d="M421 612h32l361 -596l-43 -26l-334 552l-334 -552l-43 26z" />
<glyph unicode="_" horiz-adv-x="415" d="M15 -48v48h385v-48h-385z" />
<glyph unicode="`" horiz-adv-x="368" d="M249 745l-144 54l27 55l131 -82z" />
<glyph unicode="a" d="M60 0h-52q52 387 251 718h90l134 -718h-51l-29 159h-314q-17 -71 -29 -159zM97 205h298l-92 493q-140 -235 -206 -493z" />
<glyph unicode="b" horiz-adv-x="532" d="M121 377v-329q182 0 253.5 30.5t71.5 128.5q0 50 -23 84t-68.5 52.5t-101.5 26t-132 7.5zM121 670v-251q276 0 276 126q0 68 -66.5 96.5t-209.5 28.5zM68 718h23q182 0 273 -39.5t91 -129.5q0 -62 -45 -100t-117 -48q86 -6 148.5 -55.5t62.5 -132.5q0 -111 -76.5 -162 t-249.5 -51h-110v718z" />
<glyph unicode="c" horiz-adv-x="468" d="M431 718v-51q-54 18 -95 18q-111 0 -176.5 -99.5t-65.5 -261.5q0 -159 60.5 -224t176.5 -65q42 0 107 18v-53q-62 -17 -107 -17q-146 0 -220.5 82t-74.5 259q0 110 32.5 201.5t102 150.5t165.5 59q42 0 95 -17z" />
<glyph unicode="d" horiz-adv-x="566" d="M68 718h17q123 0 227 -54.5t166 -154.5t62 -224q0 -133 -95 -209t-270 -76h-107v718zM482 290q0 146 -106 260t-255 119v-621q188 0 274.5 56t86.5 186z" />
<glyph unicode="e" horiz-adv-x="460" d="M68 0v718h354l-17 -48h-284v-232h290l-17 -48h-273v-342h309l-17 -48h-345z" />
<glyph unicode="f" horiz-adv-x="442" d="M68 0v718h354l-17 -48h-284v-243h281l-17 -48h-264v-379h-53z" />
<glyph unicode="g" horiz-adv-x="536" d="M449 718v-51q-54 18 -100 18q-121 0 -188 -97.5t-67 -263.5q0 -159 59.5 -225t180.5 -66q26 0 94 6v357h53v-396q-74 -17 -147 -17q-149 0 -223.5 83t-74.5 258q0 113 33 204t105.5 149t174.5 58q49 0 100 -17z" />
<glyph unicode="h" horiz-adv-x="600" d="M479 438v280h53v-718h-53v390h-358v-390h-53v718h53v-280h358z" />
<glyph unicode="i" horiz-adv-x="199" d="M73 0v718h53v-718h-53z" />
<glyph unicode="j" horiz-adv-x="298" d="M27 -23l-17 48q93 0 130 25t37 99v569h53v-569q0 -95 -50.5 -133.5t-152.5 -38.5z" />
<glyph unicode="k" horiz-adv-x="512" d="M442 0l-308 420l275 298h67l-281 -301l309 -417h-62zM68 0v718h53v-718h-53z" />
<glyph unicode="l" horiz-adv-x="440" d="M68 0v718h53v-670h309l-18 -48h-344z" />
<glyph unicode="m" horiz-adv-x="685" d="M68 718h53l221 -297l222 297h53v-718h-53v635l-222 -297l-221 297v-635h-53v718z" />
<glyph unicode="n" horiz-adv-x="595" d="M527 0h-53v358l-353 291v-649h-53v718h48l358 -295v295h53v-718z" />
<glyph unicode="o" horiz-adv-x="604" d="M302 685q-95 0 -151.5 -99.5t-56.5 -261.5q0 -146 56.5 -218.5t151.5 -72.5t151.5 72.5t56.5 218.5q0 162 -56.5 261.5t-151.5 99.5zM302 735q85 0 147 -59t90.5 -150.5t28.5 -201.5q0 -161 -71 -251t-195 -90t-195 90t-71 251q0 110 28.5 201.5t90.5 150.5t147 59z" />
<glyph unicode="p" horiz-adv-x="480" d="M68 718h99q137 0 216 -75.5t79 -202.5q0 -132 -86.5 -206t-254.5 -74v-160h-53v718zM121 670v-462q283 0 283 234q0 127 -72.5 177.5t-210.5 50.5z" />
<glyph unicode="q" horiz-adv-x="631" d="M309 -17q-124 0 -195 90t-71 251q0 113 28 203.5t89.5 149t148.5 58.5q85 0 147 -59t90.5 -150.5t28.5 -201.5q0 -163 -82 -258l138 -112l-45 -48l-131 124q-66 -47 -146 -47zM309 685q-97 0 -152.5 -98.5t-55.5 -262.5q0 -146 56.5 -218.5t151.5 -72.5q94 0 151 76 t57 215q0 161 -57 261t-151 100z" />
<glyph unicode="r" horiz-adv-x="486" d="M202 216l264 -184l-40 -49l-305 233v-216h-53v718h107q139 0 210.5 -53.5t71.5 -156.5q0 -47 -22 -91t-62.5 -81t-79.5 -64t-91 -56zM121 669v-448q19 12 58.5 37.5t55 36t45.5 31.5t42.5 33t31 32t26 37t13.5 38.5t6 45.5q0 48 -21 80.5t-61.5 48.5t-86 22t-109.5 6z " />
<glyph unicode="s" horiz-adv-x="321" d="M271 192q0 -84 -55 -140t-145 -69l-21 50q77 10 120 53.5t43 104.5q0 38 -23 82t-51 78t-51 78.5t-23 83.5q0 68 49.5 132.5t121.5 89.5l20 -51q-58 -25 -95.5 -72.5t-37.5 -95.5q0 -34 23 -76.5t51 -76.5t51 -81t23 -90z" />
<glyph unicode="t" horiz-adv-x="440" d="M440 718l-17 -48h-176v-670h-53v670h-184v48h430z" />
<glyph unicode="u" horiz-adv-x="584" d="M467 240v478h53v-479q0 -125 -62.5 -190.5t-165.5 -65.5t-165.5 65.5t-62.5 190.5v479h53v-478q0 -99 45.5 -153t129.5 -54t129.5 54t45.5 153z" />
<glyph unicode="v" horiz-adv-x="498" d="M15 718h52l184 -670l183 670h52l-195 -709l-73 -26z" />
<glyph unicode="w" horiz-adv-x="742" d="M10 718h52l163 -647l128 444l-51 203h51l163 -648l164 648h51l-180 -711l-63 -24l-111 441l-119 -413l-61 -28z" />
<glyph unicode="x" horiz-adv-x="532" d="M441 718h58l-203 -345l218 -373h-58l-192 333l-185 -333h-57l210 373l-200 345h57l175 -306z" />
<glyph unicode="y" horiz-adv-x="507" d="M226 0v261l-214 457h55l185 -399l190 399h55l-218 -455v-263h-53z" />
<glyph unicode="z" horiz-adv-x="518" d="M74 718h394l-329 -670h349l-18 -48h-410l330 670h-316v48z" />
<glyph unicode="{" horiz-adv-x="377" d="M77 314v44h15q34 0 50.5 39.5t16.5 100.5v178q0 61 24.5 90.5t66.5 29.5h63v-48h-63q-41 0 -41 -70v-180q0 -121 -59 -162q59 -42 59 -162v-156q0 -70 41 -70h63v-48h-63q-42 0 -66.5 29.5t-24.5 90.5v154q0 61 -16.5 100.5t-50.5 39.5h-15z" />
<glyph unicode="|" horiz-adv-x="380" d="M165 -20v758h50v-758h-50z" />
<glyph unicode="}" horiz-adv-x="377" d="M300 358v-44h-15q-34 0 -50.5 -39.5t-16.5 -100.5v-154q0 -61 -24.5 -90.5t-66.5 -29.5h-63v48h63q41 0 41 70v156q0 120 59 162q-59 41 -59 162v180q0 70 -41 70h-63v48h63q42 0 66.5 -29.5t24.5 -90.5v-178q0 -61 16.5 -100.5t50.5 -39.5h15z" />
<glyph unicode="~" horiz-adv-x="627" d="M421 308q-58 0 -117.5 32.5t-97.5 32.5q-45 0 -88 -34l-28 31q56 51 116 51q46 0 82.5 -16.5t67.5 -32.5t65 -16q45 0 88 34l28 -31q-56 -51 -116 -51z" />
<glyph unicode="&#xa1;" horiz-adv-x="274" d="M91 0l8 532l50 18v-550h-58zM174 672q0 -49 -52 -49t-52 49t52 49t52 -49z" />
<glyph unicode="&#xa2;" horiz-adv-x="419" d="M221 -107v92q-176 22 -176 245q0 109 46 190.5t130 99.5v95h33v-90q41 0 85 -13v-51q-39 14 -75 14q-75 0 -118 -67.5t-43 -177.5q0 -108 40 -152.5t118 -44.5q40 0 83 14v-51q-42 -13 -83 -13h-7v-90h-33z" />
<glyph unicode="&#xa3;" horiz-adv-x="544" d="M54 0v40q70 31 106.5 70.5t36.5 80.5q0 23 -8.5 50t-18.5 41h-125l14 40h89q-58 103 -58 178q0 79 49.5 128.5t130.5 49.5q83 0 132 -50.5t64 -125.5l-51 -12q-7 25 -15 44.5t-24 43t-43 37t-63 13.5t-62 -13.5t-38 -35t-17 -41t-5 -38.5q0 -66 62 -178h183l-14 -40h-148 q24 -50 24 -91q0 -43 -34.5 -81t-82.5 -62h336v-48h-420z" />
<glyph unicode="&#xa5;" horiz-adv-x="542" d="M226 0v158h-180l12 34h168v81h-180l12 34h144l-190 351h55l185 -339l190 339h55l-194 -351h148l-12 -34h-160v-81h172l-12 -34h-160v-158h-53z" />
<glyph unicode="&#xa7;" horiz-adv-x="433" d="M304 738l24 -44q-105 -57 -156 -140q75 -50 123 -120.5t48 -154.5q0 -91 -65 -170t-165 -129l-22 44q100 49 155 125q-161 111 -161 278q0 99 62.5 179.5t156.5 131.5zM135 427q0 -140 138 -235q20 43 20 87q0 130 -143 229q-15 -38 -15 -81z" />
<glyph unicode="&#xa8;" horiz-adv-x="472" d="M191 791q0 -34 -36 -34t-36 34t36 34t36 -34zM336 791q0 -34 -36 -34t-36 34t36 34t36 -34z" />
<glyph unicode="&#xa9;" horiz-adv-x="533" d="M267 738q101 0 158.5 -69.5t57.5 -171.5t-58 -158t-158 -56q-101 0 -159 56t-58 158t57.5 171.5t159.5 69.5zM336 634v-38q-20 12 -51 12q-37 0 -58 -30.5t-21 -77.5q0 -86 82 -86q30 0 52 10v-39q-35 -10 -57 -10q-128 0 -128 123q0 60 33 104t94 44q32 0 54 -12z M267 702q-81 0 -126.5 -59t-45.5 -146q0 -85 46 -131t126 -46q79 0 125.5 46.5t46.5 130.5q0 87 -46 146t-126 59z" />
<glyph unicode="&#xab;" horiz-adv-x="612" d="M288 90l-233 219l233 219l34 -36l-195 -183l195 -183zM508 90l-233 219l233 219l34 -36l-195 -183l195 -183z" />
<glyph unicode="&#xad;" horiz-adv-x="365" d="M60 272l17 48h230l-17 -48h-230z" />
<glyph unicode="&#xae;" horiz-adv-x="533" d="M267 738q101 0 158.5 -69.5t57.5 -171.5t-58 -158t-158 -56q-101 0 -159 56t-58 158t57.5 171.5t159.5 69.5zM302 462l72 -46l-31 -38l-113 87v-81h-46v255h47q63 0 98.5 -20.5t35.5 -58.5q0 -48 -66 -86q-8 -4 -13 -5q7 0 16 -7zM230 603v-128q26 13 40.5 21.5 t29.5 25.5t15 36q0 45 -85 45zM267 702q-81 0 -126.5 -59t-45.5 -146q0 -85 46 -131t126 -46q79 0 125.5 46.5t46.5 130.5q0 87 -46 146t-126 59z" />
<glyph unicode="&#xb0;" horiz-adv-x="369" d="M60 584q0 57 40.5 98t98.5 41t99 -41t41 -98t-41 -97.5t-99 -40.5t-98.5 40.5t-40.5 97.5zM108 584q0 -38 27 -65.5t64 -27.5q38 0 65 27.5t27 65.5t-27 66t-65 28q-37 0 -64 -28t-27 -66z" />
<glyph unicode="&#xb2;" horiz-adv-x="487" d="M76 384l58 56q34 34 70 68t52 48.5t30.5 30t18.5 26t4 23.5q0 52 -75 52q-54 0 -117 -29l14 59q51 20 104 20q63 0 97.5 -26t34.5 -71q0 -25 -9.5 -43.5t-37.5 -45.5l-125 -120h178l-16 -48h-281z" />
<glyph unicode="&#xb3;" horiz-adv-x="481" d="M108 662l16 59q42 17 104 17q42 0 78.5 -24t36.5 -61q0 -23 -16 -43t-48 -29q92 -26 92 -98q0 -49 -44 -78.5t-106 -29.5q-77 0 -136 28l13 48q58 -26 123 -26q92 0 92 59q0 63 -103 68l-73 3l9 42q28 -1 47 -1q40 0 66 14.5t26 36.5q0 18 -18 29.5t-44 11.5 q-66 0 -115 -26z" />
<glyph unicode="&#xb4;" horiz-adv-x="384" d="M263 799l-144 -54l-14 27l131 82z" />
<glyph unicode="&#xb6;" horiz-adv-x="726" d="M449 0v718h42v-718h-42zM552 0v718h114v-32h-72v-686h-42zM388 718v-718h-42v212q-138 0 -212 66t-74 186q0 118 73.5 186t212.5 68h42z" />
<glyph unicode="&#xb8;" horiz-adv-x="514" d="M258 -155l-20 26q14 1 24 14t10 26q0 29 -17 54h48q14 -23 14 -49t-16 -45.5t-43 -25.5z" />
<glyph unicode="&#xb9;" horiz-adv-x="366" d="M169 384v254h-53l106 100v-354h-53z" />
<glyph unicode="&#xbb;" horiz-adv-x="612" d="M324 90l-34 36l195 183l-195 183l34 36l233 -219zM104 90l-34 36l195 183l-195 183l34 36l233 -219z" />
<glyph unicode="&#xbc;" horiz-adv-x="800" d="M353 58l-2 4l237 283h48v-239h60l-16 -48h-44v-58h-53v58h-230zM448 104l135 2l2 162zM134 28l465 690l42 -28l-465 -690zM169 384v254h-53l106 100v-354h-53z" />
<glyph unicode="&#xbd;" horiz-adv-x="828" d="M111 28l465 690l42 -28l-465 -690zM166 384v254h-53l106 100v-354h-53zM417 0l58 56q25 24 53 51t43 41t31 29.5t23 24t14 18.5t9 17t2 15q0 52 -75 52q-54 0 -117 -29l14 59q51 20 104 20q63 0 97.5 -26t34.5 -71q0 -25 -9.5 -43.5t-37.5 -45.5l-125 -120h178l-16 -48 h-281z" />
<glyph unicode="&#xbe;" horiz-adv-x="851" d="M404 58l-2 4l237 283h48v-239h60l-16 -48h-44v-58h-53v58h-230zM499 104l135 2l2 162zM104 662l16 59q42 17 104 17q42 0 78.5 -24t36.5 -61q0 -23 -16 -43t-48 -29q92 -26 92 -98q0 -49 -44 -78.5t-106 -29.5q-76 0 -136 28l13 48q58 -26 123 -26q92 0 92 59 q0 63 -103 68l-73 3l9 42q28 -1 47 -1q40 0 66 14.5t26 36.5q0 18 -18 29.5t-44 11.5q-66 0 -115 -26zM185 28l465 690l42 -28l-465 -690z" />
<glyph unicode="&#xbf;" horiz-adv-x="410" d="M104 508l16 47q62 -19 99 -55t37 -82q0 -27 -10.5 -48.5t-26.5 -35t-34.5 -29t-34.5 -29.5t-26.5 -37t-10.5 -51q0 -56 56 -94.5t151 -49.5l-16 -48q-114 15 -181.5 66t-67.5 126q0 40 15 71t37 50t43.5 35.5t36.5 35.5t15 40q0 29 -27 52t-71 36zM246 673q0 -49 -52 -49 t-52 49t52 49t52 -49z" />
<glyph unicode="&#xc0;" d="M60 0h-52q52 387 251 718h90l134 -718h-51l-29 159h-314q-17 -71 -29 -159zM97 205h298l-92 493q-140 -235 -206 -493zM308 745l-144 54l27 55l131 -82z" />
<glyph unicode="&#xc1;" d="M60 0h-52q52 387 251 718h90l134 -718h-51l-29 159h-314q-17 -71 -29 -159zM97 205h298l-92 493q-140 -235 -206 -493zM425 799l-144 -54l-14 27l131 82z" />
<glyph unicode="&#xc2;" d="M60 0h-52q52 387 251 718h90l134 -718h-51l-29 159h-314q-17 -71 -29 -159zM97 205h298l-92 493q-140 -235 -206 -493zM293 802l-104 -55l-18 24l119 83h6l119 -83l-18 -24z" />
<glyph unicode="&#xc3;" d="M60 0h-52q52 387 251 718h90l134 -718h-51l-29 159h-314q-17 -71 -29 -159zM97 205h298l-92 493q-140 -235 -206 -493zM255 850q23 0 52 -21.5t51 -21.5q25 0 55 35l22 -24q-36 -57 -95 -57q-23 0 -52 21.5t-51 21.5q-25 0 -55 -35l-22 24q36 57 95 57z" />
<glyph unicode="&#xc4;" d="M60 0h-52q52 387 251 718h90l134 -718h-51l-29 159h-314q-17 -71 -29 -159zM97 205h298l-92 493q-140 -235 -206 -493zM265 791q0 -34 -36 -34t-36 34t36 34t36 -34zM410 791q0 -34 -36 -34t-36 34t36 34t36 -34z" />
<glyph unicode="&#xc5;" horiz-adv-x="500" d="M222 770q0 34 20.5 52.5t54.5 18.5q35 0 55.5 -18.5t20.5 -52.5q0 -37 -25 -53l134 -717h-51l-29 159h-314q-17 -71 -29 -159h-52q51 381 248 712q-33 14 -33 58zM96 205h298l-92 493q-140 -235 -206 -493zM262 770q0 -33 35 -33q36 0 36 33q0 16 -9.5 26t-26.5 10 q-16 0 -25.5 -10t-9.5 -26z" />
<glyph unicode="&#xc6;" horiz-adv-x="783" d="M46 0h-51q113 419 349 718h401l-17 -48h-287v-232h293l-17 -48h-276v-342h312l-17 -48h-348v159h-293q-27 -74 -49 -159zM112 205h276v494q-170 -213 -276 -494z" />
<glyph unicode="&#xc7;" horiz-adv-x="468" d="M431 718v-51q-54 18 -95 18q-111 0 -176.5 -99.5t-65.5 -261.5q0 -159 60.5 -224t176.5 -65q42 0 107 18v-53q-62 -17 -107 -17q-146 0 -220.5 82t-74.5 259q0 110 32.5 201.5t102 150.5t165.5 59q42 0 95 -17zM252 -155l-20 26q14 1 24 14t10 26q0 29 -17 54h48 q14 -23 14 -49t-16 -45.5t-43 -25.5z" />
<glyph unicode="&#xc8;" horiz-adv-x="460" d="M68 0v718h354l-17 -48h-284v-232h290l-17 -48h-273v-342h309l-17 -48h-345zM272 745l-144 54l27 55l131 -82z" />
<glyph unicode="&#xc9;" horiz-adv-x="460" d="M68 0v718h354l-17 -48h-284v-232h290l-17 -48h-273v-342h309l-17 -48h-345zM368 799l-144 -54l-14 27l131 82z" />
<glyph unicode="&#xca;" horiz-adv-x="460" d="M68 0v718h354l-17 -48h-284v-232h290l-17 -48h-273v-342h309l-17 -48h-345zM241 802l-104 -55l-18 24l119 83h6l119 -83l-18 -24z" />
<glyph unicode="&#xcb;" horiz-adv-x="460" d="M68 0v718h354l-17 -48h-284v-232h290l-17 -48h-273v-342h309l-17 -48h-345zM215 791q0 -34 -36 -34t-36 34t36 34t36 -34zM360 791q0 -34 -36 -34t-36 34t36 34t36 -34z" />
<glyph unicode="&#xcc;" horiz-adv-x="199" d="M73 0v718h53v-718h-53zM115 745l-144 54l27 55l131 -82z" />
<glyph unicode="&#xcd;" horiz-adv-x="199" d="M73 0v718h53v-718h-53zM234 799l-144 -54l-14 27l131 82z" />
<glyph unicode="&#xce;" horiz-adv-x="199" d="M73 0v718h53v-718h-53zM100 802l-104 -55l-18 24l119 83h6l119 -83l-18 -24z" />
<glyph unicode="&#xcf;" horiz-adv-x="199" d="M73 0v718h53v-718h-53zM63 791q0 -34 -36 -34t-36 34t36 34t36 -34zM208 791q0 -34 -36 -34t-36 34t36 34t36 -34z" />
<glyph unicode="&#xd0;" horiz-adv-x="586" d="M78 718h17q126 0 232 -54.5t169.5 -154.5t63.5 -224q0 -133 -98 -209t-277 -76h-107v294h-73l17 48h56v376zM502 290q0 146 -109 260t-262 119v-327h159l-17 -48h-142v-246q192 0 281.5 56t89.5 186z" />
<glyph unicode="&#xd1;" horiz-adv-x="595" d="M527 0h-53v358l-353 291v-649h-53v718h48l358 -295v295h53v-718zM260 850q23 0 52 -21.5t51 -21.5q25 0 55 35l22 -24q-36 -57 -95 -57q-23 0 -52 21.5t-51 21.5q-25 0 -55 -35l-22 24q36 57 95 57z" />
<glyph unicode="&#xd2;" horiz-adv-x="604" d="M302 685q-95 0 -151.5 -99.5t-56.5 -261.5q0 -146 56.5 -218.5t151.5 -72.5t151.5 72.5t56.5 218.5q0 162 -56.5 261.5t-151.5 99.5zM302 735q85 0 147 -59t90.5 -150.5t28.5 -201.5q0 -161 -71 -251t-195 -90t-195 90t-71 251q0 110 28.5 201.5t90.5 150.5t147 59z M315 745l-144 54l27 55l131 -82z" />
<glyph unicode="&#xd3;" horiz-adv-x="604" d="M302 685q-95 0 -151.5 -99.5t-56.5 -261.5q0 -146 56.5 -218.5t151.5 -72.5t151.5 72.5t56.5 218.5q0 162 -56.5 261.5t-151.5 99.5zM302 735q85 0 147 -59t90.5 -150.5t28.5 -201.5q0 -161 -71 -251t-195 -90t-195 90t-71 251q0 110 28.5 201.5t90.5 150.5t147 59z M428 799l-144 -54l-14 27l131 82z" />
<glyph unicode="&#xd4;" horiz-adv-x="604" d="M302 685q-95 0 -151.5 -99.5t-56.5 -261.5q0 -146 56.5 -218.5t151.5 -72.5t151.5 72.5t56.5 218.5q0 162 -56.5 261.5t-151.5 99.5zM302 735q85 0 147 -59t90.5 -150.5t28.5 -201.5q0 -161 -71 -251t-195 -90t-195 90t-71 251q0 110 28.5 201.5t90.5 150.5t147 59z M302 802l-104 -55l-18 24l119 83h6l119 -83l-18 -24z" />
<glyph unicode="&#xd5;" horiz-adv-x="604" d="M302 685q-95 0 -151.5 -99.5t-56.5 -261.5q0 -146 56.5 -218.5t151.5 -72.5t151.5 72.5t56.5 218.5q0 162 -56.5 261.5t-151.5 99.5zM302 735q85 0 147 -59t90.5 -150.5t28.5 -201.5q0 -161 -71 -251t-195 -90t-195 90t-71 251q0 110 28.5 201.5t90.5 150.5t147 59z M264 850q23 0 52 -21.5t51 -21.5q25 0 55 35l22 -24q-36 -57 -95 -57q-23 0 -52 21.5t-51 21.5q-25 0 -55 -35l-22 24q36 57 95 57z" />
<glyph unicode="&#xd6;" horiz-adv-x="604" d="M302 685q-95 0 -151.5 -99.5t-56.5 -261.5q0 -146 56.5 -218.5t151.5 -72.5t151.5 72.5t56.5 218.5q0 162 -56.5 261.5t-151.5 99.5zM302 735q85 0 147 -59t90.5 -150.5t28.5 -201.5q0 -161 -71 -251t-195 -90t-195 90t-71 251q0 110 28.5 201.5t90.5 150.5t147 59z M264 791q0 -34 -36 -34t-36 34t36 34t36 -34zM409 791q0 -34 -36 -34t-36 34t36 34t36 -34z" />
<glyph unicode="&#xd7;" horiz-adv-x="672" d="M517 567l35 -35l-181 -181l181 -180l-35 -35l-181 180l-181 -181l-35 35l181 181l-181 182l35 35l181 -182z" />
<glyph unicode="&#xd8;" horiz-adv-x="614" d="M308 735q92 0 159 -70l56 97l32 -20l-62 -108q85 -117 85 -310q0 -161 -72.5 -251t-197.5 -90q-96 0 -161 53l-55 -94l-32 20l59 101q-81 92 -81 261q0 110 30 201.5t92.5 150.5t147.5 59zM520 324q0 158 -57 259l-289 -500q53 -50 134 -50q96 0 154 73t58 218zM308 685 q-96 0 -154 -100t-58 -261q0 -136 52 -210l291 503q-55 68 -131 68z" />
<glyph unicode="&#xd9;" horiz-adv-x="584" d="M467 240v478h53v-479q0 -125 -62.5 -190.5t-165.5 -65.5t-165.5 65.5t-62.5 190.5v479h53v-478q0 -99 45.5 -153t129.5 -54t129.5 54t45.5 153zM327 745l-144 54l27 55l131 -82z" />
<glyph unicode="&#xda;" horiz-adv-x="584" d="M467 240v478h53v-479q0 -125 -62.5 -190.5t-165.5 -65.5t-165.5 65.5t-62.5 190.5v479h53v-478q0 -99 45.5 -153t129.5 -54t129.5 54t45.5 153zM411 799l-144 -54l-14 27l131 82z" />
<glyph unicode="&#xdb;" horiz-adv-x="584" d="M467 240v478h53v-479q0 -125 -62.5 -190.5t-165.5 -65.5t-165.5 65.5t-62.5 190.5v479h53v-478q0 -99 45.5 -153t129.5 -54t129.5 54t45.5 153zM295 802l-104 -55l-18 24l119 83h6l119 -83l-18 -24z" />
<glyph unicode="&#xdc;" horiz-adv-x="584" d="M467 240v478h53v-479q0 -125 -62.5 -190.5t-165.5 -65.5t-165.5 65.5t-62.5 190.5v479h53v-478q0 -99 45.5 -153t129.5 -54t129.5 54t45.5 153zM259 791q0 -34 -36 -34t-36 34t36 34t36 -34zM404 791q0 -34 -36 -34t-36 34t36 34t36 -34z" />
<glyph unicode="&#xdd;" horiz-adv-x="507" d="M226 0v261l-214 457h55l185 -399l190 399h55l-218 -455v-263h-53zM397 799l-144 -54l-14 27l131 82z" />
<glyph unicode="&#xdf;" horiz-adv-x="624" d="M271 192q0 -84 -55 -140t-145 -69l-21 50q77 10 120 53.5t43 104.5q0 38 -23 82t-51 78t-51 78.5t-23 83.5q0 68 49.5 132.5t121.5 89.5l20 -51q-58 -25 -95.5 -72.5t-37.5 -95.5q0 -34 23 -76.5t51 -76.5t51 -81t23 -90zM574 192q0 -84 -55 -140t-145 -69l-21 50 q77 10 120 53.5t43 104.5q0 38 -23 82t-51 78t-51 78.5t-23 83.5q0 68 49.5 132.5t121.5 89.5l20 -51q-58 -25 -95.5 -72.5t-37.5 -95.5q0 -34 23 -76.5t51 -76.5t51 -81t23 -90z" />
<glyph unicode="&#xe0;" d="M60 0h-52q52 387 251 718h90l134 -718h-51l-29 159h-314q-17 -71 -29 -159zM97 205h298l-92 493q-140 -235 -206 -493zM308 745l-144 54l27 55l131 -82z" />
<glyph unicode="&#xe1;" d="M60 0h-52q52 387 251 718h90l134 -718h-51l-29 159h-314q-17 -71 -29 -159zM97 205h298l-92 493q-140 -235 -206 -493zM425 799l-144 -54l-14 27l131 82z" />
<glyph unicode="&#xe2;" d="M60 0h-52q52 387 251 718h90l134 -718h-51l-29 159h-314q-17 -71 -29 -159zM97 205h298l-92 493q-140 -235 -206 -493zM293 802l-104 -55l-18 24l119 83h6l119 -83l-18 -24z" />
<glyph unicode="&#xe3;" d="M60 0h-52q52 387 251 718h90l134 -718h-51l-29 159h-314q-17 -71 -29 -159zM97 205h298l-92 493q-140 -235 -206 -493zM255 850q23 0 52 -21.5t51 -21.5q25 0 55 35l22 -24q-36 -57 -95 -57q-23 0 -52 21.5t-51 21.5q-25 0 -55 -35l-22 24q36 57 95 57z" />
<glyph unicode="&#xe4;" d="M60 0h-52q52 387 251 718h90l134 -718h-51l-29 159h-314q-17 -71 -29 -159zM97 205h298l-92 493q-140 -235 -206 -493zM265 791q0 -34 -36 -34t-36 34t36 34t36 -34zM410 791q0 -34 -36 -34t-36 34t36 34t36 -34z" />
<glyph unicode="&#xe5;" d="M263 770q0 -33 35 -33q36 0 36 33q0 16 -9.5 26t-26.5 10q-16 0 -25.5 -10t-9.5 -26zM60 0h-52q51 381 248 712q-33 14 -33 58q0 34 20.5 52.5t54.5 18.5q35 0 55.5 -18.5t20.5 -52.5q0 -37 -25 -53l134 -717h-51l-29 159h-314q-17 -71 -29 -159zM97 205h298l-92 493 q-140 -235 -206 -493z" />
<glyph unicode="&#xe6;" horiz-adv-x="783" d="M46 0h-51q113 419 349 718h401l-17 -48h-287v-232h293l-17 -48h-276v-342h312l-17 -48h-348v159h-293q-27 -74 -49 -159zM112 205h276v494q-170 -213 -276 -494z" />
<glyph unicode="&#xe7;" horiz-adv-x="468" d="M431 718v-51q-54 18 -95 18q-111 0 -176.5 -99.5t-65.5 -261.5q0 -159 60.5 -224t176.5 -65q42 0 107 18v-53q-62 -17 -107 -17q-146 0 -220.5 82t-74.5 259q0 110 32.5 201.5t102 150.5t165.5 59q42 0 95 -17zM252 -155l-20 26q14 1 24 14t10 26q0 29 -17 54h48 q14 -23 14 -49t-16 -45.5t-43 -25.5z" />
<glyph unicode="&#xe8;" horiz-adv-x="460" d="M68 0v718h354l-17 -48h-284v-232h290l-17 -48h-273v-342h309l-17 -48h-345zM272 745l-144 54l27 55l131 -82z" />
<glyph unicode="&#xe9;" horiz-adv-x="460" d="M68 0v718h354l-17 -48h-284v-232h290l-17 -48h-273v-342h309l-17 -48h-345zM368 799l-144 -54l-14 27l131 82z" />
<glyph unicode="&#xea;" horiz-adv-x="460" d="M68 0v718h354l-17 -48h-284v-232h290l-17 -48h-273v-342h309l-17 -48h-345zM241 802l-104 -55l-18 24l119 83h6l119 -83l-18 -24z" />
<glyph unicode="&#xeb;" horiz-adv-x="460" d="M68 0v718h354l-17 -48h-284v-232h290l-17 -48h-273v-342h309l-17 -48h-345zM215 791q0 -34 -36 -34t-36 34t36 34t36 -34zM360 791q0 -34 -36 -34t-36 34t36 34t36 -34z" />
<glyph unicode="&#xec;" horiz-adv-x="199" d="M73 0v718h53v-718h-53zM115 745l-144 54l27 55l131 -82z" />
<glyph unicode="&#xed;" horiz-adv-x="199" d="M73 0v718h53v-718h-53zM234 799l-144 -54l-14 27l131 82z" />
<glyph unicode="&#xee;" horiz-adv-x="199" d="M73 0v718h53v-718h-53zM100 802l-104 -55l-18 24l119 83h6l119 -83l-18 -24z" />
<glyph unicode="&#xef;" horiz-adv-x="199" d="M73 0v718h53v-718h-53zM63 791q0 -34 -36 -34t-36 34t36 34t36 -34zM208 791q0 -34 -36 -34t-36 34t36 34t36 -34z" />
<glyph unicode="&#xf0;" horiz-adv-x="586" d="M78 718h17q126 0 232 -54.5t169.5 -154.5t63.5 -224q0 -133 -98 -209t-277 -76h-107v294h-73l17 48h56v376zM502 290q0 146 -109 260t-262 119v-327h159l-17 -48h-142v-246q192 0 281.5 56t89.5 186z" />
<glyph unicode="&#xf1;" horiz-adv-x="595" d="M527 0h-53v358l-353 291v-649h-53v718h48l358 -295v295h53v-718zM260 850q23 0 52 -21.5t51 -21.5q25 0 55 35l22 -24q-36 -57 -95 -57q-23 0 -52 21.5t-51 21.5q-25 0 -55 -35l-22 24q36 57 95 57z" />
<glyph unicode="&#xf2;" horiz-adv-x="604" d="M302 685q-95 0 -151.5 -99.5t-56.5 -261.5q0 -146 56.5 -218.5t151.5 -72.5t151.5 72.5t56.5 218.5q0 162 -56.5 261.5t-151.5 99.5zM302 735q85 0 147 -59t90.5 -150.5t28.5 -201.5q0 -161 -71 -251t-195 -90t-195 90t-71 251q0 110 28.5 201.5t90.5 150.5t147 59z M315 745l-144 54l27 55l131 -82z" />
<glyph unicode="&#xf3;" horiz-adv-x="604" d="M302 685q-95 0 -151.5 -99.5t-56.5 -261.5q0 -146 56.5 -218.5t151.5 -72.5t151.5 72.5t56.5 218.5q0 162 -56.5 261.5t-151.5 99.5zM302 735q85 0 147 -59t90.5 -150.5t28.5 -201.5q0 -161 -71 -251t-195 -90t-195 90t-71 251q0 110 28.5 201.5t90.5 150.5t147 59z M428 799l-144 -54l-14 27l131 82z" />
<glyph unicode="&#xf4;" horiz-adv-x="604" d="M302 685q-95 0 -151.5 -99.5t-56.5 -261.5q0 -146 56.5 -218.5t151.5 -72.5t151.5 72.5t56.5 218.5q0 162 -56.5 261.5t-151.5 99.5zM302 735q85 0 147 -59t90.5 -150.5t28.5 -201.5q0 -161 -71 -251t-195 -90t-195 90t-71 251q0 110 28.5 201.5t90.5 150.5t147 59z M302 802l-104 -55l-18 24l119 83h6l119 -83l-18 -24z" />
<glyph unicode="&#xf5;" horiz-adv-x="604" d="M302 685q-95 0 -151.5 -99.5t-56.5 -261.5q0 -146 56.5 -218.5t151.5 -72.5t151.5 72.5t56.5 218.5q0 162 -56.5 261.5t-151.5 99.5zM302 735q85 0 147 -59t90.5 -150.5t28.5 -201.5q0 -161 -71 -251t-195 -90t-195 90t-71 251q0 110 28.5 201.5t90.5 150.5t147 59z M264 850q23 0 52 -21.5t51 -21.5q25 0 55 35l22 -24q-36 -57 -95 -57q-23 0 -52 21.5t-51 21.5q-25 0 -55 -35l-22 24q36 57 95 57z" />
<glyph unicode="&#xf6;" horiz-adv-x="604" d="M302 685q-95 0 -151.5 -99.5t-56.5 -261.5q0 -146 56.5 -218.5t151.5 -72.5t151.5 72.5t56.5 218.5q0 162 -56.5 261.5t-151.5 99.5zM302 735q85 0 147 -59t90.5 -150.5t28.5 -201.5q0 -161 -71 -251t-195 -90t-195 90t-71 251q0 110 28.5 201.5t90.5 150.5t147 59z M264 791q0 -34 -36 -34t-36 34t36 34t36 -34zM409 791q0 -34 -36 -34t-36 34t36 34t36 -34z" />
<glyph unicode="&#xf7;" horiz-adv-x="627" d="M248 568q0 61 65 61q66 0 66 -61t-66 -61q-65 0 -65 61zM62 332v48h503v-48h-503zM248 134q0 61 65 61q66 0 66 -61t-66 -61q-65 0 -65 61z" />
<glyph unicode="&#xf8;" horiz-adv-x="616" d="M310 735q92 0 159 -70l56 97l32 -20l-62 -108q85 -117 85 -310q0 -161 -72.5 -251t-197.5 -90q-96 0 -161 53l-55 -94l-32 20l59 101q-81 92 -81 261q0 110 30 201.5t92.5 150.5t147.5 59zM522 324q0 158 -57 259l-289 -500q53 -50 134 -50q96 0 154 73t58 218zM310 685 q-96 0 -154 -100t-58 -261q0 -136 52 -210l291 503q-55 68 -131 68z" />
<glyph unicode="&#xf9;" horiz-adv-x="584" d="M467 240v478h53v-479q0 -125 -62.5 -190.5t-165.5 -65.5t-165.5 65.5t-62.5 190.5v479h53v-478q0 -99 45.5 -153t129.5 -54t129.5 54t45.5 153zM327 745l-144 54l27 55l131 -82z" />
<glyph unicode="&#xfa;" horiz-adv-x="584" d="M467 240v478h53v-479q0 -125 -62.5 -190.5t-165.5 -65.5t-165.5 65.5t-62.5 190.5v479h53v-478q0 -99 45.5 -153t129.5 -54t129.5 54t45.5 153zM411 799l-144 -54l-14 27l131 82z" />
<glyph unicode="&#xfb;" horiz-adv-x="584" d="M467 240v478h53v-479q0 -125 -62.5 -190.5t-165.5 -65.5t-165.5 65.5t-62.5 190.5v479h53v-478q0 -99 45.5 -153t129.5 -54t129.5 54t45.5 153zM295 802l-104 -55l-18 24l119 83h6l119 -83l-18 -24z" />
<glyph unicode="&#xfc;" horiz-adv-x="584" d="M467 240v478h53v-479q0 -125 -62.5 -190.5t-165.5 -65.5t-165.5 65.5t-62.5 190.5v479h53v-478q0 -99 45.5 -153t129.5 -54t129.5 54t45.5 153zM259 791q0 -34 -36 -34t-36 34t36 34t36 -34zM404 791q0 -34 -36 -34t-36 34t36 34t36 -34z" />
<glyph unicode="&#xfd;" horiz-adv-x="507" d="M226 0v261l-214 457h55l185 -399l190 399h55l-218 -455v-263h-53zM397 799l-144 -54l-14 27l131 82z" />
<glyph unicode="&#xff;" horiz-adv-x="507" d="M226 0v261l-214 457h55l185 -399l190 399h55l-218 -455v-263h-53zM220 791q0 -34 -36 -34t-36 34t36 34t36 -34zM365 791q0 -34 -36 -34t-36 34t36 34t36 -34z" />
<glyph unicode="&#x152;" horiz-adv-x="856" d="M344 735q46 0 112 -17h362l-17 -48h-298v-232h304l-17 -48h-287v-342h323l-17 -48h-352q-66 -17 -131 -17q-135 0 -212.5 90t-77.5 251q0 110 33.5 201.5t105 150.5t169.5 59zM344 685q-114 0 -182 -99.5t-68 -261.5q0 -146 63 -218.5t169 -72.5q62 0 124 18v615 q-58 19 -106 19z" />
<glyph unicode="&#x153;" horiz-adv-x="856" d="M344 735q46 0 112 -17h362l-17 -48h-298v-232h304l-17 -48h-287v-342h323l-17 -48h-352q-66 -17 -131 -17q-135 0 -212.5 90t-77.5 251q0 110 33.5 201.5t105 150.5t169.5 59zM344 685q-114 0 -182 -99.5t-68 -261.5q0 -146 63 -218.5t169 -72.5q62 0 124 18v615 q-58 19 -106 19z" />
<glyph unicode="&#x178;" horiz-adv-x="507" d="M226 0v261l-214 457h55l185 -399l190 399h55l-218 -455v-263h-53zM220 791q0 -34 -36 -34t-36 34t36 34t36 -34zM365 791q0 -34 -36 -34t-36 34t36 34t36 -34z" />
<glyph unicode="&#x2c6;" horiz-adv-x="654" d="M308 802l-104 -55l-18 24l119 83h6l119 -83l-18 -24z" />
<glyph unicode="&#x2dc;" horiz-adv-x="725" d="M301 850q23 0 52 -21.5t51 -21.5q25 0 55 35l22 -24q-36 -57 -95 -57q-23 0 -52 21.5t-51 21.5q-25 0 -55 -35l-22 24q36 57 95 57z" />
<glyph unicode="&#x2000;" horiz-adv-x="427" />
<glyph unicode="&#x2001;" horiz-adv-x="854" />
<glyph unicode="&#x2002;" horiz-adv-x="427" />
<glyph unicode="&#x2003;" horiz-adv-x="854" />
<glyph unicode="&#x2004;" horiz-adv-x="284" />
<glyph unicode="&#x2005;" horiz-adv-x="213" />
<glyph unicode="&#x2006;" horiz-adv-x="142" />
<glyph unicode="&#x2007;" horiz-adv-x="142" />
<glyph unicode="&#x2008;" horiz-adv-x="106" />
<glyph unicode="&#x2009;" horiz-adv-x="170" />
<glyph unicode="&#x200a;" horiz-adv-x="47" />
<glyph unicode="&#x2010;" horiz-adv-x="365" d="M60 272l17 48h230l-17 -48h-230z" />
<glyph unicode="&#x2011;" horiz-adv-x="365" d="M60 272l17 48h230l-17 -48h-230z" />
<glyph unicode="&#x2012;" horiz-adv-x="365" d="M60 272l17 48h230l-17 -48h-230z" />
<glyph unicode="&#x2013;" horiz-adv-x="580" d="M40 272v48h500v-48h-500z" />
<glyph unicode="&#x2014;" horiz-adv-x="1060" d="M30 272v48h1000v-48h-1000z" />
<glyph unicode="&#x2018;" horiz-adv-x="215" d="M173 722l-64 -240l-69 23l94 230z" />
<glyph unicode="&#x2019;" horiz-adv-x="215" d="M42 495l64 240l69 -23l-94 -230z" />
<glyph unicode="&#x201a;" horiz-adv-x="215" d="M36 -134l66 248l78 -25l-97 -238z" />
<glyph unicode="&#x201c;" horiz-adv-x="339" d="M297 722l-64 -240l-69 23l94 230zM173 722l-64 -240l-69 23l94 230z" />
<glyph unicode="&#x201d;" horiz-adv-x="339" d="M42 495l64 240l69 -23l-94 -230zM166 495l64 240l69 -23l-94 -230z" />
<glyph unicode="&#x201e;" horiz-adv-x="339" d="M31 -134l66 248l78 -25l-97 -238zM164 -134l66 248l78 -25l-97 -238z" />
<glyph unicode="&#x2022;" horiz-adv-x="316" d="M80 354q0 73 78 73q37 0 57.5 -18.5t20.5 -54.5t-20.5 -55t-57.5 -19q-78 0 -78 74z" />
<glyph unicode="&#x2026;" horiz-adv-x="747" d="M65 44q0 49 52 49t52 -49t-52 -49t-52 49zM319 44q0 49 52 49t52 -49t-52 -49t-52 49zM583 44q0 49 52 49t52 -49t-52 -49t-52 49z" />
<glyph unicode="&#x202f;" horiz-adv-x="170" />
<glyph unicode="&#x2039;" horiz-adv-x="392" d="M288 90l-233 219l233 219l34 -36l-195 -183l195 -183z" />
<glyph unicode="&#x203a;" horiz-adv-x="392" d="M104 90l-34 36l195 183l-195 183l34 36l233 -219z" />
<glyph unicode="&#x205f;" horiz-adv-x="213" />
<glyph unicode="&#x20ac;" horiz-adv-x="559" d="M20 364l12 34h72q19 128 94.5 204t198.5 76q42 0 95 -17v-51q-54 18 -95 18q-95 0 -156 -58.5t-80 -171.5h284l-12 -34h-276q-3 -27 -3 -60l1 -26h290l-12 -34h-275q12 -117 70 -164t159 -47q57 0 112 18v-51q-56 -17 -112 -17q-130 0 -202.5 61t-85.5 200h-79l12 34h65 q-1 11 -1 26q0 33 3 60h-79z" />
<glyph unicode="&#x2122;" horiz-adv-x="742" d="M312 718l-16 -44h-100v-290h-47v290h-109v44h272zM616 718h46v-334h-47v262l-102 -130l-102 129v-261h-47v334h46l103 -132z" />
<glyph unicode="&#x25fc;" horiz-adv-x="720" d="M0 720h720v-720h-720v720z" />
<glyph unicode="&#xfb01;" horiz-adv-x="641" d="M68 0v718h354l-17 -48h-284v-243h281l-17 -48h-264v-379h-53zM515 0v718h53v-718h-53z" />
<glyph unicode="&#xfb02;" horiz-adv-x="882" d="M68 0v718h354l-17 -48h-284v-243h281l-17 -48h-264v-379h-53zM510 0v718h53v-670h309l-18 -48h-344z" />
</font>
</defs>
</svg>
